<svg width="32" height="32" viewBox="0 0 32 32" fill="none" xmlns="http://www.w3.org/2000/svg">
<path d="M14.2234 4.29532C14.7826 2.56822 17.2174 2.56823 17.7766 4.29533L19.5649 9.81851C19.8149 10.5909 20.5322 11.1138 21.3414 11.1138H27.1284C28.938 11.1138 29.6904 13.4376 28.2264 14.505L23.5446 17.9185C22.8899 18.3959 22.616 19.242 22.866 20.0144L24.6543 25.5376C25.2135 27.2647 23.2437 28.7009 21.7797 27.6335L17.098 24.22C16.4433 23.7426 15.5567 23.7426 14.902 24.22L10.2203 27.6335C8.75627 28.7009 6.78649 27.2647 7.34568 25.5376L9.13395 20.0144C9.38403 19.242 9.11007 18.3959 8.45536 17.9185L3.7736 14.505C2.30961 13.4376 3.06201 11.1138 4.8716 11.1138H10.6586C11.4678 11.1138 12.1851 10.5909 12.4351 9.8185L14.2234 4.29532Z" fill="black" fill-opacity="0.3"/>
</svg>
