<svg width="80" height="80" viewBox="0 0 80 80" fill="none" xmlns="http://www.w3.org/2000/svg">
<path d="M76 35.0315C76 26.4591 68.7963 19.5077 59.9163 19.5077C58.7149 19.5077 57.5455 19.6405 56.4218 19.8786C54.1332 12.9823 47.6513 8 40 8C32.3487 8 25.8668 12.9823 23.5828 19.8832C22.4545 19.6405 21.2897 19.5123 20.0883 19.5123C11.2037 19.5077 4 26.4591 4 35.0315C4 42.395 9.31709 48.5587 16.4477 50.1523V72H63.6437V50.1339C70.7286 48.5083 76 42.3675 76 35.0361V35.0315Z" fill="white"/>
<path d="M44.3441 41.4242V31.8993H36.5832V41.4242H36.5786V49.1998H53.343V41.4242H44.3441Z" fill="black"/>
</svg>
