<svg width="32" height="32" viewBox="0 0 32 32" fill="none" xmlns="http://www.w3.org/2000/svg">
<path d="M8.68046 7.52367C9.13788 6.97046 9.76161 6.75095 10.43 6.8206C11.1128 6.89175 11.8587 7.27113 12.4676 7.95747C12.4747 7.96551 12.4821 7.97336 12.4896 7.98102L13.7624 9.27465C14.0045 9.5207 14.4002 9.52392 14.6462 9.28184C14.8923 9.03975 14.8955 8.64404 14.6534 8.39798L13.3916 7.11549C12.6069 6.23653 11.5906 5.68477 10.5595 5.57733C9.50915 5.46787 8.46226 5.82596 7.71712 6.72712C7.10944 7.46204 6.77113 8.2679 6.89578 9.18205C7.01561 10.0608 7.54922 10.9182 8.39088 11.8107C8.39851 11.8188 8.40634 11.8266 8.41438 11.8343L9.74977 13.1071C9.99964 13.3452 10.3953 13.3357 10.6334 13.0858C10.8716 12.836 10.8621 12.4404 10.6122 12.2022L9.28904 10.9411C8.52451 10.1277 8.20184 9.50833 8.13432 9.01316C8.0713 8.55098 8.21672 8.0845 8.68046 7.52367Z" fill="#7D4533"/>
<path d="M23.315 7.52367C22.8576 6.97046 22.2339 6.75095 21.5655 6.8206C20.8826 6.89175 20.1368 7.27113 19.5279 7.95747C19.5207 7.96551 19.5134 7.97336 19.5059 7.98102L18.2331 9.27465C17.991 9.5207 17.5953 9.52392 17.3492 9.28184C17.1032 9.03975 17.1 8.64404 17.3421 8.39798L18.6039 7.11549C19.3886 6.23653 20.4049 5.68477 21.4359 5.57733C22.4863 5.46787 23.5332 5.82596 24.2783 6.72712C24.886 7.46204 25.2243 8.2679 25.0997 9.18205C24.9799 10.0608 24.4462 10.9182 23.6046 11.8107C23.597 11.8188 23.5891 11.8266 23.5811 11.8343L22.2457 13.1071C21.9958 13.3452 21.6002 13.3357 21.3621 13.0858C21.1239 12.836 21.1334 12.4404 21.3833 12.2022L22.7064 10.9411C23.471 10.1277 23.7936 9.50833 23.8611 9.01316C23.9242 8.55098 23.7787 8.0845 23.315 7.52367Z" fill="#7D4533"/>
<path d="M13.4545 6.45549C13.1003 4.75467 12.9998 3.99992 12.9998 3.99992L13.0427 3.92505H18.9027L18.9998 3.99992C18.9998 3.99992 18.8993 4.75467 18.545 6.45549C18.1908 8.15631 17.9877 9.16106 18.9998 9.78508L19.1056 9.8502C20.3297 10.6029 22.5101 11.9437 23.2478 14.6249L23.2263 14.6718L23.3669 15.3437L23.4091 15.3749C23.447 15.6153 23.4737 15.8651 23.4879 16.1249L23.4529 16.164V16.828L23.4966 16.8749C23.4818 17.5246 23.4117 18.0494 23.2263 18.6249L23.1755 18.6562L22.906 19.3241L22.9338 19.3749C22.6275 20.0563 22.1657 20.8741 21.4782 22.0332C19.7738 24.907 18.4998 27.4999 18.4998 27.4999L18.4269 27.5667H13.5599L13.4998 27.4999C13.4998 27.4999 12.2257 24.907 10.5213 22.0332C9.83385 20.8741 9.37208 20.0563 9.06578 19.3749L9.0896 19.3241L8.81616 18.6601L8.77327 18.6249C8.5878 18.0494 8.51773 17.5246 8.50293 16.8749L8.54272 16.8398V16.1757L8.51164 16.1249C8.52585 15.8651 8.55256 15.6153 8.59045 15.3749L8.62866 15.3476L8.77327 14.6601L8.75173 14.6249C9.48947 11.9437 11.6699 10.6029 12.894 9.8502L12.9998 9.78508C14.0119 9.16106 13.8088 8.15631 13.4545 6.45549Z" fill="#B97028"/>
<path d="M12.75 2C12.1977 2 11.75 2.44772 11.75 3C11.75 3.55228 12.1977 4 12.75 4H19.25C19.8023 4 20.25 3.55228 20.25 3C20.25 2.44772 19.8023 2 19.25 2H12.75Z" fill="#8C5543"/>
<path d="M13.5 27.5H18.5L19.5 29C20 29.75 19.5 30 19 30H13C12.5 30 12 29.75 12.5 29L13.5 27.5Z" fill="#8C5543"/>
<path d="M23.248 14.625H21C20.7929 14.625 20.625 14.7929 20.625 15V16.5C20.625 16.7071 20.7929 16.875 21 16.875H23.4968C23.499 16.7805 23.5 16.6834 23.5 16.5831C23.5003 16.4271 23.4963 16.2744 23.4881 16.125H21.375V15.375H23.4093C23.3682 15.114 23.3139 14.8642 23.248 14.625Z" fill="#6D4534"/>
<path d="M23.2265 18.625H19.875V15C19.875 14.7929 19.7071 14.625 19.5 14.625H14C13.7929 14.625 13.625 14.7929 13.625 15V16.5C13.625 16.7071 13.7929 16.875 14 16.875H17.125V18.625H12.875V15C12.875 14.7929 12.7071 14.625 12.5 14.625H8.75196C8.68616 14.8642 8.63183 15.114 8.59068 15.375H12.125V19C12.125 19.2071 12.2929 19.375 12.5 19.375H17.5C17.7071 19.375 17.875 19.2071 17.875 19V16.5C17.875 16.2929 17.7071 16.125 17.5 16.125H14.375V15.375H19.125V19C19.125 19.2071 19.2929 19.375 19.5 19.375H22.934C23.0539 19.1082 23.15 18.8623 23.2265 18.625Z" fill="#6D4534"/>
<path d="M9.06601 19.375H10.5C10.7071 19.375 10.875 19.2071 10.875 19V16.5C10.875 16.2929 10.7071 16.125 10.5 16.125H8.51187C8.5037 16.2744 8.49967 16.4271 8.50002 16.5831C8.50002 16.6834 8.50101 16.7805 8.50316 16.875H10.125V18.625H8.7735C8.84998 18.8623 8.94608 19.1082 9.06601 19.375Z" fill="#6D4534"/>
</svg>
