<svg width="36" height="36" viewBox="0 0 36 36" fill="none" xmlns="http://www.w3.org/2000/svg">
<path d="M28.7776 22.8712C28.9576 20.745 28.4064 18.6862 29.9139 17.1787L30.8476 16.245C33.5026 13.59 33.5026 9.26996 30.8476 6.61496L28.7551 4.52246L27.2476 6.02996C25.5714 6.07496 23.9064 6.73871 22.6239 8.02121L22.3876 8.24621C20.8801 9.75371 18.8889 10.6762 16.7739 10.8562C13.9614 11.0925 11.3289 12.3187 9.32637 14.3212C5.98512 17.6625 5.07387 22.5112 6.60387 26.6737L5.83887 27.4387L8.70762 30.3075C13.2976 34.8975 20.7339 34.8975 25.3239 30.3075C27.3151 28.3162 28.5414 25.6837 28.7776 22.8712Z" fill="#44911B"/>
<path d="M23.2425 2.25C21.1725 2.25 19.215 3.06 17.7525 4.5225L17.55 4.73625C16.4813 5.805 15.0525 6.46875 13.5337 6.60375C10.62 6.85125 7.88625 8.1225 5.8275 10.1813C3.52125 12.4875 2.25 15.5588 2.25 18.81C2.25 22.0725 3.52125 25.1325 5.8275 27.4387C8.13375 29.745 11.1938 31.0163 14.4563 31.0163C17.7188 31.0163 20.7788 29.745 23.085 27.4387C25.1438 25.38 26.4262 22.635 26.6737 19.7325C26.7975 18.2137 27.4613 16.7963 28.5413 15.7163L28.755 15.5025C30.2175 14.04 31.0275 12.0825 31.0275 10.0125C31.0275 7.9425 30.2175 5.985 28.755 4.5225C27.27 3.06 25.3237 2.25 23.2425 2.25Z" fill="#008463"/>
<path d="M27.3603 14.5462L27.574 14.3324C29.959 11.9474 29.959 8.07744 27.574 5.69244C25.189 3.30744 21.319 3.30744 18.934 5.69244L18.7203 5.90619C17.3703 7.25619 15.5815 8.08869 13.6803 8.24619C11.149 8.45994 8.78654 9.56244 6.99779 11.3512C2.88029 15.4687 2.88029 22.1399 6.99779 26.2574C11.1153 30.3749 17.7865 30.3749 21.904 26.2574C23.6928 24.4687 24.7953 22.1062 25.009 19.5749C25.1778 17.6849 26.0103 15.8962 27.3603 14.5462Z" fill="#C3EF3C"/>
<path d="M14.9514 23.2762C17.6603 23.2762 19.8564 21.0801 19.8564 18.3712C19.8564 15.6622 17.6603 13.4662 14.9514 13.4662C12.2424 13.4662 10.0464 15.6622 10.0464 18.3712C10.0464 21.0801 12.2424 23.2762 14.9514 23.2762Z" fill="#6D4534"/>
</svg>
