<svg width="32" height="32" viewBox="0 0 32 32" fill="none" xmlns="http://www.w3.org/2000/svg">
<path d="M6.26988 3.3L5.58988 2.62C4.76988 1.8 3.43988 1.8 2.61988 2.62C1.79988 3.44 1.79988 4.77 2.61988 5.59L3.29988 6.27C3.55988 6.53 3.65988 6.92 3.53988 7.28L2.99988 8.89C2.75988 9.6 2.94988 10.38 3.47988 10.9L4.09988 11.53H4.16785L8.36388 8.35511L11.5299 4.19531V4.1L10.8999 3.48C10.3799 2.95 9.59988 2.76 8.88988 3L7.27988 3.54C6.91988 3.66 6.52988 3.56 6.26988 3.3Z" fill="#FCD53F"/>
<path d="M19.3301 5.21998C19.3201 5.20998 19.3201 5.20998 19.3101 5.19998L19.2801 5.16998C17.7633 3.69944 15.3997 3.60606 13.7715 4.88194C13.6392 4.98558 13.1602 4.72 13.0385 4.84172L4.8685 13.0117C4.74145 13.1388 4.97586 13.6503 4.8685 13.7888C3.60687 15.4164 3.7048 17.7686 5.1701 19.28L5.2201 19.33L14.5101 28.62C16.3601 30.47 19.3501 30.47 21.2001 28.62L28.6301 21.19C30.4801 19.34 30.4801 16.35 28.6301 14.5C28.6201 14.49 28.6101 14.48 28.6001 14.47L19.3701 5.23998C19.3501 5.22998 19.3401 5.21998 19.3301 5.21998Z" fill="#FBB8AB"/>
<path d="M18.46 6.44001C18.38 6.39001 18.31 6.33001 18.24 6.26001C17.18 5.24001 15.49 5.25001 14.45 6.29001L6.27996 14.46C5.24996 15.5 5.22996 17.2 6.24996 18.25C6.25996 18.27 6.26996 18.28 6.27996 18.29L9.21705 21.2271C9.18345 21.1856 9.21448 21.1536 9.18705 21.1093C8.82816 20.5301 8.99365 19.7411 9.6015 19.3711L22.7867 11.5247C22.9748 11.4071 23.2122 11.4063 23.4023 11.5078C23.4547 11.5358 23.5068 11.5068 23.55 11.55L18.46 6.44001Z" fill="#FFE5D9"/>
<path d="M15.5496 27.57L9.2996 21.32C8.7296 20.74 8.8496 19.78 9.5396 19.36L22.7896 11.46C23.0296 11.31 23.3496 11.35 23.5496 11.55L27.5396 15.58C28.7996 16.83 28.7996 18.88 27.5396 20.14L20.1096 27.57C18.8496 28.83 16.8096 28.83 15.5496 27.57Z" fill="#F4F4F4"/>
<path d="M11.5796 4.05L4.04965 11.58C3.66965 11.96 3.66965 12.59 4.04965 12.97L4.86819 13.7885C4.9755 13.6501 5.09265 13.517 5.21962 13.39L13.3896 5.21998C13.5131 5.09645 13.6426 4.98222 13.7769 4.8773L12.9596 4.06C12.5796 3.67 11.9596 3.67 11.5796 4.05Z" fill="#E39D89"/>
<path d="M11.6297 14.47L9.85965 16.24C9.56965 16.53 9.56965 17.01 9.85965 17.3C10.1497 17.59 10.6297 17.59 10.9197 17.3L12.6897 15.53C12.9797 15.24 12.9797 14.76 12.6897 14.47C12.3997 14.17 11.9297 14.17 11.6297 14.47Z" fill="#E39D89"/>
<path d="M14.9896 17.83L13.2196 19.6C12.9296 19.89 12.9296 20.37 13.2196 20.66C13.5096 20.95 13.9896 20.95 14.2796 20.66L16.0496 18.89C16.3396 18.6 16.3396 18.12 16.0496 17.83C15.7596 17.53 15.2896 17.53 14.9896 17.83Z" fill="#E39D89"/>
<path d="M18.3496 21.18L16.5796 22.95C16.2896 23.24 16.2896 23.72 16.5796 24.01C16.8696 24.3 17.3496 24.3 17.6396 24.01L19.4096 22.24C19.6996 21.95 19.6996 21.47 19.4096 21.18C19.1196 20.89 18.6496 20.89 18.3496 21.18Z" fill="#E39D89"/>
</svg>
