<svg width="32" height="32" viewBox="0 0 32 32" fill="none" xmlns="http://www.w3.org/2000/svg">
<path d="M28.9926 16.9536C28.9926 22.1702 24.7499 25.3299 19.5432 25.3299H19.4339C14.3267 25.3299 10.1535 22.3391 9.98455 17.2716V20.2326C9.98455 20.3419 9.97461 20.4412 9.97461 20.5505C9.97461 25.7671 14.2174 29.9999 19.424 29.9999H19.5333C24.7499 29.9999 28.9827 25.7572 28.9827 20.5505C28.9827 20.4412 28.9827 20.3419 28.9728 20.2326H28.9827V16.9536H28.9926Z" fill="#E19747"/>
<path d="M19.4843 8.05071L21.2032 7.95135C22.0081 7.90167 22.803 8.16001 23.429 8.6767L24.7604 9.75975C24.8598 9.83924 24.9591 9.9088 25.0585 9.97835L26.4993 10.9024C27.1749 11.3396 27.6718 12.0153 27.8705 12.7903L28.3077 14.4497C28.3375 14.5689 28.3772 14.6881 28.417 14.7974L29.043 16.3972C29.3311 17.1523 29.3311 17.9771 29.043 18.7322L28.417 20.332C28.3772 20.4512 28.3375 20.5605 28.3077 20.6797L27.8705 22.3391C27.6618 23.1141 27.1749 23.7898 26.4993 24.227L25.0585 25.151C24.9591 25.2206 24.8598 25.2902 24.7604 25.3696L23.429 26.4527C22.803 26.9595 22.0081 27.2178 21.2032 27.1781L19.4843 27.0787C19.365 27.0688 19.2358 27.0688 19.1166 27.0787L17.3976 27.1781C16.5928 27.2277 15.7979 26.9694 15.1719 26.4527L13.8404 25.3696C13.7411 25.2902 13.6417 25.2206 13.5424 25.151L12.1016 24.227C11.4259 23.7898 10.9291 23.1141 10.7304 22.3391L10.2932 20.6797C10.2634 20.5605 10.2236 20.4413 10.1839 20.332L9.55791 18.7421C9.26976 17.987 9.26976 17.1623 9.55791 16.4071L10.1839 14.8074C10.2236 14.6881 10.2634 14.5788 10.2932 14.4596L10.7304 12.8003C10.9391 12.0252 11.4259 11.3496 12.1016 10.9124L13.5424 9.98829C13.6417 9.91873 13.7411 9.84918 13.8404 9.76969L15.1719 8.68663C15.7979 8.17988 16.5928 7.92154 17.3976 7.96129L19.1166 8.06065C19.2358 8.05071 19.3551 8.05071 19.4843 8.05071Z" fill="#FFE5D9"/>
<path d="M20.0507 21.0076H19.0472C17.7157 21.0076 16.6426 19.9246 16.6426 18.6031C16.6426 17.2716 17.7256 16.1985 19.0472 16.1985H20.0507C21.3822 16.1985 22.4553 17.2815 22.4553 18.6031C22.4652 19.9246 21.3822 21.0076 20.0507 21.0076Z" fill="#6D4534"/>
<path d="M8.41476 2.95337L8.3154 2.99312C3.63541 5.27846 1.66803 10.9421 3.95337 15.6321C3.99312 15.7314 4.0428 15.8209 4.09248 15.9103C6.45732 20.3915 11.9918 22.2298 16.5824 20.004L16.6817 19.9543C21.3717 17.6789 23.3291 12.0053 21.0537 7.3154C18.7783 2.63541 13.1047 0.668031 8.41476 2.95337Z" fill="#F3AD61"/>
<path d="M17.9041 6.63988C17.9041 6.91426 17.6817 7.13669 17.4073 7.13669C17.1329 7.13669 16.9105 6.91426 16.9105 6.63988C16.9105 6.3655 17.1329 6.14307 17.4073 6.14307C17.6817 6.14307 17.9041 6.3655 17.9041 6.63988Z" fill="#402A32"/>
<path d="M5.56322 12.0451C5.8376 12.0451 6.06003 11.8227 6.06003 11.5483C6.06003 11.2739 5.8376 11.0515 5.56322 11.0515C5.28884 11.0515 5.06641 11.2739 5.06641 11.5483C5.06641 11.8227 5.28884 12.0451 5.56322 12.0451Z" fill="#402A32"/>
<path d="M12.4988 18.9906C12.7732 18.9906 12.9956 18.7681 12.9956 18.4938C12.9956 18.2194 12.7732 17.9969 12.4988 17.9969C12.2244 17.9969 12.002 18.2194 12.002 18.4938C12.002 18.7681 12.2244 18.9906 12.4988 18.9906Z" fill="#402A32"/>
<path d="M10.8693 7.92155C11.1437 7.92155 11.3661 7.69911 11.3661 7.42473C11.3661 7.15035 11.1437 6.92792 10.8693 6.92792C10.5949 6.92792 10.3725 7.15035 10.3725 7.42473C10.3725 7.69911 10.5949 7.92155 10.8693 7.92155Z" fill="#402A32"/>
<path d="M14.635 15.6819C14.635 15.9563 14.4126 16.1787 14.1382 16.1787C13.8638 16.1787 13.6414 15.9563 13.6414 15.6819C13.6414 15.4075 13.8638 15.1851 14.1382 15.1851C14.4126 15.1851 14.635 15.4075 14.635 15.6819Z" fill="#402A32"/>
<path d="M8.36531 13.6847C8.6397 13.6847 8.86213 13.4622 8.86213 13.1879C8.86213 12.9135 8.6397 12.691 8.36531 12.691C8.09093 12.691 7.8685 12.9135 7.8685 13.1879C7.8685 13.4622 8.09093 13.6847 8.36531 13.6847Z" fill="#402A32"/>
<path d="M17.1291 9.91875C17.1291 10.1931 16.9066 10.4156 16.6323 10.4156C16.3579 10.4156 16.1354 10.1931 16.1354 9.91875C16.1354 9.64437 16.3579 9.42194 16.6323 9.42194C16.9066 9.42194 17.1291 9.64437 17.1291 9.91875Z" fill="#402A32"/>
<path d="M12.4991 5.10959C12.7735 5.10959 12.9959 4.88716 12.9959 4.61278C12.9959 4.3384 12.7735 4.11597 12.4991 4.11597C12.2248 4.11597 12.0023 4.3384 12.0023 4.61278C12.0023 4.88716 12.2248 5.10959 12.4991 5.10959Z" fill="#FFF3D7"/>
<path d="M7.59056 7.13663C7.86495 7.13663 8.08738 6.9142 8.08738 6.63982C8.08738 6.36544 7.86495 6.14301 7.59056 6.14301C7.31618 6.14301 7.09375 6.36544 7.09375 6.63982C7.09375 6.9142 7.31618 7.13663 7.59056 7.13663Z" fill="#FFF3D7"/>
<path d="M17.9044 16.4568C17.9044 16.7312 17.682 16.9536 17.4076 16.9536C17.1332 16.9536 16.9108 16.7312 16.9108 16.4568C16.9108 16.1825 17.1332 15.96 17.4076 15.96C17.682 15.96 17.9044 16.1825 17.9044 16.4568Z" fill="#FFF3D7"/>
<path d="M19.4446 12.0451C19.719 12.0451 19.9414 11.8226 19.9414 11.5483C19.9414 11.2739 19.719 11.0515 19.4446 11.0515C19.1702 11.0515 18.9478 11.2739 18.9478 11.5483C18.9478 11.8226 19.1702 12.0451 19.4446 12.0451Z" fill="#FFF3D7"/>
<path d="M8.08738 16.4568C8.08738 16.7312 7.86495 16.9536 7.59056 16.9536C7.31618 16.9536 7.09375 16.7312 7.09375 16.4568C7.09375 16.1825 7.31618 15.96 7.59056 15.96C7.86495 15.96 8.08738 16.1825 8.08738 16.4568Z" fill="#FFF3D7"/>
<path d="M8.42516 10.2864C8.69954 10.2864 8.92197 10.0639 8.92197 9.78954C8.92197 9.51516 8.69954 9.29272 8.42516 9.29272C8.15078 9.29272 7.92834 9.51516 7.92834 9.78954C7.92834 10.0639 8.15078 10.2864 8.42516 10.2864Z" fill="#FFF3D7"/>
<path d="M17.0797 13.3169C17.0797 13.5913 16.8573 13.8138 16.5829 13.8138C16.3086 13.8138 16.0861 13.5913 16.0861 13.3169C16.0861 13.0426 16.3086 12.8201 16.5829 12.8201C16.8573 12.8201 17.0797 13.0426 17.0797 13.3169Z" fill="#FFF3D7"/>
<path d="M10.7305 16.1289C11.0048 16.1289 11.2273 15.9065 11.2273 15.6321C11.2273 15.3577 11.0048 15.1353 10.7305 15.1353C10.4561 15.1353 10.2336 15.3577 10.2336 15.6321C10.2336 15.9065 10.4561 16.1289 10.7305 16.1289Z" fill="#FFF3D7"/>
<path d="M14.7645 7.47441C14.7645 7.7488 14.5421 7.97123 14.2677 7.97123C13.9933 7.97123 13.7709 7.7488 13.7709 7.47441C13.7709 7.20003 13.9933 6.9776 14.2677 6.9776C14.5421 6.9776 14.7645 7.20003 14.7645 7.47441Z" fill="#FFF3D7"/>
<path d="M13.0947 13.9627H12.0911C10.7596 13.9627 9.68652 12.8797 9.68652 11.5581C9.68652 10.2267 10.7696 9.15356 12.0911 9.15356H13.0947C14.4261 9.15356 15.4992 10.2366 15.4992 11.5581C15.5092 12.8797 14.4261 13.9627 13.0947 13.9627Z" fill="#6D4534"/>
</svg>
