<svg width="32" height="32" viewBox="0 0 32 32" fill="none" xmlns="http://www.w3.org/2000/svg">
<path d="M17.2308 5.84615L17.0769 6V8.07692H15L12.5769 10.5L12.5 12.5L10.5 12.5769L8.07692 15L8 17L6.00391 17.0781L5.84615 17.2308C3.38462 19.6923 3.38462 23.6923 5.84615 26.1538C8.30769 28.6154 12.3077 28.6154 14.7692 26.1538L26.1538 14.7692C28.6154 12.3077 28.6154 8.30769 26.1538 5.84615C23.6923 3.38462 19.7009 3.38462 17.2308 5.84615Z" fill="#F3AD61"/>
<path d="M5.97461 17.1029L10.4132 21.5414C11.0245 22.1528 12.0081 22.1528 12.6195 21.5414C13.2308 20.9389 13.2308 19.9465 12.6195 19.3351L8.1809 14.8966L5.97461 17.1029Z" fill="#FFF3D7"/>
<path d="M10.4359 12.6416L14.8789 17.0846C15.4903 17.696 16.4738 17.696 17.0852 17.0846C17.6877 16.4732 17.6877 15.4897 17.0852 14.8783L12.6422 10.4353L10.4359 12.6416Z" fill="#FFF3D7"/>
<path d="M14.8972 8.18029L19.3358 12.6188C19.9472 13.2302 20.9307 13.2302 21.5421 12.6188C22.1534 12.0074 22.1534 11.0239 21.5421 10.4125L17.1035 5.974L14.8972 8.18029Z" fill="#FFF3D7"/>
</svg>
