<svg width="36" height="36" viewBox="0 0 36 36" fill="none" xmlns="http://www.w3.org/2000/svg">
<path d="M2.25 29.7353C2.25 28.9141 2.9157 28.2484 3.73688 28.2484H4.85205C5.67323 28.2484 6.33893 28.9141 6.33893 29.7353C6.33893 30.5565 5.67323 31.2222 4.85205 31.2222H3.73687C2.9157 31.2222 2.25 30.5565 2.25 29.7353Z" fill="#F3AD61"/>
<path d="M22.256 20.25H32.8697C33.652 20.25 34.0456 19.2643 33.4894 18.6841L31.0387 16.1276C29.1181 14.1241 26.0052 14.1241 24.0847 16.1276L21.6339 18.6841C21.0802 19.2618 21.4737 20.25 22.256 20.25Z" fill="#F9C23C"/>
<path d="M5.38099 20.25H15.994C16.7763 20.25 17.1698 19.2618 16.6161 18.6841L14.1631 16.1276C12.2427 14.1241 9.12995 14.1241 7.20952 16.1276L4.75892 18.6841C4.20517 19.2618 4.59869 20.25 5.38099 20.25Z" fill="#F9C23C"/>
<path d="M18.7869 2.2822C24.3222 1.48606 27.7418 15.6664 25.2502 21.3967C22.7586 27.127 17.3787 28.3832 11.6716 30.6262C11.0406 30.8741 10.391 30.9909 9.75305 30.9909C7.58856 30.9909 6.41235 32.7715 5.5911 30.569C4.53089 27.7182 5.92053 24.5217 8.69516 23.4324C11.7157 22.2477 13.3211 19.9713 14.5298 16.8869C15.7617 13.7428 15.8452 12.4533 15.8405 9.02556C15.8359 6.28435 15.655 2.73271 18.7869 2.2822Z" fill="#FEEFC2"/>
<path d="M25.2505 21.3967L14.609 16.5103C13.3864 19.3206 11.1732 21.473 8.37536 22.5743C5.13442 23.8471 2.96761 27.332 4.74236 30.8837C8.28721 37.9751 25.2505 30.8098 25.2505 21.3967Z" fill="#FCD53F"/>
<path fill-rule="evenodd" clip-rule="evenodd" d="M20.5203 18.5421C20.9641 18.6838 21.2091 19.1586 21.0673 19.6025C18.8392 26.5786 12.3409 29.8003 6.5344 30.0978C6.06902 30.1217 5.67243 29.7637 5.64859 29.2984C5.62474 28.833 5.98268 28.4364 6.44806 28.4125C11.7776 28.1395 17.5065 25.2048 19.4598 19.0891C19.6016 18.6452 20.0764 18.4003 20.5203 18.5421Z" fill="#F9C23C"/>
<path d="M26.1459 29.7753L14.6738 16.5222H24.8026C27.1945 16.6438 29.0713 18.6723 29.0713 21.1322V29.6276C29.0713 31.124 27.7244 31.581 26.1459 29.7753Z" fill="#FFF478"/>
</svg>
