<svg width="32" height="32" viewBox="0 0 32 32" fill="none" xmlns="http://www.w3.org/2000/svg">
<path d="M26.2743 4.36686C26.7066 5.28269 26.7994 6.26896 26.6073 7.18799C26.4216 8.0686 26.841 8.9524 27.6352 9.37189C28.4678 9.80739 29.169 10.5087 29.5981 11.4245C29.6045 11.4389 29.6109 11.4525 29.6173 11.4661C29.6238 11.4797 29.6302 11.4933 29.6366 11.5078C30.879 14.2905 28.756 17.4094 25.7107 17.3357C23.546 17.2813 21.5958 16.01 20.6736 14.0535L18.5634 9.57363C17.6411 7.61388 17.9037 5.3019 19.239 3.59833C21.1219 1.20309 24.8781 1.55533 26.2326 4.2836C26.2486 4.31242 26.2614 4.33804 26.2743 4.36686ZM8.72628 3.26511C8.01219 3.9792 7.5895 4.87901 7.45821 5.80765C7.33332 6.69786 6.64165 7.38953 5.75143 7.51442C4.81959 7.64251 3.92298 8.0652 3.20889 8.78249L3.20888 8.7825C3.18647 8.80491 3.16406 8.82732 3.14484 8.84974C1.0346 11.0464 1.97604 14.7034 4.86763 15.664C6.92344 16.3461 9.18739 15.8113 10.718 14.2775L14.2213 10.7743C15.7519 9.24361 16.2899 6.97965 15.6078 4.92384C14.6439 2.03226 10.987 1.09082 8.79032 3.19786C8.76791 3.22028 8.74549 3.24269 8.72628 3.26511ZM11.7075 19.8748C11.4642 18.9653 11.5026 17.9759 11.8837 17.0376C11.8965 17.0088 11.9093 16.98 11.9221 16.9576C13.1229 14.1588 16.8567 13.6016 18.8676 15.8912C20.2958 17.5179 20.6833 19.8107 19.8699 21.8185L18.0095 26.4073C17.1929 28.415 15.3164 29.7888 13.1581 29.9617C10.1224 30.2051 7.82967 27.2014 8.91842 24.3578C8.92482 24.3434 8.93043 24.329 8.93603 24.3146C8.94163 24.3002 8.94724 24.2858 8.95364 24.2714C9.3315 23.3331 9.99435 22.5934 10.8013 22.1131C11.5698 21.652 11.9413 20.7426 11.7075 19.8748Z" fill="#9D5044"/>
<path d="M8.57293 5.88453C8.42883 5.86531 8.28793 5.91335 8.18226 6.01582C8.11181 6.08626 8.06698 6.17593 8.05097 6.2784C7.98372 6.74912 7.77558 7.17501 7.44576 7.50483C7.11593 7.83466 6.69004 8.046 6.21931 8.11005C6.12005 8.12286 6.03038 8.16769 5.95673 8.24134C5.85426 8.34381 5.80623 8.48791 5.82544 8.632C5.86067 8.88177 6.09443 9.05789 6.3442 9.02267C7.01346 8.92981 7.61867 8.6288 8.0926 8.15488C8.56652 7.68095 8.86753 7.07574 8.96039 6.40648C8.9764 6.2848 8.94438 6.16312 8.87073 6.06705C8.80349 5.96458 8.69461 5.90054 8.57293 5.88453ZM25.5317 6.88365C25.6758 6.91247 25.7911 7.00533 25.8551 7.13983C25.8968 7.22949 25.9096 7.33196 25.8904 7.43123C25.7911 7.89875 25.8455 8.36627 26.0441 8.79216C26.2426 9.21485 26.5724 9.55748 26.9919 9.77843C27.0816 9.82647 27.152 9.89692 27.1936 9.98978C27.2545 10.1211 27.2513 10.2716 27.184 10.3997C27.0656 10.6238 26.787 10.7103 26.5628 10.5918C25.964 10.278 25.4965 9.79124 25.2115 9.18283C24.9265 8.57441 24.8465 7.90515 24.9873 7.2423C25.013 7.12061 25.0834 7.01814 25.1859 6.9509C25.2883 6.88365 25.41 6.86123 25.5317 6.88365ZM12.4604 19.7821C12.5148 19.6476 12.6269 19.5483 12.7678 19.5099C12.8863 19.4779 13.008 19.4939 13.1169 19.5579C13.2225 19.6188 13.2994 19.7181 13.3314 19.8365C13.5075 20.4898 13.4659 21.1654 13.2129 21.7867C12.9599 22.4079 12.5212 22.9202 11.9416 23.2661C11.7239 23.3942 11.4421 23.3237 11.3108 23.106C11.234 22.9811 11.2243 22.8306 11.2788 22.6961C11.314 22.6032 11.3813 22.5264 11.4677 22.4751C11.8776 22.2318 12.185 21.8731 12.3611 21.4408C12.5373 21.0053 12.5629 20.5346 12.4412 20.0735C12.4156 19.9774 12.422 19.875 12.4604 19.7821Z" fill="#E39D89"/>
</svg>
