<svg width="36" height="36" viewBox="0 0 36 36" fill="none" xmlns="http://www.w3.org/2000/svg">
<path d="M29.6931 2.32056C29.0754 2.33308 28.7726 2.82507 28.7349 3.07724L31.2314 4.95593L32.9588 7.31381C33.2803 7.19406 33.5956 6.89136 33.6523 6.58879C33.7406 6.00251 33.583 5.74394 33.3623 5.52333C33.1416 5.30273 32.9588 5.24589 32.3725 5.23963C32.8642 4.95593 33.1795 4.43891 33.0471 3.81481C33.0471 3.81481 32.9084 3.18431 32.2716 3.00153C31.7231 2.83126 31.1242 3.00153 30.7648 3.66351C30.7901 3.36084 30.7081 2.95747 30.6451 2.86914C30.582 2.78081 30.3109 2.30804 29.6931 2.32056Z" fill="#6B438B"/>
<circle cx="25.3125" cy="10.6875" r="8.4375" fill="#8D65C5"/>
<circle cx="11.25" cy="12.375" r="9" fill="#6B438B"/>
<path d="M10.4102 5.94425C9.2247 5.29856 8.1564 6.15558 7.86296 6.21445C7.56951 6.27331 6.44268 5.75643 5.53889 6.74253C4.6351 7.72864 5.0694 8.6909 5.05763 9.10184C5.04587 9.51278 4.22424 10.6044 4.88156 11.5903C5.53889 12.5761 6.75965 12.5759 7.08828 12.7757C7.41692 12.9755 7.74554 13.797 9.15415 13.6677C10.5628 13.5385 10.7857 12.2475 11.0087 12.0128C11.2317 11.7782 12.5933 11.2145 12.5933 9.94697C12.5933 8.6794 11.5956 8.19814 11.49 7.92793C11.3844 7.65771 11.5956 6.58994 10.4102 5.94425Z" fill="#AA7DE5"/>
<circle cx="8.49365" cy="9.61353" r="2.53125" fill="#533566"/>
<circle cx="21.375" cy="23.625" r="10.125" fill="#8D65C5"/>
<path d="M26.8338 16.6931C26.2012 16.2386 25.608 14.5976 23.6509 14.6172C21.6938 14.6369 21.3182 15.9615 20.7053 16.4756C20.0924 16.9898 18.2144 17.1282 17.7399 18.927C17.2654 20.7259 18.3133 21.4771 18.6494 22.4262C18.9854 23.3752 18.5505 24.4821 19.8157 25.6484C21.0808 26.8146 22.8008 25.9845 23.6509 25.9846C24.501 25.9847 26.2604 26.8347 27.3675 25.767C28.4746 24.6993 28.3758 23.0982 28.6328 22.4262C28.8898 21.7541 30.5108 20.2514 29.4432 18.4722C28.3757 16.693 27.4664 17.1476 26.8338 16.6931Z" fill="#BCA4EB"/>
<circle cx="23.6364" cy="20.8016" r="3.82532" fill="#533566"/>
</svg>
