<svg width="32" height="32" viewBox="0 0 32 32" fill="none" xmlns="http://www.w3.org/2000/svg">
<path d="M18.7621 21.1739C18.4721 20.7239 17.8721 20.6039 17.4221 20.8939L12.4621 24.1439L14.5921 19.9139C14.8321 19.4339 14.6621 18.8439 14.1921 18.5939C13.7121 18.3439 13.1221 18.5339 12.8721 19.0139L10.7221 23.2739L10.3821 17.3539C10.3521 16.8239 9.89211 16.4139 9.36211 16.4439C8.83211 16.4739 8.42211 16.9339 8.45211 17.4639L8.64211 20.8039C8.72211 22.2039 8.43212 23.6139 7.80212 24.8639L6.83211 26.7939C6.51211 27.4339 6.76212 28.2239 7.41212 28.5539L10.1921 29.9539C10.8321 30.2739 11.6221 30.0239 11.9521 29.3739L12.9221 27.4439C13.5521 26.1839 14.5021 25.1239 15.6821 24.3539L18.4821 22.5139C18.9321 22.2239 19.0621 21.6239 18.7621 21.1739Z" fill="#00D26A"/>
<path d="M26.3618 12.3839C27.2918 8.67393 25.5718 4.69393 22.0118 2.89393C18.4518 1.10393 14.2318 2.09394 11.8018 5.04394C9.01178 4.38394 6.02179 5.68394 4.68179 8.36394C3.10179 11.4939 4.36178 15.3039 7.49178 16.8839C8.59178 17.4339 9.77178 17.6339 10.9118 17.5339C11.0318 18.8439 11.8018 20.0539 13.0618 20.6939C14.3218 21.3239 15.7518 21.2239 16.8718 20.5439C17.4618 21.5239 18.3318 22.3539 19.4318 22.9039C22.5618 24.4839 26.3718 23.2239 27.9518 20.0939C29.2818 17.4139 28.5518 14.2339 26.3618 12.3839Z" fill="#008463"/>
</svg>
