<svg width="32" height="32" viewBox="0 0 32 32" fill="none" xmlns="http://www.w3.org/2000/svg">
<path d="M21.0712 9.48138L14.6398 3.05005L3.08984 14.61L9.52118 21.0414C12.7112 24.2314 17.8912 24.2314 21.0812 21.0414C24.2612 17.8514 24.2612 12.6714 21.0712 9.48138Z" fill="#F3AD61"/>
<path d="M27.57 27.54C30.76 24.35 30.76 19.17 27.57 15.98L24.98 13.39C24.1469 18.7481 23.9523 24.3295 23.54 29.74C25.02 29.42 26.43 28.69 27.57 27.54Z" fill="#9B9B9B"/>
<path d="M24.9794 13.39L19.2495 7.66003C22.4395 10.85 22.4395 16.03 19.2495 19.22C16.0595 22.41 10.8795 22.41 7.68945 19.22L16.0095 27.54C18.0495 29.58 20.9095 30.32 23.5395 29.74C27.3895 25.06 27.8694 18.53 24.9794 13.39Z" fill="#D3D3D3"/>
<path d="M15.6379 5.7858C15.5479 5.0258 15.208 4.2858 14.618 3.6958C12.2817 6.08601 6.44476 11.9992 3.6709 14.6298C4.2609 15.2198 5.00089 15.5498 5.76089 15.6498L15.6379 5.7858Z" fill="#F9C23C"/>
<path d="M15.1211 4.22389C14.9911 4.03389 14.8511 3.86389 14.6811 3.69389C14.4156 3.42841 14.1187 3.21363 13.8024 3.04956C10.549 5.76182 6.65532 9.87378 2.84766 13.5043C3.0214 13.9308 3.28093 14.3311 3.62624 14.6789C3.78624 14.8389 3.96624 14.9889 4.15624 15.1189L15.1211 4.22389Z" fill="#F8312F"/>
<path d="M15.7057 7.64048C16.1057 6.92048 16.0034 5.89001 15.3501 5.89001C14.9601 5.93001 14.5901 6.10001 14.2901 6.40001C13.9901 6.70001 13.8201 7.09001 13.7801 7.48001C13.7601 7.69001 13.6001 7.85001 13.3901 7.87001C12.9901 7.91001 12.6101 8.08001 12.3101 8.38001C12.0101 8.68001 11.8401 9.07001 11.8001 9.46001C11.7801 9.67001 11.6201 9.83002 11.4101 9.85002C11.0101 9.89002 10.6301 10.06 10.3301 10.36C10.0301 10.66 9.86013 11.05 9.82013 11.44C9.80013 11.65 9.64013 11.81 9.43013 11.83C9.03013 11.87 8.65013 12.04 8.35013 12.34C8.05013 12.64 7.88012 13.03 7.84012 13.42C7.82012 13.62 7.67012 13.79 7.47012 13.81C7.04012 13.85 6.63012 14.04 6.31012 14.38C6.05012 14.66 5.91012 15.01 5.87012 15.37C6.4756 16.0369 7.51229 15.77 8.23229 15.37C8.51229 15.21 9.42146 14.62 9.66146 14.38L14.9501 9.03987C15.1901 8.79987 15.5457 7.92048 15.7057 7.64048Z" fill="#6D4534"/>
<path d="M11.81 2.95C12.72 2.95 13.63 3.3 14.33 3.99C15.72 5.38 15.72 7.64 14.33 9.03L9.03 14.33C8.33 15.03 7.42001 15.37 6.51001 15.37C5.60001 15.37 4.69001 15.02 3.99001 14.33C2.60001 12.94 2.60001 10.68 3.99001 9.29L9.29001 3.99C9.98001 3.29 10.9 2.95 11.81 2.95ZM11.81 2C10.61 2 9.47 2.47 8.62 3.32L3.32001 8.62C2.47001 9.47 2 10.6 2 11.81C2 13.01 2.47001 14.15 3.32001 15C4.17001 15.85 5.30001 16.32 6.51001 16.32C7.71001 16.32 8.85 15.85 9.7 15L15 9.7C15.85 8.85 16.32 7.72 16.32 6.51C16.32 5.31 15.85 4.17 15 3.32C14.15 2.47 13.01 2 11.81 2Z" fill="#FFDEA7"/>
<path d="M13.2502 3.17996C12.2002 2.55996 10.8402 2.65996 9.90019 3.47996C9.89019 3.48996 9.87018 3.49996 9.86018 3.51996C9.20018 4.10996 8.32019 4.36996 7.43019 4.26996C6.59019 4.16996 5.71018 4.44996 5.07018 5.08996C4.43018 5.72996 4.15018 6.60996 4.25018 7.44996C4.35018 8.32996 4.09018 9.21996 3.50018 9.87996C3.49018 9.88996 3.48018 9.90996 3.46018 9.91996C2.64018 10.86 2.54018 12.22 3.16018 13.27L13.2502 3.17996Z" fill="#44911B"/>
<path d="M14.0301 3.64006C13.3401 2.95006 12.2302 2.95006 11.5402 3.64006C11.2402 3.94006 11.0701 4.33006 11.0301 4.72006C11.0101 4.93006 10.8501 5.09006 10.6401 5.11006C10.2401 5.15006 9.86014 5.32006 9.56014 5.62006C9.26014 5.92006 9.09015 6.31006 9.05015 6.70006C9.03015 6.91006 8.87015 7.07006 8.66015 7.09006C8.26015 7.13006 7.88015 7.30006 7.58015 7.60006C7.28015 7.90006 7.11015 8.29006 7.07015 8.68006C7.05015 8.89006 6.89016 9.05006 6.68016 9.07006C6.28015 9.11006 5.90015 9.28006 5.60015 9.58006C5.30015 9.88006 5.13014 10.2701 5.09014 10.6601C5.07014 10.8601 4.92015 11.0301 4.72015 11.0501C4.29015 11.0901 3.88014 11.2801 3.56014 11.6201C2.97014 12.2801 2.96016 13.3001 3.54016 13.9601C3.57016 13.9901 3.59014 14.0201 3.62014 14.0401L14.0301 3.64006Z" fill="#FFF478"/>
</svg>
