<svg width="32" height="32" viewBox="0 0 32 32" fill="none" xmlns="http://www.w3.org/2000/svg">
<path d="M13 4C13 2.9 12.1 2 11 2C9.9 2 9 2.9 9 4C9 4.8 8.03 5.2 7.46 4.64L7.41 4.59C6.63 3.81 5.36 3.81 4.58 4.59C3.8 5.37 3.8 6.64 4.58 7.42L4.63 7.47C5.2 8.03 4.8 9 4 9C2.9 9 2 9.9 2 11C2 12.1 2.9 13 4 13H13V4Z" fill="#F8312F"/>
<path d="M19 24.4879C18.0617 24.8195 17.0519 25 16 25C15.1764 25 14.3787 24.8894 13.6209 24.6822C14.525 24.9262 15.4472 25.0288 16.36 24.99C15.2 22.7 15.49 19.85 17.3 17.82C18.57 16.4 20.33 15.67 22.09 15.67C23.08 15.67 24.08 15.9 24.99 16.36C25.0239 15.5551 24.9501 14.7501 24.7686 13.9635C24.92 14.6179 25 15.2996 25 16C25 17.0519 24.8195 18.0617 24.4879 19L24.2279 19.21H22.5022C20.5722 19.21 19.2341 20.554 19.2341 22.484V24.2403L19 24.4879Z" fill="#FCD53F"/>
<path d="M24.6596 13.5399C23.8297 13.2899 22.9699 13.16 22.09 13.16C19.55 13.16 17.12 14.25 15.43 16.15C14.63 17.05 14.03 18.08 13.64 19.21C13.27 20.3 13.11 21.44 13.18 22.6C13.22 23.2999 13.34 23.9897 13.5399 24.6596C12.7027 24.4223 11.9152 24.0668 11.1964 23.6123C11.1743 23.5644 11.0665 23.49 11.0452 23.4418C9.60849 20.1906 10.0491 16.1935 12.5599 13.3676C14.3999 11.2976 17.0948 10.1843 19.6648 10.1843C20.9725 10.1843 22.1709 10.4686 23.3877 11.0219C23.4271 11.0398 23.5709 11.1915 23.61 11.21C23.17 10.51 22.62 9.85999 21.98 9.27999C21.24 8.61999 20.43 8.10999 19.57 7.73999C19.4961 7.74044 19.4609 7.80018 19.3873 7.80198C17.8355 7.84004 16.3402 8.16791 14.9082 8.78845C13.3282 9.47845 11.9482 10.4885 10.7982 11.7785C9.72822 12.9785 8.92822 14.3585 8.40822 15.8685C8.02121 17.0106 7.85715 18.1593 7.82654 19.3653C7.82483 19.4325 7.73072 19.4894 7.73012 19.5568C7.26027 18.4658 7 17.2633 7 16C7 11.0294 11.0294 7 16 7C20.1176 7 23.5894 9.76517 24.6596 13.5399Z" fill="#FCD53F"/>
<path d="M12.6905 13.46C14.5305 11.39 17.0905 10.33 19.6605 10.33C21.0105 10.33 22.3605 10.62 23.6105 11.21C23.1705 10.51 22.6205 9.85999 21.9805 9.27999C21.2405 8.61999 20.4305 8.10999 19.5705 7.73999C17.9405 7.74999 16.3605 8.08999 14.8605 8.73999C13.2805 9.42999 11.9005 10.44 10.7505 11.73C9.68047 12.93 8.88047 14.31 8.36047 15.82C7.95047 17.03 7.74047 18.29 7.73047 19.57C8.23047 20.74 8.99047 21.82 10.0105 22.72C10.3905 23.06 10.7905 23.36 11.2005 23.62C9.68047 20.34 10.1405 16.33 12.6905 13.46Z" fill="#F8312F"/>
<path d="M19.0005 28C19.0005 29.1 19.9005 30 21.0005 30C22.1005 30 23.0005 29.1 23.0005 28C23.0005 27.2 23.9705 26.8 24.5405 27.36L24.5905 27.41C25.3705 28.19 26.6405 28.19 27.4205 27.41C28.2005 26.63 28.2005 25.36 27.4205 24.58L27.3705 24.53C26.8005 23.97 27.2005 23 28.0005 23C29.1005 23 30.0005 22.1 30.0005 21C30.0005 19.9 29.1005 19 28.0005 19H22.5005C20.5705 19 19.0005 20.57 19.0005 22.5V28Z" fill="#F8312F"/>
<path d="M17.3302 17.8348C15.5202 19.8648 15.2005 22.7 16.3605 24.99C15.4205 25.03 14.4705 24.92 13.5405 24.66C13.3405 23.99 13.1512 23.2911 13.1112 22.5911C13.0412 21.4311 13.2348 20.2191 13.6048 19.1291C13.9948 17.9991 14.5921 17.0296 15.3921 16.1296C17.0821 14.2296 19.5505 13.1096 22.0905 13.1096C22.9705 13.1096 23.8305 13.29 24.6605 13.54C24.9205 14.46 25.0305 15.41 24.9905 16.36C24.0805 15.9 23.0805 15.705 22.0905 15.705C20.3305 15.705 18.6002 16.4148 17.3302 17.8348Z" fill="#F8312F"/>
</svg>
