<svg width="32" height="32" viewBox="0 0 32 32" fill="none" xmlns="http://www.w3.org/2000/svg">
<path d="M6.75 3.61426H24.74V10.1146L15.745 12.8716L6.75 10.1146V3.61426Z" fill="#F8312F"/>
<path d="M24.74 21V28.6122H6.75V21L15.745 16.1314L24.74 21Z" fill="#F8312F"/>
<path d="M6.52 2H24.82C25.66 2 26.34 2.68 26.34 3.52C26.34 4.36 25.66 5.04 24.82 5.04H6.52C5.68 5.04 5 4.36 5 3.52C5 2.68 5.68 2 6.52 2Z" fill="#D3D3D3"/>
<path d="M6.52 27.04H24.82C25.66 27.04 26.34 27.73 26.34 28.57C26.34 29.41 25.66 30.09 24.82 30.09H6.52C5.68 30.09 5 29.41 5 28.57C5 27.73 5.68 27.04 6.52 27.04Z" fill="#D3D3D3"/>
<path d="M21.5964 21.0601C20.1358 22.6288 18.0525 23.61 15.74 23.61C13.4275 23.61 11.3442 22.6288 9.88362 21.0601H6.75V10.0701H9.96855C11.4244 8.55379 13.472 7.60999 15.74 7.60999C18.008 7.60999 20.0556 8.55379 21.5114 10.0701H24.74V21.0601H21.5964Z" fill="#F4F4F4"/>
<path d="M17.3097 12.72H14.1697C11.9897 12.72 10.2197 14.49 10.2197 16.67C10.2197 18.85 11.9897 20.62 14.1697 20.62H17.3097C19.4897 20.62 21.2597 18.85 21.2597 16.67C21.2597 14.49 19.4997 12.72 17.3097 12.72Z" fill="#F8312F"/>
<path d="M19.7902 10.62H17.5102C16.7896 10.62 16.15 10.9577 15.7426 11.4821C15.334 10.9634 14.7004 10.63 13.9902 10.63H11.7002C11.7002 11.86 12.7002 12.86 13.9402 12.86H16.2202C16.2202 12.8567 16.2202 12.8533 16.2202 12.85H17.5602C18.7902 12.85 19.7902 11.85 19.7902 10.62Z" fill="#00D26A"/>
</svg>
