<svg width="32" height="32" viewBox="0 0 32 32" fill="none" xmlns="http://www.w3.org/2000/svg">
<path d="M28.9027 8.36125L28.8927 8.37125C30.1027 9.83125 30.0227 12.0013 28.6527 13.3813C27.2027 14.8413 24.8427 14.8413 23.3827 13.3813C22.7455 12.7441 22.3854 11.9352 22.3047 11.1033L20.4998 12.9083L19.0856 11.4941L20.8309 9.74869C20.0486 9.64382 19.2941 9.29271 18.6927 8.69125C17.2327 7.24125 17.2327 4.88125 18.6927 3.42125C20.0327 2.08125 22.1527 1.97125 23.6127 3.11125L23.6327 3.09125C25.0827 1.63125 27.4427 1.64125 28.9027 3.09125C30.3627 4.54125 30.3627 6.90125 28.9027 8.36125Z" fill="#00D26A"/>
<path d="M4.64244 29.8912L20.3924 24.7912C24.9024 23.3312 26.2724 17.6212 22.9224 14.2712L17.7224 9.07123C14.3724 5.72123 8.66244 7.10123 7.20244 11.6012L2.10244 27.3512C1.59244 28.9212 3.07244 30.4012 4.64244 29.8912Z" fill="#FF822D"/>
<path d="M12.373 19.4112C12.863 18.9212 12.863 18.1312 12.373 17.6312L6.99305 12.2512L6.12305 14.9312L10.593 19.4012C11.083 19.9012 11.883 19.9012 12.373 19.4112Z" fill="#FF6723"/>
<path d="M8.59302 23.9613C8.10302 24.4513 8.10302 25.2413 8.59302 25.7413L10.763 27.9113L13.443 27.0413L10.363 23.9613C9.87302 23.4712 9.08302 23.4712 8.59302 23.9613Z" fill="#FF6723"/>
<path d="M16.2531 18.9812C15.7631 18.4812 15.7631 17.6912 16.2531 17.2012C16.7431 16.7112 17.5331 16.7112 18.0331 17.2112L23.4631 22.6412C22.9631 23.3012 22.3231 23.8612 21.5631 24.2912L16.2531 18.9812Z" fill="#FF6723"/>
</svg>
