<svg width="32" height="32" viewBox="0 0 32 32" fill="none" xmlns="http://www.w3.org/2000/svg">
<path d="M29 15.0746C27.73 15.0746 26.62 14.0446 26.62 12.7646C26.62 11.4512 27.7165 10.4546 29 10.4546V8.4246C29 7.5546 28.2 6.90459 27.35 7.09459L16.4103 6.3783L5.07001 12.0046C4.45001 12.1446 4 12.6946 4 13.3346V22.3446C5.17 22.3446 6.12001 23.2946 6.12001 24.4646C6.12001 25.6346 5.17 26.5846 4 26.5846V28.5946C4 29.4646 4.80001 30.1146 5.65001 29.9246L27.93 25.0146C28.55 24.8746 29 24.3246 29 23.6846C29 22.8736 29 15.3047 29 15.0746Z" fill="#FCD53F"/>
<path d="M15.7397 2.56459L4.71973 12.1246L28.0697 7.13459L18.2897 2.24459C17.4497 1.82459 16.4497 1.95459 15.7397 2.56459Z" fill="#FFB02E"/>
<path d="M24.4797 16.4346C24.4797 18.4615 22.8365 20.1046 20.8097 20.1046C18.7828 20.1046 17.1396 18.4615 17.1396 16.4346C17.1396 14.4077 18.7828 12.7646 20.8097 12.7646C22.8365 12.7646 24.4797 14.4077 24.4797 16.4346Z" fill="#FFB02E"/>
<path d="M12.6097 21.9846C13.7806 21.9846 14.7298 21.0354 14.7298 19.8646C14.7298 18.6937 13.7806 17.7446 12.6097 17.7446C11.4389 17.7446 10.4897 18.6937 10.4897 19.8646C10.4897 21.0354 11.4389 21.9846 12.6097 21.9846Z" fill="#FFB02E"/>
<path d="M18.9597 23.1246C18.9597 23.7542 18.4493 24.2646 17.8197 24.2646C17.1901 24.2646 16.6797 23.7542 16.6797 23.1246C16.6797 22.495 17.1901 21.9846 17.8197 21.9846C18.4493 21.9846 18.9597 22.495 18.9597 23.1246Z" fill="#FFB02E"/>
</svg>
