<svg width="36" height="36" viewBox="0 0 36 36" fill="none" xmlns="http://www.w3.org/2000/svg">
<path d="M22.1645 3.66625C11.0783 5.76161 8.44603 15.6052 8.54308 19.3097L10.6436 19.2437C10.8375 15.6545 12.1829 12.7642 13.9854 10.6254L13.9916 10.6181C14.5464 9.95984 14.9303 9.50419 15.4908 10.3667L22.1485 20.5972L24.029 19.5919L17.2226 9.10922C16.6685 8.24854 16.8575 8.02441 17.5338 7.57851C18.4503 7.01809 19.3766 6.5932 20.2556 6.30309C21.0366 6.05138 21.2256 6.44689 21.3071 6.64282C23.2869 11.3976 25.6113 13.2496 26.9369 13.7933C28.9951 14.5724 30.5288 14.836 33.2623 13.9065C33.5259 13.8165 33.6182 13.5183 33.4079 13.1785C33.4079 13.1785 31.5639 10.2901 29.768 7.07961C29.768 7.07961 27.7182 2.79645 22.1645 3.66625Z" fill="#9AD02B"/>
<path fill-rule="evenodd" clip-rule="evenodd" d="M16.875 26.4375C16.875 30.4761 13.6011 33.75 9.5625 33.75C5.52392 33.75 2.25 30.4761 2.25 26.4375C2.25 22.3989 5.52392 19.125 9.5625 19.125C13.6011 19.125 16.875 22.3989 16.875 26.4375ZM33.7838 26.4375C33.7838 30.4761 30.5099 33.75 26.4713 33.75C22.4327 33.75 19.1588 30.4761 19.1588 26.4375C19.1588 22.3989 22.4327 19.125 26.4713 19.125C30.5099 19.125 33.7838 22.3989 33.7838 26.4375Z" fill="#F8312F"/>
</svg>
