<svg width="32" height="32" viewBox="0 0 32 32" fill="none" xmlns="http://www.w3.org/2000/svg">
<path d="M31.3515 11.9971C30.4537 16.9369 26.3093 20.2416 18.5589 23.2239C15.6413 24.3465 10.4795 25.6937 5.09318 25.2447C-0.274549 24.7971 -0.741997 20.754 2.40001 17.835C4.64432 15.5897 4.19544 8.18006 16.5391 8.18006C24.3479 8.18006 33 2.92591 31.3515 11.9971Z" fill="#FFD8BD"/>
<mask id="mask0_76_5427" style="mask-type:alpha" maskUnits="userSpaceOnUse" x="0" y="6" width="32" height="20">
<path d="M31.0474 11.9422C30.1585 16.8311 26.0549 20.1018 18.3808 23.0533C15.4919 24.1644 10.3808 25.4978 5.04745 25.0533C-0.267477 24.6104 -0.730327 20.6089 2.38077 17.72C4.60301 15.4978 4.15854 8.16447 16.3808 8.16447C24.1128 8.16447 32.6798 2.96443 31.0474 11.9422Z" fill="#FFD8BD"/>
</mask>
<g mask="url(#mask0_76_5427)">
<path fill-rule="evenodd" clip-rule="evenodd" d="M3.49836 12.7274C3.55572 12.2398 3.99746 11.8911 4.48502 11.9484C6.05609 12.1333 8.63667 13.2988 10.0954 16.9456C10.2777 17.4014 10.056 17.9187 9.60018 18.101C9.14437 18.2833 8.62706 18.0616 8.44474 17.6058C7.23676 14.5859 5.22475 13.8255 4.2773 13.714C3.78975 13.6567 3.441 13.2149 3.49836 12.7274Z" fill="#E0AC88"/>
<path fill-rule="evenodd" clip-rule="evenodd" d="M10.3808 10.8311C9.26964 10.1644 8.15853 9.94221 7.26964 9.94221C6.78365 10.0116 5.78351 10.4282 5.71408 9.94221C5.64466 9.45622 5.98235 9.00597 6.46833 8.93654C7.51241 8.78739 9.6223 8.63623 11.1905 9.63143C12.7985 10.6519 14.3825 12.3719 15.2279 15.0291C15.3768 15.4969 15.1182 15.9968 14.6504 16.1457C14.1826 16.2945 13.6827 16.0359 13.5338 15.5681C12.8238 13.3365 11.5092 11.5082 10.3808 10.8311Z" fill="#E0AC88"/>
<path fill-rule="evenodd" clip-rule="evenodd" d="M11.6313 7.45179C11.6375 6.9609 12.557 7.04714 13.0479 7.05329C14.6685 7.07359 17.4391 7.83723 19.1531 11.5921C19.3725 12.0312 19.1944 12.5651 18.7552 12.7845C18.3161 13.0039 17.7822 12.8258 17.5628 12.3866C16.0051 9.26899 14.159 7.94219 12.509 8.35174C12.0181 8.34559 11.6252 7.94267 11.6313 7.45179Z" fill="#E0AC88"/>
</g>
</svg>
