<svg width="32" height="32" viewBox="0 0 32 32" fill="none" xmlns="http://www.w3.org/2000/svg">
<path d="M13.8225 2.4125C13.2725 1.8625 12.3925 1.8625 11.8425 2.4125L2.4125 11.8425C1.8625 12.3925 1.8625 13.2725 2.4125 13.8225L10.2975 21.7075L10.6805 21.5813L21.7025 10.6381V10.3025L13.8225 2.4125Z" fill="#8C5543"/>
<path d="M8.82167 8.19324L12.4017 11.7732C12.6417 12.0132 13.0217 12.0132 13.2517 11.7632L16.8317 8.18324C17.0717 7.95324 17.0717 7.57324 16.8317 7.33324L13.2517 3.75324C13.0217 3.51324 12.6417 3.51324 12.4017 3.75324L8.82167 7.34324C8.58167 7.57324 8.58167 7.95324 8.82167 8.19324ZM9.13353 18.6513L12.7135 22.2313C12.9535 22.4613 13.3335 22.4613 13.5635 22.2313L17.1435 18.6513C17.3835 18.4213 17.3835 18.0413 17.1435 17.8013L13.5635 14.2213C13.3335 13.9813 12.9535 13.9813 12.7135 14.2213L9.13353 17.8013C8.89353 18.0313 8.89353 18.4113 9.13353 18.6513ZM17.7973 17.1576L14.2173 13.5776C13.9773 13.3376 13.9773 12.9576 14.2173 12.7276L17.7973 9.14759C18.0373 8.90759 18.4173 8.90759 18.6473 9.14759L22.2273 12.7276C22.4673 12.9676 22.4673 13.3476 22.2273 13.5776L18.6473 17.1576C18.4073 17.3976 18.0273 17.3976 17.7973 17.1576ZM3.75227 13.2626L7.33227 16.8426C7.57227 17.0826 7.95227 17.0826 8.18227 16.8426L11.7623 13.2626C12.0023 13.0326 12.0023 12.6526 11.7623 12.4126L8.18227 8.83259C7.95227 8.59259 7.57227 8.59259 7.33227 8.83259L3.75227 12.4126C3.51227 12.6426 3.51227 13.0226 3.75227 13.2626Z" fill="#6D4534"/>
<path d="M13.2614 3.75324L16.8414 7.33324C16.9614 7.45324 17.0214 7.61324 17.0214 7.76324H8.65143C8.65143 7.60324 8.71143 7.45324 8.83143 7.33324L12.4114 3.75324C12.6414 3.51324 13.0214 3.51324 13.2614 3.75324ZM8.19203 8.82258L11.772 12.4026C11.892 12.5226 11.952 12.6726 11.952 12.8326L3.58203 12.8326C3.58203 12.6726 3.64203 12.5226 3.76203 12.4026L7.34203 8.82258C7.57203 8.58258 7.95203 8.58258 8.19203 8.82258ZM17.1532 17.7913L13.5732 14.2113C13.3332 13.9713 12.9532 13.9713 12.7232 14.2113L9.14324 17.7913C9.02324 17.9113 8.96324 18.0613 8.96324 18.2213H17.3432C17.3332 18.0613 17.2732 17.9113 17.1532 17.7913ZM18.647 9.13758L22.227 12.7176C22.347 12.8376 22.407 12.9876 22.407 13.1476H14.037C14.037 12.9876 14.097 12.8376 14.217 12.7176L17.797 9.13758C18.027 8.89758 18.407 8.89758 18.647 9.13758Z" fill="#A56953"/>
<path d="M12.8321 4.55322L9.62214 7.76322L12.8321 10.9732L16.0421 7.76322L12.8321 4.55322ZM4.55273 12.8326L7.76273 16.0426L10.9727 12.8326L7.76273 9.62256L4.55273 12.8326ZM13.1527 21.4326L9.93274 18.2226L13.1527 15.0126L16.3627 18.2226L13.1527 21.4326ZM15.0128 13.1526L18.2228 16.3626L21.4328 13.1526L18.2228 9.93256L15.0128 13.1526Z" fill="#8C5543"/>
<path d="M10.293 21.7125L18.173 29.5925C18.723 30.1425 19.603 30.1425 20.153 29.5925L29.583 20.1625C30.133 19.6125 30.133 18.7325 29.583 18.1825L21.703 10.3025L10.293 21.7125Z" fill="#CA0B4A"/>
<path d="M23.1625 11.5325L13.3425 24.8225C13.2125 24.9925 12.9725 25.0125 12.8225 24.8625L10.2225 22.2625C10.0925 22.1325 10.0925 21.9125 10.2225 21.7725L21.7825 10.2225C21.9125 10.0925 22.1325 10.0925 22.2725 10.2225L23.1325 11.0825C23.2525 11.2025 23.2625 11.3925 23.1625 11.5325Z" fill="#D3D3D3"/>
</svg>
