<svg width="32" height="32" viewBox="0 0 32 32" fill="none" xmlns="http://www.w3.org/2000/svg">
<path fill-rule="evenodd" clip-rule="evenodd" d="M22.663 8.00988C21.4912 8.16887 20.6702 9.24765 20.8292 10.4194L21.4049 14.6627C21.5639 15.8345 22.6427 16.6555 23.8145 16.4965L28.0578 15.9207C29.2295 15.7617 30.0505 14.683 29.8916 13.5112L29.3158 9.2679C29.1568 8.09614 28.078 7.27513 26.9063 7.43412L22.663 8.00988ZM22.6478 10.1727C22.625 10.0053 22.7423 9.85115 22.9097 9.82844L27.153 9.25268C27.3204 9.22997 27.4745 9.34726 27.4972 9.51465L28.073 13.758C28.0957 13.9253 27.9784 14.0795 27.811 14.1022L23.5677 14.6779C23.4003 14.7006 23.2462 14.5834 23.2235 14.416L22.6478 10.1727Z" fill="#83CBFF"/>
<path fill-rule="evenodd" clip-rule="evenodd" d="M9.24047 17.2063C10.4122 17.3653 11.2332 18.4441 11.0742 19.6159L10.4985 23.8592C10.3395 25.0309 9.26072 25.8519 8.08896 25.693L3.84566 25.1172C2.6739 24.9582 1.85289 23.8794 2.01188 22.7077L2.58764 18.4644C2.74663 17.2926 3.82541 16.4716 4.99716 16.6306L9.24047 17.2063ZM9.25568 19.3691C9.2784 19.2017 9.16111 19.0476 8.99372 19.0249L4.75041 18.4492C4.58302 18.4264 4.42891 18.5437 4.40619 18.7111L3.83044 22.9544C3.80773 23.1218 3.92502 23.2759 4.09241 23.2986L8.33571 23.8744C8.50311 23.8971 8.65722 23.7798 8.67993 23.6124L9.25568 19.3691Z" fill="#83CBFF"/>
<path d="M14.1328 15.6576L13.1036 8.07223L19.0009 6.03735L25.2273 6.42722L26.7309 17.3726C26.8666 18.3728 26.1411 19.3046 25.1167 19.4436L18.3828 20.3573L17.3164 28.2165C17.1799 29.2228 16.2331 29.9216 15.2087 29.7826L6.78877 28.6401C5.76432 28.5011 5.03882 27.5692 5.17453 26.569L6.67817 15.6237L12.9045 15.2338L14.1328 15.6576Z" fill="#AEDDFF"/>
<path d="M18.8013 17.2687L15.4273 16.1045L14.3156 7.91147L19.073 6.64481L24.0146 6.59546L25.5082 17.6031C25.5462 17.8836 25.3464 18.1405 25.0598 18.1794L18.558 19.0616L18.8013 17.2687Z" fill="#F9C23C"/>
<path d="M17.5888 17.108L16.0952 28.1156C16.0572 28.3961 15.7961 28.5905 15.5095 28.5516L6.8446 27.3759C6.55805 27.337 6.35819 27.0801 6.39625 26.7996L7.88982 15.792L12.8314 15.8413L17.5888 17.108Z" fill="#F9C23C"/>
<path d="M22.2985 16.7021C21.9651 16.7473 21.6564 16.5199 21.6125 16.1968L20.785 10.0977C20.7411 9.77452 20.9781 9.47309 21.3115 9.42785C21.6449 9.38262 21.9535 9.61001 21.9974 9.93318L22.8249 16.0323C22.8688 16.3554 22.6319 16.6569 22.2985 16.7021Z" fill="#FCD53F"/>
<path d="M18.6613 17.1956C18.3279 17.2408 18.0193 17.0134 17.9754 16.6903L17.1479 10.5912C17.104 10.268 17.3409 9.9666 17.6743 9.92136C18.0077 9.87612 18.3164 10.1035 18.3602 10.4267L19.1878 16.5258C19.2317 16.8489 18.9947 17.1504 18.6613 17.1956Z" fill="#FCD53F"/>
<path d="M9.60395 25.8986C9.93736 25.9438 10.246 25.7164 10.2899 25.3932L11.1174 19.2942C11.1613 18.971 10.9244 18.6696 10.591 18.6243C10.2576 18.5791 9.9489 18.8065 9.90505 19.1297L9.07749 25.2287C9.03364 25.5519 9.27055 25.8533 9.60395 25.8986Z" fill="#FCD53F"/>
<path d="M13.2411 26.3921C13.5745 26.4373 13.8831 26.2099 13.927 25.8867L14.7545 19.7877C14.7984 19.4645 14.5615 19.1631 14.2281 19.1178C13.8947 19.0726 13.586 19.3 13.5422 19.6232L12.7146 25.7222C12.6708 26.0454 12.9077 26.3468 13.2411 26.3921Z" fill="#FCD53F"/>
<path d="M22.7504 8.88091C23.0316 8.84275 23.2286 8.58384 23.1905 8.30262C23.1523 8.0214 22.8934 7.82436 22.6122 7.86251C22.331 7.90067 22.1339 8.15958 22.1721 8.4408C22.2102 8.72202 22.4691 8.91907 22.7504 8.88091Z" fill="#FF9F2E"/>
<path d="M23.4692 14.179C23.6634 14.1526 23.7995 13.9739 23.7731 13.7797C23.7468 13.5855 23.568 13.4495 23.3738 13.4758C23.1796 13.5022 23.0436 13.6809 23.0699 13.8751C23.0963 14.0693 23.2751 14.2053 23.4692 14.179Z" fill="#FF9F2E"/>
<path d="M19.6146 11.5226C19.8088 11.4963 19.9449 11.3175 19.9185 11.1233C19.8922 10.9292 19.7134 10.7931 19.5192 10.8195C19.3251 10.8458 19.189 11.0246 19.2154 11.2188C19.2417 11.4129 19.4205 11.549 19.6146 11.5226Z" fill="#FF9F2E"/>
<path d="M9.15298 18.0774C8.87175 18.0392 8.67471 17.7803 8.71287 17.4991C8.75103 17.2179 9.00994 17.0208 9.29116 17.059C9.57238 17.0971 9.76942 17.3561 9.73126 17.6373C9.69311 17.9185 9.4342 18.1155 9.15298 18.0774Z" fill="#FF9F2E"/>
<path d="M8.4341 23.3755C8.23992 23.3491 8.10387 23.1703 8.13022 22.9762C8.15656 22.782 8.33533 22.6459 8.52951 22.6723C8.72369 22.6986 8.85974 22.8774 8.83339 23.0716C8.80705 23.2657 8.62828 23.4018 8.4341 23.3755Z" fill="#FF9F2E"/>
<path d="M12.2887 20.7191C12.0945 20.6928 11.9585 20.514 11.9848 20.3198C12.0112 20.1256 12.1899 19.9896 12.3841 20.0159C12.5783 20.0423 12.7143 20.2211 12.688 20.4152C12.6616 20.6094 12.4829 20.7455 12.2887 20.7191Z" fill="#FF9F2E"/>
<path d="M19.7302 6.8645C19.5258 5.35796 20.5814 3.97095 22.0879 3.76653C23.5945 3.56212 24.9815 4.6177 25.1859 6.12424L25.227 6.42734L19.7713 7.16759L19.7302 6.8645Z" fill="#E6E6E6"/>
<path d="M13.0623 7.76922C12.8578 6.26268 13.9134 4.87567 15.42 4.67126C16.9265 4.46684 18.3135 5.52242 18.5179 7.02897L18.5591 7.33206L13.1034 8.07232L13.0623 7.76922Z" fill="#E6E6E6"/>
<path d="M16.4848 13.8677C17.9913 14.0721 19.0469 15.4592 18.8425 16.9657L18.8014 17.2688L13.3457 16.5285L13.3868 16.2254C13.5912 14.7189 14.9783 13.6633 16.4848 13.8677Z" fill="#E6E6E6"/>
<path d="M12.1745 16.061C12.379 14.5544 11.3234 13.1674 9.81682 12.963C8.31028 12.7586 6.92328 13.8142 6.71886 15.3207L6.67773 15.6238L12.1334 16.3641L12.1745 16.061Z" fill="#E6E6E6"/>
<path d="M22.0705 6.85563C22.113 6.55549 22.1154 6.24454 22.0726 5.92932C21.8227 4.08799 20.1275 2.79783 18.2862 3.04767C16.4448 3.29751 15.1547 4.99274 15.4045 6.83407L15.8158 9.86501C15.9521 10.8694 16.8767 11.5731 17.8811 11.4368C18.8855 11.3005 19.5892 10.3759 19.4529 9.3715L19.2995 8.24077C19.2252 7.6935 19.6087 7.18965 20.1559 7.1154L22.0705 6.85563Z" fill="#F4F4F4"/>
<path d="M9.83385 16.0521C9.79132 15.752 9.78896 15.441 9.83173 15.1258C10.0816 13.2845 11.7768 11.9943 13.6181 12.2441C15.4595 12.494 16.7496 14.1892 16.4998 16.0305L16.0885 19.0615C15.9522 20.0658 15.0276 20.7696 14.0232 20.6333C13.0189 20.497 12.3151 19.5723 12.4514 18.568L12.6048 17.4372C12.6791 16.89 12.2956 16.3861 11.7484 16.3119L9.83385 16.0521Z" fill="#F4F4F4"/>
<path d="M8.98875 7.01C8.98875 7.56781 8.53656 8.02 7.97875 8.02C7.42094 8.02 6.96875 7.56781 6.96875 7.01C6.96875 6.45219 7.42094 6 7.97875 6C8.53656 6 8.98875 6.45219 8.98875 7.01Z" fill="#E6E6E6"/>
<path d="M11.9988 9.99999C11.9988 10.5578 11.5466 11.01 10.9888 11.01C10.431 11.01 9.97876 10.5578 9.97876 9.99999C9.97876 9.44218 10.431 8.98999 10.9888 8.98999C11.5466 8.98999 11.9988 9.44218 11.9988 9.99999Z" fill="#E6E6E6"/>
</svg>
