<svg width="32" height="32" viewBox="0 0 32 32" fill="none" xmlns="http://www.w3.org/2000/svg">
<path d="M10.7015 20.0235C12.389 20.1665 14.0164 19.1405 14.5647 17.4613L17.9947 6.94128C18.1047 6.59128 17.9147 6.22126 17.5747 6.11126L11.7247 4.20129C11.3747 4.09129 11.0047 4.28127 10.8947 4.62127L7.46472 15.1413C6.91505 16.8246 7.62674 18.6186 9.0803 19.497L6.62473 27.0212L4.08472 26.1913C3.65472 26.0513 3.19473 26.2913 3.04473 26.7313C2.89473 27.1713 3.13473 27.6413 3.57473 27.7812L10.2647 29.9612C10.7047 30.1112 11.1747 29.8712 11.3147 29.4312C11.4647 28.9912 11.2247 28.5213 10.7847 28.3813L8.24473 27.5512L10.7015 20.0235Z" fill="#83CBFF"/>
<path d="M21.7981 17.8534C20.1105 17.9964 18.4832 16.9705 17.9349 15.2913L14.5049 4.77123C14.3949 4.42123 14.5849 4.05125 14.9249 3.94125L20.7749 2.03124C21.1249 1.92124 21.4949 2.11126 21.6049 2.45126L25.0349 12.9712C25.5845 14.6546 24.8728 16.4486 23.4193 17.327L25.8749 24.8513L28.4149 24.0212C28.8549 23.8812 29.3249 24.1212 29.4549 24.5612C29.6049 25.0012 29.3649 25.4712 28.9249 25.6112L22.2349 27.7913C21.7949 27.9413 21.3249 27.7013 21.1849 27.2613C21.0349 26.8213 21.2749 26.3512 21.7149 26.2112L24.2549 25.3813L21.7981 17.8534Z" fill="#AEDDFF"/>
<path d="M10.2047 18.7912C11.7747 19.3012 13.4647 18.4412 13.9847 16.8712L15.7047 11.5912C15.8147 11.2412 15.5547 10.8812 15.1847 10.8812L9.98466 10.9712C9.75466 10.9712 9.55466 11.1212 9.48466 11.3412L8.28466 15.0112C7.77466 16.5812 8.63466 18.2712 10.2047 18.7912Z" fill="#FFCE7C"/>
<path d="M18.6351 4.96121C18.6351 5.41961 18.2635 5.79123 17.8051 5.79123C17.3467 5.79123 16.9751 5.41961 16.9751 4.96121C16.9751 4.50282 17.3467 4.13123 17.8051 4.13123C18.2635 4.13123 18.6351 4.50282 18.6351 4.96121Z" fill="#FFDEA7"/>
<path d="M20.1951 7.11127C20.1951 7.42055 19.9444 7.6713 19.6351 7.6713C19.3258 7.6713 19.0751 7.42055 19.0751 7.11127C19.0751 6.80199 19.3258 6.55127 19.6351 6.55127C19.9444 6.55127 20.1951 6.80199 20.1951 7.11127Z" fill="#FFDEA7"/>
<path d="M19.8652 5.29123C20.0474 5.29123 20.1952 5.14347 20.1952 4.96121C20.1952 4.77896 20.0474 4.63123 19.8652 4.63123C19.6829 4.63123 19.5352 4.77896 19.5352 4.96121C19.5352 5.14347 19.6829 5.29123 19.8652 5.29123Z" fill="#FFDEA7"/>
<path d="M18.5151 14.7013C19.0351 16.2713 20.7251 17.1313 22.2951 16.6213C23.8651 16.1013 24.7251 14.4113 24.2151 12.8513L23.1751 9.67129C23.0151 9.16129 22.5351 8.84127 22.0051 8.87127C20.5951 8.96127 19.2051 8.51128 18.1251 7.60128L17.2951 6.90127C16.7751 6.46127 16.0051 6.98128 16.2151 7.63128L18.5151 14.7013Z" fill="#FFDEA7"/>
</svg>
