<svg width="36" height="36" viewBox="0 0 36 36" fill="none" xmlns="http://www.w3.org/2000/svg">
<path d="M29.4964 9.17508L25.7614 5.42883L5.42139 25.7688L9.16764 29.5151C14.7814 35.1288 23.8826 35.1288 29.4964 29.5151C35.1101 23.8901 35.1101 14.7888 29.4964 9.17508Z" fill="#6D4534"/>
<path d="M26.5713 22.7314C26.6163 21.8426 26.8188 20.9539 27.2575 20.1101C29.8788 15.0251 29.4625 9.13011 25.7613 5.42886C22.6225 2.29011 17.92 1.51386 13.465 2.93136C12.3175 3.29136 11.305 4.14636 10.765 5.23761C10.4275 5.92386 9.80876 6.68886 8.99876 7.37511C8.18876 8.07261 7.33376 8.55635 6.63626 8.77011C5.48876 9.1076 4.49876 9.97386 3.93626 11.0651C1.30376 16.1501 1.72001 22.0564 5.42126 25.7689C7.18751 27.5351 9.46001 28.5589 11.89 28.8514C12.6775 28.9526 13.3975 29.2451 14.0163 29.6726C14.3988 29.9314 14.995 30.0439 15.6588 29.9314C16.3 29.8189 16.8738 29.5264 17.2563 29.1439C17.8975 28.5139 18.6175 27.9626 19.4163 27.6026C19.5063 27.5576 19.585 27.5239 19.675 27.4789C20.53 27.0739 21.43 26.8939 22.3075 26.8826C23.1625 26.8826 24.2425 26.3764 25.1538 25.4651C26.0313 24.5989 26.5375 23.5639 26.5713 22.7314Z" fill="#A56953"/>
<path d="M25.4348 21.1901C25.4348 20.6051 25.5698 20.0089 25.8511 19.4464C28.0898 15.0251 27.7073 9.90638 24.4898 6.68888C21.6661 3.86513 17.3798 3.22388 13.3748 4.63013C12.7786 4.85513 12.2836 5.37263 12.1148 5.98013C11.9011 6.74513 11.1811 7.75763 10.1461 8.64638C9.08856 9.54638 7.98606 10.0864 7.20981 10.1426C6.59106 10.1876 5.98356 10.5701 5.65731 11.1551C3.06981 15.7114 3.33981 21.1339 6.70356 24.4976C8.34606 26.1401 10.4948 27.0514 12.7786 27.2426C13.3636 27.2876 13.8698 27.5351 14.3086 27.8614C14.7023 28.1651 15.3661 28.2664 16.0973 28.1089C16.8061 27.9514 17.4136 27.5689 17.7623 27.1189C18.1336 26.6464 18.6061 26.2639 19.1461 26.0164C19.2361 25.9714 19.3261 25.9264 19.4161 25.8814C19.9786 25.6001 20.5748 25.4426 21.1598 25.4539C22.0148 25.4651 23.1061 24.9476 24.0173 24.0364C24.9173 23.1251 25.4236 22.0451 25.4348 21.1901Z" fill="#D3D3D3"/>
<path d="M24.2089 19.4913C24.1189 19.1988 24.1527 18.8726 24.2989 18.5576C26.0314 14.9126 25.6714 10.7613 23.0389 8.12885C20.8452 5.9351 17.6052 5.31635 14.4777 6.17135C13.8702 6.3401 13.3864 6.8576 13.2402 7.4651C13.0489 8.24135 12.3177 9.2651 11.2602 10.1763C10.2027 11.0763 9.07766 11.6276 8.31266 11.6726C7.67141 11.7176 7.07516 12.1226 6.80516 12.7188C5.12891 16.3301 5.52266 20.4251 8.12141 23.0238C9.56141 24.4638 11.4402 25.2176 13.4539 25.3413C13.7464 25.3526 13.9939 25.4651 14.1852 25.6676C14.5564 26.0501 15.2877 26.2076 16.1089 26.0276C16.8964 25.8476 17.5489 25.4088 17.8752 24.8913C18.0439 24.6326 18.2802 24.4188 18.5502 24.2951H18.5614C18.8652 24.1488 19.1914 24.1263 19.4839 24.2163C20.3727 24.5088 21.7564 23.9913 22.8702 22.8776C23.9839 21.7526 24.4902 20.3801 24.2089 19.4913Z" fill="#9B9B9B"/>
</svg>
