<svg width="32" height="32" viewBox="0 0 32 32" fill="none" xmlns="http://www.w3.org/2000/svg">
<path d="M18.6498 30.0076H13.2598C7.04977 30.0076 2.00977 24.9676 2.00977 18.7576V13.4976H29.8998V18.7576C29.8998 24.9676 24.8598 30.0076 18.6498 30.0076Z" fill="#F8312F"/>
<path d="M21.92 7.72758C25.1 7.72758 27.69 10.3176 27.69 13.4976C27.69 16.6776 25.1 19.2676 21.92 19.2676H9.98C6.8 19.2676 4.21 16.6776 4.21 13.4976C4.21 10.3176 6.8 7.72758 9.98 7.72758H21.92ZM21.92 5.51758H9.98C5.57 5.51758 2 9.08758 2 13.4976C2 17.9076 5.57 21.4776 9.98 21.4776H21.91C26.32 21.4776 29.89 17.9076 29.89 13.4976C29.9 9.09758 26.32 5.51758 21.92 5.51758Z" fill="#CA0B4A"/>
<path d="M4.23402 12.2826L4.21619 12.114C4.19584 11.9215 4.16405 11.7243 4.12779 11.5011L4.11699 11.4348C4.0288 10.8953 3.90758 10.1537 4.1118 9.43408C4.14915 9.29885 4.18173 9.17719 4.21108 9.06754C4.34451 8.56918 4.41149 8.31901 4.55859 8.17191L4.55737 8.16428C4.7045 7.9756 4.82585 7.80733 4.92378 7.63792C5.08126 7.36443 5.20628 7.04717 5.36272 6.64313L5.3892 6.57461C5.61437 5.99147 5.92411 5.1893 6.53285 4.58056C7.1327 3.98071 7.92013 3.67147 8.49092 3.44731L8.55775 3.42104C8.96977 3.25881 9.28669 3.13144 9.55546 2.97018L9.56253 2.96593L9.56967 2.96181C9.83004 2.81137 10.0877 2.60562 10.4208 2.33598L10.4771 2.29032C10.9646 1.89494 11.6418 1.34576 12.4916 1.12161C13.3072 0.900589 14.1477 1.03178 14.7592 1.12722L14.8342 1.13891C15.2675 1.20611 15.6134 1.25767 15.94 1.25767C16.2665 1.25767 16.6124 1.20611 17.0457 1.13891L17.1207 1.12722C17.7322 1.03178 18.5727 0.900587 19.3883 1.12161C20.2381 1.34576 20.9153 1.89494 21.4028 2.29032L21.4591 2.33599C21.792 2.60541 22.0495 2.81106 22.3096 2.96146C22.5831 3.11896 22.9004 3.24399 23.3045 3.40044L23.373 3.42692C23.9562 3.65209 24.7583 3.96183 25.3671 4.57057C25.9739 5.17741 26.2835 5.97997 26.5075 6.56065L26.534 6.62935C26.692 7.03772 26.8169 7.35457 26.9741 7.62439L26.9758 7.62739C27.0927 7.82961 27.2429 8.03019 27.4305 8.26575L27.4297 8.26956C27.6884 8.65304 27.6966 8.68535 27.7855 9.03557C27.8108 9.13486 27.8425 9.25969 27.8882 9.42532C28.0924 10.1449 27.9712 10.8865 27.883 11.426L27.8722 11.4922C27.8355 11.7185 27.8033 11.918 27.783 12.1127L27.7667 12.2694C27.6328 15.4505 24.8798 18 21.5163 18H10.4838C7.12499 18 4.37496 15.4575 4.23402 12.2826Z" fill="#BEBEBE"/>
<path d="M27.8111 12.7387C27.7721 12.9905 27.7328 13.2437 27.7077 13.4961H27.6906V13.4975C27.6906 16.6775 25.1006 19.2675 21.9206 19.2675H9.98061C6.80061 19.2675 4.21061 16.6775 4.21061 13.4975L4.21061 13.4961H4.19239C4.16724 13.247 4.1285 12.9972 4.08997 12.7487C3.98662 12.0822 3.88477 11.4254 4.05054 10.8176C4.21843 10.1772 4.64924 9.64497 5.07611 9.11764C5.33572 8.79692 5.59388 8.47801 5.79054 8.13765C5.99319 7.78587 6.14467 7.39463 6.29585 7.00416C6.54006 6.37342 6.78348 5.7447 7.24054 5.28765C7.69087 4.83732 8.30785 4.59437 8.92471 4.35148C9.3215 4.19524 9.71824 4.03903 10.0705 3.82765C10.4109 3.63099 10.7298 3.37283 11.0505 3.11322C11.5779 2.68635 12.1101 2.25554 12.7505 2.08765C13.3583 1.92188 14.0151 2.02373 14.6816 2.12708C15.1007 2.19207 15.5236 2.25765 15.9405 2.25765C16.3575 2.25765 16.7804 2.19207 17.1995 2.12708C17.8659 2.02373 18.5227 1.92188 19.1305 2.08765C19.771 2.25554 20.3032 2.68635 20.8305 3.11322C21.1513 3.37283 21.4702 3.63099 21.8105 3.82765C22.1623 4.0303 22.5536 4.18178 22.944 4.33296C23.5748 4.57717 24.2035 4.82059 24.6605 5.27765C25.1156 5.73266 25.3588 6.3616 25.602 6.9901C25.7542 7.38373 25.9064 7.77719 26.1105 8.12765C26.3072 8.46801 26.5653 8.78692 26.825 9.10764C27.2518 9.63497 27.6826 10.1672 27.8505 10.8076C28.0163 11.4154 27.9144 12.0722 27.8111 12.7387Z" fill="#F4F4F4"/>
<path d="M15.0495 4.47759L15.9995 6.11759C16.2095 6.48759 16.0895 6.94759 15.7195 7.15759C15.3495 7.36759 14.8895 7.23759 14.6795 6.87759L13.7295 5.23759C13.5195 4.86759 13.6495 4.40759 14.0095 4.19759C14.3795 3.98759 14.8395 4.11759 15.0495 4.47759Z" fill="#BEBEBE"/>
<path d="M19.3995 7.92769L19.7495 6.06769C19.8295 5.65769 20.2295 5.38769 20.6395 5.45769C21.0595 5.53769 21.3295 5.93769 21.2495 6.34769L20.8995 8.20769C20.8195 8.62769 20.4195 8.89769 20.0095 8.81769C19.5895 8.73769 19.3195 8.33769 19.3995 7.92769Z" fill="#BEBEBE"/>
<path d="M12.9195 12.6376L12.1495 10.9076C11.9795 10.5176 12.1495 10.0776 12.5295 9.90762C12.9095 9.73762 13.3595 9.90762 13.5295 10.2876L14.2995 12.0176C14.4695 12.3976 14.2995 12.8476 13.9195 13.0176C13.5395 13.1876 13.0895 13.0176 12.9195 12.6376Z" fill="#BEBEBE"/>
<path d="M9.22948 16.9977L9.57948 15.1377C9.64948 14.7177 10.0495 14.4477 10.4695 14.5277C10.8895 14.6077 11.1595 15.0077 11.0795 15.4177L10.7295 17.2777C10.6495 17.6977 10.2495 17.9677 9.83948 17.8877C9.41948 17.8077 9.14948 17.4077 9.22948 16.9977Z" fill="#BEBEBE"/>
<path d="M7.81949 11.4576L6.13949 12.3376C5.76949 12.5276 5.61949 12.9876 5.81949 13.3576C6.00949 13.7276 6.46949 13.8776 6.83949 13.6776L8.51949 12.7976C8.88949 12.6076 9.03948 12.1476 8.83949 11.7776C8.64949 11.4076 8.18949 11.2676 7.81949 11.4576Z" fill="#BEBEBE"/>
<path d="M9.03948 6.36759L7.90948 7.88759C7.65948 8.22759 7.72948 8.69759 8.06948 8.94759C8.40948 9.19759 8.87948 9.12759 9.12948 8.78759L10.2595 7.26759C10.5095 6.92759 10.4395 6.45759 10.0995 6.20759C9.76948 5.95759 9.28948 6.02759 9.03948 6.36759Z" fill="#BEBEBE"/>
<path d="M14.9295 16.5676L16.0595 15.0476C16.3095 14.7176 16.7795 14.6476 17.1195 14.8876C17.4595 15.1376 17.5295 15.6076 17.2795 15.9476L16.1495 17.4676C15.8995 17.8076 15.4295 17.8776 15.0895 17.6276C14.7495 17.3776 14.6795 16.9076 14.9295 16.5676Z" fill="#BEBEBE"/>
<path d="M23.5195 11.0076L24.7495 12.4476C25.0195 12.7676 25.4995 12.8076 25.8195 12.5376C26.1395 12.2676 26.1795 11.7876 25.9095 11.4676L24.6795 10.0276C24.4095 9.7076 23.9295 9.6676 23.6095 9.9376C23.2895 10.2176 23.2495 10.6876 23.5195 11.0076Z" fill="#BEBEBE"/>
<path d="M24.0395 16.5476L23.0895 14.9076C22.8795 14.5476 22.4195 14.4176 22.0495 14.6276C21.6895 14.8376 21.5595 15.2976 21.7695 15.6676L22.7195 17.3076C22.9295 17.6676 23.3895 17.7976 23.7595 17.5876C24.1195 17.3776 24.2495 16.9176 24.0395 16.5476Z" fill="#BEBEBE"/>
<path d="M18.4795 10.5476L20.2195 11.2976C20.5995 11.4576 20.7795 11.9076 20.6195 12.2976C20.4495 12.6876 19.9995 12.8676 19.6195 12.6976L17.8795 11.9476C17.4895 11.7776 17.3095 11.3276 17.4795 10.9476C17.6495 10.5576 18.0995 10.3776 18.4795 10.5476Z" fill="#BEBEBE"/>
</svg>
