<svg width="32" height="32" viewBox="0 0 32 32" fill="none" xmlns="http://www.w3.org/2000/svg">
<path d="M19.2806 22.6344C17.7109 23.6048 15.8607 24.1649 13.8797 24.1649C8.19946 24.1649 3.59473 19.5602 3.59473 13.8799C3.59473 8.1997 8.19946 3.59497 13.8797 3.59497C19.5599 3.59497 24.1646 8.1997 24.1646 13.8799C24.1646 15.8559 23.6074 17.7018 22.6415 19.2689L28.6596 23.8699C30.3096 25.1199 30.4696 27.5399 29.0196 28.9899C27.5496 30.4599 25.1396 30.2899 23.8796 28.6499L19.2806 22.6344ZM25.4196 25.4099C24.8396 25.9899 24.8396 26.9299 25.4196 27.5099C25.9996 28.0899 26.9396 28.0899 27.5196 27.5099C28.0996 26.9299 28.0996 25.9899 27.5196 25.4099C26.9396 24.8299 25.9996 24.8299 25.4196 25.4099Z" fill="#433B6B"/>
<path d="M25.76 13.88C25.76 20.4411 20.4411 25.76 13.88 25.76C7.31885 25.76 2 20.4411 2 13.88C2 7.31886 7.31885 2 13.88 2C20.4411 2 25.76 7.31886 25.76 13.88ZM22.8799 13.88C22.8799 8.90944 18.8504 4.88 13.8799 4.88C8.90932 4.88 4.87988 8.90944 4.87988 13.88C4.87988 18.8506 8.90932 22.88 13.8799 22.88C18.8504 22.88 22.8799 18.8506 22.8799 13.88Z" fill="#635994"/>
<path d="M19.3505 11.9801C19.0705 11.5901 18.7005 11.3101 18.2905 11.1701C17.8405 11.0101 17.4405 10.7201 17.1205 10.3701C16.9805 10.2101 16.8305 10.0601 16.6605 9.92005C15.0505 8.53005 12.7405 8.33005 10.9405 9.34005C10.4805 9.60005 9.98048 9.77005 9.46048 9.87005H9.45049C8.91049 9.98005 8.49049 10.4401 8.42049 10.9901C8.41049 11.1201 8.41048 11.2401 8.43048 11.3601C8.51048 11.8501 8.54049 12.3401 8.45049 12.8301C8.17049 14.3901 8.63049 16.0601 9.84049 17.2701C11.1605 18.5801 13.0205 19.0201 14.6905 18.5601C15.2705 18.4001 15.8805 18.3601 16.4805 18.4001C16.8705 18.4201 17.2605 18.2901 17.5605 17.9901C17.9505 17.6001 18.0705 17.0301 17.9005 16.5401C17.8205 16.3001 17.8405 16.0301 17.9405 15.8001V15.7901C18.0405 15.5601 18.2305 15.3901 18.4505 15.2901C18.8005 15.1301 19.1105 14.8701 19.3605 14.5201C19.8805 13.7401 19.8805 12.7201 19.3505 11.9801Z" fill="white"/>
<path d="M12.5905 16.18C13.9878 16.18 15.1205 15.0473 15.1205 13.65C15.1205 12.2527 13.9878 11.12 12.5905 11.12C11.1933 11.12 10.0605 12.2527 10.0605 13.65C10.0605 15.0473 11.1933 16.18 12.5905 16.18Z" fill="#F9C23C"/>
</svg>
