<svg width="32" height="32" viewBox="0 0 32 32" fill="none" xmlns="http://www.w3.org/2000/svg">
<path d="M23.3289 5.48C24.2898 5.48 25.0689 4.70097 25.0689 3.74C25.0689 2.77902 24.2898 2 23.3289 2C22.3679 2 21.5889 2.77902 21.5889 3.74C21.5889 4.70097 22.3679 5.48 23.3289 5.48Z" fill="#FCD53F"/>
<path d="M9.77284 22.5951L9.42925 22.4C8.60925 21.93 8.17925 21 8.34925 20.07C8.43925 19.57 8.69926 19.12 9.07926 18.79C9.60289 18.3327 10.3006 18.1583 10.9557 18.2868L10.4176 17.9806C9.40751 17.4078 8.87645 16.252 9.08471 15.117C9.19925 14.5027 9.51164 13.9508 9.98022 13.5447C10.7237 12.8986 11.7455 12.7114 12.6556 13.0214C11.8767 12.4096 11.4823 11.4109 11.6592 10.42C11.7692 9.82003 12.0792 9.27003 12.5392 8.87003C13.3992 8.12003 14.6492 8.00003 15.6392 8.56003L15.9863 8.75788C15.2016 8.22177 14.7912 7.2665 14.9693 6.32C15.0693 5.78 15.3493 5.29 15.7593 4.93C16.5393 4.26 17.6493 4.14 18.5493 4.65L20.1812 5.57831C19.6548 5.2373 19.3741 4.61365 19.4892 3.98999C19.5492 3.63999 19.7292 3.32999 19.9992 3.09999C20.4992 2.66999 21.2192 2.59999 21.7892 2.91999L24.9192 4.66996C25.4892 4.99996 25.7992 5.64996 25.6792 6.29996C25.6192 6.63996 25.4392 6.95996 25.1692 7.18996C24.6692 7.62996 23.9492 7.69996 23.3792 7.36996L22.9245 7.11145L22.9234 7.1137L25.0792 8.34002C25.9692 8.85002 26.4392 9.87002 26.2592 10.88C26.1692 11.42 25.8892 11.91 25.4692 12.27C24.727 12.9171 23.6768 13.048 22.81 12.6197L23.3192 12.91C24.3192 13.47 24.8492 14.61 24.6392 15.73C24.5292 16.33 24.2192 16.88 23.7592 17.28C23.0078 17.9352 21.9588 18.1172 21.0456 17.7727C21.7545 18.3956 22.0981 19.3543 21.9238 20.313C21.8093 20.9273 21.4969 21.4792 21.0283 21.8853C20.1536 22.6455 18.8937 22.7704 17.8836 22.1977L17.3374 21.8869C17.7855 22.3891 17.9955 23.0796 17.8693 23.7701C17.7793 24.2701 17.5193 24.7201 17.1393 25.0501C16.4293 25.6701 15.4093 25.7701 14.5893 25.3001L14.187 25.0716L13.5039 26.4758L9.00562 23.7768L9.77284 22.5951Z" fill="#F9C23C"/>
<path d="M23.5642 3.92543L23.0383 3.62644C22.4507 3.28621 21.7083 3.35838 21.1928 3.81202C20.9145 4.04915 20.7289 4.37907 20.667 4.72961C20.5816 5.19246 20.7076 5.65532 20.9874 6.00947L20.7085 5.84994C19.8085 5.33994 18.6885 5.44995 17.9085 6.12995C17.4885 6.48995 17.2085 6.98994 17.1085 7.52994C16.9435 8.41603 17.2841 9.30213 17.9664 9.85386C16.9974 9.3616 15.8135 9.51051 14.9885 10.23C14.5285 10.63 14.2185 11.18 14.1085 11.78C13.9243 12.7624 14.3095 13.7603 15.0818 14.3685C14.1705 14.0628 13.1433 14.2512 12.3927 14.8958C11.9235 15.3024 11.6003 15.8655 11.4961 16.4806C11.2917 17.6044 11.8081 18.7381 12.7804 19.3228C12.1153 19.1831 11.41 19.3559 10.8785 19.82C10.4985 20.15 10.2385 20.6 10.1485 21.1C9.97851 22.03 10.4185 22.96 11.2285 23.43L12.6985 24.27C13.5185 24.74 14.5385 24.64 15.2485 24.02C15.6285 23.69 15.8885 23.24 15.9785 22.74C16.1068 22.0308 15.8935 21.3274 15.4289 20.8271C16.4312 21.3659 17.6738 21.2319 18.5443 20.4843C19.0135 20.0777 19.3367 19.5147 19.4409 18.8995C19.6166 17.9333 19.2669 16.9671 18.5414 16.3376C19.4578 16.689 20.5134 16.5085 21.2685 15.85C21.7285 15.45 22.0385 14.9 22.1485 14.3C22.3472 13.1874 21.8255 12.065 20.8482 11.4914C21.6632 11.7766 22.5805 11.6123 23.2485 11.0299C23.6685 10.6699 23.9485 10.1699 24.0485 9.62995C24.2385 8.60995 23.7585 7.58994 22.8585 7.07994L22.5576 6.90776C23.0035 6.96768 23.4666 6.83624 23.8219 6.52355C24.1003 6.28642 24.2858 5.9565 24.3477 5.60596C24.4714 4.93581 24.1621 4.26566 23.5642 3.92543Z" fill="#FCD53F"/>
<path d="M9.08852 29.61C7.88852 28.93 7.46853 27.4 8.15853 26.2L9.39852 24.03L13.7485 26.51L12.5085 28.68C11.8085 29.88 10.2885 30.29 9.08852 29.61Z" fill="#008463"/>
<path d="M6.69877 15.67L8.25877 11.9C11.2388 14.47 12.2288 18.67 10.7188 22.31L10.5822 22.6401L15.0289 19.2601C18.7289 16.4401 24.0189 17.1601 26.8389 20.8601L19.6689 26.3101C16.4811 28.7397 12.1131 28.5416 9.1613 26.0739L9.15877 26.08C9.05428 25.9896 8.95222 25.8971 8.85264 25.8028C8.49604 25.4737 8.16309 25.1092 7.85889 24.7101L7.86624 24.7045C5.9231 22.1532 5.43406 18.7187 6.69877 15.67Z" fill="#44911B"/>
</svg>
