<svg width="32" height="32" viewBox="0 0 32 32" fill="none" xmlns="http://www.w3.org/2000/svg">
<path d="M20.0862 5.00243C20.1453 5.05287 20.1976 5.09763 20.25 5.15C20.72 5.6 21.02 6.24 21.01 6.95C21.01 7.32887 20.9256 7.68813 20.7746 8.01001H21.52C23.45 8.01001 25.02 9.57001 25.01 11.51C25.01 12.0477 24.8881 12.5575 24.6705 13.0132C26.531 13.0923 28.02 14.6304 28.02 16.51C28.02 18.44 26.45 20.01 24.52 20.01H7.5C5.57 20.01 4 18.44 4 16.51C4 14.6337 5.4838 13.0977 7.33967 13.0136C7.12195 12.5579 7 12.0479 7 11.51C7 9.57001 8.57 8.01001 10.51 8.01001H11.2455C11.0944 7.68813 11.01 7.32887 11.01 6.95C11.01 6.19 11.34 5.52 11.86 5.06L14.89 2.42C15.53 1.86 16.49 1.86 17.13 2.42L20.06 4.98C20.0689 4.98763 20.0776 4.99509 20.0862 5.00243Z" fill="#FF6DC6"/>
<path d="M18.2902 9.46007C18.0902 9.66007 18.0902 9.97007 18.2902 10.1701C18.4802 10.3701 18.8002 10.3701 19.0002 10.1701L19.7402 9.43007C19.9402 9.23007 19.9402 8.92007 19.7402 8.72007C19.5402 8.52007 19.2302 8.52007 19.0302 8.72007L18.2902 9.46007ZM9.2002 13.4301C9.2002 13.1501 9.4202 12.9301 9.7002 12.9301H10.7502C11.0302 12.9301 11.2502 13.1501 11.2502 13.4301C11.2502 13.7101 11.0302 13.9301 10.7502 13.9301H9.7002C9.4202 13.9301 9.2002 13.7101 9.2002 13.4301ZM20.8702 18.1101C21.0702 17.9101 21.0702 17.6001 20.8702 17.4001L20.1302 16.6601C19.9302 16.4601 19.6202 16.4601 19.4202 16.6601C19.2202 16.8601 19.2202 17.1701 19.4202 17.3701L20.1602 18.1101C20.3602 18.3101 20.6702 18.3101 20.8702 18.1101Z" fill="#5092FF"/>
<path d="M15.99 6.69998C16.19 6.89998 16.5 6.89998 16.7 6.69998C16.9 6.50998 16.9 6.18998 16.7 5.99998L15.96 5.24998C15.76 5.04998 15.45 5.04998 15.25 5.24998C15.05 5.44998 15.05 5.75998 15.25 5.95998L15.99 6.69998ZM20.74 11.78C20.94 11.58 21.25 11.58 21.45 11.78L22.19 12.52C22.39 12.72 22.39 13.03 22.19 13.23C21.99 13.43 21.68 13.43 21.48 13.23L20.74 12.49C20.54 12.3 20.54 11.98 20.74 11.78ZM11.86 18.11C11.66 17.91 11.66 17.6 11.86 17.4L12.6 16.66C12.8 16.46 13.11 16.46 13.31 16.66C13.51 16.86 13.51 17.17 13.31 17.37L12.57 18.11C12.38 18.31 12.06 18.31 11.86 18.11Z" fill="#EFD5FF"/>
<path d="M12.4699 9.46007C12.2699 9.66007 12.2699 9.97007 12.4699 10.1701C12.6599 10.3701 12.9799 10.3701 13.1699 10.1701L13.9199 9.43007C14.1199 9.23007 14.1199 8.92007 13.9199 8.72007C13.7199 8.52007 13.4099 8.52007 13.2099 8.72007L12.4699 9.46007ZM7.23984 15.7601C7.03984 15.9601 7.03984 16.2701 7.23984 16.4701C7.43984 16.6601 7.74984 16.6601 7.94984 16.4701L8.68984 15.7301C8.88984 15.5301 8.88984 15.2201 8.68984 15.0201C8.48984 14.8201 8.17984 14.8201 7.97984 15.0201L7.23984 15.7601ZM23.3298 16.4701C23.1298 16.2701 23.1298 15.9601 23.3298 15.7601L24.0698 15.0201C24.2698 14.8201 24.5798 14.8201 24.7798 15.0201C24.9798 15.2201 24.9798 15.5301 24.7798 15.7301L24.0398 16.4701C23.8398 16.6601 23.5198 16.6601 23.3298 16.4701ZM15.9899 14.1601C16.1899 14.3601 16.4999 14.3601 16.6999 14.1601C16.8999 13.9601 16.8999 13.6501 16.6999 13.4501L15.9599 12.7101C15.7599 12.5101 15.4499 12.5101 15.2499 12.7101C15.0499 12.9101 15.0499 13.2201 15.2499 13.4201L15.9899 14.1601Z" fill="#FFB02E"/>
<path d="M25.2404 19.98H6.78043C5.59043 19.98 4.74043 21.12 5.08043 22.26L7.18615 29.1556C7.30615 29.5356 7.66615 29.7956 8.07615 29.7956H23.9461C24.3461 29.7956 24.7061 29.5356 24.8361 29.1556L26.9504 22.26C27.2804 21.12 26.4304 19.98 25.2404 19.98Z" fill="#FBB8AB"/>
<path d="M8.00015 30H16.0001H24.0002C25.0402 30 25.3914 29.3541 25.5002 29C25.5002 29 27.436 22.9284 27.3156 22.4361C27.2423 22.1757 26.922 22.1445 26.8269 22.3445L26.6742 22.6957L26.5673 22.4361C26.4969 22.2751 26.141 22.0651 25.7885 22.4361L25.0402 23.3066C24.9744 23.3834 24.8577 23.4067 24.8111 23.3066L24.4669 22.5142C24.2919 22.1292 23.5686 22.0359 23.0027 22.5492L22.1997 23.3066C22.0519 23.4592 21.8244 23.4884 21.6804 23.3066L20.978 22.4361C20.6227 22.0067 19.7886 22.1934 19.2523 22.5888L18.3971 23.3066C18.1903 23.4534 17.9336 23.4767 17.7404 23.3066L16.9419 22.5142C16.4928 22.1526 15.5711 22.0242 15.0228 22.5492L14.2279 23.3066C14.0836 23.4184 13.7803 23.4359 13.6018 23.3066L12.5611 22.4362C12.112 22.0534 11.2545 22.1234 10.8753 22.5888L10.3032 23.3066C10.2103 23.4126 10.0412 23.4593 9.82975 23.3066L8.85238 22.4361C8.46617 22.1117 7.73118 22.1059 7.49321 22.5888L7.21832 23.1997C7.21832 23.1997 7.14201 23.4593 7.00452 23.3066L6.28676 22.4361C5.77702 21.8843 5.38619 22.4361 5.30938 22.6957L5.15667 22.3445C5.03035 22.0709 4.5112 22.3445 4.69852 23.0012L6.50015 29C6.57692 29.2319 7.00452 30 8.00015 30Z" fill="#5092FF"/>
<path d="M11.91 30L10.9904 25.4019C10.9362 25.1311 10.6728 24.9555 10.402 25.0097C10.1313 25.0638 9.95565 25.3273 10.0098 25.598L10.8902 30H11.91ZM21.11 30L21.9904 25.598C22.0445 25.3273 21.8689 25.0638 21.5981 25.0097C21.3274 24.9555 21.064 25.1311 21.0098 25.4019L20.0902 30H21.11ZM16.5001 25.5V30H16.0001H15.5001V25.5C15.5001 25.2239 15.7239 25 16.0001 25C16.2762 25 16.5001 25.2239 16.5001 25.5Z" fill="#3F5FFF"/>
</svg>
