<svg width="32" height="32" viewBox="0 0 32 32" fill="none" xmlns="http://www.w3.org/2000/svg">
<path d="M20.7399 29.96H11.4599C7.43992 29.96 4.16992 26.7 4.16992 22.67V19.79H28.0199V22.67C28.0299 26.7 24.7699 29.96 20.7399 29.96Z" fill="#9B9B9B"/>
<path d="M22.02 13.2801C25.22 13.2801 27.82 15.8801 27.82 19.0801C27.82 22.2801 25.22 24.8801 22.02 24.8801H10.02C6.82 24.8801 4.22 22.2801 4.22 19.0801C4.22 15.8801 6.82 13.2801 10.02 13.2801H22.02ZM22.02 11.0601H10.02C5.59 11.0601 2 14.6501 2 19.0801C2 23.5101 5.59 27.1001 10.02 27.1001H22.02C26.45 27.1001 30.04 23.5101 30.04 19.0801C30.04 14.6501 26.45 11.0601 22.02 11.0601Z" fill="#D3D3D3"/>
<path d="M22.0197 13.28C25.2197 13.28 27.8197 15.88 27.8197 19.08C27.8197 22.28 25.2197 24.88 22.0197 24.88H10.0197C6.81973 24.88 4.21973 22.28 4.21973 19.08C4.21973 15.88 6.81973 13.28 10.0197 13.28H22.0197Z" fill="#FF6723"/>
<path d="M13.3104 10C9.7704 10 6.7804 12.33 5.7904 15.54C5.4404 16.7 6.3204 17.86 7.5304 17.86H19.0804C20.2904 17.86 21.1804 16.69 20.8204 15.54C19.8304 12.33 16.8404 10 13.3104 10Z" fill="#F4F4F4"/>
<path d="M23.8798 16.6799C22.7698 16.6799 21.8598 17.5099 21.7398 18.5899C21.7298 18.7199 21.8298 18.8399 21.9598 18.8399H25.7998C25.9298 18.8399 26.0298 18.7299 26.0198 18.5899C25.8898 17.5199 24.9798 16.6799 23.8798 16.6799Z" fill="#FCD53F"/>
<path d="M18.5098 18.8301C17.3998 18.8301 16.4898 19.6601 16.3698 20.7401C16.3598 20.8701 16.4598 20.9901 16.5898 20.9901H20.4298C20.5598 20.9901 20.6598 20.8801 20.6498 20.7401C20.5298 19.6601 19.6198 18.8301 18.5098 18.8301Z" fill="#FCD53F"/>
<path d="M21.1598 22.89C21.2798 21.81 22.1898 20.98 23.2998 20.98C24.3998 20.98 25.3198 21.82 25.4398 22.89C25.4498 23.03 25.3498 23.14 25.2198 23.14H21.3798C21.2498 23.14 21.1498 23.02 21.1598 22.89Z" fill="#FCD53F"/>
<path d="M15.3099 12.21L16.0699 12.65C16.2399 12.75 16.4499 12.69 16.5499 12.52C16.6499 12.35 16.5899 12.14 16.4199 12.04L15.6499 11.6C15.4799 11.5 15.2699 11.56 15.1699 11.73C15.0799 11.89 15.1399 12.11 15.3099 12.21Z" fill="#D3D3D3"/>
<path d="M13.1698 13.6001L13.6098 14.3601C13.6998 14.5301 13.6498 14.7401 13.4798 14.8401C13.3098 14.9301 13.0998 14.8801 12.9998 14.7101L12.5598 13.9501C12.4698 13.7801 12.5198 13.5701 12.6898 13.4701C12.8598 13.3801 13.0698 13.4301 13.1698 13.6001Z" fill="#D3D3D3"/>
<path d="M8.64985 14.97L7.88985 15.41C7.71985 15.5 7.49985 15.45 7.40985 15.28C7.30985 15.11 7.36985 14.9 7.53985 14.8L8.29985 14.36C8.46985 14.27 8.67985 14.32 8.77985 14.49C8.86985 14.66 8.81985 14.87 8.64985 14.97Z" fill="#D3D3D3"/>
<path d="M13.8198 16.4501L14.6198 16.1001C14.7998 16.0201 14.9998 16.1001 15.0798 16.2801C15.1598 16.4601 15.0798 16.6601 14.8998 16.7401L14.0998 17.0901C13.9198 17.1701 13.7198 17.0901 13.6398 16.9101C13.5598 16.7301 13.6398 16.5301 13.8198 16.4501Z" fill="#D3D3D3"/>
<path d="M18.0599 15.5901L17.9899 16.4601C17.9799 16.6501 18.1199 16.8201 18.3099 16.8301C18.4999 16.8401 18.6699 16.7001 18.6799 16.5101L18.7499 15.6401C18.7599 15.4501 18.6199 15.2801 18.4299 15.2701C18.2399 15.2501 18.0699 15.4001 18.0599 15.5901Z" fill="#D3D3D3"/>
<path d="M10.9898 16.78L10.2298 16.34C10.0698 16.24 10.0098 16.03 10.1098 15.86C10.1998 15.69 10.4198 15.64 10.5798 15.73L11.3398 16.17C11.5098 16.27 11.5698 16.48 11.4698 16.65C11.3698 16.82 11.1598 16.88 10.9898 16.78Z" fill="#D3D3D3"/>
<path d="M10.0398 12.6701L9.81985 13.5201C9.77985 13.7101 9.88985 13.9001 10.0798 13.9401C10.2599 13.9901 10.4499 13.8801 10.4999 13.6901L10.7199 12.8401C10.7699 12.6501 10.6499 12.4601 10.4699 12.4101C10.2799 12.3701 10.0898 12.4901 10.0398 12.6701Z" fill="#D3D3D3"/>
<path d="M15.6498 15.0101L15.8698 14.1601C15.9198 13.9801 16.1098 13.8601 16.2998 13.9101C16.4798 13.9601 16.5998 14.1501 16.5498 14.3401L16.3298 15.1901C16.2798 15.3701 16.0898 15.4901 15.8998 15.4401C15.7198 15.3901 15.5998 15.2001 15.6498 15.0101Z" fill="#D3D3D3"/>
<path d="M7.78 20.29C8.21078 20.29 8.56 19.9408 8.56 19.51C8.56 19.0792 8.21078 18.73 7.78 18.73C7.34922 18.73 7 19.0792 7 19.51C7 19.9408 7.34922 20.29 7.78 20.29Z" fill="#00D26A"/>
<path d="M12.88 21.18C13.3108 21.18 13.66 20.8308 13.66 20.4C13.66 19.9692 13.3108 19.62 12.88 19.62C12.4492 19.62 12.1 19.9692 12.1 20.4C12.1 20.8308 12.4492 21.18 12.88 21.18Z" fill="#00D26A"/>
<path d="M10.32 22.91C10.32 23.3408 9.97079 23.69 9.54001 23.69C9.10923 23.69 8.76001 23.3408 8.76001 22.91C8.76001 22.4792 9.10923 22.13 9.54001 22.13C9.97079 22.13 10.32 22.4792 10.32 22.91Z" fill="#00D26A"/>
</svg>
