<svg width="32" height="32" viewBox="0 0 32 32" fill="none" xmlns="http://www.w3.org/2000/svg">
<path d="M16.0441 1C13.048 1 10.2384 2.37241 8.55965 4.64546L8.4081 4.84918C5.06225 9.38456 3.5467 14.8528 4.11795 20.2995L4.2112 21.1573C4.79411 26.7434 9.90032 31 15.9975 31C22.1179 31 27.2242 26.7219 27.7837 21.1144L27.8887 20.1172C28.4482 14.6276 26.8861 9.12724 23.4819 4.59185C21.7915 2.35097 19.0169 1 16.0441 1Z" fill="white"/>
<path d="M16 28C20.4183 28 24 24.4183 24 20C24 15.5817 20.4183 12 16 12C11.5817 12 8 15.5817 8 20C8 24.4183 11.5817 28 16 28Z" fill="#FFD161"/>
</svg>
