<svg width="32" height="32" viewBox="0 0 32 32" fill="none" xmlns="http://www.w3.org/2000/svg">
<path d="M14.9708 1.13984L15.0479 1.15193C15.5191 1.2255 15.9016 1.28313 16.2632 1.28313C16.6249 1.28313 17.0074 1.2255 17.4785 1.15193L17.5557 1.13984C18.2229 1.03506 19.1197 0.894235 19.9883 1.12619C20.8985 1.36315 21.6227 1.95159 22.1554 2.38438L22.2138 2.43181C22.5711 2.72166 22.8549 2.94911 23.144 3.11756C23.4432 3.28959 23.7917 3.42659 24.2283 3.59548L24.2998 3.62309C24.9351 3.86828 25.7941 4.19975 26.4403 4.84603C27.0866 5.4923 27.4181 6.35123 27.6633 6.98659L27.6909 7.05807C27.8601 7.49555 27.9973 7.84453 28.1699 8.14417L28.1715 8.14699C28.3386 8.43949 28.5678 8.72658 28.8626 9.09121L28.9088 9.14834C29.3372 9.67733 29.9182 10.3949 30.1592 11.2944C30.3925 12.1641 30.2515 13.0625 30.1465 13.7307L30.1344 13.8078C30.0609 14.279 30.0032 14.6615 30.0032 15.0231C30.0032 15.3844 30.0607 15.765 30.1343 16.2346L30.1395 16.2678C30.1933 16.6111 30.2556 17.0089 30.2779 17.4184L30.3027 17.5884C30.3224 17.723 30.3442 17.8588 30.3672 18.0024L30.3797 18.08C30.4911 18.7706 30.6401 19.6939 30.3991 20.5921L30.3982 20.5953C30.1485 21.5134 29.5537 22.2472 29.1117 22.7926L29.0652 22.85C28.7724 23.2117 28.5409 23.5009 28.3682 23.7947C28.1934 24.1001 28.0544 24.4545 27.8839 24.8964L27.8564 24.9677C27.6063 25.6172 27.2701 26.4903 26.6103 27.15C25.9506 27.8098 25.0775 28.146 24.428 28.3961L24.3567 28.4236C23.9139 28.5945 23.559 28.7337 23.2531 28.9091C22.955 29.0822 22.6637 29.3164 22.2979 29.6141L22.2396 29.6615C21.6997 30.1014 20.9701 30.696 20.0521 30.9388C19.1681 31.1787 18.2556 31.0353 17.5749 30.9284L17.497 30.9162C17.0197 30.8416 16.631 30.7829 16.2632 30.7829C15.8924 30.7829 15.5009 30.841 15.0224 30.9145L14.9456 30.9263C14.2645 31.0315 13.357 31.1715 12.4783 30.9399L12.4708 30.9379C11.5528 30.6882 10.8189 30.0934 10.2736 29.6514L10.2162 29.6049C9.85449 29.3121 9.56522 29.0806 9.27147 28.9079C8.96601 28.7331 8.61164 28.5941 8.16973 28.4236L8.09843 28.3961C7.44897 28.146 6.57588 27.8098 5.91613 27.15C5.25637 26.4903 4.92017 25.6172 4.67008 24.9677L4.64261 24.8964C4.4717 24.4536 4.33252 24.0987 4.15713 23.7928C3.984 23.4948 3.74978 23.2034 3.45211 22.8376L3.40464 22.7793C2.96464 22.2393 2.36992 21.5095 2.12716 20.5912C1.89317 19.7256 2.03413 18.8248 2.13834 18.1589L2.15055 18.0808C2.17681 17.912 2.20126 17.7546 2.2222 17.5993L2.25045 17.3898C2.27417 16.9925 2.33454 16.6063 2.38683 16.2717L2.39203 16.2384C2.4656 15.7673 2.52323 15.3848 2.52323 15.0231C2.52323 14.6615 2.4656 14.279 2.39203 13.8078L2.37994 13.7307C2.27516 13.0634 2.13434 12.1667 2.36628 11.2982C2.60323 10.3879 3.19168 9.66365 3.62448 9.13096L3.67191 9.07255C3.96179 8.71519 4.18925 8.43143 4.35771 8.14226C4.52971 7.84305 4.66671 7.49462 4.83558 7.05807L4.86319 6.98659C5.10838 6.35123 5.43985 5.4923 6.08613 4.84603C6.7324 4.19975 7.59133 3.86828 8.2267 3.62309L8.29817 3.59548C8.73565 3.42625 9.08463 3.28903 9.38427 3.11651L9.38709 3.11489C9.67959 2.94775 9.96668 2.71858 10.3313 2.42376L10.3884 2.37754C10.9174 1.94917 11.6349 1.36814 12.5345 1.12719C13.4042 0.893834 14.3026 1.03491 14.9708 1.13984Z" fill="#B4ACBC"/>
<path d="M29.0033 15.0231C29.0033 13.8531 29.4834 12.6331 29.1933 11.5531C28.8934 10.4331 27.8633 9.62312 27.3033 8.64312C26.7333 7.65312 26.5333 6.35312 25.7333 5.55312C24.9333 4.75312 23.6333 4.55312 22.6433 3.98312C21.6633 3.41312 20.8533 2.38312 19.7333 2.09312C18.6533 1.80312 17.4334 2.28312 16.2634 2.28312C15.0934 2.28312 13.8734 1.80312 12.7934 2.09312C11.6734 2.39312 10.8633 3.42312 9.88335 3.98312C8.89335 4.55312 7.59335 4.75312 6.79335 5.55312C5.99335 6.35312 5.79335 7.65312 5.22335 8.64312C4.65335 9.62312 3.62335 10.4331 3.33335 11.5531C3.04335 12.6331 3.52335 13.8531 3.52335 15.0231C3.52335 16.1931 3.04335 17.4131 3.33335 18.4931C3.63335 19.6131 4.66335 20.4231 5.22335 21.4031C5.79335 22.3931 5.99335 23.6931 6.79335 24.4931C7.59335 25.2931 8.89335 25.4931 9.88335 26.0631C10.8633 26.6331 11.6734 27.6631 12.7934 27.9531C13.8734 28.2431 15.0934 27.7631 16.2634 27.7631C17.4334 27.7631 18.6533 28.2431 19.7333 27.9531C20.8533 27.6531 21.6633 26.6231 22.6433 26.0631C23.6333 25.4931 24.9333 25.2931 25.7333 24.4931C26.5333 23.6931 26.7333 22.3931 27.3033 21.4031C27.8733 20.4231 28.9033 19.6131 29.1933 18.4931C29.4834 17.4031 29.0033 16.1931 29.0033 15.0231Z" fill="#F3EEF8"/>
<path d="M21.9039 18.6231C21.0039 19.7831 19.7139 20.5231 18.2639 20.7031C16.8439 20.8831 15.4339 20.5131 14.2839 19.6531C14.2639 19.6431 14.2439 19.6231 14.2239 19.6131L14.2039 19.5931C13.3339 18.9131 12.8839 17.8231 13.0639 16.6631C13.0839 16.5431 13.1139 16.4131 13.1539 16.3031C13.8439 14.1631 16.3139 13.5231 17.9339 14.7331C17.9439 14.7331 17.9439 14.7431 17.9539 14.7431C18.0539 14.8231 18.1439 14.9231 18.1839 15.0531C18.2939 15.3631 18.1739 15.6931 17.8639 15.8631C17.6539 15.9831 17.3839 15.9431 17.1839 15.7931L17.1739 15.7831L17.1439 15.7631C16.5939 15.3531 15.8539 15.2631 15.2539 15.6131C14.5739 16.0031 14.2439 16.7031 14.3339 17.4131C14.3939 17.8731 14.6239 18.2831 14.9839 18.5731L15.0039 18.5831C15.0139 18.5931 15.0339 18.6031 15.0539 18.6231C15.9339 19.2831 17.0039 19.5631 18.0939 19.4231C19.2039 19.2831 20.1939 18.7131 20.8739 17.8331C21.5639 16.9431 21.8639 15.8331 21.7139 14.7131C21.5739 13.6831 21.0439 12.7631 20.2639 12.0731L20.1339 11.9631L20.1239 11.9531C20.0939 11.9331 20.0639 11.9131 20.0439 11.8931C18.6639 10.8631 16.9639 10.4131 15.2539 10.6231C13.5039 10.8431 11.9439 11.7331 10.8639 13.1331C10.1239 14.0931 9.66393 15.2131 9.52393 16.3831C9.49393 16.6731 9.27393 16.9031 8.98393 16.9531H8.97393C8.56393 17.0231 8.18393 16.6731 8.23393 16.2531C8.39393 14.8431 8.94393 13.4931 9.83393 12.3331C11.1239 10.6631 12.9939 9.59314 15.0839 9.33314C17.1339 9.07314 19.1639 9.61314 20.8139 10.8431C20.8439 10.8631 20.8839 10.8931 20.9139 10.9231L20.9339 10.9431C22.0839 11.8431 22.8139 13.1231 22.9939 14.5731C23.1839 16.0331 22.7939 17.4731 21.9039 18.6231Z" fill="#F8312F"/>
</svg>
