<svg width="32" height="32" viewBox="0 0 32 32" fill="none" xmlns="http://www.w3.org/2000/svg">
<path d="M2 15C2 7.8203 7.8203 2 15 2H17C24.1797 2 30 7.8203 30 15V17C30 24.1797 24.1797 30 17 30H15C7.8203 30 2 24.1797 2 17V15Z" fill="#F3AD61"/>
<path d="M6.86977 17.25L6.68977 17.07C6.44977 16.83 6.44977 16.43 6.68977 16.19L16.1998 6.68C16.4398 6.44 16.8398 6.44 17.0798 6.68L17.2598 6.86C17.4998 7.1 17.4998 7.5 17.2598 7.74L7.74977 17.25C7.49977 17.5 7.10977 17.5 6.86977 17.25Z" fill="#D3883E"/>
<path d="M8.09976 23.8999C7.80976 23.6099 7.80976 23.1299 8.09976 22.8399L22.8398 8.09995C23.1298 7.80995 23.6098 7.80995 23.8998 8.09995C24.1898 8.38995 24.1898 8.86995 23.8998 9.15995L9.15976 23.8999C8.86976 24.1899 8.38976 24.1899 8.09976 23.8999Z" fill="#D3883E"/>
<path d="M14.7498 25.1399L14.9298 25.3199C15.1698 25.5599 15.5598 25.5599 15.8098 25.3199L25.3198 15.8099C25.5598 15.5699 25.5598 15.1699 25.3198 14.9299L25.1398 14.7499C24.8998 14.5099 24.4998 14.5099 24.2598 14.7499L14.7498 24.2599C14.5098 24.4999 14.5098 24.8999 14.7498 25.1399Z" fill="#D3883E"/>
</svg>
