<svg width="32" height="32" viewBox="0 0 32 32" fill="none" xmlns="http://www.w3.org/2000/svg">
<path d="M15.4697 26.3499L14.4197 24.5599C14.2297 24.2399 13.7697 24.2399 13.5797 24.5599L12.5197 26.3599C12.5097 26.3799 12.4897 26.4099 12.4797 26.4299L12.4697 26.4399C12.3197 26.7099 12.2497 27.0099 12.2597 27.3399C12.2997 28.2499 13.0597 28.9899 13.9697 29.0099C14.9397 29.0199 15.7297 28.2399 15.7297 27.2799C15.7297 26.9299 15.6397 26.6099 15.4697 26.3499Z" fill="#FF6723"/>
<path d="M13.9998 28.32C14.5245 28.32 14.9498 27.8947 14.9498 27.37C14.9498 26.8454 14.5245 26.42 13.9998 26.42C13.4751 26.42 13.0498 26.8454 13.0498 27.37C13.0498 27.8947 13.4751 28.32 13.9998 28.32Z" fill="#FFB02E"/>
<path d="M21 21.9701V20.4301H7V21.9701C7 23.0901 7.91 24.0001 9.03 24.0001H9.5L7.83 29.0101C7.67 29.5001 8.03 30.0001 8.54 30.0001H19.46C19.97 30.0001 20.33 29.5001 20.17 29.0101L18.5 24.0001H18.47C19.59 24.0001 21 23.0901 21 21.9701ZM17.81 27.9301H10.19L11.5 24.0001H16.5L17.81 27.9301Z" fill="#636363"/>
<path d="M8.5 8H19.5C21.43 8 23 9.57 23 11.5V14.7132L26.02 14.28C27.07 14.13 28 14.94 28 16C28 17.06 27.07 17.87 26.02 17.72L23 17.2869V18.5C23 20.43 21.43 22 19.5 22H8.5C6.57 22 5 20.43 5 18.5V11.5C5 9.57 6.57 8 8.5 8Z" fill="#F8312F"/>
<path d="M8.5 9H19.5C20.88 9 22 10.12 22 11.5C22 11.5924 21.995 11.6836 21.9852 11.7734H6.0148C6.00502 11.6836 6 11.5924 6 11.5C6 10.12 7.12 9 8.5 9Z" fill="#CA0B4A"/>
<path d="M22 11.76C21.8898 10.76 21.0382 9.98999 20.0063 9.98999H7.99374C6.9618 9.98999 6.11021 10.77 6 11.76C6.12023 13.02 7.19224 14 8.48466 14H19.5053C20.7977 14 21.8698 13.02 22 11.76Z" fill="#FFF478"/>
<path d="M19.9074 11.9999L21.74 5.17993L20.77 4.92993L18.8758 11.9999H19.9074Z" fill="#D3D3D3"/>
<path d="M16.5 11.9999V4.98993H17.5V11.9999H16.5Z" fill="#D3D3D3"/>
<path d="M16 5.99C16 6.54 16.45 6.99 17 6.99C17.55 6.99 18 6.54 18 5.99V3C18 2.45 17.55 2 17 2C16.45 2 16 2.45 16 3V5.99Z" fill="#A56953"/>
<path d="M20.03 5.76998C19.89 6.29998 20.21 6.84998 20.74 6.98998C21.27 7.12998 21.82 6.80998 21.96 6.27998L22.78 3.25998C22.92 2.72998 22.6 2.17998 22.07 2.03998C21.54 1.89998 20.99 2.21998 20.85 2.74998L20.03 5.76998Z" fill="#A56953"/>
<path d="M15.3899 12.23C15.3899 11.42 16.0499 10.77 16.8499 10.77C17.6499 10.77 18.2999 11.42 18.2999 12.23H15.3899Z" fill="#FFB02E"/>
<path d="M9.58984 12.96C9.58984 11.89 10.4598 11.02 11.5298 11.02C12.6098 11.02 13.4798 11.89 13.4798 12.96H9.58984Z" fill="#FFB02E"/>
</svg>
