<svg width="32" height="32" viewBox="0 0 32 32" fill="none" xmlns="http://www.w3.org/2000/svg">
<path d="M28.9573 23.305L28.5173 22.875C25.3573 19.805 21.3873 17.715 17.0673 16.825L15.8273 16.575L12.2373 23.365L13.4773 23.615C17.7873 24.495 21.7673 26.595 24.9273 29.665L25.0073 29.755C25.4273 30.155 26.1073 30.045 26.3773 29.535L29.1173 24.335C29.2973 23.995 29.2273 23.575 28.9573 23.305Z" fill="#D3D3D3"/>
<path d="M17.5775 23.0549C19.0075 24.4849 21.4175 24.1149 22.3475 22.3249C25.0975 17.0849 24.2675 10.4649 19.8675 6.06489C15.4675 1.66489 8.8475 0.83489 3.6075 3.58489C1.8175 4.52489 1.4475 6.93489 2.8775 8.35489L17.5775 23.0549Z" fill="#D3883E"/>
<path d="M3.15777 23.6349C1.72777 25.0649 2.09777 27.4749 3.88777 28.4049C9.12777 31.1549 15.7478 30.3249 20.1478 25.9249C25.5078 20.5649 25.5678 11.9049 20.3178 6.47485L3.15777 23.6349Z" fill="#F9C23C"/>
<path d="M3.15777 23.6349C1.72777 25.0649 2.09777 27.4749 3.88777 28.4049C9.12777 31.1549 15.7478 30.3249 20.1478 25.9249C25.5078 20.5649 25.5678 11.9049 20.3178 6.47485L3.15777 23.6349Z" fill="#FFB02E"/>
</svg>
