<svg width="32" height="32" viewBox="0 0 32 32" fill="none" xmlns="http://www.w3.org/2000/svg">
<path d="M28.87 12.33C28.87 6.62 24.25 2 18.54 2H13.33C7.63 2 3 6.62 3 12.33L7.7 21.03H24.17L28.87 12.33Z" fill="#CA0B4A"/>
<path d="M16.5301 3.60999H14.3101L13.6875 4.65625L13.7736 7.10132L11.76 7.31999L11.1875 8.375L11.7997 13.8456L10.63 6.83999C10.55 6.38999 10.12 6.07999 9.66998 6.15999L7.47998 6.52999L6.96875 7.5L10.56 25L12.75 24.63C12.8383 24.6143 12.9212 24.5851 12.9969 24.5449L13.1562 25.9688L16.01 25.7C16.47 25.65 16.8 25.24 16.75 24.78L16.6912 24.2442L18.95 24.56C19.41 24.62 19.83 24.3 19.89 23.84L20.9133 16.0058L20.53 25.66L22.73 25.95C23.19 26.01 23.61 25.69 23.67 25.23L25.88 8.30999C25.94 7.84999 25.62 7.42999 25.16 7.36999L22.96 7.07999L21.9896 7.76551L22.1 6.92C22.16 6.46 21.83 6.04 21.38 5.98L19.18 5.69L18.3438 6.40625L17.3601 14.0602V4.43999C17.3701 3.97999 16.9901 3.60999 16.5301 3.60999Z" fill="#FCD53F"/>
<path d="M13.8503 3.60999H14.3103V7.11265C14.2038 7.07943 14.0887 7.06712 13.9703 7.07999L13.0203 7.18316V4.43999C13.0203 3.97999 13.3903 3.60999 13.8503 3.60999Z" fill="#FFB02E"/>
<path d="M13.3907 22.2021L13.8002 25.94L13.3402 25.99C12.8802 26.04 12.4702 25.71 12.4202 25.25L10.5602 8.28999C10.5102 7.82999 10.8402 7.41999 11.3002 7.36999L11.7602 7.31999L13.3907 22.2021V22.2021Z" fill="#FFB02E"/>
<path d="M7.47018 6.51999L7.02018 6.59999C6.57018 6.67999 6.26018 7.10999 6.33018 7.55999L9.14018 24.39C9.22018 24.84 9.65018 25.15 10.1002 25.08L10.5602 25L7.47018 6.51999Z" fill="#FFB02E"/>
<path d="M19.8902 23.84C19.8496 24.1519 19.6434 24.3994 19.3714 24.5078L19.3502 24.67C19.2902 25.13 19.6102 25.55 20.0702 25.61L20.5302 25.67L22.9602 7.08999L22.5002 7.02999C22.3521 7.01068 22.2082 7.03075 22.0791 7.0822L19.8902 23.84Z" fill="#FFB02E"/>
<path d="M19.1702 5.69L18.7102 5.63C18.2502 5.57 17.8302 5.89 17.7702 6.35L15.5602 23.27C15.5002 23.73 15.8202 24.15 16.2802 24.21L16.7402 24.27L19.1702 5.69Z" fill="#FFB02E"/>
<path d="M24.3498 12.33C23.6498 12.33 23.0698 12.84 22.9498 13.53C22.3598 16.87 19.4498 19.41 15.9398 19.41C12.4298 19.41 9.51977 16.87 8.92977 13.53C8.80977 12.84 8.22977 12.33 7.52977 12.33H3.00977L6.63977 28.29C6.87977 29.35 7.81977 30.1 8.90977 30.1H22.9698C24.0598 30.1 24.9998 29.35 25.2398 28.29L28.8698 12.33H24.3498Z" fill="#F8312F"/>
</svg>
