<svg width="32" height="32" viewBox="0 0 32 32" fill="none" xmlns="http://www.w3.org/2000/svg">
<path d="M13.88 28.89V20.7C12.32 21.3 10.23 20.54 10.12 18.34C10.11 18.24 10.11 18.14 10.11 18.03V5C8.87 5 7.86 6.01 7.86 7.25V11.69C7.86 11.86 7.72 12 7.55 12C7.38 12 7.24 11.86 7.24 11.69V7.25C7.25 6.01 6.24 5 5 5V17.93C5 25.14 8.99 28.36 14.23 28.93C14.12 28.92 14 28.91 13.88 28.89Z" fill="#FF6723"/>
<path d="M18.5898 2C14.6798 2 11.5098 5.17 11.5098 9.08V10.18C11.5098 12.32 12.6298 14.19 14.3198 15.25C15.1098 15.74 15.5698 16.62 15.5698 17.55V18.18C15.5698 19.5 14.8298 20.35 13.8898 20.71V28.91C14.5598 29 15.2598 29.04 15.9698 29.05C22.0398 29.07 26.9898 24.13 26.9898 18.06V10.4C26.9798 5.76 23.2198 2 18.5898 2Z" fill="#FFB02E"/>
<path d="M17.5197 7.36002C17.5197 8.30443 16.7541 9.07002 15.8097 9.07002C14.8653 9.07002 14.0997 8.30443 14.0997 7.36002C14.0997 6.41562 14.8653 5.65002 15.8097 5.65002C16.7541 5.65002 17.5197 6.41562 17.5197 7.36002Z" fill="#FF822D"/>
<path d="M14.0997 11.83C14.5857 11.83 14.9797 11.436 14.9797 10.95C14.9797 10.464 14.5857 10.07 14.0997 10.07C13.6137 10.07 13.2197 10.464 13.2197 10.95C13.2197 11.436 13.6137 11.83 14.0997 11.83Z" fill="#FF822D"/>
<path d="M17.7897 12.31C18.4083 12.31 18.9097 11.8086 18.9097 11.19C18.9097 10.5714 18.4083 10.07 17.7897 10.07C17.1712 10.07 16.6697 10.5714 16.6697 11.19C16.6697 11.8086 17.1712 12.31 17.7897 12.31Z" fill="#FF822D"/>
</svg>
