<svg width="36" height="36" viewBox="0 0 36 36" fill="none" xmlns="http://www.w3.org/2000/svg">
<path d="M3.53613 11.3251L9.69822 9.06312C13.1014 7.81389 16.873 9.56004 18.1222 12.9633L11.9602 15.2252C8.55693 16.4744 4.78537 14.7283 3.53613 11.3251Z" fill="#608842"/>
<path d="M19.6822 2.45516C20.2565 2.69224 20.5299 3.35 20.2928 3.92431C19.5358 5.75827 18.6189 10.7168 21.2313 15.2819C21.5399 15.8212 21.3529 16.5085 20.8137 16.8171C20.2744 17.1257 19.5871 16.9387 19.2785 16.3994C16.2226 11.0593 17.2763 5.33504 18.2131 3.06578C18.4502 2.49147 19.1079 2.21809 19.6822 2.45516Z" fill="#96C34A"/>
<path d="M30.4373 29.0567C30.4373 31.6033 28.3729 33.6677 25.8263 33.6677C23.2798 33.6677 21.2153 31.6033 21.2153 29.0567C21.2153 26.5101 23.2798 24.4457 25.8263 24.4457C28.3729 24.4457 30.4373 26.5101 30.4373 29.0567Z" fill="#321B41"/>
<path d="M31.722 21.9411C31.722 24.4877 29.6576 26.5521 27.111 26.5521C24.5644 26.5521 22.5 24.4877 22.5 21.9411C22.5 19.3945 24.5644 17.3301 27.111 17.3301C29.6576 17.3301 31.722 19.3945 31.722 21.9411Z" fill="#533566"/>
<path d="M27.1111 19.4472C29.6577 19.4472 31.7221 17.3828 31.7221 14.8362C31.7221 12.2896 29.6577 10.2252 27.1111 10.2252C24.5645 10.2252 22.5001 12.2896 22.5001 14.8362C22.5001 17.3828 24.5645 19.4472 27.1111 19.4472Z" fill="#433B6B"/>
<path d="M20.1759 29.9138C22.7225 29.9138 24.787 27.8494 24.787 25.3028C24.787 22.7562 22.7225 20.6918 20.1759 20.6918C17.6294 20.6918 15.5649 22.7562 15.5649 25.3028C15.5649 27.8494 17.6294 29.9138 20.1759 29.9138Z" fill="#433B6B"/>
<path d="M18.9505 20.67C18.9505 23.2166 16.8861 25.281 14.3395 25.281C11.7929 25.281 9.72852 23.2166 9.72852 20.67C9.72852 18.1234 11.7929 16.059 14.3395 16.059C16.8861 16.059 18.9505 18.1234 18.9505 20.67Z" fill="#533566"/>
<path d="M25.2435 17.3301C25.2435 19.8767 23.1791 21.9411 20.6325 21.9411C18.0859 21.9411 16.0215 19.8767 16.0215 17.3301C16.0215 14.7835 18.0859 12.7191 20.6325 12.7191C23.1791 12.7191 25.2435 14.7835 25.2435 17.3301Z" fill="#6B438B"/>
</svg>
