<svg width="36" height="36" viewBox="0 0 36 36" fill="none" xmlns="http://www.w3.org/2000/svg">
<path d="M11.5313 2.25H4.74756C4.74756 5.92875 7.72881 8.90998 11.4076 8.90998H18.1913C18.2026 5.24248 15.2101 2.25 11.5313 2.25Z" fill="#00D26A"/>
<path d="M20.3512 8.30253C18.8437 8.94378 17.1338 8.94378 15.6263 8.30253C10.9013 6.31128 5.45625 8.59504 3.56625 13.3763C1.81125 17.82 1.81125 22.7588 3.56625 27.2025C5.52375 32.1413 10.89 34.8075 16.0087 33.3788C17.3025 33.0188 18.675 33.0188 19.9688 33.3788C25.0875 34.8188 30.465 32.1525 32.4112 27.2025C34.1663 22.7588 34.1663 17.82 32.4112 13.3763C30.5325 8.59504 25.0875 6.31128 20.3512 8.30253Z" fill="#86D72F"/>
</svg>
