<svg width="32" height="32" viewBox="0 0 32 32" fill="none" xmlns="http://www.w3.org/2000/svg">
<path d="M24.8486 29.6987H7.15071C5.72766 29.6987 4.5752 28.5462 4.5752 27.1231V25.1389L15.9998 24L27.4442 25.1389V27.1131C27.4342 28.5462 26.2717 29.6987 24.8486 29.6987Z" fill="#E19747"/>
<path d="M19.2666 7H12.7426C8.14277 7 4.4248 10.728 4.4248 15.3178V16.6407H27.5945V15.3178C27.5844 10.728 23.8564 7 19.2666 7Z" fill="#F3AD61"/>
<path d="M19.2069 9.44524C19.2069 9.87141 18.8614 10.2169 18.4353 10.2169C18.0091 10.2169 17.6636 9.87141 17.6636 9.44524C17.6636 9.01907 18.0091 8.67358 18.4353 8.67358C18.8614 8.67358 19.2069 9.01907 19.2069 9.44524Z" fill="#FFF3D7"/>
<path d="M13.5648 10.2169C13.991 10.2169 14.3365 9.87142 14.3365 9.44525C14.3365 9.01908 13.991 8.6736 13.5648 8.6736C13.1387 8.6736 12.7932 9.01908 12.7932 9.44525C12.7932 9.87142 13.1387 10.2169 13.5648 10.2169Z" fill="#FFF3D7"/>
<path d="M21.8927 11.6098C21.8927 12.036 21.5472 12.3815 21.121 12.3815C20.6949 12.3815 20.3494 12.036 20.3494 11.6098C20.3494 11.1837 20.6949 10.8382 21.121 10.8382C21.5472 10.8382 21.8927 11.1837 21.8927 11.6098Z" fill="#FFF3D7"/>
<path d="M10.8791 12.3815C11.3052 12.3815 11.6507 12.036 11.6507 11.6099C11.6507 11.1837 11.3052 10.8382 10.8791 10.8382C10.4529 10.8382 10.1074 11.1837 10.1074 11.6099C10.1074 12.036 10.4529 12.3815 10.8791 12.3815Z" fill="#FFF3D7"/>
<path d="M16 13.2634C16.4262 13.2634 16.7717 12.9179 16.7717 12.4917C16.7717 12.0656 16.4262 11.7201 16 11.7201C15.5739 11.7201 15.2284 12.0656 15.2284 12.4917C15.2284 12.9179 15.5739 13.2634 16 13.2634Z" fill="#FFF3D7"/>
<path d="M27.4344 16.4102H4.56543V19.617L15.9808 21.5582L27.4344 19.617V16.4102Z" fill="#F8312F"/>
<path d="M5.8386 15.1752C6.71042 14.7105 7.74569 14.1646 9.6661 14.1646C11.587 14.1646 12.6201 14.7108 13.4907 15.1757L13.5092 15.1856C14.2141 15.562 14.7687 15.8582 16.0097 15.8582C17.2507 15.8582 17.8053 15.562 18.5102 15.1856L18.5287 15.1757C19.3993 14.7108 20.4324 14.1646 22.3533 14.1646C24.2742 14.1646 25.3074 14.7108 26.1774 15.1761L26.1972 15.1867C26.901 15.5632 27.4526 15.8582 28.6869 15.8582C29.4566 15.8582 30.0807 16.4822 30.0807 17.252C30.0807 18.0218 29.4566 18.6458 28.6869 18.6458C26.7659 18.6458 25.7328 18.0995 24.8628 17.6342L24.843 17.6236C24.1391 17.2472 23.5876 16.9522 22.3533 16.9522C21.1197 16.9522 20.5681 17.2468 19.8629 17.6234L19.8418 17.6347C18.9697 18.1003 17.9346 18.6458 16.0097 18.6458C14.0848 18.6458 13.0497 18.1003 12.1776 17.6347L12.1565 17.6234C11.4513 17.2468 10.8997 16.9522 9.6661 16.9522C8.43086 16.9522 7.87653 17.2477 7.16917 17.6249L7.15001 17.6351C6.2782 18.0999 5.24293 18.6458 3.32251 18.6458C2.55274 18.6458 1.92871 18.0218 1.92871 17.252C1.92871 16.4822 2.55274 15.8582 3.32251 15.8582C4.55775 15.8582 5.11208 15.5626 5.81945 15.1854L5.8386 15.1752Z" fill="#44911B"/>
<path d="M27.675 25.1389H4.32498C3.04223 25.1389 2 24.0966 2 22.8139C2 21.5311 3.04223 20.4889 4.32498 20.4889H27.675C28.9578 20.4889 30 21.5311 30 22.8139C30 24.0966 28.9578 25.1389 27.675 25.1389Z" fill="#6D4534"/>
<path d="M27.4344 19.6171H15.9999H4.56543V20.4889L11.851 22.1224C14.5769 22.7337 17.413 22.7337 20.1388 22.1224L27.4244 20.4889V19.6171H27.4344Z" fill="#FCD53F"/>
</svg>
