<svg width="32" height="32" viewBox="0 0 32 32" fill="none" xmlns="http://www.w3.org/2000/svg">
<path d="M6 8C6 7.44772 6.44772 7 7 7H9.05078L9.09766 7.04688H22.9297L22.9883 7H25C25.5523 7 26 7.44772 26 8C26 8.55228 25.5523 9 25 9L16 11L7 9C6.44772 9 6 8.55228 6 8Z" fill="#D3883E"/>
<path d="M4.00039 16C3.00039 11.5 6.00039 9 8.00039 9L8.05899 8.96094H23.9106L24.0004 9C26.0004 9 29.0004 11.5 28.0004 16L27.7119 17L27.6254 17.0547L15.9984 21.0547L4.37149 17.0547L4.28885 17L4.00039 16Z" fill="#B97028"/>
<path d="M6.45231 24.5L7.75039 29C7.75039 29 8.0004 30 9.00039 30H23.0004C24.0004 30 24.2504 29 24.2504 29L25.5485 24.5L25.3817 24.3867L15.9836 21.3867L6.58545 24.3867L6.45231 24.5Z" fill="#B97028"/>
<path d="M27.7112 17H4.28809L6.45155 24.5H25.5477L27.7112 17Z" fill="#8C5543"/>
<path d="M19.6834 3.2728C20.085 3.37403 20.3286 3.7817 20.2273 4.18335L19.2294 8.14295C19.1282 8.5446 18.7205 8.78814 18.3188 8.68691C17.9172 8.58568 17.6736 8.17801 17.7749 7.77636L18.7728 3.81676C18.8741 3.41511 19.2817 3.17157 19.6834 3.2728Z" fill="#6D4534"/>
<path d="M21.5 4.00244C21.5 5.10701 20.6046 6.00244 19.5 6.00244C18.3954 6.00244 17.5 5.10701 17.5 4.00244C17.5 2.89787 18.3954 2.00244 19.5 2.00244C20.6046 2.00244 21.5 2.89787 21.5 4.00244Z" fill="#8C5543"/>
<path d="M9.04785 7C10.0866 13.1281 13.4999 12.7295 13.4999 12.7295C15.8209 12.7295 16.2758 11.6083 16.7051 10.5504C16.8322 10.2372 16.957 9.92951 17.1274 9.65813C17.7846 8.67225 18.8969 9.3927 19.1497 9.65813C19.7943 10.3533 20.5021 10.2269 20.5021 10.2269C22.1123 10.1936 22.8346 7.62361 22.9863 7H9.04785Z" fill="#F9C23C"/>
<path d="M21.6459 12.6321C21.6459 12.6321 21.2907 11.6453 20.2382 11.6717C20.0161 11.6908 19.3191 11.925 19.4225 12.9873C19.4607 13.4169 19.559 14.6819 21.1641 14.2741C21.8016 14.1121 21.9354 13.3952 21.6459 12.6321Z" fill="#F9C23C"/>
</svg>
