<svg width="32" height="32" viewBox="0 0 32 32" fill="none" xmlns="http://www.w3.org/2000/svg">
<path d="M14.5 30C20.8513 30 26 24.8513 26 18.5C26 12.1487 20.8513 7 14.5 7C8.14873 7 3 12.1487 3 18.5C3 24.8513 8.14873 30 14.5 30Z" fill="#D3D3D3"/>
<path d="M14.42 27.5C9.25004 27.5 5.04004 22.8 5.04004 17.63H23.8C23.8 22.8 19.59 27.5 14.42 27.5Z" fill="#9B9B9B"/>
<path d="M21.4 12.38C19.68 10.46 17.19 9.25 14.42 9.25C11.65 9.25 9.15004 10.46 7.43004 12.38H5.04004V17.63C5.04004 22.8 9.25004 27.01 14.42 27.01C18.7981 27.01 22.4877 23.991 23.5153 19.9267L24.5743 18.8867C24.5743 18.8867 23.787 18.2351 23.7965 17.8906C23.7988 17.804 23.8 17.7171 23.8 17.63V12.38H21.4Z" fill="#E6E6E6"/>
<path d="M23.7903 12.38C23.7903 17.5604 19.5907 21.76 14.4103 21.76C9.22984 21.76 5.03027 17.5604 5.03027 12.38C5.03027 7.19957 9.22984 3 14.4103 3C18.0118 3 21.1393 5.02982 22.7111 8.00787C22.8135 8.00265 22.9165 8 23.0202 8C26.3202 8 29.0002 10.68 29.0002 13.98C29.0002 17.1144 26.5824 19.6894 23.5121 19.94C23.6802 19.2794 23.7779 18.5911 23.7968 17.8835C25.618 17.52 27.0002 15.9044 27.0002 13.98C27.0002 11.9492 25.4696 10.2624 23.4929 10.0279C23.687 10.7795 23.7903 11.5677 23.7903 12.38Z" fill="#F4F4F4"/>
<path d="M14.4101 20.67C18.9886 20.67 22.7001 16.9584 22.7001 12.38C22.7001 7.80153 17.6652 5.08997 14.4101 5.08997C11.6246 5.08997 6.12012 7.80153 6.12012 12.38C6.12012 16.9584 9.83168 20.67 14.4101 20.67Z" fill="#7D4533"/>
<path d="M6.14053 12.9663C6.4412 9.8669 10.0287 6.08997 14.4101 6.08997C18.7901 6.08997 22.3766 9.91743 22.6794 12.9701C22.6931 12.7752 22.7001 12.5784 22.7001 12.38C22.7001 7.80153 18.9886 4.08997 14.4101 4.08997C9.83168 4.08997 6.12012 7.80153 6.12012 12.38C6.12012 12.5771 6.127 12.7726 6.14053 12.9663Z" fill="#9B9B9B"/>
</svg>
