<svg width="36" height="36" viewBox="0 0 36 36" fill="none" xmlns="http://www.w3.org/2000/svg">
<path d="M29.6238 9.69753L26.3051 6.37878L6.38135 26.3025L9.7001 29.6213C15.2013 35.1225 24.1226 35.1225 29.6238 29.6213C35.1251 24.12 35.1251 15.1988 29.6238 9.69753Z" fill="#6D4534"/>
<path d="M16.3492 30.4425C24.1343 30.4425 30.4454 24.1314 30.4454 16.3462C30.4454 8.56111 24.1343 2.25 16.3492 2.25C8.56404 2.25 2.25293 8.56111 2.25293 16.3462C2.25293 24.1314 8.56404 30.4425 16.3492 30.4425Z" fill="#00D26A"/>
<path d="M16.3494 22.6688C19.8412 22.6688 22.6719 19.8381 22.6719 16.3463C22.6719 12.8545 19.8412 10.0238 16.3494 10.0238C12.8575 10.0238 10.0269 12.8545 10.0269 16.3463C10.0269 19.8381 12.8575 22.6688 16.3494 22.6688Z" fill="#E2FF92"/>
<path d="M17.9349 8.01005C18.5438 8.01005 19.0374 7.51645 19.0374 6.90755C19.0374 6.29866 18.5438 5.80505 17.9349 5.80505C17.326 5.80505 16.8324 6.29866 16.8324 6.90755C16.8324 7.51645 17.326 8.01005 17.9349 8.01005Z" fill="#1C1C1C"/>
<path d="M24.1224 9.55128C24.1224 10.1602 23.6288 10.6538 23.0199 10.6538C22.411 10.6538 21.9174 10.1602 21.9174 9.55128C21.9174 8.94238 22.411 8.44878 23.0199 8.44878C23.6288 8.44878 24.1224 8.94238 24.1224 9.55128Z" fill="#1C1C1C"/>
<path d="M10.6561 23.0175C10.6561 23.6264 10.1625 24.12 9.55363 24.12C8.94473 24.12 8.45113 23.6264 8.45113 23.0175C8.45113 22.4086 8.94473 21.915 9.55363 21.915C10.1625 21.915 10.6561 22.4086 10.6561 23.0175Z" fill="#1C1C1C"/>
<path d="M15.7299 25.6613C15.7299 26.2702 15.2363 26.7638 14.6274 26.7638C14.0185 26.7638 13.5249 26.2702 13.5249 25.6613C13.5249 25.0524 14.0185 24.5588 14.6274 24.5588C15.2363 24.5588 15.7299 25.0524 15.7299 25.6613Z" fill="#1C1C1C"/>
<path d="M12.2649 8.76372C12.8738 8.76372 13.3674 8.27011 13.3674 7.66122C13.3674 7.05232 12.8738 6.55872 12.2649 6.55872C11.656 6.55872 11.1624 7.05232 11.1624 7.66122C11.1624 8.27011 11.656 8.76372 12.2649 8.76372Z" fill="#1C1C1C"/>
<path d="M21.4112 24.9075C21.4112 25.5164 20.9176 26.01 20.3087 26.01C19.6998 26.01 19.2062 25.5164 19.2062 24.9075C19.2062 24.2986 19.6998 23.805 20.3087 23.805C20.9176 23.805 21.4112 24.2986 21.4112 24.9075Z" fill="#1C1C1C"/>
<path d="M8.04616 12.6225C8.65506 12.6225 9.14866 12.1289 9.14866 11.52C9.14866 10.9111 8.65506 10.4175 8.04616 10.4175C7.43727 10.4175 6.94366 10.9111 6.94366 11.52C6.94366 12.1289 7.43727 12.6225 8.04616 12.6225Z" fill="#1C1C1C"/>
<path d="M25.6299 21.0375C25.6299 21.6464 25.1363 22.14 24.5274 22.14C23.9185 22.14 23.4249 21.6464 23.4249 21.0375C23.4249 20.4286 23.9185 19.935 24.5274 19.935C25.1363 19.935 25.6299 20.4286 25.6299 21.0375Z" fill="#1C1C1C"/>
<path d="M6.80856 18.2138C7.41745 18.2138 7.91106 17.7202 7.91106 17.1113C7.91106 16.5024 7.41745 16.0088 6.80856 16.0088C6.19966 16.0088 5.70605 16.5024 5.70605 17.1113C5.70605 17.7202 6.19966 18.2138 6.80856 18.2138Z" fill="#1C1C1C"/>
<path d="M26.8673 15.4575C26.8673 16.0664 26.3737 16.56 25.7648 16.56C25.1559 16.56 24.6623 16.0664 24.6623 15.4575C24.6623 14.8486 25.1559 14.355 25.7648 14.355C26.3737 14.355 26.8673 14.8486 26.8673 15.4575Z" fill="#1C1C1C"/>
</svg>
