<svg width="36" height="36" viewBox="0 0 36 36" fill="none" xmlns="http://www.w3.org/2000/svg">
<path d="M7.875 2.81251L2.25 5.62491C3.1725 8.23491 6.3187 9.91595 9.1312 8.79095L15.8812 5.9785C14.9587 3.35725 11.0274 1.4292 7.875 2.81251Z" fill="#86D72F"/>
<path d="M16.7891 5.17467C10.7098 7.32038 7.5267 14.0062 9.66618 20.1031L11.0751 24.1067C12.6536 28.5944 16.6847 31.5121 21.1203 31.8784C21.9552 31.9438 22.7379 32.3102 23.3641 32.8728C24.2643 33.6839 25.5558 33.9848 26.769 33.5531C27.9823 33.1213 28.8041 32.0746 28.9998 30.884C29.1303 30.0467 29.5086 29.2878 30.1217 28.6991C33.344 25.6113 34.6616 20.8096 33.0831 16.3219L31.6742 12.3184C29.5347 6.2083 22.8684 3.01587 16.7891 5.17467Z" fill="#FCD53F"/>
</svg>
