<svg width="32" height="32" viewBox="0 0 32 32" fill="none" xmlns="http://www.w3.org/2000/svg">
<path d="M12.1222 5.38857C9.53223 4.03857 6.31223 4.97857 4.88223 7.54857C3.98223 9.16857 3.99223 11.0586 4.77223 12.5986C3.93223 12.9886 3.21223 13.6386 2.73223 14.4986C1.97223 15.8486 1.98223 17.4186 2.60223 18.7186C3.40223 20.3986 3.39223 22.3586 2.48223 23.9786C1.58975 25.5798 1.97581 27.5485 3.31218 28.699C4.46273 30.035 6.43119 30.4209 8.03225 29.5285C9.65225 28.6185 11.6122 28.6085 13.2922 29.4085C14.5922 30.0285 16.1622 30.0385 17.5122 29.2785C18.3722 28.7985 19.0222 28.0785 19.4122 27.2385C20.9522 28.0185 22.8422 28.0285 24.4622 27.1285C27.0322 25.6985 27.9722 22.4785 26.6222 19.8885C27.1022 19.7585 27.5822 19.5485 28.0222 19.2485C29.8722 17.9885 30.5322 15.5385 29.5722 13.5185C28.4222 11.0985 25.5022 10.1985 23.2022 11.4785C22.8622 11.6685 22.5623 11.8885 22.2922 12.1485C21.9891 11.6378 21.6139 11.1942 21.1868 10.8236C20.8163 10.3967 20.3728 10.0216 19.8622 9.71857C20.1222 9.44857 20.3422 9.14857 20.5322 8.80857C21.8122 6.50857 20.9122 3.58857 18.4922 2.43857C16.4722 1.47857 14.0222 2.13857 12.7622 3.98857C12.4622 4.42857 12.2522 4.90857 12.1222 5.38857Z" fill="#008463"/>
<path d="M23.9625 22.0686C26.0425 19.9886 26.0725 16.6386 24.0625 14.5186C24.4925 14.2586 24.8925 13.9286 25.2325 13.5186C26.6625 11.8086 26.6325 9.2686 25.1625 7.5886C23.4025 5.5786 20.3425 5.4986 18.4825 7.3586C18.2125 7.6286 17.9825 7.9286 17.7925 8.2486C15.6725 6.2386 12.3225 6.2686 10.2425 8.3486C8.93254 9.6586 8.43254 11.4786 8.75254 13.1686C7.84254 13.3186 6.97254 13.7486 6.27254 14.4486C5.17254 15.5386 4.75254 17.0486 5.00254 18.4586C5.32254 20.2886 4.77254 22.1686 3.46254 23.4886C1.98254 24.9686 1.98254 27.3686 3.46254 28.8486C4.94254 30.3286 7.34254 30.3286 8.82254 28.8486C10.1425 27.5286 12.0125 26.9886 13.8525 27.3086C15.2725 27.5586 16.7825 27.1286 17.8725 26.0386C18.5725 25.3386 18.9925 24.4686 19.1525 23.5586C20.8425 23.8686 22.6525 23.3786 23.9625 22.0686Z" fill="#86D72F"/>
<path d="M13.8636 11.4811C14.1273 11.3992 14.4075 11.5466 14.4894 11.8103L15.7438 15.8496L19.9884 11.6051C20.1836 11.4098 20.5002 11.4098 20.6955 11.6051C20.8907 11.8003 20.8907 12.1169 20.6955 12.3122L16.4514 16.5563L20.4999 17.811C20.7637 17.8927 20.9112 18.1728 20.8295 18.4366C20.7477 18.7004 20.4677 18.8479 20.2039 18.7662L15.6521 17.3555L11.591 21.4166L14.4402 22.3011C14.7039 22.383 14.8513 22.6631 14.7694 22.9269C14.6876 23.1906 14.4074 23.338 14.1437 23.2562L10.792 22.2157L8.56547 24.4422C8.37021 24.6374 8.05362 24.6374 7.85836 24.4422C7.6631 24.2469 7.6631 23.9303 7.85836 23.7351L10.0849 21.5085L9.04439 18.1569C8.96252 17.8931 9.10994 17.613 9.37367 17.5311C9.6374 17.4492 9.91756 17.5967 9.99943 17.8604L10.8839 20.7095L14.9449 16.6486L13.5344 12.1069C13.4525 11.8432 13.5999 11.563 13.8636 11.4811Z" fill="#C3EF3C"/>
</svg>
