<svg width="32" height="32" viewBox="0 0 32 32" fill="none" xmlns="http://www.w3.org/2000/svg">
<path d="M15.236 15.7898C15.9044 15.0916 17.0121 15.0676 17.7103 15.736L29.4603 26.986C30.1584 27.6544 30.1824 28.7621 29.514 29.4603C28.8456 30.1584 27.7379 30.1824 27.0398 29.514L15.2898 18.264C14.5916 17.5956 14.5676 16.4879 15.236 15.7898Z" fill="#F3C07B"/>
<path d="M3.38574 6.91832C4.28837 5.39149 5.58536 4.12544 7.13651 3.26038C13.3513 6.72017 12.0001 12 12.0001 12C9.95953 8.79099 8.01481 7.26385 3.38574 6.91832Z" fill="#5092FF"/>
<path d="M2 11.9068C2.01682 10.0646 2.53175 8.34146 3.41661 6.86548C10.296 6.96669 11.9996 12 11.9996 12C8.66651 10.2518 6.28958 9.90635 2 11.9068Z" fill="#00D26A"/>
<path d="M3.29277 16.9213C2.4698 15.4684 2 13.7891 2 12C2 11.948 2.0004 11.896 2.00119 11.8441C8.00872 8.49343 12 12 12 12C8.21727 12.095 5.9829 13.1457 3.29277 16.9213Z" fill="#FCD53F"/>
<path d="M6.92097 20.6159C5.39375 19.7137 4.12726 18.417 3.26172 16.866C6.78909 10.9586 12 12 12 12C8.77921 13.9043 7.41959 16.0271 6.92097 20.6159Z" fill="#FF9F2E"/>
<path d="M6.86523 20.583C6.96645 13.7035 11.9997 12 11.9997 12C10.1728 15.2975 9.97192 17.7746 11.9072 21.9996C10.0648 21.9829 8.34139 21.4679 6.86523 20.583Z" fill="#F837A2"/>
<path d="M11.8443 21.9988C8.49368 15.9913 12.0003 12 12.0003 12C12.1735 15.8368 13.1798 18.105 16.9207 20.7077C15.4679 21.5304 13.789 22 12.0003 22C11.9482 22 11.8962 21.9996 11.8443 21.9988Z" fill="#C790F1"/>
<path d="M16.8665 20.7383C10.9591 17.2109 12.0004 12 12.0004 12C14.0954 15.3202 15.9734 16.7474 20.6147 17.0819C19.7126 18.6078 18.4165 19.8733 16.8665 20.7383Z" fill="#5092FF"/>
<path d="M20.583 17.1345C13.7035 17.0333 12 12 12 12C15.3417 13.8027 17.8524 14.0929 21.9996 12.0944C21.9825 13.9361 21.4676 15.6589 20.583 17.1345Z" fill="#00D26A"/>
<path d="M21.9988 12.156C21.9996 12.1041 22 12.0521 22 12C22 10.2115 21.5305 8.53271 20.708 7.08008C18.0379 10.9644 15.7923 11.8814 12 12C12 12 15.9913 15.5066 21.9988 12.156Z" fill="#FCD53F"/>
<path d="M17.0816 3.3855C18.6076 4.28766 19.8732 5.58378 20.7383 7.13389C17.2109 13.0414 12 12 12 12C15.1071 10.0716 16.7119 8.22757 17.0816 3.3855Z" fill="#FF9F2E"/>
<path d="M17.1345 3.41708C15.6593 2.53265 13.9371 2.0178 12.096 2.00049C14.2371 6.27017 13.7353 8.83597 12 12C12 12 17.0333 10.2965 17.1345 3.41708Z" fill="#F837A2"/>
<path d="M12.1563 2.00119C12.1044 2.0004 12.0524 2 12.0003 2C10.2133 2 8.53579 2.46873 7.08398 3.28996C11.2287 5.87922 12.116 8.21834 12.0003 12C12.0003 12 15.5069 8.00872 12.1563 2.00119Z" fill="#C790F1"/>
</svg>
