<svg width="32" height="32" viewBox="0 0 32 32" fill="none" xmlns="http://www.w3.org/2000/svg">
<path d="M16 24C20.4183 24 24 20.4183 24 16C24 12.8624 22.1937 10.1467 19.5643 8.83594L19.1598 8L18.2326 8.31567C17.524 8.11016 16.7749 8 16 8C11.5817 8 8 11.5817 8 16C8 20.4183 11.5817 24 16 24Z" fill="#86D72F"/>
<path d="M6.5 13C6.5 13 6.5 12.5 6 12L6.19425 11.8457H25.7529L26 12C25.5 12.5 25.5 13 25.5 13C25.5 14 27 15.5 27 19C27 25.5 22 30 16 30C10 30 5 25.5 5 19C5 15.5 6.5 14 6.5 13Z" fill="#8C5543"/>
<path d="M21.4 2.03324L23.31 3.13324C23.45 3.21324 23.48 3.40324 23.36 3.53324L21.46 5.55324L21.2157 5.97344L21.25 5.99324L19.5991 8.85339C19.1502 8.62686 18.677 8.44139 18.1845 8.30191L19.95 5.24324L19.9855 5.26373L20.23 4.84324L21.03 2.18324C21.08 2.02324 21.26 1.95324 21.4 2.03324Z" fill="#D3D3D3"/>
<path d="M6 10C5.44772 10 5 10.4477 5 11C5 11.5523 5.44772 12 6 12H26C26.5523 12 27 11.5523 27 11C27 10.4477 26.5523 10 26 10H6Z" fill="#D3D3D3"/>
<path d="M21.0105 6.44326L19.6805 5.67326C19.4405 5.53326 19.3605 5.22326 19.5005 4.98326C19.6405 4.74326 19.9505 4.66326 20.1905 4.80326L21.5205 5.57326C21.7605 5.71326 21.8405 6.02326 21.7005 6.26326C21.5605 6.49326 21.2505 6.58326 21.0105 6.44326Z" fill="#F9C23C"/>
</svg>
