<svg width="36" height="36" viewBox="0 0 36 36" fill="none" xmlns="http://www.w3.org/2000/svg">
<path d="M6.14515 1.19299C6.02736 0.905527 5.69883 0.767986 5.41137 0.885782C5.12391 1.00358 4.98637 1.3321 5.10417 1.61956C5.60241 2.83545 6.30384 3.63887 7.4491 3.848C8.29828 4.00307 9.31573 3.80971 10.5383 3.39249L14.1024 12.3027C14.2177 12.5912 14.5451 12.7315 14.8335 12.6161C15.122 12.5007 15.2623 12.1733 15.1469 11.8849L11.5942 3.00324L13.9044 2.14376C14.3274 1.98551 15.3773 2.21713 16.0133 3.54672C16.1474 3.82697 16.4832 3.94549 16.7635 3.81144C17.0437 3.67739 17.1622 3.34153 17.0282 3.06128C16.2354 1.40393 14.6642 0.658736 13.5117 1.08953L11.0535 2.00408L11.0448 2.00741C9.39816 2.6514 8.35837 2.87044 7.65119 2.7413C7.03629 2.62902 6.56891 2.2271 6.14515 1.19299Z" fill="#6D4534"/>
<path d="M31.5 20.25C31.5 27.7058 25.4558 33.75 18 33.75C10.5442 33.75 4.5 27.7058 4.5 20.25C4.5 12.7942 10.5442 6.75 18 6.75C25.4558 6.75 31.5 12.7942 31.5 20.25Z" fill="#BFCC82"/>
<path d="M25.7951 17.0212C22.351 8.70625 17.4217 7.09497 17.4217 7.09497C17.4217 7.09497 23.3904 8.27573 26.8345 16.5906C30.2787 24.9056 26.8931 29.961 26.8931 29.961C26.8931 29.961 29.2393 25.3361 25.7951 17.0212Z" fill="#608842"/>
<path d="M17.4801 20.4652C14.0359 12.1503 12.8335 7.77757 12.8335 7.77757C12.8335 7.77757 15.0753 11.7198 18.5194 20.0347C21.9636 28.3496 23.166 32.7223 23.166 32.7223C23.166 32.7223 20.9242 28.7801 17.4801 20.4652Z" fill="#608842"/>
<path d="M9.10664 10.539C9.10664 10.539 5.72106 15.5944 9.16521 23.9094C12.6094 32.2243 18.5781 33.405 18.5781 33.405C18.5781 33.405 13.6487 31.7938 10.2046 23.4788C6.76042 15.1639 9.10664 10.539 9.10664 10.539Z" fill="#608842"/>
</svg>
