<svg width="32" height="32" viewBox="0 0 32 32" fill="none" xmlns="http://www.w3.org/2000/svg">
<path d="M10.9913 25.3086L13.4997 18.5H17.9997L20.8308 25.2239C21.3859 26.5422 20.4179 28 18.9876 28H12.868C11.4765 28 10.5102 26.6143 10.9913 25.3086Z" fill="#FFCE7C"/>
<path d="M4 16C4 13.7292 4.63072 11.6058 5.72653 9.79528L9.5 8L12.7584 4.44294C13.7896 4.15433 14.8768 4 16 4C17.626 4 19.1764 4.32338 20.5905 4.90934L23.5 10.5L27.9552 14.9562C27.9849 15.3002 28 15.6483 28 16V18C28 19.1046 27.1046 20 26 20H6C4.89543 20 4 19.1046 4 18V16Z" fill="#F8312F"/>
<path d="M12.7888 4.43433C12.8417 4.7246 12.8695 5.02385 12.8695 5.33003C12.8695 8.07003 10.6395 10.29 7.89948 10.3C7.1223 10.3 6.38431 10.1172 5.72656 9.79433C7.29238 7.20782 9.80747 5.26015 12.7888 4.43433Z" fill="#FBB8AB"/>
<path d="M20.5721 4.90195C19.8501 5.96326 19.4295 7.24496 19.4295 8.63003C19.4295 12.29 22.3995 15.26 26.0595 15.26C26.7185 15.26 27.356 15.1631 27.957 14.9832C27.5738 10.4164 24.6332 6.57706 20.5721 4.90195Z" fill="#FBB8AB"/>
<path d="M14.9395 17.04C16.4527 17.04 17.6795 15.8133 17.6795 14.3C17.6795 12.7868 16.4527 11.56 14.9395 11.56C13.4262 11.56 12.1995 12.7868 12.1995 14.3C12.1995 15.8133 13.4262 17.04 14.9395 17.04Z" fill="#FBB8AB"/>
</svg>
