<svg width="32" height="32" viewBox="0 0 32 32" fill="none" xmlns="http://www.w3.org/2000/svg">
<path d="M5.46279 1.06042C5.35809 0.804899 5.06606 0.68264 4.81054 0.787348C4.55502 0.892055 4.43276 1.18408 4.53747 1.4396C4.98036 2.52039 5.60385 3.23454 6.62186 3.42043C7.37668 3.55827 8.28108 3.38639 9.36784 3.01553L12.5359 10.9357C12.6384 11.1921 12.9294 11.3168 13.1858 11.2143C13.4422 11.1117 13.5669 10.8207 13.4643 10.5643L10.3064 2.66954L12.3599 1.90555C12.7359 1.76489 13.6692 1.97077 14.2345 3.15263C14.3536 3.40174 14.6522 3.50709 14.9013 3.38793C15.1504 3.26878 15.2557 2.97024 15.1366 2.72112C14.4319 1.24793 13.0353 0.58553 12.0108 0.968458L9.82578 1.78139L9.81802 1.78435C8.35436 2.35679 7.4301 2.55149 6.80149 2.4367C6.25492 2.33689 5.83947 1.97963 5.46279 1.06042Z" fill="#6D4534"/>
<path d="M28 18C28 24.6274 22.6274 30 16 30C9.37258 30 4 24.6274 4 18C4 11.3726 9.37258 6 16 6C22.6274 6 28 11.3726 28 18Z" fill="#BFCC82"/>
<path d="M22.9289 15.1299C19.8674 7.73889 15.4858 6.30664 15.4858 6.30664C15.4858 6.30664 20.7913 7.3562 23.8528 14.7472C26.9143 22.1383 23.9048 26.632 23.9048 26.632C23.9048 26.632 25.9904 22.521 22.9289 15.1299Z" fill="#608842"/>
<path d="M15.5377 18.1913C12.4763 10.8003 11.4075 6.91339 11.4075 6.91339C11.4075 6.91339 13.4001 10.4176 16.4616 17.8086C19.5231 25.1996 20.5919 29.0865 20.5919 29.0865C20.5919 29.0865 18.5992 25.5823 15.5377 18.1913Z" fill="#608842"/>
<path d="M8.09468 9.36801C8.09468 9.36801 5.08528 13.8617 8.14674 21.2528C11.2082 28.6438 16.5137 29.6934 16.5137 29.6934C16.5137 29.6934 12.1321 28.2611 9.07062 20.8701C6.00915 13.479 8.09468 9.36801 8.09468 9.36801Z" fill="#608842"/>
</svg>
