<svg width="32" height="32" viewBox="0 0 32 32" fill="none" xmlns="http://www.w3.org/2000/svg">
<path d="M2 26.4314C2 25.7015 2.59173 25.1097 3.32167 25.1097H4.31294C5.04287 25.1097 5.6346 25.7015 5.6346 26.4314C5.6346 27.1613 5.04287 27.7531 4.31293 27.7531H3.32167C2.59173 27.7531 2 27.1613 2 26.4314Z" fill="#F3AD61"/>
<path d="M19.7832 18H29.2175C29.9129 18 30.2627 17.1238 29.7684 16.6081L27.5899 14.3356C25.8828 12.5548 23.1158 12.5548 21.4086 14.3356L19.2302 16.6081C18.7379 17.1216 19.0877 18 19.7832 18Z" fill="#F9C23C"/>
<path d="M4.78311 18H14.2169C14.9123 18 15.2621 17.1216 14.7699 16.6081L12.5894 14.3356C10.8824 12.5548 8.11551 12.5548 6.40847 14.3356L4.23015 16.6081C3.73793 17.1216 4.08772 18 4.78311 18Z" fill="#F9C23C"/>
<path d="M16.7001 2.02862C21.6204 1.32094 24.66 13.9257 22.4453 19.0193C20.2305 24.1129 15.4483 25.2295 10.3754 27.2233C9.81453 27.4437 9.23712 27.5475 8.67003 27.5475C6.74603 27.5475 5.70052 29.1302 4.97052 27.1725C4.02811 24.6384 5.26334 21.7971 7.72968 20.8288C10.4146 19.7757 11.8416 17.7523 12.916 15.0105C14.011 12.2158 14.0853 11.0696 14.0811 8.02272C14.077 5.58609 13.9162 2.42907 16.7001 2.02862Z" fill="#FEEFC2"/>
<path d="M22.445 19.0193L12.9859 14.6758C11.8991 17.1739 9.93184 19.0871 7.44488 20.066C4.56404 21.1975 2.63798 24.2951 4.21554 27.4522C7.36651 33.7556 22.445 27.3865 22.445 19.0193Z" fill="#FCD53F"/>
<path fill-rule="evenodd" clip-rule="evenodd" d="M18.2398 16.4818C18.6344 16.6078 18.8521 17.0299 18.726 17.4244C16.7455 23.6254 10.9693 26.4892 5.80792 26.7536C5.39425 26.7748 5.04173 26.4566 5.02053 26.043C4.99934 25.6293 5.3175 25.2768 5.73117 25.2556C10.4685 25.0128 15.5609 22.4042 17.2972 16.9681C17.4232 16.5735 17.8452 16.3558 18.2398 16.4818Z" fill="#F9C23C"/>
<path d="M23.2403 26.467L13.043 14.6864H22.0464C24.1724 14.7945 25.8407 16.5976 25.8407 18.7842V26.3356C25.8407 27.6658 24.6435 28.072 23.2403 26.467Z" fill="#FFF478"/>
</svg>
