<svg width="32" height="32" viewBox="0 0 32 32" fill="none" xmlns="http://www.w3.org/2000/svg">
<path d="M11.4451 5.45546C10.7921 3.91865 9.54735 2.63658 7.89924 2.00659C7.37528 3.59944 7.53846 5.28444 8.226 6.71831C6.8671 6.29165 5.36768 6.35147 4 7.00004C5.40522 9.96328 8.82582 11.3085 11.7329 10.0858L11.7354 10.0911C11.7719 10.0736 11.8082 10.0558 11.8441 10.0377C11.8806 10.0214 11.9171 10.0048 11.9534 9.98768L11.9509 9.98247C14.7373 8.50522 15.8603 5.00534 14.4551 2.0421C12.9785 2.74231 11.9361 3.99568 11.4451 5.45546Z" fill="#86D72F"/>
<path d="M15.6775 8.96071V8.875C18.2196 9.03017 20.6031 10.5246 21.7704 12.9862L22.907 15.3829L22.771 15.6058L24.7242 19.5355H24.8505C25.2827 20.6728 25.4081 21.8615 25.2624 23.0035L25.2032 23.0508L24.3564 25.5936V25.7008C23.6477 26.9356 22.5684 27.9738 21.1862 28.6292L20.1147 29.1373C18.7131 29.802 17.2066 29.9763 15.7877 29.7301L15.7461 29.6641L13.168 28.6641C13.168 28.6641 13.116 28.6804 13.1184 28.6947C12.1685 28.088 11.3507 27.2532 10.7568 26.2238L10.7891 26.1875L8.82425 22.0547L8.76789 22.0848L7.63252 19.6906C6.46137 17.2209 6.8143 14.4214 8.31551 12.3527L8.35159 12.4102L10.2208 10.6339V10.5439C10.49 10.3691 10.774 10.2101 11.0721 10.0687L12.1436 9.56059C12.4403 9.4199 12.7418 9.30117 13.0462 9.20375L13.0986 9.2829L15.6775 8.96071Z" fill="#F3AD61"/>
<path d="M13.0293 10.546L15.1608 11.8814C15.323 11.9786 15.5222 11.8842 15.5495 11.697L15.8626 9.16795C15.874 9.06961 15.829 8.97479 15.7456 8.92141L15.6778 8.87498C14.8051 8.82171 13.9138 8.92628 13.0465 9.20374L12.9079 10.29C12.8964 10.3883 12.9459 10.4926 13.0293 10.546Z" fill="#E19747"/>
<path d="M8.3158 12.3527C8.82411 11.6522 9.46409 11.0356 10.2211 10.5439L11.1392 11.1403C11.2225 11.1937 11.2675 11.2885 11.2561 11.3869L10.9412 13.8823C10.9138 14.0695 10.7147 14.164 10.5524 14.0667L8.42089 12.7314C8.33751 12.678 8.28805 12.5737 8.29949 12.4753L8.3158 12.3527Z" fill="#E19747"/>
<path d="M10.7571 26.2238C10.6598 26.0551 10.5685 25.8812 10.4836 25.7023L8.76818 22.0848C8.83273 21.9452 9.00348 21.8601 9.13475 21.9516L11.2663 23.287C11.3496 23.3403 11.3946 23.4352 11.3832 23.5335L11.0683 26.029C11.0471 26.1737 10.8978 26.2512 10.7571 26.2238Z" fill="#E19747"/>
<path d="M15.788 29.7301C14.8399 29.5657 13.931 29.2136 13.1187 28.6947C13.1163 28.6804 13.1137 28.6609 13.114 28.6475L13.4273 26.1297C13.4547 25.9426 13.6538 25.8481 13.8161 25.9454L15.9476 27.2807C16.0405 27.3296 16.0854 27.4244 16.0645 27.5273L15.788 29.7301Z" fill="#E19747"/>
<path d="M25.2627 23.0035C25.1415 23.9537 24.8327 24.8716 24.3567 25.7008L22.4365 24.5056C22.3532 24.4522 22.3082 24.3574 22.3196 24.259L22.6345 21.7636C22.6619 21.5764 22.861 21.4819 23.0233 21.5792L25.1837 22.9291C25.2177 22.9471 25.244 22.975 25.2627 23.0035Z" fill="#E19747"/>
<path d="M22.9073 15.3829L24.6216 18.9978C24.7058 19.1755 24.7822 19.3548 24.8508 19.5354C24.7932 19.6623 24.6175 19.7521 24.4855 19.6663L22.354 18.3309C22.2706 18.2776 22.2256 18.1827 22.2371 18.0844L22.552 15.5889C22.5734 15.4229 22.7608 15.3297 22.9073 15.3829Z" fill="#E19747"/>
<path d="M11.2217 17.315L9.09019 15.9796C8.92792 15.8824 8.72879 15.9768 8.70142 16.164L8.38653 18.6594C8.37509 18.7578 8.42006 18.8526 8.50344 18.906L10.635 20.2413C10.7972 20.3386 10.9964 20.2442 11.0237 20.057L11.3386 17.5615C11.3595 17.4587 11.3146 17.3638 11.2217 17.315Z" fill="#E19747"/>
<path d="M15.2433 18.056C15.4056 18.1533 15.6047 18.0588 15.6321 17.8716L15.947 15.3762C15.9584 15.2778 15.9135 15.183 15.8301 15.1296L13.6986 13.7943C13.5363 13.697 13.3372 13.7915 13.3098 13.9787L12.9949 16.4741C12.9835 16.5725 13.0284 16.6673 13.1118 16.7206L15.2433 18.056Z" fill="#E19747"/>
<path d="M19.8422 15.8751C20.0044 15.9724 20.2035 15.878 20.2309 15.6908L20.5458 13.1953C20.5572 13.097 20.5123 13.0022 20.4289 12.9488L18.2974 11.6134C18.1351 11.5162 17.936 11.6106 17.9086 11.7978L17.5937 14.2933C17.5823 14.3916 17.6273 14.4864 17.7106 14.5398L19.8422 15.8751Z" fill="#E19747"/>
<path d="M15.8746 21.1016L13.7431 19.7663C13.5808 19.669 13.3817 19.7634 13.3543 19.9506L13.0394 22.4461C13.028 22.5444 13.0729 22.6393 13.1563 22.6926L15.2878 24.028C15.4501 24.1252 15.6492 24.0308 15.6766 23.8436L15.9915 21.3481C16.0029 21.2498 15.958 21.155 15.8746 21.1016Z" fill="#E19747"/>
<path d="M20.4735 18.9208L18.342 17.5854C18.1797 17.4882 17.9806 17.5826 17.9532 17.7698L17.6383 20.2652C17.6269 20.3636 17.6718 20.4584 17.7552 20.5118L19.8867 21.8471C20.049 21.9444 20.2481 21.85 20.2755 21.6628L20.5904 19.1673C20.6018 19.069 20.5569 18.9741 20.4735 18.9208Z" fill="#E19747"/>
<path d="M18.4245 23.7601C18.2622 23.6628 18.0631 23.7572 18.0357 23.9444L17.7208 26.4399C17.7094 26.5382 17.7543 26.633 17.8377 26.6864L19.9692 28.0218C20.1315 28.119 20.3306 28.0246 20.358 27.8374L20.6729 25.3419C20.6843 25.2436 20.6394 25.1488 20.556 25.0954L18.4245 23.7601Z" fill="#E19747"/>
</svg>
