<svg width="32" height="32" viewBox="0 0 32 32" fill="none" xmlns="http://www.w3.org/2000/svg">
<path d="M3.14258 10.0667L8.61999 8.05609C11.6451 6.94566 14.9976 8.4978 16.108 11.5229L10.6306 13.5335C7.60551 14.6439 4.25301 13.0918 3.14258 10.0667Z" fill="#608842"/>
<path d="M17.4953 2.18237C18.0058 2.3931 18.2488 2.97778 18.0381 3.48828C17.3651 5.11847 16.5502 9.52601 18.8723 13.5839C19.1466 14.0633 18.9804 14.6742 18.501 14.9485C18.0217 15.2228 17.4107 15.0566 17.1364 14.5773C14.4201 9.8305 15.3567 4.74226 16.1894 2.72514C16.4001 2.21464 16.9848 1.97163 17.4953 2.18237Z" fill="#96C34A"/>
<path d="M27.0548 25.8282C27.0548 28.0918 25.2197 29.9268 22.9561 29.9268C20.6925 29.9268 18.8574 28.0918 18.8574 25.8282C18.8574 23.5645 20.6925 21.7295 22.9561 21.7295C25.2197 21.7295 27.0548 23.5645 27.0548 25.8282Z" fill="#321B41"/>
<path d="M28.1973 19.5032C28.1973 21.7668 26.3623 23.6019 24.0987 23.6019C21.835 23.6019 20 21.7668 20 19.5032C20 17.2396 21.835 15.4045 24.0987 15.4045C26.3623 15.4045 28.1973 17.2396 28.1973 19.5032Z" fill="#533566"/>
<path d="M24.0992 17.2865C26.3628 17.2865 28.1978 15.4514 28.1978 13.1878C28.1978 10.9241 26.3628 9.08911 24.0992 9.08911C21.8355 9.08911 20.0005 10.9241 20.0005 13.1878C20.0005 15.4514 21.8355 17.2865 24.0992 17.2865Z" fill="#433B6B"/>
<path d="M17.9346 26.59C20.1982 26.59 22.0333 24.755 22.0333 22.4914C22.0333 20.2277 20.1982 18.3927 17.9346 18.3927C15.671 18.3927 13.8359 20.2277 13.8359 22.4914C13.8359 24.755 15.671 26.59 17.9346 26.59Z" fill="#433B6B"/>
<path d="M16.8448 18.3733C16.8448 20.637 15.0098 22.472 12.7461 22.472C10.4825 22.472 8.64746 20.637 8.64746 18.3733C8.64746 16.1097 10.4825 14.2747 12.7461 14.2747C15.0098 14.2747 16.8448 16.1097 16.8448 18.3733Z" fill="#533566"/>
<path d="M22.4386 15.4046C22.4386 17.6682 20.6035 19.5033 18.3399 19.5033C16.0762 19.5033 14.2412 17.6682 14.2412 15.4046C14.2412 13.1409 16.0762 11.3059 18.3399 11.3059C20.6035 11.3059 22.4386 13.1409 22.4386 15.4046Z" fill="#6B438B"/>
</svg>
