<svg width="32" height="32" viewBox="0 0 32 32" fill="none" xmlns="http://www.w3.org/2000/svg">
<path d="M24.6892 19.0001L24.4123 18.8605L15.9887 17.8605L7.56523 18.8605L7.34382 19.0001L5.61035 26.0001H26.3804L24.6892 19.0001Z" fill="#F3AD61"/>
<path d="M9.84029 15C8.96029 15 8.18029 15.61 7.97029 16.47L7.96834 16.4778L7.34375 19H24.6891L24.0803 16.48C23.8803 15.61 23.1003 15 22.2103 15H9.84029Z" fill="#A56953"/>
<path d="M9.83984 15C8.95984 15 8.17984 15.61 7.96984 16.47L7.33984 19H24.6998L24.0898 16.48C23.8798 15.61 23.0998 15 22.2098 15H9.83984Z" fill="#A56953"/>
<path d="M21.0605 19L22.9273 26.8373C23.0272 27.257 23.4485 27.5162 23.8683 27.4162C24.288 27.3163 24.5472 26.895 24.4472 26.4752L22.6668 19H21.0605Z" fill="#FFDEA7"/>
<path d="M22.3998 17.879C22.2998 17.4592 21.8785 17.2 21.4588 17.3C21.0391 17.4 20.7799 17.8213 20.8798 18.241L21.0606 19H22.6668L22.3998 17.879Z" fill="#E39D89"/>
<path d="M4 28C5.28 29.28 7.02 30 8.83 30H23.17C24.98 30 26.72 29.28 28 28L16 27L4 28Z" fill="#9B9B9B"/>
<path d="M29 28H3C2.45 28 2 27.55 2 27C2 26.45 2.45 26 3 26H29C29.55 26 30 26.45 30 27C30 27.55 29.55 28 29 28Z" fill="#D3D3D3"/>
</svg>
