<svg width="32" height="32" viewBox="0 0 32 32" fill="none" xmlns="http://www.w3.org/2000/svg">
<path d="M27.32 14C25.67 9.34 21.22 6 16 6C10.78 6 6.33 9.34 4.68 14H4V18C4 24.63 9.37 30 16 30C22.63 30 28 24.63 28 18V14H27.32ZM20.5 17.64C20.5 19.85 18.71 21.64 16.5 21.64H15.5C13.29 21.64 11.5 19.85 11.5 17.64C11.5 15.43 13.29 13.64 15.5 13.64H16.5C18.71 13.64 20.5 15.43 20.5 17.64Z" fill="#F3AD61"/>
<path d="M16 2C9.37 2 4 7.37 4 14C4 20.63 9.37 26 16 26C22.63 26 28 20.63 28 14C28 7.37 22.63 2 16 2ZM20.5 14C20.5 16.21 18.71 18 16.5 18H15.5C13.29 18 11.5 16.21 11.5 14C11.5 11.79 13.29 10 15.5 10H16.5C18.71 10 20.5 11.79 20.5 14Z" fill="#6D4534"/>
<path d="M12.8498 7.75997C12.6498 7.95997 12.3098 7.95997 12.1098 7.75997L11.3198 6.97997C11.1198 6.77997 11.1198 6.43997 11.3198 6.23997C11.5198 6.03997 11.8598 6.03997 12.0598 6.23997L12.8398 7.01997C13.0498 7.21997 13.0498 7.55997 12.8498 7.75997Z" fill="#00A6ED"/>
<path d="M6.23984 14.02C6.03984 14.22 6.03984 14.56 6.23984 14.76C6.43984 14.97 6.77984 14.97 6.97984 14.76L7.75984 13.98C7.95984 13.78 7.95984 13.44 7.75984 13.24C7.55984 13.04 7.21984 13.04 7.01984 13.24L6.23984 14.02Z" fill="#00A6ED"/>
<path d="M23.2398 16.76C23.0398 16.56 23.0398 16.22 23.2398 16.02L24.0198 15.24C24.2198 15.04 24.5598 15.04 24.7598 15.24C24.9598 15.44 24.9598 15.78 24.7598 15.98L23.9798 16.76C23.7798 16.97 23.4398 16.97 23.2398 16.76Z" fill="#00A6ED"/>
<path d="M11.7598 21.76C11.5598 21.96 11.2198 21.96 11.0198 21.76L10.2398 20.98C10.0398 20.78 10.0398 20.44 10.2398 20.24C10.4398 20.04 10.7798 20.04 10.9798 20.24L11.7598 21.02C11.9698 21.22 11.9698 21.56 11.7598 21.76Z" fill="#00A6ED"/>
<path d="M21.2398 8.01997C21.0398 8.21997 21.0398 8.55997 21.2398 8.75997C21.4398 8.96997 21.7798 8.96997 21.9798 8.75997L22.7598 7.97997C22.9598 7.77997 22.9598 7.43997 22.7598 7.23997C22.5598 7.03997 22.2198 7.03997 22.0198 7.23997L21.2398 8.01997Z" fill="#00A6ED"/>
<path d="M16.2398 6.01997C16.0398 6.21997 16.0398 6.55997 16.2398 6.75997C16.4398 6.96997 16.7798 6.96997 16.9798 6.75997L17.7598 5.97997C17.9598 5.77997 17.9598 5.43997 17.7598 5.23997C17.5598 5.03997 17.2198 5.03997 17.0198 5.23997L16.2398 6.01997Z" fill="#FF6DC6"/>
<path d="M24.0198 11.76C24.2198 11.96 24.5598 11.96 24.7598 11.76C24.9698 11.56 24.9698 11.22 24.7598 11.02L23.9798 10.24C23.7798 10.04 23.4398 10.04 23.2398 10.24C23.0398 10.44 23.0398 10.78 23.2398 10.98L24.0198 11.76Z" fill="#FF6DC6"/>
<path d="M8.23984 9.84993C8.03984 9.64993 8.03984 9.30993 8.23984 9.10993L9.01984 8.32993C9.21984 8.12993 9.55984 8.12993 9.75984 8.32993C9.95984 8.52993 9.95984 8.86993 9.75984 9.06993L8.97984 9.84993C8.77984 10.0499 8.43984 10.0499 8.23984 9.84993Z" fill="#FF6DC6"/>
<path d="M14.2398 23.02C14.0398 23.22 14.0398 23.56 14.2398 23.76C14.4398 23.97 14.7798 23.97 14.9798 23.76L15.7598 22.98C15.9598 22.78 15.9598 22.44 15.7598 22.24C15.5598 22.04 15.2198 22.04 15.0198 22.24L14.2398 23.02Z" fill="#FF6DC6"/>
<path d="M21.7598 20.76C21.5598 20.96 21.2198 20.96 21.0198 20.76L20.2398 19.98C20.0398 19.78 20.0398 19.44 20.2398 19.24C20.4398 19.04 20.7798 19.04 20.9798 19.24L21.7598 20.02C21.9698 20.22 21.9698 20.56 21.7598 20.76Z" fill="#FF6DC6"/>
<path d="M10.0198 17.8499C10.2198 18.0499 10.5598 18.0499 10.7598 17.8499C10.9698 17.6399 10.9698 17.3099 10.7598 17.1099L9.97984 16.3299C9.77984 16.1299 9.43984 16.1299 9.23984 16.3299C9.03984 16.5299 9.03984 16.8699 9.23984 17.0699L10.0198 17.8499Z" fill="#FF6DC6"/>
</svg>
