<svg width="32" height="32" viewBox="0 0 32 32" fill="none" xmlns="http://www.w3.org/2000/svg">
<path d="M26.3938 2.06272C25.8447 2.07385 25.5756 2.51118 25.542 2.73532L27.7611 4.40527L29.2966 6.50117C29.5824 6.39472 29.8626 6.12565 29.9131 5.85671C29.9915 5.33556 29.8514 5.10573 29.6553 4.90963C29.4591 4.71353 29.2966 4.66301 28.7754 4.65745C29.2126 4.40527 29.4928 3.9457 29.3751 3.39095C29.3751 3.39095 29.2518 2.8305 28.6858 2.66803C28.1982 2.51668 27.6659 2.66803 27.3464 3.25645C27.3688 2.98741 27.296 2.62886 27.2399 2.55034C27.1839 2.47183 26.9429 2.05159 26.3938 2.06272Z" fill="#6B438B"/>
<circle cx="22.5" cy="9.5" r="7.5" fill="#8D65C5"/>
<circle cx="10" cy="11" r="8" fill="#6B438B"/>
<path d="M9.25391 5.28383C8.20016 4.70988 7.25057 5.47168 6.98973 5.52401C6.72889 5.57633 5.72726 5.11688 4.92389 5.99342C4.12052 6.86995 4.50657 7.7253 4.49611 8.09058C4.48565 8.45586 3.75532 9.4262 4.3396 10.3025C4.92389 11.1788 6.00901 11.1786 6.30113 11.3562C6.59325 11.5338 6.88536 12.264 8.13745 12.1492C9.38955 12.0343 9.58775 10.8867 9.78597 10.6781C9.98419 10.4696 11.1945 9.96852 11.1945 8.8418C11.1945 7.71508 10.3076 7.28729 10.2137 7.0471C10.1199 6.80691 10.3076 5.85778 9.25391 5.28383Z" fill="#AA7DE5"/>
<circle cx="7.5498" cy="8.54541" r="2.25" fill="#533566"/>
<circle cx="19" cy="21" r="9" fill="#8D65C5"/>
<path d="M23.8524 14.8383C23.29 14.4343 22.7628 12.9756 21.0231 12.9931C19.2835 13.0106 18.9496 14.188 18.4048 14.645C17.86 15.102 16.1907 15.225 15.7689 16.824C15.3472 18.423 16.2786 19.0908 16.5773 19.9343C16.8761 20.7779 16.4894 21.7619 17.614 22.7985C18.7386 23.8352 20.2675 23.0973 21.0231 23.0974C21.7788 23.0975 23.3427 23.853 24.3268 22.904C25.3108 21.9549 25.223 20.5317 25.4515 19.9343C25.6799 19.337 27.1208 18.0012 26.1719 16.4197C25.223 14.8382 24.4147 15.2423 23.8524 14.8383Z" fill="#BCA4EB"/>
<circle cx="21.0106" cy="18.4904" r="3.40029" fill="#533566"/>
</svg>
