<svg width="32" height="32" viewBox="0 0 32 32" fill="none" xmlns="http://www.w3.org/2000/svg">
<path d="M17.4837 20.4418L2.34922 13.945C2.08449 13.8284 1.93788 13.5352 2.01438 13.2497L4.36312 4.48411C4.43962 4.1986 4.70882 4.0103 5.00071 4.04945L21.356 5.99031C21.7051 6.03178 21.9396 6.38109 21.8469 6.72734L18.2774 20.0489C18.1846 20.3952 17.8068 20.5804 17.4837 20.4418Z" fill="#AEDDFF"/>
<path d="M19.5551 7.53278C19.8972 7.57384 20.1413 7.88445 20.1002 8.22655C20.0592 8.56866 19.7486 8.81271 19.4065 8.77165L5.59668 7.11441L5.92292 5.89685L19.5551 7.53278Z" fill="white"/>
<path d="M8.14947 14.5295C8.30587 14.146 8.74359 13.9618 9.12714 14.1182L17.0546 17.3509C17.2453 17.4287 17.4331 17.5116 17.6176 17.5995L19.1628 17.6031C20.0844 17.5686 20.6893 18.5497 20.252 19.3677L20.2499 19.3717C22.0376 21.0068 23.25 23.2256 23.6241 25.6944L23.8226 27.0039H28.5021C29.3295 27.0039 30.0002 27.6746 30.0002 28.502C30.0002 29.3293 29.3295 30 28.5021 30H15.4982C14.6709 30 14.0002 29.3293 14.0002 28.502C14.0002 27.6746 14.6709 27.0039 15.4982 27.0039H22.3055L22.1411 25.9191C21.6528 22.6974 19.5055 19.9703 16.4882 18.7399L8.56075 15.5072C8.1772 15.3508 7.99306 14.9131 8.14947 14.5295ZM20.6633 25.5625C20.742 25.8185 20.5003 26.0602 20.2434 25.9824L18.5759 25.4734C17.6486 25.2284 17.3421 24.0694 18.0254 23.3861L18.0444 23.3671C18.7377 22.6739 19.9157 22.9848 20.1634 23.9276L20.6633 25.5625ZM24.8723 25.9824C24.6153 26.0602 24.3737 25.8185 24.4523 25.5625L24.9523 23.9276C25.2 22.9848 26.378 22.6739 27.0712 23.3671L27.0903 23.3861C27.7736 24.0694 27.4671 25.2284 26.5397 25.4734L24.8723 25.9824Z" fill="#26C9FC"/>
<path d="M14.0879 27.9951C14.031 28.1534 14 28.324 14 28.5018C14 29.3291 14.6707 29.9998 15.498 29.9998H28.502C29.3293 29.9998 30 29.3291 30 28.5018C30 28.324 29.969 28.1534 29.9121 27.9951C29.7044 28.5731 29.1515 28.9865 28.502 28.9865H15.498C14.8485 28.9865 14.2956 28.5731 14.0879 27.9951Z" fill="#00A6ED"/>
</svg>
