<svg width="32" height="32" viewBox="0 0 32 32" fill="none" xmlns="http://www.w3.org/2000/svg">
<path d="M14.7029 11.7763L29.0451 6.37183C29.6196 6.59595 29.9997 7.15011 29.9997 7.76917V23.58C29.9997 24.4189 29.4762 25.1686 28.6886 25.4576L17.3776 29.6077C16.5841 29.8989 15.7214 29.9303 14.913 29.7021C15.4664 29.798 15.9998 29.3648 15.9998 28.7754V13.7154C15.9998 12.8641 15.4862 12.097 14.7029 11.7763Z" fill="#00A6ED"/>
<path d="M6.19044 11.1004C5.97629 11.0698 5.72545 11.1321 5.54855 11.3418L4.11268 13.0153L4.05719 13.0708L4.04035 13.0917C3.67403 13.5464 3.46973 14.129 3.46973 14.7854C3.46973 16.2863 4.59377 17.6944 6.0475 17.9087C6.09105 17.9166 6.1303 17.9204 6.15084 17.9225L6.15497 17.9229L6.18021 17.9256L6.18324 17.926L6.21394 17.9321L6.24678 17.9343C7.61122 18.0244 8.68236 16.984 8.76864 15.5985C8.81609 14.9263 8.63531 14.2849 8.30691 13.7453L8.30156 13.7369C8.22564 13.6176 8.15033 13.5101 8.08171 13.412L8.08031 13.41L6.72125 11.4413L6.71659 11.4347C6.6139 11.291 6.43532 11.1354 6.19044 11.1004Z" fill="#00A6ED"/>
<path d="M11.4797 18.5154C11.4797 17.6568 12.1548 16.9436 13.0561 17.0698C13.8977 17.1775 14.4997 17.9801 14.4997 18.7954C14.4997 19.6651 13.8161 20.3526 12.9277 20.2415L12.919 20.2403C12.0891 20.1218 11.4797 19.3395 11.4797 18.5154Z" fill="#00A6ED"/>
<path d="M8.80618 21.8398C7.90482 21.7136 7.22974 22.4268 7.22974 23.2854C7.22974 24.1095 7.83906 24.8918 8.66903 25.0103C9.57253 25.1394 10.2497 24.4253 10.2497 23.5654C10.2497 22.7376 9.64543 21.9472 8.80618 21.8398Z" fill="#00A6ED"/>
<path d="M2 7.76199C2 7.14789 2.37403 6.59768 2.94079 6.37012C2.52415 6.58567 2.49823 7.17155 2.86303 7.43318L10.8657 8.73064L14.623 11.7454C15.4512 12.0454 16.0001 12.8354 16.0001 13.7154V28.7754C16.0001 29.4254 15.3515 29.8854 14.7428 29.6554L3.16756 25.4154C2.46905 25.1654 2.00006 24.4954 2.00006 23.7454L2 7.76199ZM5.92997 11.6654L4.47997 13.3554L4.42997 13.4054C4.13997 13.7654 3.96997 14.2354 3.96997 14.7854C3.96997 16.0654 4.93997 17.2454 6.12997 17.4154C6.15496 17.4204 6.17998 17.4229 6.20497 17.4254C6.22997 17.4279 6.25497 17.4304 6.27997 17.4354C7.33997 17.5054 8.19997 16.7054 8.26997 15.5654C8.30997 15.0054 8.15997 14.4654 7.87997 14.0054C7.80999 13.8955 7.73995 13.7954 7.66997 13.6954L6.30997 11.7254C6.25997 11.6554 6.18997 11.6054 6.11997 11.5954C6.04997 11.5854 5.97997 11.6054 5.92997 11.6654ZM7.72998 23.2854C7.72998 23.8854 8.17998 24.4354 8.73998 24.5154C9.29998 24.5954 9.74998 24.1654 9.74998 23.5654C9.74998 22.9555 9.29998 22.4054 8.73998 22.3354C8.17998 22.2554 7.72998 22.6854 7.72998 23.2854ZM12.99 17.5654C12.43 17.4854 11.98 17.9154 11.98 18.5154C11.98 19.1154 12.43 19.6654 12.99 19.7454C13.55 19.8154 14 19.3954 14 18.7954C14 18.1954 13.55 17.6354 12.99 17.5654Z" fill="#0074BA"/>
<path d="M17.2799 11.7754L28.9799 7.51535C29.5299 7.31535 29.5299 6.53535 28.9799 6.34535L17.2799 2.08535C16.4499 1.78535 15.5399 1.78535 14.7099 2.08535L3.01992 6.33535C2.46992 6.53535 2.46992 7.31535 3.01992 7.51535L14.7099 11.7754C15.5399 12.0754 16.4499 12.0754 17.2799 11.7754Z" fill="#83CBFF"/>
<path d="M20.6298 13.4154C20.6998 13.4054 20.7598 13.4254 20.8098 13.4854L22.1398 15.0354C22.1498 15.0454 22.1598 15.0554 22.1598 15.0654L22.1698 15.0854C22.4398 15.4154 22.5898 15.8454 22.5898 16.3454C22.5898 17.5254 21.6998 18.6054 20.6098 18.7554C20.5598 18.7654 20.5198 18.7654 20.4698 18.7654C19.4998 18.8254 18.7098 18.0954 18.6398 17.0554C18.6098 16.5454 18.7398 16.0454 18.9898 15.6254C19.0498 15.5254 19.1098 15.4354 19.1798 15.3454L20.4298 13.5354C20.4998 13.4654 20.5698 13.4254 20.6298 13.4154Z" fill="#83CBFF"/>
<path d="M26.7398 19.7554C27.2998 19.6754 27.7498 20.1054 27.7498 20.7054C27.7498 21.3054 27.2998 21.8554 26.7398 21.9354C26.1798 22.0154 25.7298 21.5854 25.7298 20.9854C25.7298 20.3854 26.1798 19.8354 26.7398 19.7554Z" fill="#83CBFF"/>
</svg>
