<svg width="32" height="32" viewBox="0 0 32 32" fill="none" xmlns="http://www.w3.org/2000/svg">
<path d="M11.48 10.96C13.9542 10.96 15.96 8.95424 15.96 6.48C15.96 4.00576 13.9542 2 11.48 2C9.00576 2 7 4.00576 7 6.48C7 8.95424 9.00576 10.96 11.48 10.96Z" fill="#00D26A"/>
<path d="M11.4802 9.79991C13.3137 9.79991 14.8002 8.3135 14.8002 6.47991C14.8002 4.64633 13.3137 3.15991 11.4802 3.15991C9.64657 3.15991 8.16016 4.64633 8.16016 6.47991C8.16016 8.3135 9.64657 9.79991 11.4802 9.79991Z" fill="#C3EF3C"/>
<path d="M21.1904 6.69002C21.4804 9.06002 22.1804 11.36 23.2404 13.52C23.7604 14.58 24.0504 15.78 24.0504 17.05C24.0504 21.2306 20.8606 24.6653 16.7804 25.0427V28.61H20.3804C20.8004 28.61 21.1404 28.94 21.1404 29.36C21.1404 29.77 20.8104 30.11 20.3904 30.11H11.6804C11.2704 30.11 10.9304 29.78 10.9304 29.36C10.9304 28.95 11.2604 28.61 11.6804 28.61H15.2804V25.0428C14.9963 25.0169 14.7094 24.9762 14.4204 24.92C11.2704 24.31 8.7504 21.77 8.1504 18.63C7.7904 16.74 8.1004 14.94 8.8704 13.42C9.9404 11.32 10.6004 9.04002 10.8704 6.70002C10.9204 6.31002 11.2304 6.02002 11.6204 6.02002H20.4404C20.8304 6.02002 21.1404 6.31002 21.1904 6.69002Z" fill="#AEDDFF"/>
<path d="M19.5001 2C19.0696 2 18.6875 2.27543 18.5514 2.68377L16.1093 10.01L16.0576 10.1944H18.1404L18.2175 10.01L20.2208 4H23.1251V2H19.5001Z" fill="#F8312F"/>
<path d="M23.75 3C23.75 3.55228 23.4702 4 23.125 4C22.7798 4 22.5 3.55228 22.5 3C22.5 2.44772 22.7798 2 23.125 2C23.4702 2 23.75 2.44772 23.75 3Z" fill="#990838"/>
<path d="M19.9297 10.01H12.1497C11.7697 10.01 11.4397 10.26 11.3297 10.63C10.9797 11.79 10.5297 12.92 9.98968 13.99C9.57968 14.79 9.33968 15.65 9.27968 16.54C9.13968 18.43 9.77968 20.24 11.0797 21.65C12.3697 23.04 14.1697 23.83 16.0397 23.83C16.1697 23.83 16.2997 23.83 16.4297 23.82C19.9997 23.61 22.7997 20.64 22.7997 17.06C22.7997 16.01 22.5697 15.01 22.1097 14.08C21.5597 12.96 21.1097 11.81 20.7497 10.63C20.6397 10.26 20.3097 10.01 19.9297 10.01Z" fill="#FF6723"/>
<path d="M15.0202 13.2C15.451 13.2 15.8002 12.8508 15.8002 12.42C15.8002 11.9892 15.451 11.64 15.0202 11.64C14.5895 11.64 14.2402 11.9892 14.2402 12.42C14.2402 12.8508 14.5895 13.2 15.0202 13.2Z" fill="#FFB02E"/>
<path d="M18.2802 15.92C18.711 15.92 19.0602 15.5708 19.0602 15.14C19.0602 14.7092 18.711 14.36 18.2802 14.36C17.8495 14.36 17.5002 14.7092 17.5002 15.14C17.5002 15.5708 17.8495 15.92 18.2802 15.92Z" fill="#FFB02E"/>
<path d="M15.8002 18.16C15.8002 18.5908 15.451 18.94 15.0202 18.94C14.5895 18.94 14.2402 18.5908 14.2402 18.16C14.2402 17.7292 14.5895 17.38 15.0202 17.38C15.451 17.38 15.8002 17.7292 15.8002 18.16Z" fill="#FFB02E"/>
<path d="M20 8.5C20.2761 8.5 20.5 8.72386 20.5 9C20.5 9.74083 20.6561 10.2979 20.7147 10.4456L20.7223 10.4646L20.7282 10.4841C21.0806 11.6392 21.5208 12.764 22.0585 13.8589C22.5531 14.8592 22.8 15.9351 22.8 17.06C22.8 17.3361 22.5761 17.56 22.3 17.56C22.0239 17.56 21.8 17.3361 21.8 17.06C21.8 16.0852 21.587 15.1612 21.1618 14.3017L21.1612 14.3004C20.6018 13.1612 20.1438 11.9921 19.7772 10.7937C19.6686 10.5085 19.5 9.8381 19.5 9C19.5 8.72386 19.7239 8.5 20 8.5Z" fill="white"/>
</svg>
