<svg width="32" height="32" viewBox="0 0 32 32" fill="none" xmlns="http://www.w3.org/2000/svg">
<path d="M26.7777 4.43898C27.0762 4.05895 27.0102 3.50889 26.6301 3.21037C26.2501 2.91186 25.7 2.97795 25.4015 3.35797L19.2416 11.2C18.9431 11.58 19.0092 12.1301 19.3892 12.4286C19.6009 12.5949 19.8653 12.648 20.1096 12.5969C20.1266 12.6862 20.1579 12.7745 20.2044 12.8584C20.4389 13.2809 20.9716 13.4333 21.3941 13.1988L29.4427 8.73165C29.8653 8.49714 30.0177 7.9645 29.7832 7.54196C29.5486 7.11943 29.016 6.96702 28.5935 7.20153L21.527 11.1236L26.7777 4.43898Z" fill="#E19747"/>
<path d="M15.5898 17.75C15.5898 21.4779 12.5678 24.5 8.83984 24.5C5.11192 24.5 2.08984 21.4779 2.08984 17.75C2.08984 14.0221 5.11192 11 8.83984 11C12.5678 11 15.5898 14.0221 15.5898 17.75Z" fill="#6D4534"/>
<path d="M29.0098 17.625C29.0098 21.3529 25.9877 24.375 22.2598 24.375C18.5318 24.375 15.5098 21.3529 15.5098 17.625C15.5098 13.8971 18.5318 10.875 22.2598 10.875C25.9877 10.875 29.0098 13.8971 29.0098 17.625Z" fill="#FF8687"/>
<path d="M24.0781 14.9219C24.0781 19.3833 20.4614 23 16 23C11.5386 23 7.92188 19.3833 7.92188 14.9219C7.92188 10.4604 11.5386 6.84375 16 6.84375C20.4614 6.84375 24.0781 10.4604 24.0781 14.9219Z" fill="#FEEFC2"/>
<path d="M2.72196 21.0415H13.3939H17.5432H28.2151C28.8373 21.0415 29.185 21.7515 28.7952 22.2364C27.975 23.2568 26.8146 24.6495 26.14 25.2352C25.4144 25.8652 23.9696 26.7859 23.0361 27.3597C22.4666 27.7097 21.9843 28.1856 21.64 28.7585L21.5051 28.9831C21.1435 29.5848 20.4928 29.9529 19.7908 29.9529H17.5432H13.3939H11.1463C10.4443 29.9529 9.79364 29.5848 9.43202 28.9831L9.29707 28.7585C8.95275 28.1856 8.47045 27.7097 7.90098 27.3597C6.96752 26.7859 5.52268 25.8652 4.79707 25.2352C4.12246 24.6495 2.96214 23.2568 2.14188 22.2364C1.75208 21.7515 2.09982 21.0415 2.72196 21.0415Z" fill="#00A6ED"/>
<path d="M17.949 5.98328C17.949 7.07861 17.2242 7.84562 15.9657 7.84562C14.7072 7.84562 13.9824 7.07861 13.9824 5.98328C13.9824 4.88794 14.8704 4 15.9657 4C17.061 4 17.949 4.88794 17.949 5.98328Z" fill="#F8312F"/>
</svg>
