<svg width="32" height="32" viewBox="0 0 32 32" fill="none" xmlns="http://www.w3.org/2000/svg">
<path d="M15.415 29.3482C20.7545 29.3482 25.0829 24.8084 25.0829 19.2082C25.0829 13.6081 20.7545 9.06824 15.415 9.06824C10.0756 9.06824 5.74707 13.6081 5.74707 19.2082C5.74707 24.8084 10.0756 29.3482 15.415 29.3482Z" fill="#636363"/>
<path d="M16.7962 2.25827C18.4498 1.59827 20.3245 2.23827 21.2955 3.77827C21.8051 4.58827 22.5742 5.16827 23.4683 5.41827C25.1796 5.89827 26.3333 7.55827 26.2468 9.39827C26.1987 10.3583 26.4967 11.3083 27.0736 12.0583C28.1888 13.4983 28.1888 15.5383 27.0736 16.9783C26.4967 17.7283 26.1987 18.6683 26.2468 19.6383C26.3333 21.4783 25.1796 23.1383 23.4683 23.6183C22.5742 23.8683 21.8051 24.4583 21.2955 25.2583C20.3245 26.7983 18.4498 27.4383 16.7962 26.7783C15.9309 26.4383 14.9791 26.4383 14.1138 26.7783C12.4602 27.4383 10.5855 26.7983 9.61447 25.2583C9.10492 24.4483 8.3358 23.8683 7.44169 23.6183C5.73039 23.1383 4.5767 21.4783 4.66323 19.6383C4.7113 18.6783 4.41327 17.7283 3.83642 16.9783C2.72119 15.5383 2.72119 13.4983 3.83642 12.0583C4.41327 11.2983 4.7113 10.3583 4.66323 9.39827C4.5767 7.55827 5.73039 5.89827 7.44169 5.41827C8.3358 5.16827 9.10492 4.57827 9.61447 3.77827C10.5855 2.23827 12.4602 1.59827 14.1138 2.25827C14.9791 2.59827 15.9309 2.59827 16.7962 2.25827Z" fill="#E19747"/>
<path d="M15.4102 25.3483C21.2091 25.3483 25.9102 20.4234 25.9102 14.3483C25.9102 8.27313 21.2091 3.34827 15.4102 3.34827C9.61117 3.34827 4.91016 8.27313 4.91016 14.3483C4.91016 20.4234 9.61117 25.3483 15.4102 25.3483Z" fill="#F3C07B"/>
<path d="M10.8699 8.62152C10.6728 8.42804 10.3563 8.43092 10.1628 8.62794C9.9693 8.82497 9.97217 9.14154 10.1692 9.33502L12.9492 12.065C13.1462 12.2585 13.4628 12.2556 13.6563 12.0586C13.8498 11.8616 13.8469 11.545 13.6499 11.3515L10.8699 8.62152ZM20.6499 9.33502C20.8469 9.14154 20.8498 8.82497 20.6563 8.62794C20.4628 8.43092 20.1462 8.42804 19.9492 8.62152L17.1692 11.3515C16.9722 11.545 16.9693 11.8616 17.1628 12.0586C17.3563 12.2556 17.6728 12.2585 17.8699 12.065L20.6499 9.33502ZM17.1628 14.6279C17.3563 14.4309 17.6728 14.428 17.8699 14.6215L20.6499 17.3515C20.8469 17.545 20.8498 17.8616 20.6563 18.0586C20.4628 18.2556 20.1462 18.2585 19.9492 18.065L17.1692 15.335C16.9722 15.1415 16.9693 14.825 17.1628 14.6279ZM13.6499 15.335C13.8469 15.1415 13.8498 14.825 13.6563 14.6279C13.4628 14.4309 13.1462 14.428 12.9492 14.6215L10.1692 17.3515C9.97217 17.545 9.9693 17.8616 10.1628 18.0586C10.3563 18.2556 10.6728 18.2585 10.8699 18.065L13.6499 15.335Z" fill="#D3883E"/>
</svg>
