<svg width="32" height="32" viewBox="0 0 32 32" fill="none" xmlns="http://www.w3.org/2000/svg">
<path d="M15.9902 5C16.5425 5 16.9902 5.44772 16.9902 6V10.42C16.9902 10.9723 16.5425 11.42 15.9902 11.42C15.4379 11.42 14.9902 10.9723 14.9902 10.42V6C14.9902 5.44772 15.4379 5 15.9902 5Z" fill="#008463"/>
<path d="M19.97 9.98999H12C6.47 9.98999 2 14.47 2 19.99C2 25.52 6.48 29.99 12 29.99H19.96C25.49 29.99 29.96 25.51 29.96 19.99C29.97 14.47 25.49 9.98999 19.97 9.98999Z" fill="#F8312F"/>
<path d="M15.4005 12.66H9.64047C6.51047 12.66 3.98047 10.13 3.98047 7H9.74047C12.8705 7 15.4005 9.53 15.4005 12.66Z" fill="#00D26A"/>
<path d="M27.9705 7H22.2105C19.0805 7 16.5505 9.53 16.5505 12.66H22.3105C25.4405 12.66 27.9705 10.13 27.9705 7Z" fill="#00D26A"/>
<path d="M5.75 15.07H11.52C13.3345 15.07 14.9528 14.2143 15.9875 12.8826C17.0223 14.2143 18.6397 15.07 20.46 15.07H26.22C26.22 11.95 23.68 9.41003 20.56 9.41003H11.41C8.28 9.41003 5.75 11.94 5.75 15.07Z" fill="#00F397"/>
</svg>
