<svg width="32" height="32" viewBox="0 0 32 32" fill="none" xmlns="http://www.w3.org/2000/svg">
<path d="M27.8307 6.91003C28.3007 6.37003 27.9107 5.53003 27.1907 5.53003H4.8407C4.1207 5.53003 3.7407 6.37003 4.2007 6.91003L15.0107 19.53V26.85H11.7907C10.8107 26.85 10.0207 27.64 10.0207 28.62V29.53H22.0207V28.62C22.0207 27.64 21.2307 26.85 20.2507 26.85H17.0207V19.53L27.8307 6.91003Z" fill="#AEDDFF"/>
<path d="M14.4411 17.6L8.00108 9.73003C7.61108 9.25003 7.95108 8.53003 8.57108 8.53003H23.4611C24.0811 8.53003 24.4211 9.25003 24.0311 9.73003L17.6011 17.6C16.7811 18.6 15.2611 18.6 14.4411 17.6Z" fill="#C3EF3C"/>
<path d="M17.7691 11.6528L17.4102 11.1804L16.8159 11.3502L15.5468 15.1205C15.4587 15.3822 15.5994 15.6658 15.8611 15.7539C16.1229 15.842 16.4064 15.7013 16.4945 15.4395L17.7691 11.6528Z" fill="#F3AD61"/>
<path d="M20.9647 2.15952C21.0528 1.8978 20.912 1.61423 20.6503 1.52614C20.3886 1.43805 20.105 1.57879 20.0169 1.84051L18.208 7.21469L18.5336 7.6127L19.1503 7.54982L20.9647 2.15952Z" fill="#E19747"/>
<path d="M17.9507 11.66C19.1823 11.66 20.1807 10.6615 20.1807 9.42995C20.1807 8.19836 19.1823 7.19995 17.9507 7.19995C16.7191 7.19995 15.7207 8.19836 15.7207 9.42995C15.7207 10.6615 16.7191 11.66 17.9507 11.66Z" fill="#44911B"/>
<path d="M18.2405 9.31001C18.0405 9.91001 17.4405 10.24 16.9005 10.06C16.3605 9.88001 16.0905 9.25001 16.2905 8.65001C16.4905 8.05001 17.0905 7.72001 17.6305 7.90001C18.1705 8.08001 18.4405 8.71001 18.2405 9.31001Z" fill="#FF822D"/>
</svg>
