<svg width="32" height="32" viewBox="0 0 32 32" fill="none" xmlns="http://www.w3.org/2000/svg">
<path d="M2 16C2 25.29 8.27 30 16 30C23.73 30 30 25.26 30 16C30 6.57 23.73 2 16 2C8.27 2 2 6.43 2 16Z" fill="#F3AD61"/>
<path d="M19.8895 8.32001L20.5095 8.36001C21.0795 8.40001 21.5595 7.92001 21.5195 7.35001L21.4795 6.74001C21.4695 6.50001 21.3895 6.25001 21.2595 6.03001C20.8695 5.41001 20.0795 5.16001 19.4095 5.44001C18.6095 5.78001 18.2695 6.72001 18.6495 7.49001C18.8795 7.99001 19.3695 8.28001 19.8895 8.32001Z" fill="#6D4534"/>
<path d="M26.9195 14.61L26.9595 13.99C26.9995 13.42 26.5195 12.94 25.9495 12.98L25.3395 13.02C25.0995 13.03 24.8495 13.11 24.6295 13.24C24.0095 13.63 23.7595 14.42 24.0395 15.09C24.3795 15.89 25.3195 16.23 26.0895 15.85C26.5895 15.62 26.8795 15.13 26.9195 14.61Z" fill="#6D4534"/>
<path d="M10.6195 24.52L10.6695 23.75C10.7095 23.11 11.0795 22.51 11.6995 22.2C12.6495 21.72 13.8195 22.14 14.2395 23.14C14.5895 23.98 14.2795 24.96 13.5095 25.44C13.2295 25.61 12.9295 25.7 12.6295 25.72L11.8695 25.77C11.1595 25.82 10.5695 25.23 10.6195 24.52Z" fill="#6D4534"/>
<path d="M20.3995 15.19L20.4295 14.73C20.5295 13.22 19.2795 11.97 17.7595 12.06L17.3095 12.09C16.8595 12.11 16.4095 12.24 15.9895 12.49C14.7495 13.22 14.2195 14.78 14.7695 16.11C15.4195 17.7 17.2695 18.37 18.7795 17.62C19.7595 17.15 20.3395 16.2 20.3995 15.19Z" fill="#6D4534"/>
<path d="M7.64951 8.99994L7.67951 9.41994C7.73951 10.3299 8.26951 11.1899 9.14951 11.6299C10.5195 12.3099 12.1995 11.6999 12.7895 10.2599C13.2795 9.04994 12.8095 7.62994 11.6795 6.96994C11.2995 6.74994 10.8895 6.62994 10.4795 6.60994L10.0695 6.57994C8.69951 6.48994 7.56951 7.62994 7.64951 8.99994Z" fill="#6D4534"/>
<path d="M24.2595 22.82L24.2795 23.18C24.3595 24.35 23.3795 25.33 22.2095 25.25L21.8595 25.23C21.5095 25.21 21.1595 25.11 20.8295 24.92C19.8595 24.35 19.4595 23.14 19.8795 22.11C20.3895 20.88 21.8195 20.35 22.9995 20.94C23.7595 21.3 24.2095 22.03 24.2595 22.82Z" fill="#6D4534"/>
<path d="M5.86952 16.92L5.90952 17.54C5.93952 18.06 6.23952 18.55 6.73952 18.78C7.50952 19.16 8.44952 18.82 8.78952 18.02C9.06952 17.35 8.81952 16.56 8.19952 16.17C7.97952 16.04 7.72952 15.96 7.48952 15.95L6.87952 15.91C6.30952 15.87 5.82952 16.35 5.86952 16.92Z" fill="#6D4534"/>
</svg>
