<svg width="32" height="32" viewBox="0 0 32 32" fill="none" xmlns="http://www.w3.org/2000/svg">
<path d="M25.5995 10.12L22.3095 2.46C22.1895 2.18 21.9195 2 21.6195 2H10.5395C10.2395 2 9.95954 2.18 9.84954 2.46L6.55954 10.12C5.11954 13.48 6.54954 17.37 9.80954 19L14.7295 21.46C15.0695 21.63 15.2895 21.98 15.2895 22.36V28.72H11.7995C11.3995 28.72 11.0495 29.03 11.0395 29.44C11.0295 29.85 11.3595 30.18 11.7695 30.18H20.3495C20.7495 30.18 21.0995 29.87 21.1095 29.46C21.1195 29.05 20.7895 28.72 20.3795 28.72H16.8295V22.37C16.8295 21.99 17.0495 21.64 17.3895 21.47L22.3395 18.99C25.6095 17.37 27.0395 13.47 25.5995 10.12Z" fill="#AEDDFF"/>
<path d="M22.37 12.93C21.98 12.93 21.61 12.7 21.45 12.32L18.16 4.65995C17.94 4.14995 18.18 3.55995 18.68 3.34995C19.19 3.12995 19.77 3.36995 19.99 3.86995L23.28 11.53C23.5 12.04 23.26 12.63 22.76 12.84C22.63 12.9 22.5 12.93 22.37 12.93Z" fill="white"/>
<path d="M23.21 10H22.5871L21.9261 10.9159L20.4467 10H8.94996C8.51996 10 8.11996 10.26 7.94996 10.66C6.82996 13.28 7.93996 16.32 10.49 17.6L14.95 19.83C15.66 20.18 16.49 20.18 17.2 19.83L21.67 17.6C24.22 16.32 25.34 13.28 24.21 10.66C24.04 10.25 23.65 10 23.21 10Z" fill="#BB1D80"/>
<path d="M20.4531 10L21.4496 12.32C21.6096 12.7 21.9796 12.93 22.3696 12.93C22.4996 12.93 22.6296 12.9 22.7596 12.84C23.2596 12.63 23.4996 12.04 23.2796 11.53L22.6224 10H20.4531Z" fill="#FF6DC6"/>
</svg>
