<svg width="32" height="32" viewBox="0 0 32 32" fill="none" xmlns="http://www.w3.org/2000/svg">
<path d="M25.2672 6.72412C31.0672 12.5241 31.6172 21.3641 26.4972 26.4841C21.3772 31.6041 12.5372 31.0541 6.73717 25.2541C0.937172 19.4541 0.387173 10.6141 5.50717 5.50412C10.6272 0.394116 19.4672 0.934116 25.2672 6.72412Z" fill="#44911B"/>
<path d="M15.5275 10.0541C13.0875 9.14412 11.5675 7.14412 12.1575 5.57412C12.7375 4.01412 15.1875 3.48412 17.6375 4.38412C20.0875 5.28412 21.5975 7.29412 21.0075 8.86412C20.4175 10.4341 17.9775 10.9641 15.5275 10.0541Z" fill="#86D72F"/>
<path d="M9.99738 14.4241C12.444 14.4241 14.4274 12.4407 14.4274 9.99409C14.4274 7.54747 12.444 5.56409 9.99738 5.56409C7.55076 5.56409 5.56738 7.54747 5.56738 9.99409C5.56738 12.4407 7.55076 14.4241 9.99738 14.4241Z" fill="#F8312F"/>
</svg>
