<svg width="32" height="32" viewBox="0 0 32 32" fill="none" xmlns="http://www.w3.org/2000/svg">
<path d="M26.2184 8.15568L22.8984 4.82568L4.81836 22.9057L8.14836 26.2357C13.1384 31.2257 21.2284 31.2257 26.2184 26.2357C31.2084 21.2357 31.2084 13.1457 26.2184 8.15568Z" fill="#6D4534"/>
<path d="M23.6189 20.2057C23.6589 19.4156 23.8389 18.6256 24.2289 17.8756C26.5589 13.3556 26.1889 8.11565 22.8989 4.82565C20.1089 2.03565 15.9289 1.34565 11.9689 2.60565C10.9489 2.92565 10.0489 3.68565 9.5689 4.65565C9.2689 5.26565 8.7189 5.94565 7.9989 6.55565C7.2789 7.17565 6.5189 7.60565 5.8989 7.79565C4.8789 8.09565 3.9989 8.86565 3.4989 9.83565C1.1589 14.3556 1.5289 19.6056 4.8189 22.9056C6.3889 24.4756 8.4089 25.3856 10.5689 25.6456C11.2689 25.7356 11.9089 25.9957 12.4589 26.3757C12.7989 26.6056 13.3289 26.7057 13.9189 26.6056C14.4889 26.5056 14.9989 26.2456 15.3389 25.9056C15.9089 25.3456 16.5489 24.8556 17.2589 24.5357C17.3389 24.4956 17.4089 24.4657 17.4889 24.4256C18.2489 24.0656 19.0489 23.9056 19.8289 23.8956C20.5889 23.8956 21.5489 23.4456 22.3589 22.6356C23.1389 21.8656 23.5889 20.9457 23.6189 20.2057Z" fill="#A56953"/>
<path d="M22.6094 18.8357C22.6094 18.3157 22.7294 17.7857 22.9794 17.2857C24.9694 13.3557 24.6294 8.80567 21.7694 5.94567C19.2594 3.43567 15.4494 2.86567 11.8894 4.11567C11.3594 4.31567 10.9194 4.77567 10.7694 5.31567C10.5794 5.99567 9.93937 6.89567 9.01937 7.68567C8.07937 8.48567 7.09937 8.96567 6.40937 9.01567C5.85937 9.05567 5.31937 9.39567 5.02937 9.91567C2.72937 13.9657 2.96937 18.7857 5.95937 21.7757C7.41937 23.2357 9.32937 24.0457 11.3594 24.2157C11.8794 24.2557 12.3294 24.4757 12.7194 24.7657C13.0694 25.0357 13.6594 25.1257 14.3094 24.9857C14.9394 24.8457 15.4794 24.5057 15.7894 24.1057C16.1194 23.6857 16.5394 23.3457 17.0194 23.1257C17.0994 23.0857 17.1794 23.0457 17.2594 23.0057C17.7594 22.7557 18.2894 22.6157 18.8094 22.6257C19.5694 22.6357 20.5394 22.1757 21.3494 21.3657C22.1494 20.5557 22.5994 19.5957 22.6094 18.8357Z" fill="#D3D3D3"/>
<path d="M21.5195 17.3256C21.4395 17.0656 21.4695 16.7756 21.5995 16.4956C23.1395 13.2556 22.8195 9.56563 20.4795 7.22563C18.5295 5.27563 15.6495 4.72563 12.8695 5.48563C12.3295 5.63563 11.8995 6.09563 11.7695 6.63563C11.5995 7.32563 10.9495 8.23563 10.0095 9.04563C9.06946 9.84563 8.06946 10.3356 7.38946 10.3756C6.81946 10.4156 6.28946 10.7756 6.04946 11.3056C4.55946 14.5156 4.90946 18.1556 7.21946 20.4656C8.49946 21.7456 10.1695 22.4156 11.9595 22.5256C12.2195 22.5356 12.4395 22.6356 12.6095 22.8156C12.9395 23.1556 13.5895 23.2956 14.3195 23.1356C15.0195 22.9756 15.5995 22.5856 15.8895 22.1256C16.0395 21.8956 16.2495 21.7056 16.4895 21.5956H16.4995C16.7695 21.4656 17.0595 21.4456 17.3195 21.5256C18.1095 21.7856 19.3395 21.3256 20.3295 20.3356C21.3195 19.3356 21.7695 18.1156 21.5195 17.3256Z" fill="#9B9B9B"/>
</svg>
