<svg width="32" height="32" viewBox="0 0 32 32" fill="none" xmlns="http://www.w3.org/2000/svg">
<path d="M7 26V7H7.26491L17.9432 10.8584L18 11L18.1273 11.1847V29.7965L18 30L7 26Z" fill="#86D72F"/>
<path d="M7 7L14 5L25 9V28L18 30V11L7 7Z" fill="#C3EF3C"/>
<path d="M21.5 12.5L18 11L25 9L23 12C22.6562 12.5402 22.2617 12.8032 21.5 12.5Z" fill="#D3F093"/>
<path d="M11.5703 12.75C12.1903 12.97 12.7503 13.63 13.0403 14.47L13.2303 15.02C12.9503 15.01 12.7903 14.95 12.7503 14.94C12.7003 14.92 12.4203 14.81 11.9703 14.45C11.8003 14.31 11.5703 14.17 11.3103 14.08C11.0303 13.98 10.7103 13.93 10.3903 13.99C10.1903 13.66 10.0303 13.28 9.96031 12.87L9.82031 12.12L11.5703 12.75Z" fill="#008463"/>
<path d="M14.3165 2.05132C14.0115 1.94967 13.6763 2.00081 13.4155 2.18877C13.1548 2.37672 13.0002 2.67856 13.0002 3.00001V6.50001C13.0002 6.50001 13.5002 6.75001 14.0002 6.75001C14.5002 6.75001 15.0002 6.50001 15.0002 6.50001V4.38743L16.684 4.94869C17.208 5.12334 17.7743 4.84018 17.9489 4.31624C18.1236 3.79229 17.8404 3.22597 17.3165 3.05132L14.3165 2.05132Z" fill="#F8312F"/>
<path d="M16.2802 17.5C15.6702 16.01 14.8402 15.35 14.1902 15.12C13.9302 15.03 13.7002 15 13.5402 15.01C13.4302 15.02 13.3302 15.02 13.2402 15.02C12.9602 15.01 12.7902 14.96 12.7502 14.94C12.7463 14.938 12.74 14.9352 12.7315 14.9313C12.6535 14.896 12.386 14.7746 11.9802 14.45C11.8102 14.31 11.5802 14.17 11.3202 14.08C11.0402 13.98 10.7202 13.93 10.4002 13.99C9.98024 14.07 9.55024 14.34 9.18024 14.93C8.19024 16.5 8.71024 20.04 9.77024 21.74C10.2302 22.46 10.6602 22.78 11.0802 22.93C11.3617 23.0343 11.6378 23.0597 11.9042 23.0843C12.1488 23.1068 12.3852 23.1286 12.6102 23.21C12.8441 23.2928 13.0828 23.4445 13.3296 23.6014C13.5894 23.7666 13.8582 23.9375 14.1402 24.04C14.5602 24.19 15.0002 24.19 15.4702 23.8C16.5702 22.89 17.2002 19.76 16.2802 17.5Z" fill="#F8312F"/>
<path d="M17.1402 2.99268L17.3162 3.05137C17.8402 3.22602 18.1233 3.79233 17.9487 4.31628C17.8175 4.70988 17.4652 4.9676 17.076 4.99742C16.6208 4.95992 16.2617 4.52606 16.2617 3.99636C16.2617 3.44204 16.6551 2.99268 17.1402 2.99268C17.1402 2.99268 17.1401 2.99268 17.1402 2.99268Z" fill="#990838"/>
</svg>
