<svg width="32" height="32" viewBox="0 0 32 32" fill="none" xmlns="http://www.w3.org/2000/svg">
<path d="M25.5795 20.33C25.7395 18.44 25.2495 16.61 26.5895 15.27L27.4195 14.44C29.7795 12.08 29.7795 8.24002 27.4195 5.88002L25.5595 4.02002L24.2195 5.36002C22.7295 5.40002 21.2495 5.99002 20.1095 7.13002L19.8995 7.33002C18.5595 8.67002 16.7895 9.49002 14.9095 9.65002C12.4095 9.86002 10.0695 10.95 8.28945 12.73C5.31945 15.7 4.50945 20.01 5.86945 23.71L5.18945 24.39L7.73945 26.94C11.8195 31.02 18.4295 31.02 22.5095 26.94C24.2795 25.17 25.3695 22.83 25.5795 20.33Z" fill="#44911B"/>
<path d="M20.66 2C18.82 2 17.08 2.72 15.78 4.02L15.6 4.21C14.65 5.16 13.38 5.75 12.03 5.87C9.44 6.09 7.01 7.22 5.18 9.05C3.13 11.1 2 13.83 2 16.72C2 19.62 3.13 22.34 5.18 24.39C7.23 26.44 9.95 27.57 12.85 27.57C15.75 27.57 18.47 26.44 20.52 24.39C22.35 22.56 23.49 20.12 23.71 17.54C23.82 16.19 24.41 14.93 25.37 13.97L25.56 13.78C26.86 12.48 27.58 10.74 27.58 8.9C27.58 7.06 26.86 5.32 25.56 4.02C24.24 2.72 22.51 2 20.66 2Z" fill="#008463"/>
<path d="M24.3196 12.93L24.5096 12.74C26.6296 10.62 26.6296 7.17997 24.5096 5.05997C22.3896 2.93997 18.9496 2.93997 16.8296 5.05997L16.6396 5.24997C15.4396 6.44997 13.8496 7.18997 12.1596 7.32997C9.90961 7.51997 7.80961 8.49997 6.21961 10.09C2.55961 13.75 2.55961 19.68 6.21961 23.34C9.87961 27 15.8096 27 19.4696 23.34C21.0596 21.75 22.0396 19.65 22.2296 17.4C22.3796 15.72 23.1196 14.13 24.3196 12.93Z" fill="#C3EF3C"/>
<path d="M13.2897 20.69C15.6976 20.69 17.6497 18.7379 17.6497 16.33C17.6497 13.922 15.6976 11.97 13.2897 11.97C10.8817 11.97 8.92969 13.922 8.92969 16.33C8.92969 18.7379 10.8817 20.69 13.2897 20.69Z" fill="#6D4534"/>
</svg>
