<svg width="32" height="32" viewBox="0 0 32 32" fill="none" xmlns="http://www.w3.org/2000/svg">
<path d="M23.2571 2.92569C19.0571 0.945692 14.0371 2.22569 11.2971 5.96569L6.0571 13.1057C2.1071 18.4857 4.0571 26.1357 10.0971 28.9757C15.4271 31.4857 21.7671 29.1657 24.2371 23.8257L27.9471 15.7857C30.1771 10.9457 28.0871 5.20569 23.2571 2.92569Z" fill="#F3AD61"/>
<path d="M21.3674 6.54575C21.3674 7.31895 20.7406 7.94575 19.9674 7.94575C19.1942 7.94575 18.5674 7.31895 18.5674 6.54575C18.5674 5.77255 19.1942 5.14575 19.9674 5.14575C20.7406 5.14575 21.3674 5.77255 21.3674 6.54575Z" fill="#D3883E"/>
<path d="M18.4974 15.3258C19.508 15.3258 20.3274 14.5065 20.3274 13.4958C20.3274 12.4851 19.508 11.6658 18.4974 11.6658C17.4867 11.6658 16.6674 12.4851 16.6674 13.4958C16.6674 14.5065 17.4867 15.3258 18.4974 15.3258Z" fill="#D3883E"/>
<path d="M9.99738 20.6857C10.9252 20.6857 11.6774 19.9335 11.6774 19.0057C11.6774 18.0778 10.9252 17.3257 9.99738 17.3257C9.06954 17.3257 8.31738 18.0778 8.31738 19.0057C8.31738 19.9335 9.06954 20.6857 9.99738 20.6857Z" fill="#D3883E"/>
<path d="M12.4674 23.8757C12.4674 24.5163 11.9481 25.0357 11.3074 25.0357C10.6667 25.0357 10.1474 24.5163 10.1474 23.8757C10.1474 23.2351 10.6667 22.7157 11.3074 22.7157C11.9481 22.7157 12.4674 23.2351 12.4674 23.8757Z" fill="#D3883E"/>
<path d="M24.4974 15.8157C25.1381 15.8157 25.6574 15.2964 25.6574 14.6557C25.6574 14.0151 25.1381 13.4957 24.4974 13.4957C23.8568 13.4957 23.3374 14.0151 23.3374 14.6557C23.3374 15.2964 23.8568 15.8157 24.4974 15.8157Z" fill="#D3883E"/>
</svg>
