<svg width="32" height="32" viewBox="0 0 32 32" fill="none" xmlns="http://www.w3.org/2000/svg">
<path d="M27.8126 16.775C26.9126 17.685 26.3526 18.885 26.2426 20.155C26.0226 22.695 24.9126 25.085 23.1126 26.885C18.9526 31.035 12.1926 31.035 8.04258 26.885L4.89258 23.735L6.49258 22.145C6.10258 18.995 7.11258 15.695 9.52258 13.285C11.3226 11.485 13.7126 10.375 16.2526 10.155C16.3313 10.1482 16.4098 10.1397 16.488 10.1294C16.1174 8.92127 16.4114 7.55587 17.37 6.59721C18.6932 5.27409 20.81 5.21705 22.2015 6.42611L24.8426 3.78503L27.9926 6.93503C30.6526 9.59503 30.6526 13.935 27.9926 16.595L27.8126 16.775Z" fill="#FBB8AB"/>
<path fill-rule="evenodd" clip-rule="evenodd" d="M24.8725 13.835C23.9725 14.745 23.4125 15.945 23.3025 17.215C23.0925 19.755 21.9725 22.145 20.1825 23.955C16.0225 28.105 9.2625 28.115 5.1125 23.955C0.9625 19.795 0.9625 13.035 5.1125 8.885C6.9125 7.085 9.3025 5.975 11.8325 5.745C13.1025 5.635 14.3125 5.075 15.2125 4.175L15.3925 3.995C18.0525 1.335 22.3925 1.335 25.0525 3.995C27.7125 6.655 27.7125 10.995 25.0525 13.655L24.8725 13.835ZM18.6624 7.88501C17.9924 8.55501 17.9924 9.63501 18.6624 10.305C19.3324 10.975 20.4224 10.975 21.0924 10.315C21.7624 9.64501 21.7624 8.55501 21.0924 7.88501C20.4224 7.21501 19.3324 7.21501 18.6624 7.88501Z" fill="#F4F4F4"/>
<path d="M7.67612 8.79381C7.01993 9.3145 7.11859 10.3718 7.90226 10.735L12.8223 13.065C12.8273 13.065 12.8323 13.0675 12.8373 13.07C12.8423 13.0725 12.8473 13.075 12.8523 13.075C13.8223 13.525 14.9623 13.355 15.7223 12.595L16.4623 11.855C16.9323 11.385 17.1123 10.695 16.9223 10.065C16.6023 8.99498 16.8623 7.78498 17.7023 6.94498C18.9623 5.67498 21.0523 5.72498 22.2523 7.09498C23.2823 8.25498 23.2823 10.035 22.2523 11.205C21.4023 12.165 20.1223 12.475 19.0023 12.135C18.3623 11.935 17.6723 12.115 17.2023 12.585L16.4723 13.315C15.7123 14.075 15.5423 15.225 16.0023 16.195C16.0023 16.2 16.0048 16.2025 16.0073 16.205C16.0098 16.2075 16.0123 16.21 16.0123 16.215L18.3523 21.125C18.7175 21.893 19.7407 22.0031 20.2634 21.3813C21.1011 20.105 21.6176 18.6302 21.7523 17.085C21.8923 15.445 22.6123 13.905 23.7723 12.735L23.9523 12.555C25.0015 11.5058 25.5163 10.1245 25.4968 8.75074C25.479 7.59739 25.0856 6.4492 24.3167 5.50662C24.2034 5.36805 24.0819 5.23396 23.9523 5.10497C23.8529 5.00559 23.7506 4.91101 23.6455 4.82122C21.5614 3.04889 18.4177 3.20315 16.4556 5.15164L16.3223 5.28497C15.1523 6.45497 13.6123 7.16497 11.9723 7.30497C10.4272 7.43964 8.9524 7.95609 7.67612 8.79381Z" fill="#F8312F"/>
<path d="M4.94774 11.5656C5.2658 11.0957 5.87639 10.9314 6.39226 11.165L12.4023 13.985C13.5723 14.535 14.5223 15.485 15.0823 16.645L17.9323 22.625C18.1823 23.155 17.9923 23.785 17.5023 24.095C16.5626 24.6929 15.5381 25.1013 14.4829 25.3204C11.5876 25.9156 8.45782 25.0905 6.2123 22.845C3.15114 19.7838 2.72962 15.0794 4.94774 11.5656Z" fill="#F8312F"/>
</svg>
