<svg width="32" height="32" viewBox="0 0 32 32" fill="none" xmlns="http://www.w3.org/2000/svg">
<path d="M21.3569 12.0662H10.6531C5.87138 12.0662 2 15.9475 2 20.7292C2 25.511 5.87138 29.3823 10.6531 29.3823H21.3469C26.1286 29.3823 30 25.511 30 20.7292C30.01 15.9475 26.1386 12.0662 21.3569 12.0662Z" fill="#D3D3D3"/>
<path d="M10.5931 8.51489H21.4169L27.9893 10.4156V12.9765C27.9893 14.0543 27.7302 15.0722 27.2705 15.9708L27.9893 16.1776V18.7385C27.9893 22.3698 25.0482 25.3209 21.4069 25.3209H10.5931C6.96179 25.3209 4.01074 22.3798 4.01074 18.7385V16.1776L4.72928 15.9712C4.26996 15.0734 4.01074 14.0557 4.01074 12.9765V10.4156L10.5931 8.51489Z" fill="#F9C23C"/>
<path d="M10.5921 3.42249H21.416C25.0473 3.42249 27.9983 6.37354 27.9883 10.0048C27.9883 13.6361 25.0473 16.5872 21.406 16.5872H10.5921C6.96082 16.5872 4.00977 13.6461 4.00977 10.0048C4.00977 6.37354 6.95081 3.42249 10.5921 3.42249Z" fill="#D3883E"/>
<path d="M10.5928 19.5587C7.44114 19.5587 4.80187 17.3433 4.15969 14.3773C4.06196 14.8286 4.0105 15.297 4.0105 15.7774C4.0105 19.4187 6.96155 22.3597 10.5928 22.3597H21.4067C25.048 22.3597 27.989 19.4087 27.989 15.7774C27.9904 15.2936 27.9394 14.8222 27.8416 14.3684C27.2035 17.3327 24.5692 19.5587 21.4067 19.5587H10.5928Z" fill="#D3883E"/>
<path d="M19.4368 6.2041H12.5644C10.5236 6.2041 8.87305 7.85469 8.87305 9.89542C8.87305 11.566 9.98344 12.9865 11.514 13.4367C11.9742 13.5767 12.2843 14.0069 12.2843 14.4871V20.2991C12.2843 21.0094 12.8345 21.6096 13.5447 21.6296C14.265 21.6396 14.8552 21.0594 14.8552 20.3491V14.6771C14.8552 14.0769 15.3354 13.5967 15.9356 13.5967C16.5358 13.5967 17.0159 14.0769 17.0159 14.6771V16.3277C17.0159 17.038 17.5661 17.6382 18.2764 17.6582C18.9967 17.6682 19.5869 17.088 19.5869 16.3777V14.5371C19.5869 14.0469 19.907 13.6067 20.3871 13.4767C21.9777 13.0665 23.1481 11.616 23.1481 9.90542C23.1381 7.85469 21.4775 6.2041 19.4368 6.2041Z" fill="#6D4534"/>
<path d="M17.4051 5.11277L16.955 4.84267C16.3648 4.49255 15.6345 4.49255 15.0543 4.84267L14.6041 5.11277H11.293V7.21352C11.293 7.62366 11.493 8.03381 11.8932 8.26389L15.0543 10.1346C15.6445 10.4847 16.3748 10.4847 16.955 10.1346L20.1161 8.26389C20.5163 8.02381 20.7163 7.61366 20.7163 7.21352V5.11277H17.4051Z" fill="#F9C23C"/>
<path d="M15.0543 2.26259L11.8932 4.13326C11.0929 4.60343 11.0929 5.76384 11.8932 6.24401L15.0543 8.11468C15.6445 8.4648 16.3748 8.4648 16.955 8.11468L20.1161 6.24401C20.9164 5.77384 20.9164 4.61343 20.1161 4.13326L16.955 2.26259C16.3648 1.91247 15.6445 1.91247 15.0543 2.26259Z" fill="#FCD53F"/>
</svg>
