<svg width="32" height="32" viewBox="0 0 32 32" fill="none" xmlns="http://www.w3.org/2000/svg">
<path d="M14.9299 4.38002C12.5099 8.85002 8.84992 12.51 4.37992 14.93C1.69992 16.38 1.17992 20 3.32992 22.15L3.38992 22.21C4.82992 23.65 7.05992 23.98 8.84992 23.01C14.8399 19.77 19.7599 14.85 22.9999 8.86002C23.9699 7.06002 23.6499 4.84002 22.1999 3.40002L22.1399 3.34002C19.9999 1.18002 16.3799 1.71002 14.9299 4.38002Z" fill="#D3883E"/>
<path d="M17.2206 6.13008C14.3606 10.8501 10.4006 14.8101 5.68058 17.6701C2.33058 19.7001 1.77058 24.3301 4.54058 27.1001C6.50058 29.0601 9.55058 29.4301 11.9306 28.0001C18.3206 24.1301 23.6806 18.7701 27.5506 12.3801C28.9906 10.0001 28.6206 6.95008 26.6506 4.99008C23.8806 2.21008 19.2506 2.78008 17.2206 6.13008Z" fill="#FF6723"/>
<path d="M21.1099 10.19C18.6099 14.81 14.8099 18.61 10.1899 21.11C7.41985 22.61 6.86985 26.36 9.09985 28.59L9.15985 28.65C10.6599 30.15 12.9599 30.48 14.8099 29.47C21.0099 26.11 26.1099 21.02 29.4699 14.81C30.4799 12.95 30.1399 10.65 28.6499 9.15997L28.5899 9.09997C26.3599 6.86997 22.6099 7.41997 21.1099 10.19Z" fill="#F3AD61"/>
<path d="M20.5946 6.47495C20.973 6.85333 20.973 7.4668 20.5946 7.84518C20.3528 8.08698 20.336 8.25978 20.3384 8.79062C20.3385 8.80161 20.3385 8.81274 20.3386 8.824C20.3415 9.38581 20.3462 10.2836 19.5146 11.1152C18.6831 11.9467 17.7853 11.942 17.2235 11.9391C17.2122 11.9391 17.2011 11.939 17.1901 11.939C16.6592 11.9365 16.4864 11.9534 16.2446 12.1952C16.0028 12.437 15.986 12.6098 15.9884 13.1406C15.9885 13.1516 15.9885 13.1627 15.9886 13.174C15.9915 13.7358 15.9962 14.6336 15.1646 15.4652C14.3331 16.2967 13.4353 16.292 12.8735 16.2891C12.8622 16.2891 12.8511 16.289 12.8401 16.289C12.3092 16.2865 12.1364 16.3034 11.8946 16.5452C11.6528 16.787 11.636 16.9598 11.6384 17.4906C11.6385 17.5016 11.6385 17.5127 11.6386 17.524C11.6415 18.0858 11.6462 18.9836 10.8146 19.8152L10.8115 19.8183L10.8115 19.8183C9.9804 20.6418 9.08198 20.6371 8.52123 20.6341C8.50945 20.6341 8.49782 20.634 8.48634 20.634C7.95091 20.6315 7.78034 20.6495 7.54464 20.8852C7.16626 21.2636 6.55279 21.2636 6.17441 20.8852C5.79603 20.5068 5.79603 19.8933 6.17441 19.5149C7.00105 18.6883 7.89971 18.693 8.45978 18.696C8.47174 18.6961 8.48356 18.6961 8.49521 18.6962C9.02867 18.6986 9.20533 18.6811 9.44599 18.4434C9.68628 18.2024 9.70306 18.0292 9.70064 17.4995C9.70058 17.4885 9.70053 17.4774 9.70047 17.4661C9.69755 16.9043 9.69288 16.0065 10.5244 15.1749C11.3559 14.3434 12.2538 14.3481 12.8156 14.351C12.8269 14.3511 12.838 14.3511 12.849 14.3512C13.3798 14.3536 13.5526 14.3367 13.7944 14.0949C14.0362 13.8531 14.0531 13.6803 14.0506 13.1495C14.0506 13.1385 14.0505 13.1274 14.0505 13.1161C14.0475 12.5543 14.0429 11.6565 14.8744 10.8249C15.7059 9.99342 16.6038 9.99808 17.1656 10.001C17.1769 10.0011 17.188 10.0011 17.199 10.0012C17.7298 10.0036 17.9026 9.98675 18.1444 9.74495C18.3862 9.50315 18.4031 9.33035 18.4006 8.79951C18.4006 8.78852 18.4005 8.77739 18.4005 8.76612C18.3975 8.20432 18.3929 7.30648 19.2244 6.47495C19.6028 6.09657 20.2163 6.09657 20.5946 6.47495Z" fill="#FCD53F"/>
</svg>
