<svg width="32" height="32" viewBox="0 0 32 32" fill="none" xmlns="http://www.w3.org/2000/svg">
<path d="M23.501 29.4043L7.73828 20.3105L6 16L25 4.5L28.0001 7.5V26.8058C28.0001 29.1147 25.501 30.5582 23.501 29.4043Z" fill="#FCD53F"/>
<path d="M27.9996 8.0204C19.3578 8.3746 11.8946 13.2984 7.96204 20.4398L4.64306 18.525C3.1905 17.687 2.6964 15.8086 3.69484 14.4613C10.3832 5.43569 20.06 2.68722 24.9402 1.85609C26.6076 1.57212 27.9996 2.89807 27.9996 4.58948V8.0204Z" fill="#F3AD61"/>
<path d="M26 14.5C26 16.433 24.433 18 22.5 18C20.567 18 19 16.433 19 14.5C19 12.567 20.567 11 22.5 11C24.433 11 26 12.567 26 14.5Z" fill="#F8312F"/>
<path d="M18 20.5C18 21.8807 16.8807 23 15.5 23C14.1193 23 13 21.8807 13 20.5C13 19.1193 14.1193 18 15.5 18C16.8807 18 18 19.1193 18 20.5Z" fill="#F8312F"/>
<path d="M23 25C24.1046 25 25 24.1046 25 23C25 21.8954 24.1046 21 23 21C21.8954 21 21 21.8954 21 23C21 24.1046 21.8954 25 23 25Z" fill="#F8312F"/>
</svg>
