<svg width="32" height="32" viewBox="0 0 32 32" fill="none" xmlns="http://www.w3.org/2000/svg">
<path d="M23.09 13.665C23.78 13.515 24.49 13.665 25.06 14.085C25.34 14.295 25.67 14.435 26.01 14.505C26.7 14.645 27.29 15.085 27.64 15.685C27.81 15.985 28.05 16.255 28.33 16.455C28.9 16.865 29.27 17.505 29.34 18.205C29.38 18.555 29.48 18.885 29.66 19.195C30.01 19.805 30.09 20.535 29.87 21.195C29.76 21.525 29.72 21.875 29.76 22.225C29.84 22.925 29.61 23.625 29.14 24.145C28.91 24.405 28.73 24.715 28.62 25.045C28.4 25.715 27.91 26.255 27.27 26.545C26.95 26.685 26.66 26.895 26.43 27.155C25.96 27.675 25.29 27.975 24.59 27.975C24.24 27.975 23.89 28.045 23.58 28.195C22.94 28.485 22.21 28.485 21.56 28.195C21.24 28.055 20.89 27.975 20.55 27.975C19.85 27.975 19.18 27.675 18.71 27.155C18.48 26.895 18.19 26.685 17.87 26.545C17.23 26.265 16.74 25.715 16.52 25.045C16.41 24.715 16.24 24.405 16 24.145C15.53 23.625 15.3 22.925 15.38 22.225C15.42 21.875 15.38 21.525 15.27 21.195C15.05 20.525 15.13 19.795 15.48 19.195C15.66 18.895 15.77 18.555 15.8 18.205C15.87 17.505 16.24 16.875 16.81 16.455C17.09 16.255 17.33 15.985 17.5 15.685C17.85 15.075 18.44 14.645 19.13 14.505C19.47 14.435 19.8 14.285 20.08 14.085C20.65 13.675 21.36 13.515 22.05 13.665C22.4 13.735 22.75 13.735 23.09 13.665Z" fill="#402A32"/>
<path d="M24.5093 13.779C24.3953 14.0158 24.2472 14.2372 24.0681 14.4354C23.8094 14.7277 23.607 15.0763 23.4833 15.4474C23.2359 16.2008 22.6849 16.8081 21.9652 17.1342C21.6054 17.2916 21.2792 17.5278 21.0206 17.8202C20.4921 18.4049 19.7387 18.7423 18.9515 18.7423C18.6454 18.7423 18.3394 18.7899 18.0544 18.8904C18.4804 19.6331 18.5776 20.5218 18.3098 21.3253C18.1758 21.7271 18.1271 22.1534 18.1758 22.5796C18.2733 23.432 17.9932 24.2845 17.4208 24.9177C17.2015 25.1657 17.0195 25.4509 16.8866 25.7559C16.729 25.5424 16.6046 25.3026 16.52 25.045C16.41 24.715 16.24 24.405 16 24.145C15.53 23.625 15.3 22.925 15.38 22.225C15.42 21.875 15.38 21.525 15.27 21.195C15.05 20.525 15.13 19.795 15.48 19.195C15.66 18.895 15.77 18.555 15.8 18.205C15.87 17.505 16.24 16.875 16.81 16.455C17.09 16.255 17.33 15.985 17.5 15.685C17.85 15.075 18.44 14.645 19.13 14.505C19.47 14.435 19.8 14.285 20.08 14.085C20.65 13.675 21.36 13.515 22.05 13.665C22.4 13.735 22.75 13.735 23.09 13.665C23.5715 13.5603 24.0627 13.6017 24.5093 13.779Z" fill="#212121"/>
<path d="M19.1706 3.98503C18.6006 3.56503 17.8906 3.41503 17.2006 3.56503C16.8606 3.63503 16.5106 3.63503 16.1606 3.56503C15.4706 3.41503 14.7606 3.57503 14.1906 3.98503C13.9106 4.18503 13.5806 4.33503 13.2406 4.40503C12.5506 4.54503 11.9606 4.97503 11.6106 5.58503C11.4406 5.88503 11.2006 6.15503 10.9206 6.35503C10.3506 6.77503 9.98058 7.40503 9.91058 8.10503C9.88058 8.45503 9.77058 8.79503 9.59058 9.09503C9.24058 9.69503 9.16058 10.425 9.38058 11.095C9.49058 11.425 9.53058 11.775 9.49058 12.125C9.4242 12.7058 9.57123 13.2866 9.89169 13.7646C9.56707 13.8249 9.23382 13.8217 8.90057 13.755C8.21057 13.605 7.50057 13.765 6.93057 14.175C6.65057 14.375 6.32057 14.525 5.98057 14.595C5.29057 14.735 4.70057 15.165 4.35057 15.775C4.18057 16.075 3.94057 16.345 3.66057 16.545C3.09057 16.965 2.72057 17.595 2.65057 18.295C2.62057 18.645 2.51057 18.985 2.33057 19.285C1.98057 19.885 1.90057 20.615 2.12057 21.285C2.23057 21.615 2.27057 21.965 2.23057 22.315C2.15057 23.015 2.38057 23.715 2.85057 24.235C3.09057 24.495 3.26057 24.805 3.37057 25.135C3.59057 25.805 4.08057 26.355 4.72057 26.635C5.04057 26.775 5.33057 26.985 5.56057 27.245C6.03057 27.765 6.70057 28.065 7.40057 28.065C7.74057 28.065 8.09057 28.145 8.41057 28.285C9.06057 28.575 9.79057 28.575 10.4306 28.285C10.7406 28.135 11.0906 28.065 11.4406 28.065C12.1406 28.065 12.8106 27.765 13.2806 27.245C13.5106 26.985 13.8006 26.775 14.1206 26.635C14.7606 26.345 15.2506 25.805 15.4706 25.135C15.5806 24.805 15.7606 24.495 15.9906 24.235C16.4606 23.715 16.6906 23.015 16.6106 22.315C16.5706 21.965 16.6106 21.615 16.7206 21.285C16.9406 20.625 16.8606 19.895 16.5106 19.285C16.3306 18.975 16.2306 18.645 16.1906 18.295C16.1895 18.2839 16.1883 18.2727 16.187 18.2616C16.6914 18.3657 17.2158 18.3102 17.6906 18.095C18.0006 17.945 18.3506 17.875 18.7006 17.875C19.4006 17.875 20.0706 17.575 20.5406 17.055C20.7706 16.795 21.0606 16.585 21.3806 16.445C22.0206 16.155 22.5106 15.615 22.7306 14.945C22.8406 14.615 23.0206 14.305 23.2506 14.045C23.7206 13.525 23.9506 12.825 23.8706 12.125C23.8306 11.775 23.8706 11.425 23.9806 11.095C24.2006 10.435 24.1206 9.70503 23.7706 9.09503C23.5906 8.78503 23.4906 8.45503 23.4506 8.10503C23.3806 7.40503 23.0106 6.76503 22.4406 6.35503C22.1606 6.15503 21.9206 5.88503 21.7506 5.58503C21.4006 4.98503 20.8106 4.54503 20.1206 4.40503C19.7806 4.33503 19.4506 4.19503 19.1706 3.98503Z" fill="#6D4534"/>
<path d="M16.1863 18.2616C16.5032 18.327 16.8279 18.3293 17.1432 18.2687C17.1175 18.1558 17.0982 18.0409 17.0849 17.924C17.0056 17.1315 16.5867 16.4068 15.9413 15.9426C15.6243 15.7162 15.3526 15.4105 15.1601 15.0708C14.7638 14.3915 14.0958 13.8933 13.3145 13.7348C12.9296 13.6555 12.556 13.497 12.2389 13.2592C11.5936 12.7837 10.7897 12.6139 10.0084 12.7837C9.84558 12.8172 9.6807 12.8366 9.51465 12.8417C9.57549 13.1708 9.70354 13.4852 9.89082 13.7646C9.90718 13.7615 9.92352 13.7583 9.93984 13.755C10.6298 13.605 11.3398 13.755 11.9098 14.175C12.1898 14.385 12.5198 14.525 12.8598 14.595C13.5498 14.735 14.1398 15.175 14.4898 15.775C14.6598 16.075 14.8998 16.345 15.1798 16.545C15.7408 16.9484 16.108 17.5747 16.1863 18.2616Z" fill="#402A32"/>
<path d="M8.27009 15.3449C8.73009 15.2449 9.20009 15.3449 9.58009 15.6249C9.77009 15.7649 9.98009 15.8549 10.2101 15.9049C10.6701 16.0049 11.0601 16.2849 11.2901 16.6949C11.4101 16.8949 11.5601 17.0749 11.7501 17.2049C12.1301 17.4749 12.3701 17.8949 12.4201 18.3649C12.4401 18.5949 12.5201 18.8149 12.6301 19.0249C12.8601 19.4249 12.9201 19.9149 12.7701 20.3549C12.7001 20.5749 12.6701 20.8049 12.7001 21.0449C12.7501 21.5049 12.6001 21.9749 12.2901 22.3149C12.1301 22.4849 12.0201 22.6949 11.9501 22.9149C11.8101 23.3549 11.4801 23.7249 11.0501 23.9049C10.8401 23.9949 10.6501 24.1349 10.4901 24.3049C10.1801 24.6549 9.73009 24.8549 9.27009 24.8449C9.04009 24.8449 8.81009 24.8949 8.60009 24.9849C8.17009 25.1749 7.69009 25.1749 7.26009 24.9849C7.05009 24.8849 6.82009 24.8449 6.59009 24.8449C6.12009 24.8449 5.68009 24.6449 5.37009 24.3049C5.22009 24.1349 5.03009 23.9949 4.81009 23.9049C4.38009 23.7149 4.06009 23.3549 3.91009 22.9149C3.84009 22.6949 3.72009 22.4949 3.57009 22.3149C3.26009 21.9649 3.11009 21.5049 3.16009 21.0449C3.18009 20.8149 3.16009 20.5849 3.09009 20.3549C2.94009 19.9149 3.00009 19.4249 3.23009 19.0249C3.35009 18.8249 3.42009 18.6049 3.44009 18.3649C3.49009 17.9049 3.73009 17.4749 4.11009 17.2049C4.30009 17.0649 4.46009 16.8949 4.57009 16.6949C4.80009 16.2949 5.20009 16.0049 5.65009 15.9049C5.88009 15.8549 6.09009 15.7649 6.28009 15.6249C6.66009 15.3449 7.13009 15.2449 7.59009 15.3449C7.81009 15.3949 8.05009 15.3949 8.27009 15.3449Z" fill="#C3EF3C"/>
</svg>
