<svg width="32" height="32" viewBox="0 0 32 32" fill="none" xmlns="http://www.w3.org/2000/svg">
<path d="M19.9295 5.03C19.9295 4.22 19.3595 3.55 18.6095 3.38C18.4795 3.35 18.3695 3.26 18.3195 3.14C18.0895 2.47 17.4595 2 16.7195 2C15.9795 2 15.3595 2.47 15.1195 3.13C15.0795 3.26 14.9695 3.34 14.8395 3.37C14.0795 3.54 13.5195 4.22 13.5195 5.03C13.5195 5.84 14.0895 6.51 14.8395 6.68C14.9695 6.71 15.0795 6.8 15.1295 6.92C15.3595 7.58 15.9895 8.05 16.7295 8.05C17.4695 8.05 18.0895 7.58 18.3295 6.92C18.3695 6.79 18.4895 6.7 18.6195 6.68C19.3595 6.51 19.9295 5.83 19.9295 5.03Z" fill="#F9C23C"/>
<path d="M19.062 5.25223C19.3702 4.99451 19.7679 4.83997 20.2003 4.83997C20.9703 4.83997 21.6303 5.32997 21.8703 6.01997C21.9203 6.15997 22.0303 6.24997 22.1703 6.27997C22.9703 6.45997 23.5603 7.15997 23.5603 8.00997C23.5603 8.85997 22.9703 9.55997 22.1703 9.73997C22.0303 9.76997 21.9203 9.86997 21.8703 9.99997C21.6303 10.69 20.9703 11.18 20.2003 11.18C19.5693 11.18 19.0122 10.8509 18.6996 10.3524C18.4274 10.5403 18.0978 10.65 17.7403 10.65C17.0003 10.65 16.3703 10.18 16.1403 9.51999C16.0903 9.39999 15.9803 9.30999 15.8503 9.27999C15.7575 9.25896 15.6675 9.23029 15.581 9.19465C15.3363 9.46297 15.0096 9.65687 14.6403 9.73997C14.5003 9.76997 14.3903 9.86997 14.3403 9.99997C14.1003 10.69 13.4403 11.18 12.6703 11.18C11.9003 11.18 11.2403 10.69 11.0003 9.99997C10.9603 9.85997 10.8403 9.76997 10.7003 9.73997C9.91031 9.55997 9.32031 8.85997 9.32031 8.00997C9.32031 7.15997 9.91031 6.45997 10.7003 6.27997C10.8403 6.24997 10.9603 6.15997 11.0003 6.01997C11.2503 5.32997 11.9003 4.83997 12.6803 4.83997C13.4503 4.83997 14.1103 5.32997 14.3503 6.01997C14.4003 6.15997 14.5103 6.24997 14.6503 6.27997C14.7879 6.31093 14.9194 6.35729 15.0426 6.41716C15.2614 6.20379 15.5365 6.04977 15.8403 5.97999C15.9703 5.95999 16.0903 5.86999 16.1303 5.73999C16.3703 5.07999 16.9903 4.60999 17.7303 4.60999C18.2704 4.60999 18.7519 4.86036 19.062 5.25223Z" fill="#FCD53F"/>
<path d="M19.5297 8.42004C20.1843 8.42004 20.7594 8.77419 21.0645 9.3043C21.3851 8.85277 21.9145 8.56006 22.5097 8.56006C23.2797 8.56006 23.9397 9.05006 24.1797 9.74006C24.2297 9.88006 24.3397 9.97006 24.4797 10.0001C25.2797 10.1801 25.8697 10.8801 25.8697 11.7301C25.8697 12.5701 25.2797 13.2801 24.4797 13.4601C24.3397 13.4901 24.2297 13.5901 24.1797 13.7201C23.9397 14.4101 23.2797 14.9001 22.5097 14.9001C21.855 14.9001 21.2799 14.5459 20.9748 14.0158C20.6542 14.4673 20.1248 14.76 19.5297 14.76C18.7909 14.76 18.1533 14.3089 17.8909 13.6629C17.69 13.7689 17.4665 13.8378 17.2298 13.86C16.4698 13.93 15.7898 13.52 15.4798 12.89C15.1598 13.52 14.4898 13.93 13.7298 13.86C13.3139 13.8204 12.9373 13.6362 12.6532 13.3584C12.5533 13.4014 12.4485 13.4356 12.3398 13.4601C12.1998 13.4901 12.0898 13.5901 12.0398 13.7201C11.7998 14.4101 11.1398 14.9001 10.3698 14.9001C9.59977 14.9001 8.93977 14.4101 8.69977 13.7201C8.64977 13.5801 8.53977 13.4901 8.39977 13.4601C7.59977 13.2801 7.00977 12.5801 7.00977 11.7301C7.00977 10.8801 7.60977 10.1701 8.39977 10.0001C8.53977 9.97006 8.64977 9.87006 8.69977 9.74006C8.93977 9.05006 9.59977 8.56006 10.3698 8.56006C11.1498 8.56006 11.7998 9.05006 12.0398 9.74006C12.0898 9.88006 12.1998 9.97006 12.3398 10.0001C12.6739 10.0752 12.9713 10.2411 13.2045 10.4707C13.2487 10.4521 13.2938 10.4352 13.3398 10.42C13.5298 10.36 13.6798 10.21 13.7498 10.02C13.9798 9.30004 14.6398 8.79004 15.4298 8.79004C16.2098 8.79004 16.8698 9.29004 17.1098 9.99004C17.1131 10.0011 17.1168 10.012 17.1207 10.0227C17.2577 9.95042 17.4051 9.89527 17.5597 9.86004C17.6997 9.83004 17.8097 9.73004 17.8597 9.60004C18.0997 8.91004 18.7597 8.42004 19.5297 8.42004Z" fill="#FFF478"/>
<path d="M13.7403 14.13C13.6803 12.74 14.8003 11.58 16.1903 11.58C17.5803 11.58 18.6903 12.74 18.6403 14.13L22.3903 13.59C22.4803 12.54 23.3503 11.73 24.4103 11.73C25.6503 11.73 26.6003 12.84 26.4003 14.07L24.0703 28.82C23.9603 29.51 23.3603 30.02 22.6603 30.02H21.0903L19.6829 25.8043L18.0203 30.01H14.3603L13.0741 26.7061L11.3304 30.02H9.76036C9.06036 30.02 8.46036 29.51 8.35036 28.82L6.02036 14.07C5.83036 12.84 6.78036 11.73 8.02036 11.73C9.08036 11.73 9.96036 12.54 10.0304 13.59L13.7403 14.13Z" fill="#F8312F"/>
<path d="M11.2799 30.02L9.98987 13.74C9.89987 12.65 10.7599 11.73 11.8399 11.73C12.8399 11.73 13.6599 12.52 13.6999 13.52L14.3599 30.02H11.2799Z" fill="#F4F4F4"/>
<path d="M18.0198 30.02L18.6698 13.52C18.7098 12.52 19.5298 11.73 20.5298 11.73C21.6198 11.73 22.4798 12.66 22.3898 13.74L21.0998 30.02H18.0198Z" fill="#F4F4F4"/>
</svg>
