<svg width="32" height="32" viewBox="0 0 32 32" fill="none" xmlns="http://www.w3.org/2000/svg">
<path d="M12.0523 6.72014L9.97972 4.64757C8.77286 3.44071 6.82332 3.45376 5.6295 4.64758L3.99987 6.2772C2.79302 7.48406 2.80605 9.4336 3.99987 10.6274L6.37231 12.9999C5.29683 16.4613 6.1296 20.3879 8.8706 23.1289C11.6116 25.8699 15.5382 26.7027 18.9996 25.6272L21.3722 27.9998C22.566 29.1936 24.5155 29.2066 25.7224 27.9997L27.352 26.3701C28.5458 25.1763 28.5589 23.2268 27.352 22.0199L25.2794 19.9473C26.8399 16.2751 26.1229 11.8656 23.1284 8.8711C20.1339 5.87662 15.7244 5.15963 12.0523 6.72014ZM8.4989 6.1284L10.1542 7.78372C9.70413 8.10475 9.27449 8.46721 8.8706 8.8711C8.23699 9.5047 7.70535 10.2017 7.27568 10.9416L5.48069 9.1466C5.09947 8.76538 5.09691 8.14181 5.48069 7.75803L7.11032 6.1284C7.49155 5.74717 8.11511 5.74461 8.4989 6.1284ZM24.2158 21.8453L25.8712 23.5007C26.255 23.8845 26.2524 24.5081 25.8712 24.8893L24.2416 26.5189C23.8578 26.9027 23.2342 26.9002 22.853 26.5189L21.0579 24.7239C21.7978 24.2942 22.4948 23.7625 23.1284 23.1289C23.5323 22.725 23.8948 22.2954 24.2158 21.8453Z" fill="#533566"/>
<path d="M24.0002 24C19.582 28.4183 12.4185 28.4183 8.00023 24C3.58195 19.5817 3.58195 12.4183 8.00023 7.99999C12.4185 3.58171 19.582 3.58171 24.0002 7.99999C28.4185 12.4183 28.4185 19.5817 24.0002 24ZM22.0587 22.0585C25.4047 18.7125 25.4047 13.2875 22.0587 9.94152C18.7127 6.59552 13.2878 6.59551 9.94176 9.94152C6.59575 13.2875 6.59575 18.7125 9.94175 22.0585C13.2878 25.4045 18.7127 25.4045 22.0587 22.0585Z" fill="#635994"/>
<path d="M16.0002 22.8929C16.7644 22.8929 17.5831 23.2281 18.2848 23.0098C19.0022 22.7759 19.4544 22.0118 20.0626 21.5751C20.6708 21.1385 21.5285 20.9358 21.9729 20.3354C22.4096 19.7428 22.3316 18.8539 22.5655 18.1365C22.7917 17.4426 23.3765 16.7798 23.3765 16.0001C23.3765 15.2359 22.7917 14.5576 22.5655 13.8636C22.3316 13.1463 22.4018 12.2652 21.973 11.6648C21.5363 11.0566 20.6708 10.8617 20.0626 10.425C19.47 9.98838 19.0022 9.22425 18.2848 8.99033C17.5909 8.76421 16.78 9.10729 16.0002 9.10729C15.2361 9.10729 14.4174 8.77201 13.7156 8.99033C12.9983 9.22425 12.5461 9.98838 11.9379 10.425C11.3297 10.8617 10.472 11.0644 10.0275 11.6648C9.59089 12.2574 9.66886 13.1463 9.43494 13.8636C9.20882 14.5576 8.62402 15.2204 8.62402 16.0001C8.62402 16.7642 9.20882 17.4426 9.43494 18.1365C9.66886 18.8539 9.59869 19.735 10.0275 20.3354C10.4642 20.9435 11.3297 21.1385 11.9379 21.5751C12.5305 22.0118 12.9983 22.7759 13.7156 23.0098C14.4252 23.2359 15.2361 22.8929 16.0002 22.8929Z" fill="#FCD53F"/>
<path d="M15.261 12.2799C15.3605 12.6123 15.1716 12.9625 14.8392 13.0619L12.5468 13.7481C12.2144 13.8476 11.8643 13.6588 11.7648 13.3264C11.6653 12.994 11.8541 12.6439 12.1865 12.5444L14.4789 11.8582C14.8113 11.7587 15.1615 11.9475 15.261 12.2799Z" fill="#44911B"/>
<path d="M19.3676 14.452C19.7101 14.5074 19.9428 14.83 19.8875 15.1725L19.5054 17.5351C19.45 17.8776 19.1274 18.1103 18.7849 18.055C18.4424 17.9996 18.2096 17.677 18.265 17.3345L18.6471 14.9719C18.7025 14.6294 19.025 14.3966 19.3676 14.452Z" fill="#44911B"/>
<path d="M15.0278 20.4697C15.2743 20.7139 15.672 20.7121 15.9163 20.4656C16.1605 20.2191 16.1586 19.8213 15.9122 19.5771L14.2124 17.8929C13.9659 17.6487 13.5681 17.6505 13.3239 17.897C13.0797 18.1435 13.0815 18.5413 13.328 18.7855L15.0278 20.4697Z" fill="#44911B"/>
<path d="M17.0529 12.5926C17.3113 12.851 17.7302 12.851 17.9886 12.5926C18.247 12.3342 18.247 11.9153 17.9886 11.6569C17.7302 11.3985 17.3113 11.3985 17.0529 11.6569C16.7945 11.9153 16.7945 12.3342 17.0529 12.5926Z" fill="#F8312F"/>
<path d="M18.3237 20.6317C18.582 20.89 19.001 20.89 19.2593 20.6317C19.5177 20.3733 19.5177 19.9544 19.2593 19.696C19.001 19.4376 18.582 19.4376 18.3237 19.696C18.0653 19.9544 18.0653 20.3733 18.3237 20.6317Z" fill="#F8312F"/>
<path d="M11.3609 17.8012C11.1025 18.0596 10.6836 18.0596 10.4252 17.8012C10.1669 17.5428 10.1668 17.1239 10.4252 16.8655C10.6836 16.6072 11.1025 16.6072 11.3609 16.8655C11.6193 17.1239 11.6193 17.5428 11.3609 17.8012Z" fill="#F8312F"/>
</svg>
