<svg width="32" height="32" viewBox="0 0 32 32" fill="none" xmlns="http://www.w3.org/2000/svg">
<path d="M16.0441 1C13.048 1 10.2384 2.37241 8.55965 4.64546L8.4081 4.84918C5.06225 9.38456 3.5467 14.8528 4.11795 20.2995L4.2112 21.1573C4.79411 26.7434 9.90032 31 15.9975 31C22.1179 31 27.2242 26.7219 27.7837 21.1144L27.8887 20.1172C28.4482 14.6276 26.8861 9.12724 23.4819 4.59185C21.7915 2.35097 19.0169 1 16.0441 1Z" fill="white"/>
<path d="M8 19.7658C8 24.0547 11.6923 27.5315 15.3846 27.5315C16.6696 27.5315 17.2308 30.5184 19.6923 29.921C21.6909 29.126 21.1014 26.0408 22.3063 24.5447C23.3675 23.227 24 21.5681 24 19.7658C24 15.4769 20.4183 12 16 12C11.5817 12 8 15.4769 8 19.7658Z" fill="#F9AD3C"/>
<path fill-rule="evenodd" clip-rule="evenodd" d="M17.0516 14.6838C17.2262 14.1599 17.7926 13.8767 18.3165 14.0513C19.4778 14.4384 22.0003 15.8567 22.0003 19C22.0003 19.5523 21.5526 20 21.0003 20C20.448 20 20.0003 19.5523 20.0003 19C20.0003 17.1433 18.5227 16.2283 17.684 15.9487C17.1601 15.7741 16.8769 15.2077 17.0516 14.6838Z" fill="#FFDBA5"/>
</svg>
