<svg width="32" height="32" viewBox="0 0 32 32" fill="none" xmlns="http://www.w3.org/2000/svg">
<path d="M17.4639 19.5497V4.5H17.6522L25.2425 7.7827L25.8734 7.84064L25.9639 8L25.5544 22.8244L25.4639 23L17.4639 19.5497Z" fill="#ECE9E4"/>
<path d="M11.4639 22.5497V7.5H11.6522L19.2425 10.7827L19.8734 10.8406L19.9639 11L19.5544 25.8244L19.4639 26L11.4639 22.5497Z" fill="#ECE9E4"/>
<path d="M17.4639 4.5L21.4639 3L29.4639 6.33333V20.8723L25.4639 23V8L17.4639 4.5Z" fill="#FBF8F3"/>
<path d="M11.4639 7.5L15.4639 6L23.4639 9.33333V23.8723L19.4639 26V11L11.4639 7.5Z" fill="#FBF8F3"/>
<path d="M17.4639 4.5L21.4639 3L29.4639 6.33333L25.4639 8L17.4639 4.5Z" fill="white"/>
<path d="M11.4639 7.5L15.4639 6L23.4639 9.33333L19.4639 11L11.4639 7.5Z" fill="white"/>
<path d="M2.56192 23.7695L5.46387 9.99997L5.85323 9.99997L14.2646 13.8592L14.2869 13.9759L14.3568 14.136L11.5914 28.3633L11.4638 28.5L2.56192 23.7695Z" fill="#ECE9E4"/>
<path d="M5.46401 10L9.96384 9.7492L18.3077 13.1695L15.5589 27.3114L11.4639 28.5L14.1884 13.9555L5.46401 10Z" fill="#FBF8F3"/>
<path d="M5.46338 10L9.96311 9.50002L18.3076 13.4203L14.1883 14.2063L5.46338 10Z" fill="white"/>
</svg>
