<svg width="32" height="32" viewBox="0 0 32 32" fill="none" xmlns="http://www.w3.org/2000/svg">
<path d="M16 10.4999C7.27972 10.4999 4 15.5938 4 18V13.9474C4 11.5412 6.79288 7 16 7C22.6278 7 28 8.95121 28 11.3662V14.8574C28 12.4511 22.6278 10.4912 16 10.4912V10.4999Z" fill="#DD9B0A"/>
<path d="M15.6242 16.148C6.13523 16.8005 4 20.6993 4 23V19.1096C4 16.8089 6.80142 13.454 16 13.0357C22.4484 12.7428 28 14.2823 28 16.583V19.9212C28 17.6204 22.1238 15.6878 15.6157 16.1396L15.6242 16.148Z" fill="#DD9B0A"/>
<path d="M16 20.4809C9.37224 20.3332 4 16.3891 4 14V18.0397C4 20.4288 9.38078 23.6779 16 23.9559C22.0641 24.2079 28 23.3999 28 21.0022V17.5358C28 19.9249 22.3288 20.6286 16 20.4896V20.4809Z" fill="#FAC032"/>
<path d="M24 3.94458C21.8758 3.35516 19.0921 3 16.0343 3C6.80086 3 4 6.4005 4 8.48615V12C4 9.92191 7.28908 6.02267 16.0343 6.02267C19.0921 6.02267 21.8758 6.37783 24 6.96725V3.94458Z" fill="#DD9B0A"/>
<path d="M24 25.4337C21.833 25.7855 19.0064 25.8949 16.0343 25.8324C9.38758 25.6995 4 22.15 4 20V23.6355C4 25.7855 9.39615 28.7095 16.0343 28.9597C18.9293 29.0691 21.7901 28.9597 24 28.5844V25.4415V25.4337Z" fill="#FAC032"/>
<path d="M16 14.4809C9.37224 14.3332 4 10.3891 4 8V12.0397C4 14.4288 9.38078 17.6779 16 17.9559C22.0641 18.2079 28 17.3999 28 15.0022V11.5358C28 13.9249 22.3288 14.6286 16 14.4896V14.4809Z" fill="#FAC032"/>
</svg>
