<svg width="32" height="32" viewBox="0 0 32 32" fill="none" xmlns="http://www.w3.org/2000/svg">
<path d="M2 22.93V24.15C2 24.36 2.10999 24.57 2.32999 24.68L12.48 29.67C13.1 29.98 13.84 29.98 14.46 29.67L29.66 22.27C29.88 22.16 29.99 21.95 29.99 21.74V20.52L2 22.93Z" fill="#D3D3D3"/>
<path d="M18.26 14.67L2.33 22.43C1.89 22.65 1.89 23.27 2.33 23.49L12.48 28.48C13.1 28.79 13.84 28.79 14.46 28.48L29.66 21.08C30.1 20.86 30.1 20.24 29.66 20.02L18.78 14.67C18.62 14.59 18.42 14.59 18.26 14.67Z" fill="#F4F4F4"/>
<path d="M18.9096 12.1299C18.5596 11.9599 18.1596 11.9599 17.8196 12.1299L9.77961 15.9799C9.51961 16.1099 9.34961 16.3799 9.34961 16.6699C11.6314 19.8394 13.9309 21.9844 16.9685 24.5503L17.0696 24.5999C17.2796 24.6999 17.5296 24.6999 17.7496 24.5999L17.8783 24.5382C21.8745 20.5938 22.4995 20 26.4196 16.2999C26.4196 16.0099 26.2496 15.7399 25.9896 15.6099L18.9096 12.1299Z" fill="#FCD53F"/>
<path d="M9.34961 20.4235V16.6535C9.34961 16.4535 9.55961 16.3135 9.74961 16.4035L17.0996 20.0235C17.2896 20.1135 17.4096 20.3135 17.4096 20.5235V24.2535C17.4096 24.4935 17.1596 24.6535 16.9396 24.5435L9.70961 20.9935C9.48961 20.8835 9.34961 20.6735 9.34961 20.4235Z" fill="#FFF478"/>
<path d="M9.34961 20.4235V16.6535C9.34961 16.4535 9.55961 16.3135 9.74961 16.4035L17.0996 20.0235C17.2896 20.1135 17.4096 20.3135 17.4096 20.5235V24.2535C17.4096 24.4935 17.1596 24.6535 16.9396 24.5435L9.70961 20.9935C9.48961 20.8835 9.34961 20.6735 9.34961 20.4235Z" fill="#FFF478"/>
<path d="M8.40039 17.31C8.05039 17.14 7.65039 17.14 7.31039 17.31L6.33039 17.78C6.07039 17.91 5.90039 18.17 5.90039 18.47C8.11433 21.6373 11.0813 23.3423 13.5204 26.3509L13.6204 26.4C13.8304 26.5 14.0804 26.5 14.3004 26.4L14.4338 26.3354C14.6844 24.6251 15.339 23.1467 15.9104 21.48C15.9104 21.19 15.7404 20.92 15.4804 20.79L8.40039 17.31Z" fill="#FCD53F"/>
<path d="M5.90039 22.2234V18.4534C5.90039 18.2534 6.11039 18.1134 6.30039 18.2034L13.6604 21.8234C13.8504 21.9134 13.9704 22.1134 13.9704 22.3234V26.0534C13.9704 26.2934 13.7204 26.4534 13.5004 26.3434L6.26039 22.7834C6.04039 22.6834 5.90039 22.4634 5.90039 22.2234Z" fill="#FFF478"/>
<path d="M26.4299 16.2835V20.0535C26.4299 20.2935 26.2899 20.5135 26.0799 20.6135L17.8899 24.5435C17.6699 24.6535 17.4199 24.4935 17.4199 24.2535V20.5235C17.4199 20.3135 17.5399 20.1135 17.7299 20.0235L26.0299 16.0335C26.2199 15.9435 26.4299 16.0835 26.4299 16.2835Z" fill="#F9C23C"/>
<path d="M15.91 21.4734V25.2434C15.91 25.4834 15.78 25.7034 15.56 25.7934L14.43 26.3434C14.21 26.4534 13.96 26.2934 13.96 26.0534V22.3234C13.96 22.1134 14.08 21.9134 14.27 21.8234L15.51 21.2234C15.7 21.1334 15.91 21.2734 15.91 21.4734Z" fill="#F9C23C"/>
</svg>
