<svg width="32" height="32" viewBox="0 0 32 32" fill="none" xmlns="http://www.w3.org/2000/svg">
<path d="M26.2607 6.0655C24.1544 4.8262 20.3482 4 16 4C9.37035 4 4 6.43844 4 10.8047C4 16.2152 9.37035 17.4659 16 17.4659C22.6296 17.4659 28 15.5439 28 13.1743C28 10.8047 22.6296 8.88262 16 8.88262C9.37035 8.88262 4 11.3211 4 15.693C4 21.3502 9.37035 22.71 16 22.71C22.6296 22.71 28 20.7879 28 18.4184C28 16.0488 22.6296 14.1267 16 14.1267C9.37035 14.1267 4 16.5135 4 20.8339C4 25.8542 9.37035 28 16 28C20.0094 28 23.5558 27.3 25.7355 26.2156" stroke="#FAC032" stroke-width="1.7" stroke-miterlimit="10" stroke-linecap="round"/>
</svg>
