<svg width="32" height="32" viewBox="0 0 32 32" fill="none" xmlns="http://www.w3.org/2000/svg">
<path d="M28.6749 17.5V17.87L16.3449 10.8C16.1449 10.7 15.9049 9.69997 15.7049 10.8L3.37488 17.87V17.5H2.00488V22.97C2.00488 23.23 2.13488 23.48 2.40488 23.62L14.8149 29.72C15.5749 30.09 16.4749 30.09 17.2349 29.72L29.6449 23.62C29.9149 23.49 30.0449 23.23 30.0449 22.97V17.5H28.6749Z" fill="#321B41"/>
<path d="M2.405 16.89L14.975 10.72C15.635 10.39 16.415 10.39 17.075 10.72L29.645 16.89C30.185 17.15 30.185 17.92 29.645 18.18L17.235 24.28C16.475 24.65 15.575 24.65 14.815 24.28L2.405 18.18C1.865 17.92 1.865 17.15 2.405 16.89ZM10.925 14.12C10.725 14.22 10.725 14.5 10.925 14.6L15.535 16.87C15.815 17.01 16.155 17.01 16.435 16.87L21.045 14.6C21.245 14.5 21.245 14.22 21.045 14.12L16.375 11.83C16.125 11.7 15.835 11.7 15.595 11.82L10.925 14.12ZM22.025 15.1701L11.065 20.5301C10.865 20.6301 10.865 20.9101 11.065 21.0101L15.675 23.2801C15.955 23.4201 16.295 23.4201 16.575 23.2801L27.475 17.9501C27.675 17.8501 27.675 17.5701 27.475 17.4701L22.805 15.1701C22.555 15.0501 22.265 15.0501 22.025 15.1701ZM4.57499 17.38C4.37499 17.48 4.37499 17.76 4.57499 17.86L9.18499 20.13C9.46499 20.27 9.80499 20.27 10.085 20.13L14.695 17.86C14.895 17.76 14.895 17.48 14.695 17.38L10.025 15.08C9.77499 14.96 9.48499 14.96 9.23499 15.08L4.57499 17.38Z" fill="#635994"/>
<path d="M21.3351 12.76C21.3351 12.72 21.3351 12.67 21.3251 12.63C21.2451 11.58 20.4051 10.74 19.3651 10.67H19.3251C18.6751 10.64 18.0751 10.31 17.6751 9.8C17.2851 9.31 16.6951 9 16.0251 9C15.3551 9 14.7551 9.31 14.3751 9.8C13.9651 10.31 13.3751 10.64 12.7251 10.67H12.6851C11.6351 10.73 10.7951 11.58 10.7151 12.62C10.7151 12.64 10.7126 12.6625 10.7101 12.685C10.7076 12.7075 10.7051 12.73 10.7051 12.75C10.7051 13.2268 10.8175 13.6766 11.017 14.0747C11.0203 14.0813 11.0236 14.0878 11.027 14.0943C11.0651 14.169 11.1062 14.2417 11.1503 14.3125C11.3127 14.5733 11.5145 14.8068 11.7473 15.0048L13.0487 15.6457C13.2476 15.6878 13.4538 15.71 13.6651 15.71H18.3651C18.5379 15.711 18.7071 15.6974 18.8716 15.6702L20.3974 14.9189C20.589 14.7402 20.7566 14.5363 20.895 14.3125C20.9369 14.2448 20.9761 14.1752 21.0126 14.104C21.219 13.7005 21.3351 13.2435 21.3351 12.76Z" fill="#44911B"/>
<path d="M17.3207 12.3197C17.1055 12.3764 16.9026 12.4622 16.7151 12.57C16.2951 12.82 15.7651 12.82 15.3451 12.57C15.3201 12.555 15.2948 12.5405 15.2692 12.5264C15.0733 12.419 14.8601 12.3395 14.636 12.2924C14.4205 12.247 14.1949 12.2316 13.9651 12.25C13.0989 12.3092 12.3533 12.8453 11.992 13.5945C11.9871 13.6047 11.9823 13.6149 11.9775 13.6252C11.8779 13.8394 11.8096 14.0705 11.7786 14.3125C11.7728 14.358 11.7683 14.4038 11.7651 14.45C11.7509 14.648 11.761 14.8413 11.7927 15.0272L15.5351 16.87C15.8151 17.01 16.1551 17.01 16.4351 16.87L20.2752 14.9791C20.3008 14.808 20.3081 14.631 20.2951 14.45C20.292 14.4038 20.2874 14.358 20.2816 14.3125C20.252 14.0816 20.1884 13.8606 20.0962 13.6547C19.7465 12.8741 18.9843 12.3108 18.0951 12.25C17.8371 12.2298 17.5893 12.2531 17.3556 12.3108C17.3439 12.3137 17.3323 12.3166 17.3207 12.3197Z" fill="#86D72F"/>
<path d="M8.53868 16.1089C8.57144 16.7492 8.84687 17.3252 9.27483 17.7468C9.7225 18.1879 10.3371 18.46 11.0154 18.46C11.5117 18.46 11.9556 18.7008 12.2358 19.0711L10.0854 20.13C9.80538 20.27 9.46538 20.27 9.18538 20.13L6.12668 18.6239C5.97494 18.345 5.84642 18.0518 5.74373 17.7468C5.65243 17.4757 5.58154 17.1953 5.5329 16.9074C5.48193 16.6057 5.45539 16.2959 5.45539 15.98C5.45539 15.87 5.46539 15.77 5.48539 15.67C4.61539 15.15 4.02539 14.2 4.02539 13.12V12.21C4.02539 11.54 4.56539 10.98 5.24539 10.98C5.92539 10.98 6.47539 11.53 6.47539 12.21V13.12C6.47539 13.4 6.70539 13.63 6.98539 13.63C7.26539 13.63 7.49539 13.4 7.49539 13.12V12.21C7.49539 11.54 8.05539 10.98 8.73539 10.98C9.41539 10.98 9.96539 11.53 9.96539 12.21V13.12C9.96539 13.8771 9.67543 14.5703 9.20232 15.0963C9.19036 15.1096 9.1783 15.1228 9.16611 15.1359C9.13458 15.1697 9.10228 15.2028 9.06924 15.2351C8.8995 15.4013 8.71021 15.5476 8.50539 15.67C8.50789 15.6825 8.51023 15.6951 8.51242 15.7079C8.52773 15.7973 8.53539 15.8925 8.53539 15.98C8.53539 16.0232 8.5365 16.0662 8.53868 16.1089Z" fill="#FF6723"/>
<path d="M27.4751 17.4701L25.0651 16.2901C19.7551 14.8601 14.9651 17.3101 12.2051 21.5801L15.6751 23.2901C15.9551 23.4301 16.2951 23.4301 16.5751 23.2901L27.4751 17.9601C27.6751 17.8501 27.6751 17.5701 27.4751 17.4701Z" fill="#F4F4F4"/>
<path d="M20.7251 16.63L20.3651 17.09C20.2851 17.19 20.3051 17.34 20.4051 17.42C20.5051 17.5 20.6551 17.48 20.7351 17.38L21.0951 16.92C21.1751 16.82 21.1551 16.67 21.0551 16.59C20.9551 16.51 20.8051 16.53 20.7251 16.63Z" fill="#D3D3D3"/>
<path d="M23.3451 17.56L22.7751 17.43C22.6551 17.4 22.5751 17.27 22.5951 17.15C22.6251 17.02 22.7451 16.94 22.8751 16.97L23.4451 17.1C23.5751 17.13 23.6551 17.25 23.6251 17.38C23.5951 17.51 23.475 17.59 23.3451 17.56Z" fill="#D3D3D3"/>
<path d="M19.8051 18.45L20.3851 18.54C20.5151 18.56 20.6051 18.68 20.5851 18.81C20.5651 18.94 20.4451 19.03 20.3151 19.01L19.7351 18.92C19.6051 18.9 19.5151 18.78 19.5351 18.65C19.5551 18.52 19.6751 18.43 19.8051 18.45Z" fill="#D3D3D3"/>
<path d="M19.5051 20.12L19.2651 20.65C19.2151 20.77 19.2651 20.91 19.3851 20.96C19.5051 21.01 19.6451 20.96 19.6951 20.84L19.9351 20.31C19.9851 20.19 19.9351 20.05 19.8151 20C19.6951 19.95 19.5651 20 19.5051 20.12Z" fill="#D3D3D3"/>
<path d="M17.475 21.72L16.905 21.59C16.775 21.56 16.695 21.43 16.725 21.31C16.755 21.18 16.875 21.1 17.005 21.13L17.575 21.26C17.705 21.29 17.785 21.41 17.755 21.54C17.725 21.67 17.605 21.75 17.475 21.72Z" fill="#D3D3D3"/>
<path d="M23.1751 19.06L22.7651 19.47C22.6751 19.56 22.5251 19.56 22.4351 19.47C22.3451 19.38 22.3451 19.23 22.4351 19.14L22.8451 18.73C22.9351 18.64 23.0851 18.64 23.1751 18.73C23.2651 18.82 23.2651 18.97 23.1751 19.06Z" fill="#D3D3D3"/>
<path d="M18.085 18.1L18.495 17.69C18.585 17.6 18.585 17.45 18.495 17.36C18.405 17.27 18.255 17.27 18.165 17.36L17.755 17.77C17.665 17.86 17.665 18.01 17.755 18.1C17.845 18.19 17.995 18.19 18.085 18.1Z" fill="#D3D3D3"/>
<path d="M25.605 17.5101L26.075 17.8601C26.175 17.9401 26.195 18.0901 26.105 18.2001C26.025 18.3001 25.875 18.3201 25.775 18.2401L25.315 17.8801C25.215 17.8001 25.195 17.6501 25.275 17.5501C25.355 17.4501 25.505 17.4301 25.605 17.5101Z" fill="#D3D3D3"/>
<path d="M16.415 19.74L16.855 19.36C16.955 19.28 16.965 19.13 16.885 19.03C16.805 18.93 16.655 18.92 16.555 19L16.115 19.38C16.015 19.46 16.005 19.61 16.085 19.71C16.165 19.81 16.315 19.82 16.415 19.74Z" fill="#D3D3D3"/>
<path d="M14.3651 21.46L14.1451 20.92C14.0951 20.81 14.1451 20.67 14.2751 20.61C14.3951 20.56 14.5351 20.62 14.5851 20.74L14.8051 21.28C14.8551 21.4 14.7951 21.54 14.6751 21.59C14.5551 21.64 14.4151 21.58 14.3651 21.46Z" fill="#D3D3D3"/>
</svg>
