<svg width="32" height="32" viewBox="0 0 32 32" fill="none" xmlns="http://www.w3.org/2000/svg">
<path d="M27.6078 18.1677C27.6078 17.0977 28.0478 15.9977 27.7778 15.0077C27.5078 13.9877 26.5678 13.2477 26.0478 12.3577C25.5278 11.4577 25.3478 10.2677 24.6178 9.53768C23.8878 8.80768 22.7078 8.62768 21.7978 8.10768C20.9078 7.58768 20.1678 6.65768 19.1478 6.37768C18.1678 6.11768 17.0578 6.54768 15.9978 6.54768C14.9278 6.54768 13.8278 6.10768 12.8378 6.37768C11.8178 6.64768 11.0778 7.58768 10.1878 8.10768C9.28776 8.62768 8.09776 8.80768 7.36776 9.53768C6.63776 10.2677 6.45776 11.4477 5.93776 12.3577C5.41776 13.2477 4.48776 13.9877 4.20776 15.0077C3.94776 15.9877 4.37776 17.0977 4.37776 18.1677C4.37776 19.2377 3.93776 20.3377 4.20776 21.3277C4.47776 22.3477 5.41776 23.0877 5.93776 23.9777C6.45776 24.8777 6.63776 26.0677 7.36776 26.7977C8.09776 27.5277 9.27776 27.7077 10.1878 28.2277C11.0778 28.7477 11.8178 29.6777 12.8378 29.9577C13.8178 30.2177 14.9278 29.7877 15.9978 29.7877C17.0678 29.7877 18.1678 30.2277 19.1578 29.9577C20.1778 29.6877 20.9178 28.7477 21.8078 28.2277C22.7078 27.7077 23.8978 27.5277 24.6278 26.7977C25.3578 26.0677 25.5378 24.8877 26.0578 23.9777C26.5778 23.0877 27.5078 22.3477 27.7878 21.3277C28.0378 20.3377 27.6078 19.2277 27.6078 18.1677Z" fill="#6D4534"/>
<path d="M27.7276 13.9976C27.7276 12.9176 28.1676 11.7976 27.8976 10.8076C27.6276 9.77765 26.6776 9.02765 26.1576 8.12765C25.6276 7.21765 25.4476 6.01765 24.7076 5.27765C23.9676 4.53765 22.7676 4.35765 21.8576 3.82765C20.9576 3.30765 20.2076 2.35765 19.1776 2.08765C18.1876 1.81765 17.0676 2.25765 15.9976 2.25765C14.9176 2.25765 13.7976 1.81765 12.8076 2.08765C11.7776 2.35765 11.0276 3.30765 10.1276 3.82765C9.20765 4.35765 8.01765 4.53765 7.27765 5.27765C6.53765 6.01765 6.35765 7.20765 5.82765 8.12765C5.30765 9.02765 4.35765 9.77765 4.08765 10.7976C3.81765 11.7976 4.25765 12.9176 4.25765 13.9976C4.25765 15.0776 3.81765 16.1976 4.08765 17.1876C4.35765 18.2176 5.30765 18.9676 5.82765 19.8676C6.35765 20.7776 6.53765 21.9776 7.27765 22.7176C8.01765 23.4576 9.21765 23.6376 10.1276 24.1676C11.0276 24.6876 11.7776 25.6376 12.8076 25.9076C13.7976 26.1776 14.9176 25.7376 15.9976 25.7376C17.0776 25.7376 18.1976 26.1776 19.1876 25.9076C20.2176 25.6376 20.9676 24.6876 21.8676 24.1676C22.7776 23.6376 23.9776 23.4576 24.7176 22.7176C25.4576 21.9776 25.6376 20.7776 26.1676 19.8676C26.6876 18.9676 27.6376 18.2176 27.9076 17.1876C28.1676 16.1876 27.7276 15.0676 27.7276 13.9976Z" fill="#F3AD61"/>
<path d="M24.978 14.8376H22.568V13.1476H24.978C25.248 13.1476 25.468 12.9276 25.468 12.6576C25.468 8.0476 21.718 4.2876 17.098 4.2876H14.868C10.258 4.2876 6.49805 8.0376 6.49805 12.6576C6.49805 12.9276 6.71805 13.1476 6.98805 13.1476H9.39805V14.8376H7.00805C6.73805 14.8376 6.51805 15.0576 6.51805 15.3276C6.51805 19.9376 10.268 23.6976 14.888 23.6976H17.118C21.728 23.6976 25.488 19.9476 25.488 15.3276C25.478 15.0576 25.258 14.8376 24.978 14.8376ZM14.878 5.2776H17.108C21.008 5.2776 24.218 8.3276 24.468 12.1676H17.598V7.7676C18.858 7.8976 20.018 8.5076 20.838 9.4576H19.098C18.828 9.4576 18.608 9.6776 18.608 9.9476C18.608 10.2176 18.828 10.4376 19.098 10.4376H21.788C21.968 10.4376 22.128 10.3476 22.218 10.1876C22.308 10.0376 22.308 9.8476 22.218 9.6976C21.168 7.8776 19.208 6.7476 17.098 6.7476C16.828 6.7476 16.608 6.9676 16.608 7.2376V8.7076H15.368V7.2376C15.368 6.9676 15.148 6.7476 14.878 6.7476C12.778 6.7476 10.818 7.8776 9.75805 9.6976C9.66805 9.8476 9.66805 10.0376 9.75805 10.1876C9.84805 10.3376 10.008 10.4376 10.188 10.4376H12.878C13.148 10.4376 13.368 10.2176 13.368 9.9476C13.368 9.6776 13.158 9.4476 12.888 9.4476H11.148C11.968 8.4976 13.128 7.8876 14.388 7.7576V12.1576H7.51805C7.77805 8.3176 10.978 5.2776 14.878 5.2776ZM10.398 13.1476H14.878C15.148 13.1476 15.368 12.9276 15.368 12.6576V9.6976H16.608V12.6476C16.608 12.9176 16.828 13.1376 17.098 13.1376H21.578V14.8276H17.098C16.828 14.8276 16.608 15.0476 16.608 15.3176V18.2676H15.368V15.3176C15.368 15.0476 15.148 14.8276 14.878 14.8276H10.398V13.1476ZM17.108 22.7176H14.878C10.978 22.7176 7.76805 19.6676 7.51805 15.8276H14.388V20.2276C13.128 20.0976 11.968 19.4876 11.148 18.5376H12.888C13.158 18.5376 13.378 18.3176 13.378 18.0476C13.378 17.7776 13.158 17.5576 12.888 17.5576H10.188C10.008 17.5576 9.84805 17.6476 9.75805 17.8076C9.66805 17.9576 9.66805 18.1476 9.75805 18.2976C10.808 20.1176 12.768 21.2476 14.878 21.2476C15.148 21.2476 15.368 21.0276 15.368 20.7576V19.2876H16.608V20.7576C16.608 21.0276 16.828 21.2476 17.098 21.2476C19.198 21.2476 21.158 20.1176 22.218 18.2976C22.308 18.1476 22.308 17.9576 22.218 17.8076C22.128 17.6576 21.968 17.5576 21.788 17.5576H19.098C18.828 17.5576 18.608 17.7776 18.608 18.0476C18.608 18.3176 18.828 18.5376 19.098 18.5376H20.838C20.018 19.4876 18.858 20.0976 17.598 20.2276V15.8276H24.468C24.208 19.6676 21.008 22.7176 17.108 22.7176Z" fill="#FFDEA7"/>
</svg>
