<svg width="32" height="32" viewBox="0 0 32 32" fill="none" xmlns="http://www.w3.org/2000/svg">
<path d="M10.3304 19.18H25.6504C27.1804 19.18 28.4104 17.95 28.4104 16.42V13.02H7.57043V16.42C7.57043 17.94 8.80043 19.18 10.3304 19.18Z" fill="#F4F4F4"/>
<path d="M6.32055 29.97H21.6405C23.1705 29.97 24.4005 28.73 24.4005 27.21V23.89H3.56055V27.21C3.56055 28.73 4.79055 29.97 6.32055 29.97Z" fill="#F4F4F4"/>
<path d="M24.8298 6H11.1498C8.30977 6 6.00977 8.3 6.00977 11.14V11.5C6.00977 12.35 6.69977 13.04 7.54977 13.04H28.4298C29.2798 13.04 29.9698 12.35 29.9698 11.5V11.14C29.9798 8.3 27.6698 6 24.8298 6Z" fill="#FF6723"/>
<path d="M12.3802 9.6C11.9802 9.6 11.6602 9.28 11.6602 8.88V6H13.1002V8.88C13.1002 9.28 12.7802 9.6 12.3802 9.6Z" fill="#FF822D"/>
<path d="M17.9902 9.6C17.5902 9.6 17.2702 9.28 17.2702 8.88V6H18.7102V8.88C18.7102 9.28 18.3902 9.6 17.9902 9.6Z" fill="#FF822D"/>
<path d="M22.8902 8.88C22.8902 9.28 23.2102 9.6 23.6102 9.6C24.0002 9.6 24.3202 9.28 24.3302 8.88V6H22.8902V8.88Z" fill="#FF822D"/>
<path d="M20.82 17H7.14C4.3 17 2 19.3 2 22.14V22.38C2 23.23 2.69 23.92 3.54 23.92H24.42C25.27 23.92 25.96 23.23 25.96 22.38V22.14C25.97 19.3 23.66 17 20.82 17Z" fill="#F8312F"/>
<g opacity="0.6">
<path d="M8.37039 20.6C7.97039 20.6 7.65039 20.28 7.65039 19.88V17H9.09039V19.88C9.09039 20.28 8.77039 20.6 8.37039 20.6Z" fill="#FF8687"/>
<path d="M13.9804 20.6C13.5804 20.6 13.2604 20.28 13.2604 19.88V17H14.7004V19.88C14.7004 20.28 14.3804 20.6 13.9804 20.6Z" fill="#FF8687"/>
<path d="M18.8804 19.88C18.8804 20.28 19.2004 20.6 19.6004 20.6C19.9904 20.6 20.3104 20.28 20.3204 19.88V17H18.8804V19.88Z" fill="#FF8687"/>
</g>
</svg>
