<svg width="32" height="32" viewBox="0 0 32 32" fill="none" xmlns="http://www.w3.org/2000/svg">
<path d="M30.0197 3.49L23.2697 3.76C22.8697 2.73 21.8697 2 20.6897 2H12.9697C12.5597 2 12.2197 2.34 12.2197 2.75C12.2197 3.16 12.5597 3.5 12.9697 3.5H19.2997V4.02H12.9697C12.5597 4.02 12.2197 4.36 12.2197 4.77C12.2197 5.18 12.5597 5.52 12.9697 5.52H19.2997V6.04H12.9697C12.5597 6.04 12.2197 6.38 12.2197 6.79C12.2197 7.2 12.5597 7.54 12.9697 7.54H20.6897C21.8597 7.54 22.8597 6.81 23.2697 5.78L30.0197 6.05V3.49Z" fill="#D3D3D3"/>
<path d="M20.7397 30.2301H11.4597C7.43969 30.2301 4.17969 26.9701 4.17969 22.9501V20.0701H28.0197V22.9501C28.0197 26.9701 24.7597 30.2301 20.7397 30.2301Z" fill="#9B9B9B"/>
<path d="M22.01 14.85C25.21 14.85 27.81 17.45 27.81 20.65C27.81 23.85 25.21 26.45 22.01 26.45H10.02C6.82 26.45 4.22 23.85 4.22 20.65C4.22 17.45 6.82 14.85 10.02 14.85H22.01ZM22.01 12.63H10.02C5.59 12.63 2 16.22 2 20.65C2 25.08 5.59 28.67 10.02 28.67H22.01C26.44 28.67 30.03 25.08 30.03 20.65C30.02 16.22 26.43 12.63 22.01 12.63Z" fill="#D3D3D3"/>
<path d="M22.0097 14.85C25.2097 14.85 27.8097 17.45 27.8097 20.65C27.8097 23.85 25.2097 26.45 22.0097 26.45H10.0197C6.81973 26.45 4.21973 23.85 4.21973 20.65C4.21973 17.45 6.81973 14.85 9.95973 14.85H21.9497" fill="#D3D3D3"/>
<path d="M18.5199 2C18.796 2 19.0199 2.22386 19.0199 2.5V12.4589C21.9173 13.0613 24.4904 14.5424 26.4599 16.61C29.9799 20.32 27.2899 26.44 22.1799 26.44H10.0199C4.90989 26.44 2.21989 20.31 5.73989 16.61C7.88746 14.3468 10.7719 12.7863 14.0099 12.3117V4.51001C14.0099 4.23387 14.2338 4.01001 14.5099 4.01001C14.786 4.01001 15.0099 4.23387 15.0099 4.51001V12.2009C15.3369 12.1763 15.6671 12.1626 15.9999 12.1603V6.15997C15.9999 5.88383 16.2238 5.65997 16.4999 5.65997C16.776 5.65997 16.9999 5.88383 16.9999 6.15997V12.1879C17.3434 12.2092 17.6835 12.2427 18.0199 12.2879V2.5C18.0199 2.22386 18.2438 2 18.5199 2Z" fill="#FCD53F"/>
<path d="M25.6697 18.0329C26.0657 18.0215 26.396 18.3333 26.4074 18.7294C26.4979 21.8717 24.0353 24.9674 20.3503 24.9674H11.6503C7.96616 24.9674 5.50282 21.8825 5.59323 18.7294C5.60458 18.3334 5.93485 18.0215 6.3309 18.0329C6.72694 18.0442 7.03879 18.3745 7.02744 18.7706C6.95785 21.1975 8.85451 23.5326 11.6503 23.5326H20.3503C23.1454 23.5326 25.0428 21.1883 24.9732 18.7706C24.9618 18.3746 25.2737 18.0443 25.6697 18.0329Z" fill="#FFF478"/>
<path d="M20.7896 13.6601L20.6796 13.6201C17.7596 12.4701 14.5196 12.4701 11.5996 13.6201L11.4996 13.6601C9.89961 14.2901 8.84961 15.8301 8.84961 17.5501C8.84961 19.2801 9.90961 20.8301 11.5296 21.4501L11.7396 21.5301C14.6696 22.6601 17.9096 22.6401 20.8196 21.4701C22.4096 20.8301 23.4496 19.3001 23.4496 17.5901V17.5501C23.4496 15.8401 22.3896 14.2901 20.7896 13.6601Z" fill="#F8312F"/>
<path d="M16.1003 16.3799C16.9177 16.3799 17.5803 15.7173 17.5803 14.8999C17.5803 14.0825 16.9177 13.4199 16.1003 13.4199C15.2829 13.4199 14.6203 14.0825 14.6203 14.8999C14.6203 15.7173 15.2829 16.3799 16.1003 16.3799Z" fill="#6D4534"/>
<path d="M13.0103 20.2099C13.8277 20.2099 14.4903 19.5473 14.4903 18.7299C14.4903 17.9126 13.8277 17.2499 13.0103 17.2499C12.1929 17.2499 11.5303 17.9126 11.5303 18.7299C11.5303 19.5473 12.1929 20.2099 13.0103 20.2099Z" fill="#6D4534"/>
<path d="M20.9903 18.8399C20.9903 19.6573 20.3277 20.3199 19.5103 20.3199C18.6929 20.3199 18.0303 19.6573 18.0303 18.8399C18.0303 18.0225 18.6929 17.3599 19.5103 17.3599C20.3277 17.3599 20.9903 18.0225 20.9903 18.8399Z" fill="#6D4534"/>
</svg>
