<svg width="32" height="32" viewBox="0 0 32 32" fill="none" xmlns="http://www.w3.org/2000/svg">
<path d="M6.36336 17.434L3.61559 19.8088C3.16893 20.1336 2.54352 20.0348 2.21868 19.5882C1.89384 19.1415 1.99259 18.5161 2.43924 18.1913L5.90784 15.1935C5.949 15.1636 5.99167 15.1372 6.03549 15.1144C6.24843 10.0465 10.6405 6 16.0274 6C21.4136 6 25.8052 10.0454 26.0192 15.1124C26.0644 15.1357 26.1085 15.1627 26.1509 15.1935L29.6156 18.1913C30.0622 18.5161 30.161 19.1415 29.8362 19.5882C29.5113 20.0348 28.8859 20.1336 28.4392 19.8088L25.6898 17.4299L23.5196 29.5536C23.5181 29.5615 23.5166 29.5693 23.5148 29.5771C23.3669 30.2228 23.0359 30.6 22.6916 30.8019C22.5271 30.8984 22.3724 30.9475 22.2553 30.9727C22.1966 30.9853 22.1464 30.9921 22.1078 30.9958C18.0543 30.9958 14.0009 30.9959 9.94739 30.9959C9.90852 30.9924 9.85765 30.9858 9.79808 30.9734C9.67961 30.9488 9.52144 30.9004 9.35405 30.804C9.00165 30.6012 8.66555 30.2182 8.53673 29.5618C8.43413 29.039 7.80791 25.5406 7.20902 22.1826C6.90919 20.5015 6.6157 18.8527 6.39718 17.6242L6.36336 17.434Z" fill="#9B9B9B"/>
<path d="M7.38169 17.4491L7.12402 16H24.9299L22.5374 29.3649C22.4478 29.7453 22.2811 29.8833 22.1855 29.9394C22.1296 29.9723 22.0788 29.9878 22.0453 29.995C22.031 29.9981 22.0206 29.9994 22.0155 30H10.0376C10.0319 29.9995 10.0191 29.998 10.0012 29.9943C9.96392 29.9865 9.91015 29.9703 9.85292 29.9374C9.75606 29.8816 9.59216 29.7473 9.51798 29.3692C9.41757 28.8576 8.7938 25.3732 8.19344 22.007C7.89365 20.3261 7.60019 18.6775 7.38169 17.4491Z" fill="white"/>
<path d="M16.2775 17.5C16.2775 17.3619 16.1656 17.25 16.0275 17.25C15.8895 17.25 15.7775 17.3619 15.7775 17.5V18.25H14.0877C14.0068 18.25 13.963 18.3575 13.963 18.3575L13.5338 19.5625C13.5066 19.6289 13.5338 19.75 13.6896 19.75H14.2775V20.75H12.9162C12.7864 20.75 12.7161 20.8933 12.7161 20.8933L12.0275 22.5C11.984 22.5885 12.0275 22.75 12.2775 22.75H13.2775V25H12.5275C12.2514 25 12.0275 25.2239 12.0275 25.5C12.0275 25.7761 12.2514 26 12.5275 26H19.5275C19.8037 26 20.0275 25.7761 20.0275 25.5C20.0275 25.2239 19.8037 25 19.5275 25H18.7775V22.75H19.7775C20.0275 22.75 20.0636 22.5932 20.0275 22.5L19.339 20.8933C19.339 20.8933 19.2844 20.75 19.1452 20.75H17.7775V19.75H18.3643C18.5202 19.75 18.5426 19.6324 18.5202 19.5625L18.091 18.3575C18.091 18.3575 18.0569 18.25 17.9702 18.25H16.2775V17.5ZM18.2775 25H13.7775V22.75H18.2775V25ZM14.7775 20.75V19.75H17.2775V20.75H14.7775Z" fill="#F8312F"/>
</svg>
