<svg width="32" height="32" viewBox="0 0 32 32" fill="none" xmlns="http://www.w3.org/2000/svg">
<path d="M10.9209 22.9067L11.7409 29.4567C11.7909 29.8867 12.1609 30.2067 12.5909 30.2067H20.2009C20.6309 30.2067 20.9909 29.8867 21.0509 29.4567L21.8709 22.9067H10.9209Z" fill="#D3883E"/>
<path d="M18.685 22.9067L16.4678 25.1239L14.2506 22.9067H12.8461L11.1348 24.6181L11.4648 27.254L12.8963 28.6855L11.8313 29.7504C11.9758 30.0245 12.2661 30.2067 12.5905 30.2067H12.6692L13.5383 29.3376L14.4075 30.2067H15.7022L14.2105 28.6855L16.4779 26.4181L18.7452 28.6855L17.2239 30.2067H18.5181L19.3873 29.3376L20.2547 30.205C20.5922 30.1837 20.879 29.9651 20.9991 29.6552L20.0294 28.6855L21.307 27.4078L21.4922 25.9284L19.3773 28.0434L17.1099 25.776L19.3773 23.5087L21.5261 25.6576L21.6702 24.5072L20.0896 22.9067H18.685ZM11.2911 25.766L13.5584 23.4987L15.8258 25.766L13.5584 28.0334L11.2911 25.766Z" fill="#E19747"/>
<path d="M22.4413 22.9068H10.4713C10.0013 22.9068 9.61133 22.5268 9.61133 22.0468V20.5568L23.2913 19.5068V22.0468C23.3013 22.5268 22.9113 22.9068 22.4413 22.9068Z" fill="#F3AD61"/>
<path d="M19.9509 6.2868C21.0609 6.1968 21.9709 7.0268 21.9709 8.1368C21.9709 8.70445 21.7371 9.23871 21.362 9.64063L21.5208 9.62674C22.8808 9.50674 24.0808 10.5167 24.2008 11.8767C24.258 12.524 24.0591 13.1351 23.6884 13.6107C24.9147 13.9084 25.871 14.9603 25.9909 16.2867C26.1309 17.9467 24.9009 19.4067 23.2409 19.5567L20.9809 19.7567C20.8955 19.7638 20.4423 19.8038 19.8815 19.8533L19.8774 19.8537L19.876 19.8538C18.8601 19.9434 17.4945 20.0639 17.3209 20.0767L14.488 20.3234C14.4565 20.3546 14.4267 20.392 14.4009 20.4369C14.2809 20.6369 14.2909 21.0369 14.2909 21.0369C14.2909 21.5969 13.8309 22.0569 13.2709 22.0569C12.7109 22.0569 12.2509 21.6069 12.2509 21.0369C12.2509 21.0369 12.2709 20.7169 12.1609 20.5869C12.1434 20.5661 12.1244 20.5475 12.1041 20.5309L9.28086 20.7767C7.62086 20.9167 6.16086 19.6867 6.01086 18.0267C5.87833 16.4553 6.97351 15.0631 8.49897 14.7918C8.12815 14.4 7.88187 13.885 7.83084 13.3067C7.71084 11.9467 8.72084 10.7467 10.0808 10.6267L10.5227 10.5881C10.1459 10.2526 9.91087 9.76088 9.91087 9.1968C9.85087 8.4168 10.2309 7.6968 10.8409 7.3068C10.9709 7.2268 11.1109 7.1568 11.2609 7.1068C11.2609 7.1068 14.3309 5.9568 15.2809 5.2568C15.7409 4.9168 15.8809 4.3768 15.9409 4.0468C16.0009 3.7468 16.1509 3.0768 16.9009 3.0068C17.7909 2.9268 18.0509 3.5668 18.1109 4.1968V6.1468C18.1109 6.3168 18.2609 6.4468 18.4309 6.4368L19.9509 6.2868Z" fill="#FFDEA7"/>
</svg>
