<svg width="32" height="32" viewBox="0 0 32 32" fill="none" xmlns="http://www.w3.org/2000/svg">
<path d="M26.67 4.48C26.54 4.37 26.39 4.26 26.22 4.16C25.04 3.48 23.26 4.23 21.97 3.89C20.66 3.54 19.49 2 18.15 2C16.8 2 15.64 3.54 14.33 3.89C13.04 4.23 11.26 3.48 10.08 4.16C8.93 4.82 8.69 6.73 7.71 7.71C6.73 8.69 4.82 8.93 4.16 10.07C3.48 11.25 4.23 13.03 3.89 14.32C3.54 15.63 2 16.8 2 18.15C2 19.5 3.54 20.66 3.89 21.97C4.23 23.26 3.48 25.04 4.16 26.22C4.26 26.39 4.37 26.53 4.48 26.67L4.5 26.69C4.58 26.78 4.66 26.86 4.75 26.94L6.28 28.47C8.38 30.57 11.77 30.57 13.87 28.47L28.48 13.86C30.58 11.76 30.58 8.37 28.48 6.27L26.67 4.48Z" fill="#FFCE7C"/>
<path d="M12.2705 11.78C8.80047 15.25 8.80047 20.89 12.2705 24.36L15.1205 27.21L27.7005 14.63L24.8505 11.78C21.3705 8.30004 15.7405 8.30004 12.2705 11.78Z" fill="#FFDEA7"/>
<path d="M15.5997 7.99996C16.1297 7.83996 16.4397 7.27996 16.2797 6.74996L15.2997 3.45996L14.9497 3.65996C14.5797 3.83996 14.1797 3.94996 13.7697 4.00996L13.3697 4.01996L14.3497 7.30996C14.5097 7.84996 15.0697 8.15996 15.5997 7.99996Z" fill="#F3AD61"/>
<path d="M10.7297 10.73C10.3397 11.12 9.69969 11.12 9.30969 10.73L6.87969 8.30996L7.22969 8.09996C7.55969 7.85996 7.85969 7.55996 8.09969 7.22996L8.29969 6.87996L10.7297 9.30996C11.1197 9.69996 11.1197 10.34 10.7297 10.73Z" fill="#F3AD61"/>
<path d="M7.95969 15.64C7.79969 16.17 7.23969 16.48 6.70969 16.32L3.42969 15.34L3.62969 15C3.80969 14.63 3.91969 14.23 3.97969 13.82L3.98969 13.42L7.27969 14.4C7.80969 14.55 8.11969 15.11 7.95969 15.64Z" fill="#F3AD61"/>
<path d="M7.34969 22.8299C7.89969 22.7399 8.26969 22.2299 8.18969 21.6799C8.10969 21.1299 7.59969 20.7499 7.04969 20.8199L3.64969 21.3399L3.80969 21.7099C3.93969 22.1099 3.99969 22.5199 3.99969 22.9299L3.95969 23.3399L7.34969 22.8299Z" fill="#F3AD61"/>
<path d="M22.7797 7.39995C22.6897 7.94995 22.1797 8.31995 21.6297 8.23995C21.0797 8.14995 20.7097 7.63995 20.7797 7.09995L21.2997 3.69995L21.6697 3.85995C22.0697 3.98995 22.4797 4.04995 22.8897 4.04995L23.2897 4.00995L22.7797 7.39995Z" fill="#F3AD61"/>
</svg>
