<svg width="32" height="32" viewBox="0 0 32 32" fill="none" xmlns="http://www.w3.org/2000/svg">
<path fill-rule="evenodd" clip-rule="evenodd" d="M11.84 20.7399C12.06 20.7399 12.26 20.5899 12.32 20.3699C12.39 20.0999 12.23 19.8299 11.97 19.7599L9.78997 19.1799C9.52997 19.1099 9.32997 18.9199 9.23997 18.6699L8.93997 17.7899C8.84997 17.5299 8.56997 17.3899 8.29997 17.4799C8.03997 17.5699 7.89997 17.8499 7.98997 18.1199L8.28997 18.9999C8.47997 19.5599 8.94997 19.9899 9.51997 20.1499L11.7 20.7299C11.75 20.7399 11.8 20.7399 11.84 20.7399ZM20.1 20.83C19.88 20.83 19.68 20.68 19.62 20.46C19.55 20.19 19.71 19.92 19.97 19.85L22.15 19.27C22.41 19.2 22.61 19.01 22.7 18.76L23 17.88C23.09 17.62 23.37 17.48 23.64 17.57C23.9 17.66 24.04 17.94 23.95 18.21L23.65 19.09C23.46 19.65 22.99 20.08 22.42 20.24L20.24 20.82C20.18 20.83 20.14 20.83 20.1 20.83ZM11.42 27.36L13.48 25.3C14.08 24.7 15.05 24.7 15.66 25.3L15.67 25.31C15.7968 25.4368 15.8968 25.5805 15.97 25.7341C16.0432 25.5805 16.1432 25.4368 16.27 25.31L16.28 25.3C16.88 24.7 17.86 24.7 18.46 25.3L20.52 27.36C21.12 27.96 21.12 28.94 20.52 29.54L20.51 29.55C19.91 30.15 18.93 30.15 18.33 29.55L16.27 27.49C16.1432 27.3632 16.0432 27.2194 15.97 27.0658C15.8968 27.2194 15.7968 27.3632 15.67 27.49L13.61 29.55C13.01 30.15 12.03 30.15 11.43 29.55L11.42 29.54C10.82 28.94 10.82 27.96 11.42 27.36ZM21.55 26H22.47C22.74 26 22.98 25.77 22.98 25.49C22.98 25.21 22.76 24.99 22.48 24.99H21.56C21.15 24.99 20.76 24.82 20.48 24.53L19.66 23.66C19.47 23.46 19.15 23.45 18.95 23.64C18.75 23.83 18.74 24.15 18.93 24.35L19.75 25.22C20.21 25.72 20.87 26 21.55 26ZM23.08 21.99H19.4C19.13 21.99 18.9 21.77 18.9 21.49C18.9 21.22 19.12 20.99 19.4 20.99H23.08C23.65 20.99 24.17 20.72 24.49 20.26L25.05 19.39C25.2 19.16 25.51 19.09 25.74 19.24C25.97 19.39 26.04 19.7 25.89 19.93L25.32 20.82C24.81 21.56 23.98 21.99 23.08 21.99ZM22.33 23.9399C22.57 23.9999 22.8 24.0299 23.04 24.0299C23.68 24.0299 24.3 23.7999 24.79 23.3899L25.41 22.8299C25.61 22.6499 25.62 22.3299 25.44 22.1299C25.26 21.9299 24.94 21.9199 24.74 22.0999L24.14 22.6399C23.72 22.9999 23.14 23.1299 22.59 22.9799L19.04 22.0299C18.77 21.9599 18.5 22.1199 18.43 22.3799C18.36 22.6499 18.52 22.9199 18.78 22.9899L22.33 23.9399ZM10.39 25.91H9.46997C9.19997 25.91 8.96997 25.68 8.96997 25.4C8.96997 25.12 9.18997 24.9 9.46997 24.9H10.38C10.79 24.9 11.18 24.73 11.46 24.44L12.28 23.57C12.47 23.37 12.79 23.36 12.99 23.55C13.19 23.74 13.2 24.06 13.01 24.26L12.19 25.13C11.73 25.63 11.07 25.91 10.39 25.91ZM8.85997 21.8999H12.54C12.81 21.8999 13.04 21.6799 13.04 21.3999C13.04 21.1299 12.82 20.8999 12.54 20.8999H8.85997C8.28997 20.8999 7.76997 20.6299 7.44997 20.1699L6.88997 19.2999C6.73997 19.0699 6.42997 18.9999 6.19997 19.1499C5.96997 19.2999 5.89997 19.6099 6.04997 19.8399L6.61997 20.7299C7.12997 21.4599 7.95997 21.8999 8.85997 21.8999ZM9.60997 23.84C9.36997 23.9 9.13997 23.93 8.89997 23.93C8.25997 23.93 7.63997 23.71 7.14997 23.29L6.52997 22.73C6.32997 22.55 6.31997 22.23 6.49997 22.03C6.67997 21.83 6.99997 21.82 7.19997 22L7.79997 22.54C8.21997 22.9 8.79997 23.03 9.34997 22.88L12.9 21.93C13.17 21.86 13.44 22.02 13.51 22.28C13.58 22.55 13.42 22.82 13.16 22.89L9.60997 23.84Z" fill="#CA0B4A"/>
<path fill-rule="evenodd" clip-rule="evenodd" d="M6.65039 2.38999C6.65039 2.28999 6.69039 2.18999 6.76039 2.11999C6.86039 2.01999 6.99039 1.97999 7.13039 2.00999C8.18039 2.22999 8.97039 3.19999 8.97039 4.31999V8.26999H6.65039V2.38999ZM25.3204 2.39999C25.3204 2.28999 25.2704 2.18999 25.2004 2.11999C25.1104 2.01999 24.9704 1.97999 24.8404 2.00999C23.7904 2.22999 23.0004 3.19999 23.0004 4.31999V8.27999H25.3204V2.39999Z" fill="#CA0B4A"/>
<path fill-rule="evenodd" clip-rule="evenodd" d="M6.11 6.01996H6.47C7.76283 6.01996 8.82748 7.00295 8.96503 8.27002H8.98V12.88C8.98 13.58 9.42 14.21 10.07 14.46L12.61 15.43L11.53 18.23L8.99 17.26C7.22395 16.583 6.02586 14.876 5.98129 12.989C3.75549 12.8309 2 10.9762 2 8.70996V7.19996V6.02996V5.48996C2 3.77996 3.24 2.30996 4.86 2.00996C5.03 1.97996 5.21 2.03996 5.33 2.15996C5.43 2.25996 5.49 2.39996 5.49 2.53996V5.39996C5.49 5.73996 5.76 6.01996 6.11 6.01996Z" fill="#F8312F"/>
<path fill-rule="evenodd" clip-rule="evenodd" d="M25.8604 6.01996H25.5004C24.1982 6.01996 23.1329 7.00295 23.0035 8.27002H22.9904V12.88C22.9904 13.58 22.5504 14.21 21.9004 14.46L19.3604 15.43L20.4404 18.23L22.9804 17.26C24.7464 16.583 25.9445 14.876 25.9891 12.989C28.2149 12.8309 29.9704 10.9762 29.9704 8.70996V7.19996V6.02996V5.48996C29.9704 3.77996 28.7304 2.30996 27.1104 2.00996C26.9404 1.97996 26.7604 2.03996 26.6404 2.15996C26.5404 2.25996 26.4804 2.39996 26.4804 2.53996V5.39996C26.4804 5.73996 26.2104 6.01996 25.8604 6.01996Z" fill="#F8312F"/>
<path fill-rule="evenodd" clip-rule="evenodd" d="M13.9597 12.74C13.9597 13.02 14.1797 13.24 14.4597 13.24C14.7297 13.24 14.9597 13.01 14.9597 12.73V4.49C14.9597 3.12 13.8497 2 12.4697 2C11.0897 2 9.96973 3.12 9.96973 4.49L9.97973 4.5C9.97973 4.78 10.1997 5 10.4797 5C10.7597 5 10.9797 4.78 10.9797 4.5L10.9697 4.49C10.9697 3.67 11.6397 3 12.4697 3C13.2897 3 13.9597 3.67 13.9597 4.49V12.74ZM17.9697 12.74C17.9697 13.02 17.7497 13.24 17.4697 13.24C17.1897 13.24 16.9697 13.01 16.9697 12.73V4.49C16.9697 3.12 18.0897 2 19.4597 2C20.8297 2 21.9497 3.12 21.9497 4.49L21.9597 4.5C21.9597 4.78 21.7397 5 21.4597 5C21.1797 5 20.9597 4.78 20.9597 4.5L20.9497 4.49C20.9497 3.67 20.2797 3 19.4597 3C18.6397 3 17.9697 3.67 17.9697 4.49V12.74Z" fill="#F8312F"/>
<path d="M19.2902 11L17.7002 9.08002C17.2702 8.57002 16.6402 8.27002 15.9702 8.27002C15.3002 8.27002 14.6702 8.57002 14.2402 9.08002L12.7802 10.85C10.6002 13.31 9.84017 16.75 10.8302 19.94L13.3602 28.04C13.6902 29.11 14.6302 29.89 15.7502 29.98C17.0302 30.08 18.1902 29.29 18.5702 28.08L21.1102 19.93C22.0902 16.81 21.3702 13.44 19.2902 11Z" fill="#F8312F"/>
<path d="M15.9704 21.73C13.0404 21.73 10.6304 19.46 10.4204 16.58C10.3604 17.69 10.4904 18.83 10.8304 19.94L13.3604 28.04C13.6904 29.11 14.6304 29.89 15.7504 29.98C17.0304 30.08 18.1904 29.29 18.5704 28.08L21.1104 19.93C21.4504 18.83 21.5904 17.69 21.5204 16.58C21.3104 19.47 18.9004 21.73 15.9704 21.73Z" fill="#CA0B4A"/>
<path d="M15.97 25.43C14.43 25.43 13.05 24.81 12.04 23.8L13.36 28.0401C13.69 29.1101 14.63 29.89 15.75 29.98C17.03 30.08 18.19 29.29 18.57 28.08L19.91 23.8C18.89 24.81 17.5 25.43 15.97 25.43Z" fill="#F8312F"/>
<path fill-rule="evenodd" clip-rule="evenodd" d="M15 12.63C15 13.0442 14.6642 13.38 14.25 13.38C13.8358 13.38 13.5 13.0442 13.5 12.63C13.5 12.2158 13.8358 11.88 14.25 11.88C14.6642 11.88 15 12.2158 15 12.63ZM18.44 12.63C18.44 13.0442 18.1042 13.38 17.69 13.38C17.2758 13.38 16.94 13.0442 16.94 12.63C16.94 12.2158 17.2758 11.88 17.69 11.88C18.1042 11.88 18.44 12.2158 18.44 12.63Z" fill="#1C1C1C"/>
</svg>
