<svg width="32" height="32" viewBox="0 0 32 32" fill="none" xmlns="http://www.w3.org/2000/svg">
<path d="M18.26 2.85002L22.82 7.90002C23.43 8.51002 23.43 9.49002 22.83 10.11L17.39 15.01C16.78 15.62 15.79 15.62 15.18 15.01L9.74 10.11C9.13 9.50002 9.13 8.51002 9.74 7.90002L14.29 2.85002C15.38 1.75002 17.16 1.75002 18.26 2.85002Z" fill="#BB1D80"/>
<path d="M3 9.62995C3 9.26995 3.08 8.92995 3.22 8.62995C3.26 8.53995 3.31 8.43995 3.37 8.35995L4.29 6.65995C4.76 5.78995 6.02 5.78995 6.49 6.65995L7.39 8.31995C7.67 8.74995 7.82 9.27995 7.77 9.83995C7.72 10.4599 7.43 10.9999 6.99 11.3999C6.68 11.6799 6.51 12.0899 6.51 12.5099V16.2099C6.51 17.3999 7.27 18.4699 8.39 18.8599L12.6 20.3399C13.19 20.5499 13.49 21.1899 13.29 21.7699C13.13 22.2299 12.69 22.5199 12.23 22.5199C12.11 22.5199 11.98 22.4999 11.86 22.4599L7.65 20.9799C5.63 20.2699 4.27 18.3499 4.27 16.2099V12.5099C4.27 12.0799 4.09 11.6699 3.77 11.3799C3.3 10.9399 3 10.3199 3 9.62995Z" fill="#BB1D80"/>
<path d="M29.55 9.62995C29.55 9.26995 29.47 8.92995 29.33 8.62995C29.29 8.53995 29.24 8.43995 29.18 8.35995L28.26 6.65995C27.79 5.78995 26.53 5.78995 26.06 6.65995L25.16 8.31995C24.88 8.74995 24.73 9.27995 24.78 9.83995C24.83 10.4599 25.12 10.9999 25.56 11.3999C25.87 11.6799 26.04 12.0899 26.04 12.5099V16.2099C26.04 17.3999 25.28 18.4699 24.16 18.8599L19.95 20.3399C19.36 20.5499 19.06 21.1899 19.26 21.7699C19.42 22.2299 19.86 22.5199 20.32 22.5199C20.44 22.5199 20.57 22.4999 20.69 22.4599L24.9 20.9799C26.92 20.2699 28.28 18.3499 28.28 16.2099V12.5099C28.28 12.0799 28.46 11.6699 28.78 11.3799C29.25 10.9399 29.55 10.3199 29.55 9.62995Z" fill="#BB1D80"/>
<path d="M10.47 27.06H10.52C11.59 27.06 12.59 26.64 13.36 25.88L14.0849 25.1551L13.6 26.96C13.48 27.42 13.05 27.75 12.57 27.75H5.41C4.79 27.75 4.29 28.25 4.29 28.87C4.29 29.49 4.79 30 5.41 30H12.58C14.08 30 15.39 28.99 15.78 27.54L16.285 25.6603L16.79 27.54C17.18 28.99 18.49 30 19.99 30H27.16C27.78 30 28.29 29.49 28.29 28.87C28.29 28.25 27.79 27.75 27.17 27.75H20C19.52 27.75 19.09 27.42 18.97 26.96L18.4888 25.1688L19.21 25.89C19.97 26.64 20.97 27.06 22.04 27.06C22.0424 27.06 22.0448 27.0599 22.0472 27.0597C22.0489 27.0595 22.0506 27.0593 22.0523 27.0591C22.0546 27.0587 22.0569 27.0584 22.0592 27.058C22.0736 27.0557 22.0895 27.0532 22.11 27.06C23.2 27.04 24.21 26.6 24.96 25.81L25.68 25.06C25.8 24.93 25.94 24.91 26.02 24.91C26.1 24.91 26.24 24.92 26.37 25.05C26.81 25.49 27.52 25.49 27.96 25.05C28.4 24.61 28.4 23.9 27.96 23.46C27.43 22.93 26.73 22.65 25.99 22.66C25.24 22.67 24.55 22.97 24.04 23.51L23.32 24.26C22.99 24.61 22.55 24.8 22.07 24.81C21.59 24.82 21.14 24.64 20.8 24.3L19.78 23.2801C19.34 22.84 18.63 22.84 18.19 23.2801C18.1296 23.3404 18.0775 23.4059 18.0337 23.475L17.4529 21.3131L17.94 19.5C18.1 18.9 17.74 18.28 17.14 18.12C16.84 18.04 16.535 18.09 16.285 18.235C16.035 18.09 15.73 18.04 15.43 18.12C14.83 18.28 14.47 18.9 14.63 19.5L15.1171 21.3131L14.5382 23.468C14.494 23.3978 14.4412 23.3313 14.38 23.27C13.94 22.83 13.23 22.83 12.79 23.27L11.77 24.29C11.44 24.62 11 24.8 10.53 24.8H10.51C10.03 24.79 9.59 24.6 9.26 24.25L8.54 23.5C8.02 22.96 7.33 22.66 6.59 22.65C5.85 22.64 5.15 22.92 4.62 23.45C4.18 23.89 4.18 24.6 4.62 25.04C5.06 25.48 5.77 25.48 6.21 25.04C6.34 24.92 6.48 24.9 6.56 24.9C6.63 24.9 6.78 24.92 6.9 25.05L7.62 25.81C8.37 26.6 9.38 27.05 10.47 27.06Z" fill="#BB1D80"/>
<path d="M27.6796 7.00999C27.6796 7.29718 27.4468 7.52999 27.1596 7.52999C26.8724 7.52999 26.6396 7.29718 26.6396 7.00999C26.6396 6.7228 26.8724 6.48999 27.1596 6.48999C27.4468 6.48999 27.6796 6.7228 27.6796 7.00999Z" fill="#FF6DC6"/>
<path d="M26.9096 8.29002C26.9096 8.57721 26.6768 8.81002 26.3896 8.81002C26.1024 8.81002 25.8696 8.57721 25.8696 8.29002C25.8696 8.00283 26.1024 7.77002 26.3896 7.77002C26.6768 7.77002 26.9096 8.00283 26.9096 8.29002Z" fill="#FF6DC6"/>
<path d="M28.3296 10.1001C28.3296 10.7462 27.8058 11.2701 27.1596 11.2701C26.5134 11.2701 25.9896 10.7462 25.9896 10.1001C25.9896 9.45388 26.5134 8.93005 27.1596 8.93005C27.8058 8.93005 28.3296 9.45388 28.3296 10.1001Z" fill="#FF6DC6"/>
<path d="M27.9296 8.81002C28.2168 8.81002 28.4496 8.57721 28.4496 8.29002C28.4496 8.00283 28.2168 7.77002 27.9296 7.77002C27.6424 7.77002 27.4096 8.00283 27.4096 8.29002C27.4096 8.57721 27.6424 8.81002 27.9296 8.81002Z" fill="#FF6DC6"/>
<path d="M5.38961 11.2701C6.03579 11.2701 6.55961 10.7462 6.55961 10.1001C6.55961 9.45388 6.03579 8.93005 5.38961 8.93005C4.74344 8.93005 4.21961 9.45388 4.21961 10.1001C4.21961 10.7462 4.74344 11.2701 5.38961 11.2701Z" fill="#FF6DC6"/>
<path d="M6.67961 8.29002C6.67961 8.57721 6.4468 8.81002 6.15961 8.81002C5.87242 8.81002 5.63961 8.57721 5.63961 8.29002C5.63961 8.00283 5.87242 7.77002 6.15961 7.77002C6.4468 7.77002 6.67961 8.00283 6.67961 8.29002Z" fill="#FF6DC6"/>
<path d="M4.61961 8.81002C4.9068 8.81002 5.13961 8.57721 5.13961 8.29002C5.13961 8.00283 4.9068 7.77002 4.61961 7.77002C4.33242 7.77002 4.09961 8.00283 4.09961 8.29002C4.09961 8.57721 4.33242 8.81002 4.61961 8.81002Z" fill="#FF6DC6"/>
<path d="M5.90961 7.00999C5.90961 7.29718 5.6768 7.52999 5.38961 7.52999C5.10243 7.52999 4.86961 7.29718 4.86961 7.00999C4.86961 6.7228 5.10243 6.48999 5.38961 6.48999C5.6768 6.48999 5.90961 6.7228 5.90961 7.00999Z" fill="#FF6DC6"/>
<path d="M13.6296 3.89C14.0196 2.76 15.0796 2 16.2796 2C17.4796 2 18.5396 2.76 18.9396 3.89L23.1196 15.57C23.5496 17.05 23.1396 18.64 22.0496 19.73C21.8161 19.9635 21.5573 20.1673 21.2796 20.3385V22.5C21.2796 23.88 20.1596 25 18.7796 25H13.8196C12.4396 25 11.3196 23.88 11.3196 22.5V20.3569C11.0305 20.1819 10.7614 19.9719 10.5196 19.73C9.43956 18.64 9.01956 17.05 9.44956 15.57L13.6296 3.89Z" fill="#F70A8D"/>
<path d="M15.28 12.5C15.6943 12.5 16.03 12.1642 16.03 11.75C16.03 11.3358 15.6943 11 15.28 11C14.8658 11 14.53 11.3358 14.53 11.75C14.53 12.1642 14.8658 12.5 15.28 12.5Z" fill="#BB1D80"/>
<path d="M18.28 13.62C18.8986 13.62 19.4 13.1186 19.4 12.5C19.4 11.8814 18.8986 11.38 18.28 11.38C17.6615 11.38 17.16 11.8814 17.16 12.5C17.16 13.1186 17.6615 13.62 18.28 13.62Z" fill="#BB1D80"/>
<path d="M16.53 14.9C16.53 15.5186 16.0286 16.02 15.41 16.02C14.7915 16.02 14.29 15.5186 14.29 14.9C14.29 14.2815 14.7915 13.78 15.41 13.78C16.0286 13.78 16.53 14.2815 16.53 14.9Z" fill="#BB1D80"/>
<path d="M14.5898 22.65C14.5898 23.0642 14.2541 23.4 13.8398 23.4C13.4256 23.4 13.0898 23.0642 13.0898 22.65C13.0898 22.2358 13.4256 21.9 13.8398 21.9C14.2541 21.9 14.5898 22.2358 14.5898 22.65Z" fill="#1C1C1C"/>
<path d="M19.4598 22.65C19.4598 23.0642 19.1241 23.4 18.7098 23.4C18.2956 23.4 17.9598 23.0642 17.9598 22.65C17.9598 22.2358 18.2956 21.9 18.7098 21.9C19.1241 21.9 19.4598 22.2358 19.4598 22.65Z" fill="#1C1C1C"/>
</svg>
