<svg width="32" height="32" viewBox="0 0 32 32" fill="none" xmlns="http://www.w3.org/2000/svg">
<g clip-path="url(#clip0_76_6245)">
<path d="M-0.123457 -0.121275C0.461625 -0.707765 1.41137 -0.708906 1.99786 -0.123823L26.9979 24.8162C27.5844 25.4013 27.5855 26.351 27.0004 26.9375C26.4153 27.524 25.4656 27.5251 24.8791 26.94L-0.120908 2.00004C-0.707398 1.41496 -0.708539 0.465215 -0.123457 -0.121275Z" fill="#D3883E"/>
<path d="M3.51018 7.34993L5.40018 14.4099C6.02018 16.7399 8.94018 17.5199 10.6402 15.8099L15.8102 10.6399C17.5202 8.92993 16.7302 6.01993 14.4102 5.39993L7.35018 3.50993C5.02018 2.88993 2.89018 5.01993 3.51018 7.34993Z" fill="#635994"/>
<path d="M16.7797 23.6299C20.5628 23.6299 23.6297 20.5631 23.6297 16.7799C23.6297 12.9968 20.5628 9.92993 16.7797 9.92993C12.9965 9.92993 9.92969 12.9968 9.92969 16.7799C9.92969 20.5631 12.9965 23.6299 16.7797 23.6299Z" fill="#E39D89"/>
<path d="M28.3998 21.95L21.9498 28.4C20.5198 29.83 18.1998 29.83 16.7698 28.4C15.3398 26.97 15.3398 24.65 16.7698 23.22L23.2198 16.77C24.6498 15.34 26.9698 15.34 28.3998 16.77C29.8298 18.2 29.8298 20.52 28.3998 21.95Z" fill="#FFDEA7"/>
<path d="M23.5374 23.491C24.1223 22.9043 25.0721 22.9029 25.6587 23.4878L29.0587 26.8778C29.6454 27.4628 29.6468 28.4125 29.0618 28.9991C28.4769 29.5858 27.5272 29.5872 26.9405 29.0023L23.5405 25.6123C22.9539 25.0273 22.9525 24.0776 23.5374 23.491Z" fill="#D3883E"/>
</g>
<defs>
<clipPath id="clip0_76_6245">
<rect width="32" height="32" fill="white"/>
</clipPath>
</defs>
</svg>
