<svg width="32" height="32" viewBox="0 0 32 32" fill="none" xmlns="http://www.w3.org/2000/svg">
<path d="M18.2297 28.0278H14.7797C14.4497 28.0278 14.1797 28.2978 14.1797 28.6278V28.7478C14.1797 29.4378 14.7397 29.9978 15.4297 29.9978H17.5897C18.2797 29.9978 18.8397 29.4378 18.8397 28.7478V28.6278C18.8297 28.2978 18.5597 28.0278 18.2297 28.0278Z" fill="#D3883E"/>
<path d="M19.21 4.28786V2.45786C19.21 2.03786 18.69 1.83786 18.41 2.15786L16.82 3.97786C16.64 4.18786 16.32 4.18786 16.13 3.97786L14.54 2.15786C14.26 1.83786 13.74 2.03786 13.74 2.45786V4.29786C13.74 5.43786 13.05 6.46786 12 6.91786C7.89 8.65786 5 12.7279 5 17.4779C5 23.5579 10.07 28.7879 16.15 28.9579C22.64 29.1379 27.95 23.9279 27.95 17.4879C27.95 12.7379 25.06 8.65786 20.95 6.91786C19.9 6.45786 19.21 5.43786 19.21 4.28786Z" fill="#F3AD61"/>
<path d="M10.3005 25.3178C11.9405 27.6178 14.1405 28.8778 16.4805 28.8778C18.8205 28.8778 21.0105 27.6078 22.6605 25.3178C24.2705 23.0678 25.1505 20.0878 25.1505 16.9278C25.1505 12.9278 23.7105 9.20779 21.3005 6.98779L20.6805 7.65779C22.9005 9.70779 24.2305 13.1778 24.2305 16.9278C24.2305 22.2381 21.5846 26.6816 18.0762 27.7324C19.4201 25.719 20.1331 21.2184 20.1406 16.9178C20.1406 13.1578 19.6406 9.71781 18.7706 7.47781L18.0206 7.76781C18.8406 9.88781 19.3306 13.3078 19.3306 16.9178C19.3306 19.9578 18.9906 22.7978 18.3906 24.9378C17.8353 26.8986 17.1822 27.7679 16.6924 27.9637C16.622 27.9664 16.5514 27.9678 16.4805 27.9678C16.4097 27.9678 16.3391 27.9664 16.2687 27.9637C15.7789 27.7679 15.1258 26.8986 14.5706 24.9378C13.9606 22.7978 13.6306 19.9478 13.6306 16.9178C13.6306 13.2978 14.1206 9.87781 14.9406 7.76781L14.1906 7.47781C13.3206 9.70781 12.8206 13.1578 12.8206 16.9178C12.8206 21.218 13.5371 25.7182 14.8831 27.7318C11.3756 26.6801 8.73055 22.2372 8.73055 16.9278C8.73055 13.1778 10.0605 9.70779 12.2805 7.65779L11.6605 6.98779C9.25055 9.20779 7.81055 12.9278 7.81055 16.9278C7.81055 20.0878 8.69055 23.0678 10.3005 25.3178Z" fill="#E19747"/>
</svg>
