<svg width="36" height="36" viewBox="0 0 36 36" fill="none" xmlns="http://www.w3.org/2000/svg">
<path d="M6.22667 2.80122L1.125 5.38698C2.37744 8.48731 5.64067 9.85095 8.39833 8.44872L14.0625 5.62497C12.8101 2.52463 8.71875 1.51874 6.22667 2.80122Z" fill="#00D26A"/>
<path d="M12.7609 5.39817L11.4449 5.99854C6.93974 8.06383 4.63973 13.179 6.02685 17.982C7.20056 22.0286 9.19232 25.7749 11.8836 28.9929L12.8794 30.1937C15.7485 33.6278 20.5145 34.7085 24.5573 32.8473C28.8254 30.8901 31.1491 26.1712 30.1413 21.5363L29.7501 19.7591C29.0032 16.313 27.6516 13.0109 25.7784 10.0331L25.2212 9.15652C22.5774 4.92988 17.2661 3.33288 12.7609 5.39817Z" fill="#FFB02E"/>
</svg>
