<svg width="32" height="32" viewBox="0 0 32 32" fill="none" xmlns="http://www.w3.org/2000/svg">
<path d="M17.1544 5.1607C18.8979 5.66005 20.174 7.26601 20.174 9.17C20.174 11.473 18.307 13.34 16.004 13.34C13.701 13.34 11.834 11.473 11.834 9.17C11.834 7.17821 13.2304 5.51258 15.0977 5.09876C15.183 4.70216 15.3319 4.3149 15.544 3.95C16.234 2.73 17.564 2 18.964 2H19.004C19.554 2 20.004 2.45 20.004 3C20.004 3.55 19.554 4 19.004 4H18.954C18.254 4 17.604 4.36 17.254 4.96C17.2165 5.0255 17.1833 5.09251 17.1544 5.1607Z" fill="#C3EF3C"/>
<path d="M4.33428 26.19C4.52428 28.34 6.33428 30 8.49428 30C10.7943 30 12.6643 28.13 12.6543 25.82V10.12C12.6543 8.4 11.2643 7 9.53428 7H6.75428C4.55428 7 2.82428 8.88 3.01428 11.07L4.33428 26.19Z" fill="#44911B"/>
<path d="M27.6743 26.19C27.4843 28.34 25.6743 30 23.5143 30C21.2143 30 19.3443 28.13 19.3543 25.82V10.12C19.3543 8.4 20.7443 7 22.4743 7H25.2543C27.4543 7 29.1843 8.88 28.9843 11.08L27.6743 26.19Z" fill="#44911B"/>
<path d="M16.0039 30C12.6939 30 10.0039 27.31 10.0039 24V10.75C10.0039 8.68 11.6839 7 13.7539 7H18.2539C20.3239 7 22.0039 8.68 22.0039 10.75V24C22.0039 27.31 19.3139 30 16.0039 30Z" fill="#008463"/>
</svg>
