<svg width="36" height="36" viewBox="0 0 36 36" fill="none" xmlns="http://www.w3.org/2000/svg">
<path d="M6.604 2.43542H12.3546C15.4758 2.43542 18.0003 4.95986 18.0003 8.08113H12.2497C9.12844 8.08113 6.604 5.55669 6.604 2.43542Z" fill="#00D26A"/>
<path d="M18.0003 8.08113C18.0003 4.95986 20.5247 2.43542 23.646 2.43542H29.3965C29.3965 5.55669 26.8721 8.08113 23.7508 8.08113H18.0003Z" fill="#00D26A"/>
<path d="M13.6898 6.73987C7.34182 6.73987 2.25 11.9447 2.25 17.9356C2.25 23.1947 5.2624 25.7806 8.26807 28.4808C10.9676 30.906 14.1724 33.6585 18 33.6585C21.8276 33.6585 25.0324 30.906 27.7319 28.4808C30.7376 25.7806 33.75 23.1947 33.75 17.9356C33.75 11.9447 28.6582 6.73987 22.3102 6.73987C20.8464 6.73987 19.247 6.98384 18.0271 7.4718C16.4819 6.92963 15.2349 6.73987 13.6898 6.73987Z" fill="#FF822D"/>
<path d="M21.4388 6.76782C24.7998 9.10446 27 12.9943 27 17.3979C27 18.0192 26.4963 18.5229 25.875 18.5229C25.2536 18.5229 24.75 18.0192 24.75 17.3979C24.75 12.897 21.9677 9.046 18.0293 7.4708C19.01 7.07891 20.2356 6.84459 21.4388 6.76782Z" fill="#FF6723"/>
</svg>
