<svg width="36" height="36" viewBox="0 0 36 36" fill="none" xmlns="http://www.w3.org/2000/svg">
<path d="M17.9888 5.625C18.6101 5.625 19.1138 6.12868 19.1138 6.75V11.7225C19.1138 12.3438 18.6101 12.8475 17.9888 12.8475C17.3674 12.8475 16.8638 12.3438 16.8638 11.7225V6.75C16.8638 6.12868 17.3674 5.625 17.9888 5.625Z" fill="#008463"/>
<path d="M22.4662 11.2388H13.5C7.27875 11.2388 2.25 16.2788 2.25 22.4888C2.25 28.71 7.29 33.7388 13.5 33.7388H22.455C28.6762 33.7388 33.705 28.6988 33.705 22.4888C33.7162 16.2788 28.6762 11.2388 22.4662 11.2388Z" fill="#F8312F"/>
<path d="M17.325 14.2425H10.845C7.32379 14.2425 4.47754 11.3963 4.47754 7.875H10.9575C14.4788 7.875 17.325 10.7213 17.325 14.2425Z" fill="#00D26A"/>
<path d="M31.4663 7.875H24.9863C21.465 7.875 18.6188 10.7213 18.6188 14.2425H25.0988C28.62 14.2425 31.4663 11.3963 31.4663 7.875Z" fill="#00D26A"/>
<path d="M6.46875 16.9538H12.96C15.0013 16.9538 16.8219 15.9911 17.9859 14.4929C19.1501 15.9911 20.9696 16.9538 23.0175 16.9538H29.4975C29.4975 13.4438 26.64 10.5863 23.13 10.5863H12.8362C9.315 10.5863 6.46875 13.4326 6.46875 16.9538Z" fill="#00F397"/>
</svg>
