<svg width="36" height="36" viewBox="0 0 36 36" fill="none" xmlns="http://www.w3.org/2000/svg">
<path d="M12.8757 6.13742C12.1411 4.40851 10.7408 2.96618 8.88665 2.25745C8.2972 4.04941 8.48077 5.94503 9.25424 7.55813C7.72549 7.07814 6.03864 7.14543 4.5 7.87508C6.08087 11.2087 9.92905 12.7221 13.1996 11.3466L13.2024 11.3525C13.2434 11.3328 13.2842 11.3128 13.3246 11.2924C13.3657 11.2741 13.4067 11.2554 13.4476 11.2362L13.4448 11.2303C16.5795 9.5684 17.8428 5.63104 16.262 2.29739C14.6008 3.08513 13.4282 4.49517 12.8757 6.13742Z" fill="#86D72F"/>
<path d="M17.6371 10.0808V9.98438C20.4969 10.1589 23.1784 11.8402 24.4916 14.6094L25.7702 17.3057L25.6172 17.5566L27.8146 21.9774H27.9567C28.4429 23.2569 28.584 24.5942 28.4201 25.879L28.3534 25.9321L27.4009 28.7928V28.9134C26.6035 30.3026 25.3893 31.4705 23.8344 32.2079L22.629 32.7795C21.0521 33.5273 19.3573 33.7233 17.761 33.4464L17.7143 33.3721L14.8139 32.2471C14.8139 32.2471 14.7554 32.2655 14.758 32.2816C13.6894 31.599 12.7694 30.6599 12.1013 29.5018L12.1376 29.4609L9.92716 24.8115L9.86376 24.8454L8.58647 22.1519C7.26892 19.3735 7.66597 16.2241 9.35483 13.8968L9.39542 13.9614L11.4983 11.9632V11.8619C11.8011 11.6652 12.1206 11.4863 12.456 11.3273L13.6614 10.7557C13.9952 10.5974 14.3344 10.4638 14.6769 10.3542L14.7358 10.4433L17.6371 10.0808Z" fill="#F3AD61"/>
<path d="M14.6578 11.8642L17.0558 13.3665C17.2383 13.4759 17.4623 13.3697 17.4931 13.1591L17.8453 10.3139C17.8581 10.2033 17.8075 10.0966 17.7137 10.0366L17.6374 9.98433C16.6556 9.9244 15.6529 10.042 14.6772 10.3542L14.5212 11.5762C14.5083 11.6869 14.564 11.8042 14.6578 11.8642Z" fill="#E19747"/>
<path d="M9.35515 13.8968C9.92701 13.1087 10.647 12.415 11.4986 11.8618L12.5314 12.5329C12.6252 12.5929 12.6758 12.6996 12.6629 12.8102L12.3087 15.6176C12.2779 15.8282 12.0539 15.9344 11.8713 15.825L9.47338 14.3228C9.37958 14.2627 9.32393 14.1454 9.3368 14.0347L9.35515 13.8968Z" fill="#E19747"/>
<path d="M12.1016 29.5018C11.9922 29.312 11.8895 29.1164 11.794 28.915L9.86408 24.8453C9.93669 24.6883 10.1288 24.5926 10.2765 24.6955L12.6744 26.1978C12.7682 26.2578 12.8188 26.3645 12.8059 26.4751L12.4517 29.2825C12.4279 29.4454 12.2599 29.5326 12.1016 29.5018Z" fill="#E19747"/>
<path d="M17.7613 33.4464C16.6948 33.2614 15.6722 32.8652 14.7584 32.2815C14.7557 32.2654 14.7528 32.2434 14.7531 32.2284L15.1056 29.3959C15.1364 29.1853 15.3604 29.0791 15.543 29.1885L17.9409 30.6908C18.0454 30.7458 18.096 30.8524 18.0725 30.9681L17.7613 33.4464Z" fill="#E19747"/>
<path d="M28.4204 25.8789C28.2841 26.9479 27.9366 27.9805 27.4012 28.9134L25.241 27.5687C25.1472 27.5087 25.0966 27.402 25.1095 27.2914L25.4637 24.484C25.4945 24.2734 25.7185 24.1672 25.9011 24.2766L28.3315 25.7952C28.3698 25.8154 28.3994 25.8468 28.4204 25.8789Z" fill="#E19747"/>
<path d="M25.7706 17.3057L27.6991 21.3725C27.7939 21.5724 27.8798 21.7741 27.957 21.9773C27.8923 22.12 27.6946 22.2211 27.5461 22.1245L25.1481 20.6223C25.0543 20.5622 25.0037 20.4555 25.0166 20.3449L25.3708 17.5375C25.395 17.3507 25.6057 17.2459 25.7706 17.3057Z" fill="#E19747"/>
<path d="M12.6243 19.4793L10.2263 17.9771C10.0438 17.8676 9.81977 17.9739 9.78898 18.1845L9.43473 20.9918C9.42186 21.1025 9.47245 21.2092 9.56625 21.2692L11.9642 22.7715C12.1468 22.8809 12.3708 22.7747 12.4016 22.5641L12.7558 19.7567C12.7794 19.641 12.7288 19.5343 12.6243 19.4793Z" fill="#E19747"/>
<path d="M17.1486 20.313C17.3312 20.4224 17.5552 20.3161 17.586 20.1055L17.9402 17.2982C17.9531 17.1875 17.9025 17.0809 17.8087 17.0208L15.4108 15.5185C15.2282 15.4091 15.0042 15.5154 14.9734 15.726L14.6191 18.5333C14.6063 18.644 14.6569 18.7507 14.7507 18.8107L17.1486 20.313Z" fill="#E19747"/>
<path d="M22.3223 17.8595C22.5049 17.9689 22.7289 17.8627 22.7597 17.6521L23.1139 14.8447C23.1268 14.7341 23.0762 14.6274 22.9824 14.5673L20.5844 13.0651C20.4019 12.9557 20.1779 13.0619 20.1471 13.2725L19.7928 16.0799C19.78 16.1905 19.8305 16.2972 19.9243 16.3572L22.3223 17.8595Z" fill="#E19747"/>
<path d="M17.8588 23.7393L15.4608 22.237C15.2783 22.1276 15.0543 22.2338 15.0235 22.4444L14.6692 25.2518C14.6564 25.3625 14.7069 25.4691 14.8007 25.5292L17.1987 27.0314C17.3813 27.1409 17.6053 27.0346 17.6361 26.824L17.9903 24.0166C18.0032 23.906 17.9526 23.7993 17.8588 23.7393Z" fill="#E19747"/>
<path d="M23.0325 21.2858L20.6346 19.7836C20.452 19.6741 20.228 19.7804 20.1972 19.991L19.843 22.7984C19.8301 22.909 19.8807 23.0157 19.9745 23.0757L22.3725 24.578C22.555 24.6874 22.779 24.5812 22.8098 24.3706L23.1641 21.5632C23.1769 21.4525 23.1263 21.3459 23.0325 21.2858Z" fill="#E19747"/>
<path d="M20.7274 26.73C20.5448 26.6206 20.3208 26.7268 20.29 26.9374L19.9358 29.7448C19.9229 29.8555 19.9735 29.9621 20.0673 30.0222L22.4653 31.5244C22.6478 31.6339 22.8718 31.5276 22.9026 31.317L23.2569 28.5096C23.2697 28.399 23.2192 28.2923 23.1254 28.2323L20.7274 26.73Z" fill="#E19747"/>
</svg>
