<svg width="32" height="32" viewBox="0 0 32 32" fill="none" xmlns="http://www.w3.org/2000/svg">
<path d="M2.9869 10.4585C4.0569 11.3985 5.69689 11.3985 6.77689 10.4585C6.98689 10.2685 7.30689 10.2685 7.50689 10.4685L13.4469 16.3585L16.3969 13.3785L10.4569 7.48848C10.2569 7.28848 10.2469 6.96847 10.4369 6.75847C11.3669 5.67847 11.3569 4.03849 10.4069 2.96849C9.2969 1.71849 7.36688 1.67849 6.20688 2.84849C5.65688 3.39849 5.37689 4.12849 5.36689 4.84849C5.36689 5.14849 5.11688 5.39848 4.81688 5.39848C4.09688 5.40848 3.36688 5.69849 2.81688 6.24849C1.67688 7.42849 1.7269 9.35848 2.9869 10.4585Z" fill="#D3D3D3"/>
<path d="M15.0667 27.4585C18.5767 30.9385 24.2767 30.8685 27.6967 27.2585C30.9567 23.8085 30.8867 18.3285 27.5367 14.9585C25.3867 12.8085 22.4067 11.9885 19.6367 12.5185C18.5067 12.7285 17.3467 12.3985 16.5267 11.5885L14.8667 9.9385C13.9367 9.0085 12.4267 9.01848 11.5067 9.94848L9.9767 11.4885C9.04669 12.4185 9.0567 13.9285 9.9867 14.8485L11.6067 16.4585C12.4467 17.2885 12.7967 18.4785 12.5867 19.6385C12.1067 22.3985 12.9267 25.3385 15.0667 27.4585Z" fill="#D3883E"/>
<g opacity="0.7">
<path d="M23.6665 16.7584C24.3293 16.7584 24.8665 16.2212 24.8665 15.5584C24.8665 14.8957 24.3293 14.3584 23.6665 14.3584C23.0038 14.3584 22.4666 14.8957 22.4666 15.5584C22.4666 16.2212 23.0038 16.7584 23.6665 16.7584Z" fill="#A56953"/>
<path d="M26.5066 22.4084C27.5836 22.4084 28.4566 21.5353 28.4566 20.4584C28.4566 19.3814 27.5836 18.5084 26.5066 18.5084C25.4297 18.5084 24.5566 19.3814 24.5566 20.4584C24.5566 21.5353 25.4297 22.4084 26.5066 22.4084Z" fill="#A56953"/>
<path d="M23.5266 19.0184C23.5266 19.4933 23.1416 19.8784 22.6666 19.8784C22.1917 19.8784 21.8066 19.4933 21.8066 19.0184C21.8066 18.5434 22.1917 18.1584 22.6666 18.1584C23.1416 18.1584 23.5266 18.5434 23.5266 19.0184Z" fill="#A56953"/>
</g>
</svg>
