<svg width="32" height="32" viewBox="0 0 32 32" fill="none" xmlns="http://www.w3.org/2000/svg">
<path d="M29.9587 21.2487C29.8251 20.6586 29.3783 20.0952 28.6886 19.9082C28.6886 19.9107 28.6862 19.9131 28.6862 19.9131C28.6862 19.9107 28.6862 19.9082 28.6837 19.9058C28.6862 19.9058 28.6862 19.9058 28.6886 19.9058C28.8197 19.595 28.946 19.2866 29.048 18.966C32.0617 9.54362 25.908 5.01943 21.1045 5.01943C19.2128 5.01943 17.457 5.62654 16.0267 6.65863C15.7377 6.44978 15.439 6.26036 15.1306 6.10009C13.8775 5.40069 12.4471 5 10.9172 5C6.11374 5 2.1408 8.57953 2.1408 14.4661C2.1408 16.0373 2.41036 17.5575 2.9009 18.9684C3.01018 19.2866 3.12918 19.595 3.26031 19.9034C3.26031 19.9034 3.26031 19.9034 3.25789 19.9034C3.25789 19.9058 3.25789 19.9058 3.25789 19.9082C2.60706 20.1074 2.1578 20.6611 2.04123 21.2172C1.82996 22.1788 2.43221 23.1284 3.39145 23.3372C3.64158 23.4003 4.74167 23.5849 5.64262 23.6481L5.64019 23.6456C5.65962 23.648 5.67905 23.6505 5.69848 23.6529C5.67905 23.6505 5.65962 23.6505 5.64262 23.6481C5.96318 24.0075 6.31287 24.3596 6.67228 24.6874C9.12259 26.9192 12.3961 28.2888 15.9684 28.2888C19.5406 28.2888 22.8117 26.9289 25.2645 24.6971C25.6239 24.3693 25.9712 24.0196 26.2893 23.6529C26.2917 23.6529 26.2941 23.6505 26.2966 23.6505C26.299 23.6505 26.3014 23.6481 26.3039 23.6481C26.7628 23.6141 28.2587 23.4756 28.606 23.3591C29.558 23.1502 30.1675 22.2104 29.9587 21.2487ZM21.0948 8.57225C23.9458 8.57225 28.4967 11.4402 25.1455 19.1578C24.9876 19.5197 24.7642 19.8378 24.5554 20.1584H24.5578C24.5554 20.1584 24.5554 20.1608 24.5529 20.1608L24.5554 20.1584C24.0454 20.1438 23.3096 20.0637 22.8142 19.9884C22.683 19.9592 21.0924 19.5974 19.4726 18.8082C19.2905 18.7232 19.1084 18.6309 18.9287 18.5337C18.8704 18.5022 18.7854 18.4536 18.7052 18.4099C18.6664 18.388 18.6251 18.3637 18.5862 18.3419C18.5862 18.3395 18.5862 18.337 18.5862 18.337C18.5862 18.337 18.5862 18.337 18.5862 18.3346C19.917 16.183 19.5795 14.2548 19.6329 13.7181C19.6329 12.4772 19.3633 11.2873 18.8922 10.2163C18.7538 9.90789 18.6032 9.60919 18.4333 9.32021C18.4333 9.31778 18.4357 9.31778 18.4357 9.31535C19.2128 8.8418 20.1235 8.57225 21.0948 8.57225ZM10.9269 8.55282C11.5462 8.55282 12.1484 8.6621 12.707 8.86366C12.9061 8.94137 13.1077 9.03122 13.2995 9.13079V9.13322C13.2995 9.13322 13.4477 9.21093 13.5594 9.2765C13.5739 9.28621 13.5909 9.2935 13.6055 9.30321C13.6055 9.30321 13.6079 9.30321 13.6079 9.30564C12.0829 11.8822 12.4423 14.131 12.3864 14.6191C12.3864 15.6997 12.6171 16.6493 13.0178 17.5016C13.149 17.8125 13.4986 18.3832 13.4986 18.3832C11.9882 19.2866 9.6957 20.0807 7.37653 20.1438C7.3741 20.1438 7.37168 20.1414 7.36925 20.1414L7.3571 20.1341C7.14826 19.816 6.93941 19.4857 6.78399 19.1336C3.37931 11.5034 8.08564 8.55282 10.9269 8.55282ZM15.9708 24.7724C14.5696 24.7724 13.2388 24.4931 12.0197 23.9807C11.5389 23.7913 11.0896 23.5509 10.6501 23.2911C11.0095 23.2012 11.449 23.0822 11.959 22.9122C12.7191 22.6718 13.6104 22.3318 14.5016 21.8729C15.0723 21.5839 15.592 21.273 16.0704 20.933H16.0728C16.3739 21.1419 16.6726 21.3337 16.9835 21.5037C18.0544 22.123 19.1448 22.5747 20.0457 22.8855C20.5363 23.0555 20.9758 23.1866 21.3255 23.2765C20.9054 23.5363 20.4561 23.767 19.9972 23.9565C18.7611 24.481 17.4012 24.7724 15.9708 24.7724Z" fill="#FFB02E"/>
<path d="M13.6079 9.30322C14.2175 8.26142 15.048 7.36046 16.0291 6.66107C15.7377 6.45222 15.439 6.26038 15.1305 6.1001C14.1689 6.83106 13.2995 9.1308 13.2995 9.1308C13.2995 9.1308 13.4986 9.23765 13.6079 9.30322Z" fill="#D3883E"/>
<path d="M16.9786 21.4989C16.6678 21.3289 16.3691 21.1395 16.0679 20.9282C17.1486 20.1681 17.9888 19.2963 18.5789 18.337C18.7149 18.4172 18.9894 18.5677 18.9894 18.5677C18.9894 18.5677 18.0107 20.7193 16.9786 21.4989Z" fill="#D3883E"/>
<path d="M4.50961 19.9244C5.09173 20.0231 5.91868 20.1632 7.36438 20.1389C7.1531 19.8184 6.95397 19.4784 6.78398 19.1287C5.74218 19.1093 5.06464 19.0073 4.3531 18.8883C3.67369 18.7396 3.1734 18.8895 2.97767 18.9481C2.94323 18.9584 2.91822 18.9659 2.90332 18.9684C3.0126 19.289 3.13159 19.5974 3.26273 19.9082C3.66145 19.7807 3.98679 19.8358 4.50961 19.9244Z" fill="#D3883E"/>
<path d="M11.9073 24.0086C11.9697 23.9923 12.0075 23.9824 12.0173 23.9807C11.5364 23.7913 11.0872 23.5509 10.6476 23.2935C9.00599 23.6942 7.35222 23.7719 5.64502 23.6529C5.96315 24.0123 6.31527 24.362 6.67468 24.6922C8.70634 24.8477 11.3361 24.1584 11.9073 24.0086Z" fill="#D3883E"/>
<path d="M26.2941 23.6504C25.9736 24.0196 25.6239 24.3717 25.2645 24.702H24.9439C22.6897 24.702 21.499 24.3685 20.5572 24.1047C20.3597 24.0493 20.173 23.997 19.9899 23.9516C20.4513 23.7622 20.9005 23.5315 21.3207 23.2716C21.7821 23.4027 22.0905 23.461 22.1512 23.4707H22.1706C23.4893 23.7063 24.9342 23.75 26.2941 23.6504Z" fill="#D3883E"/>
<path d="M28.6861 19.9083C28.8148 19.5999 28.9363 19.289 29.0455 18.9685L28.9363 18.9369C28.3789 18.7885 27.9758 18.8537 27.3747 18.951C26.8549 19.0351 26.187 19.1433 25.143 19.1579C24.9633 19.5076 24.7642 19.8379 24.5529 20.1584C26.085 20.2012 26.9155 20.0522 27.4993 19.9474C27.9769 19.8617 28.2895 19.8056 28.6861 19.9083Z" fill="#D3883E"/>
<path d="M18.8898 10.2138C16.8062 10.8136 16.0874 13.7156 16.0874 13.7156C16.0874 13.4048 16.0679 13.1061 16.0072 12.8147C16.2768 11.3333 17.1875 10.0633 18.4284 9.31287C18.6008 9.60185 18.7514 9.90298 18.8898 10.2138Z" fill="#D3883E"/>
<path d="M16.0096 15.3379C15.9586 15.1072 15.9295 14.8668 15.9295 14.6167C15.9295 14.6167 15.5822 16.3992 13.0178 17.4993C13.1489 17.8101 13.3189 18.1015 13.4986 18.3808C14.6886 17.6693 15.7304 16.6785 16.0096 15.3379Z" fill="#D3883E"/>
<path d="M9.41995 6.81868C9.41995 7.05064 9.23191 7.23868 8.99995 7.23868C8.76799 7.23868 8.57996 7.05064 8.57996 6.81868C8.57996 6.58672 8.76799 6.39868 8.99995 6.39868C9.23191 6.39868 9.41995 6.58672 9.41995 6.81868Z" fill="#FFDEA7"/>
<path d="M24.9999 7.08876C24.9999 7.35386 24.785 7.56876 24.5199 7.56876C24.2548 7.56876 24.0399 7.35386 24.0399 7.08876C24.0399 6.82367 24.2548 6.60876 24.5199 6.60876C24.785 6.60876 24.9999 6.82367 24.9999 7.08876Z" fill="#FFDEA7"/>
<path d="M29.5499 13.8788C29.5499 14.3703 29.1514 14.7688 28.6599 14.7688C28.1684 14.7688 27.7699 14.3703 27.7699 13.8788C27.7699 13.3872 28.1684 12.9888 28.6599 12.9888C29.1514 12.9888 29.5499 13.3872 29.5499 13.8788Z" fill="#FFDEA7"/>
<path d="M14.1299 13.7788C14.6214 13.7788 15.0199 13.3803 15.0199 12.8888C15.0199 12.3972 14.6214 11.9988 14.1299 11.9988C13.6383 11.9988 13.2399 12.3972 13.2399 12.8888C13.2399 13.3803 13.6383 13.7788 14.1299 13.7788Z" fill="#FFDEA7"/>
<path d="M10.9696 25.4069C10.9696 25.8984 10.5712 26.2969 10.0796 26.2969C9.5881 26.2969 9.18964 25.8984 9.18964 25.4069C9.18964 24.9153 9.5881 24.5169 10.0796 24.5169C10.5712 24.5169 10.9696 24.9153 10.9696 25.4069Z" fill="#FFDEA7"/>
<path d="M19.7899 27.0987C20.1379 27.0987 20.4199 26.8167 20.4199 26.4687C20.4199 26.1208 20.1379 25.8387 19.7899 25.8387C19.442 25.8387 19.1599 26.1208 19.1599 26.4687C19.1599 26.8167 19.442 27.0987 19.7899 27.0987Z" fill="#FFDEA7"/>
<path d="M17.3499 12.7387C17.5819 12.7387 17.7699 12.5506 17.7699 12.3187C17.7699 12.0867 17.5819 11.8987 17.3499 11.8987C17.118 11.8987 16.9299 12.0867 16.9299 12.3187C16.9299 12.5506 17.118 12.7387 17.3499 12.7387Z" fill="#FFDEA7"/>
<path d="M28.4999 17.7587C28.4999 17.9907 28.3119 18.1787 28.0799 18.1787C27.848 18.1787 27.6599 17.9907 27.6599 17.7587C27.6599 17.5268 27.848 17.3387 28.0799 17.3387C28.3119 17.3387 28.4999 17.5268 28.4999 17.7587Z" fill="#FFDEA7"/>
<path d="M4.16992 11.4888C4.58414 11.4888 4.91992 11.153 4.91992 10.7388C4.91992 10.3246 4.58414 9.98877 4.16992 9.98877C3.75571 9.98877 3.41992 10.3246 3.41992 10.7388C3.41992 11.153 3.75571 11.4888 4.16992 11.4888Z" fill="#FFDEA7"/>
<path d="M13.2289 27.9277C13.2781 27.8572 13.2468 27.7375 13.1565 27.7085L12.062 27.3005C11.9715 27.2615 11.8722 27.3225 11.8633 27.4226C11.8269 27.7531 12.0306 28.0909 12.3519 28.2073C12.6732 28.3238 13.042 28.2098 13.2289 27.9277Z" fill="#FFDEA7"/>
<path d="M27.2235 7.88379C27.1635 7.80379 27.1935 7.69379 27.2835 7.65379C27.5935 7.52379 27.9635 7.60379 28.1835 7.88379C28.3935 8.16379 28.3835 8.54379 28.1835 8.80379C28.1235 8.88379 28.0035 8.88379 27.9535 8.80379L27.2235 7.88379Z" fill="#FFDEA7"/>
<path d="M5.83083 16.0232C5.74083 16.0232 5.66084 16.1132 5.68084 16.2032L5.91083 17.3532C5.93083 17.4432 6.03083 17.4932 6.12083 17.4532C6.42083 17.3032 6.60083 16.9632 6.53083 16.6232C6.46083 16.2832 6.17083 16.0432 5.83083 16.0232Z" fill="#FFDEA7"/>
</svg>
