<svg width="36" height="36" viewBox="0 0 36 36" fill="none" xmlns="http://www.w3.org/2000/svg">
<path d="M8.01 2.57749L3.375 4.37749C4.35375 6.89749 7.1775 8.14624 9.6975 7.16749L14.3325 5.36749C13.3537 2.85874 10.53 1.60999 8.01 2.57749Z" fill="#00D26A"/>
<path d="M22.4887 9.11379L22.3762 8.83254C21.1275 5.61504 17.505 4.01754 14.2875 5.26629C11.07 6.50379 9.4725 10.1263 10.7212 13.3438L10.8337 13.625C11.5425 15.4475 11.5762 17.4613 10.9462 19.3175C10.1025 21.77 10.1587 24.4363 11.0925 26.855C13.2412 32.4125 19.4963 35.1688 25.0538 33.02C30.6112 30.8713 33.3675 24.6163 31.2188 19.0588C30.285 16.64 28.5187 14.6375 26.2463 13.3888C24.525 12.455 23.1975 10.9363 22.4887 9.11379Z" fill="#C3EF3C"/>
</svg>
