<svg width="32" height="32" viewBox="0 0 32 32" fill="none" xmlns="http://www.w3.org/2000/svg">
<path d="M28.5395 17.591L21.7465 5.808C20.5515 3.737 18.4135 2.5 16.0255 2.5C13.6375 2.5 11.4995 3.737 10.3055 5.809L3.51147 17.592C2.19747 19.873 2.19947 22.596 3.51647 24.873C4.82947 27.145 7.17747 28.5 9.79747 28.5H22.2535C24.8785 28.5 27.2295 27.142 28.5425 24.865C29.8575 22.588 29.8555 19.868 28.5395 17.591Z" fill="#9B9B9B"/>
<path d="M11.1722 6.308L4.37817 18.091C3.24517 20.059 3.24617 22.407 4.38217 24.373C5.51517 26.331 7.53917 27.5 9.79817 27.5H22.2542C24.5172 27.5 26.5442 26.328 27.6772 24.365C28.8112 22.401 28.8092 20.055 27.6742 18.091L20.8802 6.308C19.8672 4.549 18.0522 3.5 16.0262 3.5C14.0002 3.5 12.1852 4.55 11.1722 6.308Z" fill="#F4F4F4"/>
<path d="M17.8228 7.43299C17.5628 7.79299 17.0628 7.86299 16.7128 7.60299L15.1128 6.42299C14.7528 6.16299 14.6828 5.66299 14.9428 5.31299C15.2028 4.95299 15.7028 4.88299 16.0528 5.14299L17.6528 6.32299C18.0128 6.58299 18.0828 7.08299 17.8228 7.43299Z" fill="#9B9B9B"/>
<path d="M11.7841 8.72198C12.0441 8.36199 12.5441 8.29199 12.8841 8.55199C13.2441 8.81298 13.3131 9.31298 13.0541 9.66197L11.8741 11.262C11.6141 11.612 11.1241 11.682 10.7641 11.422C10.4141 11.162 10.3441 10.662 10.6041 10.322L11.7841 8.72198Z" fill="#9B9B9B"/>
<path d="M22.1524 10.823C21.9524 10.433 21.4724 10.283 21.0823 10.483C20.6923 10.683 20.5423 11.163 20.7423 11.553L21.6624 13.313C21.8624 13.703 22.3424 13.853 22.7324 13.653C23.1224 13.453 23.2724 12.973 23.0724 12.583L22.1524 10.823Z" fill="#9B9B9B"/>
<path d="M12.4843 13.8421C12.8843 13.6621 13.3543 13.8421 13.5343 14.2421L14.3443 16.0521C14.5243 16.452 14.3443 16.922 13.9443 17.102C13.5443 17.282 13.0743 17.102 12.8943 16.702L12.0843 14.8921C11.9043 14.4921 12.0843 14.0221 12.4843 13.8421Z" fill="#9B9B9B"/>
<path d="M7.95409 15.613L6.1941 16.533C5.8041 16.733 5.6541 17.2131 5.85409 17.6031C6.05409 17.9931 6.53409 18.1431 6.9241 17.9431L8.68409 17.0231C9.07409 16.8231 9.22409 16.343 9.02409 15.953C8.81409 15.563 8.3341 15.412 7.95409 15.613Z" fill="#9B9B9B"/>
<path d="M24.8923 17.492L26.4923 18.672C26.8423 18.932 26.9123 19.432 26.6623 19.782C26.4023 20.142 25.9023 20.212 25.5523 19.952L23.9523 18.772C23.5923 18.512 23.5223 18.012 23.7823 17.662C24.0423 17.302 24.5423 17.232 24.8923 17.492Z" fill="#9B9B9B"/>
<path d="M20.1326 15.172L18.1526 15.312C17.7126 15.342 17.3826 15.722 17.4226 16.162C17.4526 16.592 17.8326 16.9219 18.2726 16.8919L20.2526 16.752C20.6926 16.722 21.0226 16.342 20.9826 15.902C20.9526 15.462 20.5726 15.133 20.1326 15.172Z" fill="#9B9B9B"/>
<path d="M23.5818 23.483L25.0418 22.133C25.3618 21.833 25.8618 21.853 26.1618 22.173C26.4618 22.493 26.4418 22.993 26.1218 23.293L24.6618 24.643C24.3418 24.943 23.8318 24.923 23.5418 24.603C23.2418 24.283 23.2618 23.783 23.5818 23.483Z" fill="#9B9B9B"/>
<path d="M7.51367 21.103C7.29367 20.723 6.81367 20.593 6.43367 20.813C6.05367 21.033 5.92367 21.5129 6.14367 21.8929L7.13367 23.6128C7.35367 23.9928 7.83367 24.1228 8.21367 23.9028C8.59367 23.6828 8.72367 23.2029 8.51367 22.8229L7.51367 21.103Z" fill="#9B9B9B"/>
<path d="M17.7235 11.392C18.1235 11.572 18.3135 12.032 18.1435 12.432C17.9735 12.843 17.5035 13.022 17.1035 12.852L15.2835 12.072C14.8735 11.902 14.6935 11.432 14.8635 11.032C15.0335 10.622 15.5035 10.442 15.9035 10.612L17.7235 11.392Z" fill="#9B9B9B"/>
<path d="M9.5293 19C9.5293 18.448 9.9773 18 10.5293 18H21.5283C22.0803 18 22.5283 18.448 22.5283 19V27C22.5283 28.657 21.1853 30 19.5283 30H12.5293C10.8723 30 9.5293 28.657 9.5293 27V19Z" fill="#533566"/>
</svg>
