<svg width="32" height="32" viewBox="0 0 32 32" fill="none" xmlns="http://www.w3.org/2000/svg">
<path d="M20.598 29.98H11.408C9.30798 29.98 7.69798 28.09 8.04798 26.02L10.488 11.36L16.003 9.375L21.518 11.36L23.958 26.01C24.298 28.09 22.698 29.98 20.598 29.98Z" fill="#AEDDFF"/>
<path d="M19.7078 17.86H12.2978C11.9178 17.86 11.5878 18.14 11.5278 18.51L10.4378 25.05C10.1978 26.5 11.3178 27.82 12.7878 27.82H19.2178C20.6878 27.82 21.8078 26.5 21.5678 25.05L20.4778 18.51C20.4078 18.14 20.0878 17.86 19.7078 17.86Z" fill="#F4F4F4"/>
<path d="M19.5074 2H12.4874C10.1774 2 8.45736 4.12 8.92736 6.38C9.07736 7.08 9.68701 7.58 10.4878 7.58L16.0034 9.14062L21.519 7.58C22.3042 7.58 22.9274 7.08 23.0774 6.38C23.5474 4.12 21.8174 2 19.5074 2Z" fill="#D3D3D3"/>
<path d="M12.9882 4.18999C13.2865 4.18999 13.5282 3.94822 13.5282 3.64999C13.5282 3.35175 13.2865 3.10999 12.9882 3.10999C12.69 3.10999 12.4482 3.35175 12.4482 3.64999C12.4482 3.94822 12.69 4.18999 12.9882 4.18999Z" fill="#9B9B9B"/>
<path d="M19.0682 4.18999C19.3665 4.18999 19.6082 3.94822 19.6082 3.64999C19.6082 3.35175 19.3665 3.10999 19.0682 3.10999C18.77 3.10999 18.5282 3.35175 18.5282 3.64999C18.5282 3.94822 18.77 4.18999 19.0682 4.18999Z" fill="#9B9B9B"/>
<path d="M15.1183 5.39999C15.1183 5.69822 14.8766 5.93999 14.5783 5.93999C14.2801 5.93999 14.0383 5.69822 14.0383 5.39999C14.0383 5.10175 14.2801 4.85999 14.5783 4.85999C14.8766 4.85999 15.1183 5.10175 15.1183 5.39999Z" fill="#9B9B9B"/>
<path d="M18.0083 5.39999C18.0083 5.69822 17.7666 5.93999 17.4683 5.93999C17.1701 5.93999 16.9283 5.69822 16.9283 5.39999C16.9283 5.10175 17.1701 4.85999 17.4683 4.85999C17.7666 4.85999 18.0083 5.10175 18.0083 5.39999Z" fill="#9B9B9B"/>
<path d="M16.5683 3.64999C16.5683 3.94822 16.3265 4.18999 16.0283 4.18999C15.73 4.18999 15.4883 3.94822 15.4883 3.64999C15.4883 3.35175 15.73 3.10999 16.0283 3.10999C16.3265 3.10999 16.5683 3.35175 16.5683 3.64999Z" fill="#9B9B9B"/>
<path d="M10.4883 7.57996H21.5283V11.35H10.4883V7.57996Z" fill="#9B9B9B"/>
</svg>
