<svg width="32" height="32" viewBox="0 0 32 32" fill="none" xmlns="http://www.w3.org/2000/svg">
<path d="M26.0997 19.07L17.0197 13.82C16.3897 13.45 15.5997 13.45 14.9697 13.82L5.88969 19.07H3.42969V21.61C3.42969 21.93 3.58969 22.25 3.90969 22.43L14.9797 28.83C15.6097 29.2 16.3997 29.2 17.0297 28.83L28.0997 22.43C28.4197 22.25 28.5797 21.93 28.5797 21.61V19.07H26.0997Z" fill="#E19747"/>
<path d="M14.9702 11.73L3.90023 18.13C3.27023 18.5 3.27023 19.41 3.90023 19.78L14.9702 26.18C15.6002 26.55 16.3902 26.55 17.0202 26.18L28.0902 19.78C28.7202 19.41 28.7202 18.5 28.0902 18.13L17.0202 11.73C16.3902 11.37 15.6102 11.37 14.9702 11.73Z" fill="#FEEFC2"/>
<path d="M7.91953 24C4.21953 21.86 4.21953 16.52 7.91953 14.38C9.92953 13.22 12.4095 13.22 14.4195 14.38C15.0555 14.7478 15.5821 15.2102 15.9995 15.7346C16.4168 15.2102 16.9435 14.7478 17.5794 14.38C19.5894 13.22 22.0594 13.22 24.0794 14.38C27.7794 16.52 27.7794 21.86 24.0794 24C22.0694 25.16 19.5894 25.16 17.5794 24C16.9435 23.6322 16.4168 23.1698 15.9995 22.6454C15.5821 23.1698 15.0555 23.6322 14.4195 24C12.4095 25.16 9.92953 25.16 7.91953 24Z" fill="#F8312F"/>
<path d="M22.9403 16.09C20.9703 15.33 18.3303 16.27 18.0403 18.92C17.5303 18.55 16.9103 18.32 16.2503 18.28C16.1903 18.28 16.1303 18.27 16.0703 18.27C16.0503 18.27 16.0203 18.27 16.0003 18.27C15.9803 18.27 15.9503 18.27 15.9303 18.27C15.8703 18.27 15.8103 18.27 15.7503 18.28C15.0903 18.33 14.4703 18.56 13.9603 18.92C13.6703 16.28 11.0303 15.33 9.06027 16.09C8.37027 12.09 2.10027 12.31 2.03027 16.74C2.07027 19.25 4.11027 20.41 5.99027 20.21C6.52027 20.15 7.02027 20.43 7.25027 20.91C8.00027 22.5 9.83027 23.1 11.4003 22.7C11.9203 22.57 12.4603 22.77 12.7403 23.21C13.2503 24.4 14.3903 25.25 15.7403 25.35C15.7403 25.35 15.7403 25.35 15.7503 25.35C15.8303 25.36 15.9103 25.36 16.0003 25.36C16.0003 25.36 16.0003 25.36 16.0103 25.36C16.0203 25.36 16.0103 25.36 16.0203 25.36C16.1003 25.36 16.1803 25.36 16.2703 25.35C16.2703 25.35 16.2703 25.35 16.2803 25.35C17.6303 25.25 18.7703 24.4 19.2803 23.21C19.5603 22.77 20.1003 22.57 20.6203 22.7C22.1803 23.1 24.0203 22.5 24.7703 20.91C25.0003 20.43 25.5003 20.15 26.0303 20.21C27.9103 20.41 29.9403 19.25 29.9903 16.74C29.8903 12.31 23.6303 12.09 22.9403 16.09Z" fill="#44911B"/>
<path d="M14.9702 7.84L3.90023 14.24C3.27023 14.61 3.27023 15.52 3.90023 15.89L14.9702 22.29C15.6002 22.66 16.3902 22.66 17.0202 22.29L28.0902 15.89C28.7202 15.52 28.7202 14.61 28.0902 14.24L17.0202 7.84C16.3902 7.47 15.6102 7.47 14.9702 7.84Z" fill="#FCD53F"/>
<path d="M26.0997 10.62L17.0197 5.37003C16.3897 5.00003 15.6097 5.00003 14.9697 5.37003L5.88969 10.62H3.42969V13.16C3.42969 13.48 3.58969 13.8 3.90969 13.98L14.9797 20.38C15.6097 20.75 16.3997 20.75 17.0297 20.38L28.0997 13.98C28.4197 13.8 28.5797 13.48 28.5797 13.16V10.62H26.0997Z" fill="#E19747"/>
<path d="M14.97 3.27998L3.91 9.66998C3.28 10.04 3.28 10.95 3.91 11.32L14.98 17.72C15.61 18.09 16.4 18.09 17.03 17.72L28.1 11.32C28.73 10.95 28.73 10.04 28.1 9.66998L17.03 3.26998C16.39 2.90998 15.61 2.90998 14.97 3.27998Z" fill="#FEEFC2"/>
</svg>
