<svg width="32" height="32" viewBox="0 0 32 32" fill="none" xmlns="http://www.w3.org/2000/svg">
<path d="M7.99969 18L6.67969 15.63C6.78834 15.5794 6.8758 15.2985 6.97887 15.2389C7.83388 14.7447 8.25908 14.1649 8.5625 13.21C8.7925 12.47 9.73016 11.7644 10.4902 11.7644C11.2502 11.7644 12.1075 12.49 12.3375 13.21C12.8475 14.83 14.1618 15.8072 15.9518 15.8072C17.7418 15.8072 19.0562 14.82 19.5662 13.21C19.7962 12.48 20.7097 11.7644 21.4697 11.7644C22.2297 11.7644 23.0844 12.49 23.3144 13.21C23.613 14.1497 24.1841 14.7481 25.0192 15.2389C25.135 15.307 25.1967 15.574 25.3197 15.63L23.9997 18L23.4483 18.2435H8.5625L7.99969 18Z" fill="#FFDEA7"/>
<path d="M16 2C10.48 2 6 6.48 6 12C6 13.28 6.24 14.5 6.68 15.63C7.69 15.16 8.47 14.29 8.81 13.22C9.04 12.48 9.73 12 10.49 12C11.25 12 11.94 12.49 12.17 13.21C12.68 14.83 14.19 16 15.98 16C17.77 16 19.28 14.83 19.79 13.22C20.02 12.49 20.71 12.01 21.47 12.01H21.51C22.27 12.01 22.96 12.5 23.19 13.22C23.53 14.29 24.31 15.17 25.32 15.63C25.76 14.5 26 13.28 26 12C25.99 6.48 21.52 2 16 2Z" fill="#FF6DC6"/>
<path d="M14.3102 5.94004C14.868 5.94004 15.3202 5.48785 15.3202 4.93004C15.3202 4.37224 14.868 3.92004 14.3102 3.92004C13.7524 3.92004 13.3002 4.37224 13.3002 4.93004C13.3002 5.48785 13.7524 5.94004 14.3102 5.94004Z" fill="#FBB8AB"/>
<path d="M10.9602 7.39C11.518 7.39 11.9702 6.9378 11.9702 6.38C11.9702 5.82219 11.518 5.37 10.9602 5.37C10.4024 5.37 9.9502 5.82219 9.9502 6.38C9.9502 6.9378 10.4024 7.39 10.9602 7.39Z" fill="#FBB8AB"/>
<path d="M14.9702 8.44994C14.9702 9.00775 14.518 9.45994 13.9602 9.45994C13.4024 9.45994 12.9502 9.00775 12.9502 8.44994C12.9502 7.89213 13.4024 7.43994 13.9602 7.43994C14.518 7.43994 14.9702 7.89213 14.9702 8.44994Z" fill="#FBB8AB"/>
<path d="M25.1002 8C25.7602 8 26.1902 8.69 25.9002 9.28L21.5747 18.19H19.5947L24.3002 8.5C24.4502 8.19 24.7702 8 25.1002 8Z" fill="#00A6ED"/>
<path d="M8 18L15.41 29.68C15.68 30.11 16.32 30.11 16.59 29.68L24 18H8Z" fill="#26EAFC"/>
</svg>
