<svg width="32" height="32" viewBox="0 0 32 32" fill="none" xmlns="http://www.w3.org/2000/svg">
<path d="M3.62626 29.8194L28.256 22.7518L29.0436 22.0281V7.97828L28.0218 5.99854L2.07227 13.3428V28.2866C2.07227 29.5124 2.56773 30.0718 3.62626 29.8194Z" fill="#E19747"/>
<path d="M13.0347 2.50785L3.06408 11.7306C1.11815 13.3925 2.12934 14.5421 3.99882 14.1298L27.0247 7.52429C27.6167 7.38349 27.9906 7.33764 27.9906 8.02282V12.0422C27.9906 12.73 28.0539 13.0877 27.6167 13.2262C27.6167 13.2262 5.41139 19.9199 4.93357 20.0499C4.45576 20.1799 3.39383 20.3784 3.06408 20.3303C2.73433 20.2822 2.3163 20.0499 2.12934 20.0499C1.94238 20.0499 1.94238 20.1583 1.94238 20.673V22.8402C1.94238 23.0031 2.08292 23.1077 2.08292 23.1077C2.61073 23.4445 3.33565 23.5904 3.99882 23.415L27.2428 16.6848C27.6167 16.5914 27.9906 16.8413 27.9906 17.308V22.6064C27.9906 22.9277 28.1848 22.9449 28.3226 22.9277C29.3146 22.6422 30.0004 22.0554 30.0004 21.0469V8.02282C30.0004 7.1697 29.3832 5.7452 27.9906 5.31206L16.9606 2.72593C15.913 2.50785 13.8887 1.84658 13.0347 2.50785Z" fill="#FFDEA7"/>
<path d="M12.0235 4.51721C12.1497 3.88874 12.3583 2.11502 14.5396 1.68115L16.8957 2.88827L17.7538 5.46254C16.9491 7.62399 15.2902 7.46959 14.6269 7.46959H12.6635C12.0235 7.46959 11.6599 7.106 11.7472 6.43698L12.0235 4.51721Z" fill="#F8312F"/>
<path d="M16.9394 4.37186C16.4997 3.87735 16.6194 3.12106 16.6194 3.12106C16.6194 3.12106 15.9059 3.12106 15.5577 2.74292L14.3651 1.50669C14.3005 1.41943 14.3651 1.3235 14.4524 1.25942C14.4524 1.25942 15.154 0.727663 16.2413 1.41943C16.8434 1.86328 17.9879 3.28125 18.2774 3.87735C18.8044 4.77734 18.132 5.5499 18.132 5.5499C18.0544 5.64453 17.9645 5.67188 17.8556 5.5499L16.9394 4.37186Z" fill="#86D72F"/>
</svg>
