<svg width="32" height="32" viewBox="0 0 32 32" fill="none" xmlns="http://www.w3.org/2000/svg">
<path d="M11.8931 5.72435C12.3083 5.67614 12.7272 5.65173 13.1477 5.65173H17.9977C24.6277 5.65173 29.9977 11.0217 29.9977 17.6517C29.9977 24.2817 24.6277 29.6517 17.9977 29.6517H8.62769C8.33769 29.6517 8.14769 29.3617 8.25769 29.0917L9.09769 27.1217C10.2577 24.4217 12.9177 22.6617 15.8677 22.6617H18.4877C19.8851 22.6617 21.0938 21.8386 21.6545 20.6517H21.1277C20.8377 20.6517 20.5777 20.8317 20.4877 21.1017C20.4177 21.3117 20.2277 21.4417 20.0177 21.4417C19.9677 21.4417 19.9077 21.4317 19.8577 21.4117C19.5977 21.3217 19.4577 21.0317 19.5477 20.7717C19.5623 20.7309 19.5784 20.6909 19.5958 20.6517H19.1477C18.8577 20.6517 18.5977 20.8317 18.5077 21.1017C18.4377 21.3117 18.2377 21.4417 18.0377 21.4417C17.9877 21.4417 17.9277 21.4317 17.8777 21.4117C17.6177 21.3217 17.4777 21.0317 17.5677 20.7717C17.8077 20.1017 18.4377 19.6517 19.1477 19.6517H21.9535C21.976 19.4916 21.9877 19.328 21.9877 19.1617C21.9877 18.6213 21.8646 18.1091 21.645 17.6517H21.1277C20.8377 17.6517 20.5777 17.8317 20.4877 18.1017C20.4177 18.3217 20.2277 18.4417 20.0177 18.4417C19.9677 18.4417 19.9077 18.4317 19.8577 18.4117C19.5977 18.3217 19.4577 18.0317 19.5477 17.7717C19.5623 17.7309 19.5784 17.6909 19.5958 17.6517H19.1477C18.8577 17.6517 18.5977 17.8317 18.5077 18.1017C18.4377 18.3217 18.2377 18.4417 18.0377 18.4417C17.9877 18.4417 17.9277 18.4317 17.8777 18.4117C17.6177 18.3217 17.4777 18.0317 17.5677 17.7717C17.8077 17.1017 18.4377 16.6517 19.1477 16.6517H20.9247C20.294 16.0393 19.4342 15.6617 18.4877 15.6617H17.2199L15.3777 18.2917C15.1377 18.6317 15.0077 19.0417 15.0077 19.4517V20.1517C15.0077 20.4317 14.7877 20.6517 14.5077 20.6517C14.2277 20.6517 14.0077 20.4317 14.0077 20.1517V19.4517C14.0077 18.8317 14.1977 18.2317 14.5577 17.7117L15.9936 15.6617H14.2199L12.3777 18.2917C12.1377 18.6317 12.0077 19.0417 12.0077 19.4517V20.1517C12.0077 20.4317 11.7877 20.6517 11.5077 20.6517C11.2277 20.6517 11.0077 20.4317 11.0077 20.1517V19.4517C11.0077 18.8317 11.1977 18.2317 11.5577 17.7117L12.9936 15.6617H11.2199L9.37769 18.2917C9.13769 18.6317 9.00769 19.0417 9.00769 19.4517V20.1517C9.00769 20.4317 8.78769 20.6517 8.50769 20.6517C8.22769 20.6517 8.00769 20.4317 8.00769 20.1517V19.4517C8.00769 18.8317 8.19769 18.2317 8.55769 17.7117L9.99363 15.6617H8.21711L5.92769 18.9417C5.82769 19.0817 5.66769 19.1517 5.51769 19.1517C5.41769 19.1517 5.31769 19.1217 5.22769 19.0617C4.99769 18.9017 4.94769 18.5917 5.10769 18.3617L6.99227 15.6617H2.35769C2.06769 15.6617 1.89769 15.3317 2.06769 15.1017L2.94769 13.8817C3.30769 13.3717 3.29769 12.6917 2.90769 12.2117L2.14769 11.2517C1.89769 10.9417 1.97769 10.4717 2.32769 10.2717L7.34769 7.32173C7.4676 7.24662 7.58879 7.17392 7.71119 7.10367L11.2177 4.96173C14.3577 3.04173 18.1877 2.50173 21.7277 3.47173L23.9677 4.08173C25.7777 4.57173 27.6377 4.27173 29.2177 3.26173C29.4477 3.11173 29.7577 3.18173 29.9077 3.41173C30.0677 3.65173 29.9977 3.96173 29.7677 4.10173C27.9477 5.26173 25.7977 5.61173 23.7177 5.04173L21.4777 4.43173C18.2523 3.55656 14.7659 4.02546 11.8931 5.72435Z" fill="#F8312F"/>
<path d="M8.26758 12.6517C7.85758 12.6517 7.51758 12.3117 7.51758 11.9017V10.4117C7.51758 10.0017 7.85758 9.66174 8.26758 9.66174C8.67758 9.66174 9.01758 10.0017 9.01758 10.4117V11.9017C9.00758 12.3117 8.67758 12.6517 8.26758 12.6517Z" fill="#1C1C1C"/>
<path d="M17.9975 5.65173H17.0075C19.1175 5.65173 20.3475 8.02173 19.1375 9.74173L15.0075 15.6517H18.4875C19.4375 15.6517 20.3075 16.0317 20.9375 16.6517H21.0075L23.6075 13.0717C25.4575 10.5217 24.2075 6.89173 21.1675 6.07173C20.1575 5.80173 19.0975 5.65173 17.9975 5.65173Z" fill="#FF822D"/>
<path d="M26.8175 13.8317L21.7275 20.5017C21.4975 21.0617 21.1175 21.5517 20.6375 21.9217C20.0495 22.3802 19.3126 22.6499 18.5058 22.6517H15.6175C15.5675 22.6517 15.5175 22.6517 15.4675 22.6617C15.4375 22.6617 15.4075 22.6617 15.3775 22.6717C15.3175 22.6717 15.2475 22.6817 15.1875 22.6917H15.1575C15.0875 22.7017 15.0175 22.7117 14.9375 22.7117L15.0775 29.6517H17.9975C20.3575 29.6517 22.5475 28.9717 24.3975 27.8017C22.3675 28.4717 21.4475 26.8817 21.4475 26.8817L19.0675 22.6517L25.0175 22.6517C27.7575 22.6517 29.9975 20.4417 30.0075 17.7017V17.6517C30.0075 14.9317 29.0975 12.4217 27.5775 10.4117C27.5775 10.4117 27.5791 10.4175 27.5836 10.4289C27.6503 10.5989 28.2048 12.0132 26.8175 13.8317Z" fill="#FF822D"/>
</svg>
