<svg width="40" height="40" viewBox="0 0 40 40" fill="none" xmlns="http://www.w3.org/2000/svg">
<path d="M37.5249 4.3625L29.0874 4.7C28.5874 3.4125 27.3374 2.5 25.8624 2.5H16.2124C15.6999 2.5 15.2749 2.925 15.2749 3.4375C15.2749 3.95 15.6999 4.375 16.2124 4.375H24.1249V5.025H16.2124C15.6999 5.025 15.2749 5.45 15.2749 5.9625C15.2749 6.475 15.6999 6.9 16.2124 6.9H24.1249V7.55H16.2124C15.6999 7.55 15.2749 7.975 15.2749 8.4875C15.2749 9 15.6999 9.425 16.2124 9.425H25.8624C27.3249 9.425 28.5749 8.5125 29.0874 7.225L37.5249 7.5625V4.3625Z" fill="#D3D3D3"/>
<path d="M25.9251 37.7875H14.3251C9.3001 37.7875 5.2251 33.7125 5.2251 28.6875V25.0875H35.0251V28.6875C35.0251 33.7125 30.9501 37.7875 25.9251 37.7875Z" fill="#9B9B9B"/>
<path d="M27.5125 18.5625C31.5125 18.5625 34.7625 21.8125 34.7625 25.8125C34.7625 29.8125 31.5125 33.0625 27.5125 33.0625H12.525C8.525 33.0625 5.275 29.8125 5.275 25.8125C5.275 21.8125 8.525 18.5625 12.525 18.5625H27.5125ZM27.5125 15.7875H12.525C6.9875 15.7875 2.5 20.275 2.5 25.8125C2.5 31.35 6.9875 35.8375 12.525 35.8375H27.5125C33.05 35.8375 37.5375 31.35 37.5375 25.8125C37.525 20.275 33.0375 15.7875 27.5125 15.7875Z" fill="#D3D3D3"/>
<path d="M27.5124 18.5625C31.5124 18.5625 34.7624 21.8125 34.7624 25.8125C34.7624 29.8125 31.5124 33.0625 27.5124 33.0625H12.5249C8.5249 33.0625 5.2749 29.8125 5.2749 25.8125C5.2749 21.8125 8.5249 18.5625 12.4499 18.5625H27.4374" fill="#D3D3D3"/>
<path d="M23.1501 2.5C23.4953 2.5 23.7751 2.77982 23.7751 3.125V15.5736C27.3969 16.3266 30.6132 18.178 33.0751 20.7625C37.4751 25.4 34.1126 33.05 27.7251 33.05H12.5251C6.13761 33.05 2.77511 25.3875 7.17511 20.7625C9.85957 17.9335 13.4651 15.9829 17.5126 15.3897V5.63751C17.5126 5.29233 17.7924 5.01251 18.1376 5.01251C18.4828 5.01251 18.7626 5.29233 18.7626 5.63751V15.2512C19.1714 15.2203 19.5841 15.2032 20.0001 15.2004V7.69997C20.0001 7.35479 20.2799 7.07497 20.6251 7.07497C20.9703 7.07497 21.2501 7.35479 21.2501 7.69997V15.2348C21.6795 15.2615 22.1046 15.3034 22.5251 15.3599V3.125C22.5251 2.77982 22.8049 2.5 23.1501 2.5Z" fill="#FCD53F"/>
<path d="M32.0869 22.5411C32.5819 22.5269 32.9948 22.9166 33.0091 23.4117C33.1221 27.3396 30.0439 31.2092 25.4377 31.2092H14.5627C9.95746 31.2092 6.87828 27.3531 6.99129 23.4118C7.00549 22.9167 7.41832 22.5269 7.91338 22.5411C8.40843 22.5553 8.79825 22.9681 8.78405 23.4632C8.69707 26.4969 11.0679 29.4157 14.5627 29.4157H25.4377C28.9315 29.4157 31.3033 26.4854 31.2163 23.4633C31.202 22.9682 31.5918 22.5554 32.0869 22.5411Z" fill="#FFF478"/>
<path d="M25.9875 17.075L25.85 17.025C22.2 15.5875 18.15 15.5875 14.5 17.025L14.375 17.075C12.375 17.8625 11.0625 19.7875 11.0625 21.9375C11.0625 24.1 12.3875 26.0375 14.4125 26.8125L14.675 26.9125C18.3375 28.325 22.3875 28.3 26.025 26.8375C28.0125 26.0375 29.3125 24.125 29.3125 21.9875V21.9375C29.3125 19.8 27.9875 17.8625 25.9875 17.075Z" fill="#F8312F"/>
<path d="M20.1251 20.475C21.1468 20.475 21.9751 19.6467 21.9751 18.625C21.9751 17.6032 21.1468 16.775 20.1251 16.775C19.1034 16.775 18.2751 17.6032 18.2751 18.625C18.2751 19.6467 19.1034 20.475 20.1251 20.475Z" fill="#6D4534"/>
<path d="M16.2626 25.2625C17.2843 25.2625 18.1126 24.4342 18.1126 23.4125C18.1126 22.3908 17.2843 21.5625 16.2626 21.5625C15.2409 21.5625 14.4126 22.3908 14.4126 23.4125C14.4126 24.4342 15.2409 25.2625 16.2626 25.2625Z" fill="#6D4534"/>
<path d="M26.2376 23.55C26.2376 24.5717 25.4093 25.4 24.3876 25.4C23.3659 25.4 22.5376 24.5717 22.5376 23.55C22.5376 22.5282 23.3659 21.7 24.3876 21.7C25.4093 21.7 26.2376 22.5282 26.2376 23.55Z" fill="#6D4534"/>
</svg>
