<svg width="32" height="32" viewBox="0 0 32 32" fill="none" xmlns="http://www.w3.org/2000/svg">
<path d="M13.3645 15.8455L26.2433 29.461C26.897 30.152 27.9974 30.2318 28.7255 29.5903C29.4787 28.925 29.5349 27.7748 28.8518 27.0527L15.9434 13.4061C15.2721 12.6963 14.9813 11.7211 15.1171 10.7433C15.3999 8.63564 14.5499 6.13683 12.6654 4.14462C9.78579 1.10028 5.57933 0.408001 3.27083 2.59162C0.962321 4.77523 1.41982 9.01366 4.29946 12.058C6.18389 14.0502 8.63162 15.0377 10.7458 14.8663C11.7296 14.785 12.6931 15.1358 13.3645 15.8455Z" fill="#9B9B9B"/>
<path d="M4.56577 3.96109C2.82878 5.60411 3.17395 8.78961 5.33674 11.0761C7.49953 13.3626 10.6609 13.8842 12.3979 12.2412C14.1349 10.5982 13.7897 7.41268 11.6269 5.12619C9.46416 2.8397 6.30276 2.31807 4.56577 3.96109Z" fill="#636363"/>
</svg>
