<svg width="32" height="32" viewBox="0 0 32 32" fill="none" xmlns="http://www.w3.org/2000/svg">
<path d="M27.9001 2.00453L11.2601 3.69453C10.7801 3.74453 10.4201 4.17453 10.4601 4.65453C10.5001 5.14453 10.9201 5.50453 11.4001 5.47453L28.1001 4.61453C28.6001 4.58453 28.9901 4.15453 28.9501 3.65453L28.8801 2.82453C28.8401 2.32453 28.4001 1.95453 27.9001 2.00453Z" fill="#E39D89"/>
<path d="M12.4902 3.33447C12.7664 3.33447 12.9902 3.55833 12.9902 3.83447V18.3645C12.9902 18.6406 12.7664 18.8645 12.4902 18.8645C12.2141 18.8645 11.9902 18.6406 11.9902 18.3645V3.83447C11.9902 3.55833 12.2141 3.33447 12.4902 3.33447Z" fill="#FCD53F"/>
<path d="M28.0898 7.38443L11.3798 7.01443C10.8898 6.99443 10.4798 7.37443 10.4598 7.86443C10.4398 8.34443 10.8098 8.76443 11.2898 8.79443L27.9698 9.99443C28.4698 10.0344 28.9098 9.64443 28.9298 9.14443L28.9698 8.31443C28.9898 7.81443 28.5898 7.39443 28.0898 7.38443Z" fill="#E39D89"/>
<path d="M14.9697 7.12451C14.9697 6.84837 14.7459 6.62451 14.4697 6.62451C14.1936 6.62451 13.9697 6.84837 13.9697 7.12451V18.5945C13.9697 18.8707 14.1936 19.0945 14.4697 19.0945C14.7459 19.0945 14.9697 18.8707 14.9697 18.5945V7.12451Z" fill="#FCD53F"/>
<path d="M16.9997 7.12451C16.9997 6.84837 16.7759 6.62451 16.4997 6.62451C16.2236 6.62451 15.9997 6.84837 15.9997 7.12451V13.4745C15.9997 13.7507 16.2236 13.9745 16.4997 13.9745C16.7759 13.9745 16.9997 13.7507 16.9997 13.4745V7.12451Z" fill="#FCD53F"/>
<path d="M21.1602 25.3H8.71017L7.72017 28.85C7.56017 29.43 7.99017 30 8.60017 30H21.2802C21.8802 30 22.3202 29.43 22.1602 28.85L21.1602 25.3Z" fill="#CA0B4A"/>
<path d="M17.72 27.2146H12.14C7.09 27.2146 3 23.1146 3 18.0646V16.4046C3 16.0246 3.31 15.7146 3.69 15.7146H26.19C26.57 15.7146 26.88 16.0246 26.88 16.4046V18.0646C26.87 23.1146 22.78 27.2146 17.72 27.2146Z" fill="#F8312F"/>
</svg>
