<svg width="36" height="36" viewBox="0 0 36 36" fill="none" xmlns="http://www.w3.org/2000/svg">
<path d="M17.9766 2.25C18.5979 2.25 19.1016 2.75368 19.1016 3.375V8.33625C19.1016 8.95757 18.5979 9.46125 17.9766 9.46125C17.3552 9.46125 16.8516 8.95757 16.8516 8.33625V3.375C16.8516 2.75368 17.3552 2.25 17.9766 2.25Z" fill="#008463"/>
<path d="M20.4517 32.6363L26.3805 25.92C32.7592 18.6863 27.6292 7.30127 17.9767 7.30127C8.32422 7.30127 3.19423 18.6863 9.57298 25.92L15.5017 32.6363C16.818 34.1213 19.1355 34.1213 20.4517 32.6363Z" fill="#F8312F"/>
<path d="M10.8216 14.895C10.2479 14.895 9.77539 15.3675 9.77539 15.9413V16.9875C9.77539 17.5613 10.2479 18.0338 10.8216 18.0338C11.3954 18.0338 11.8679 17.5613 11.8679 16.9875V15.9413C11.8679 15.3563 11.3954 14.895 10.8216 14.895Z" fill="#1C1C1C"/>
<path d="M13.3529 21.4538C13.3529 20.88 13.8254 20.4075 14.3991 20.4075C14.9841 20.4075 15.4454 20.88 15.4454 21.4538V22.5C15.4454 23.0738 14.9729 23.5463 14.3991 23.5463C13.8254 23.5463 13.3529 23.0738 13.3529 22.5V21.4538Z" fill="#1C1C1C"/>
<path d="M20.5191 21.4538C20.5191 20.88 20.9916 20.4075 21.5654 20.4075C22.1504 20.4075 22.6116 20.88 22.6116 21.4538V22.5C22.6116 23.0738 22.1391 23.5463 21.5654 23.5463C20.9916 23.5463 20.5191 23.0738 20.5191 22.5V21.4538Z" fill="#1C1C1C"/>
<path d="M16.9416 15.9413C16.9416 15.3675 17.4141 14.895 17.9879 14.895C18.5616 14.895 19.0341 15.3563 19.0341 15.9413V16.9875C19.0341 17.5613 18.5616 18.0338 17.9879 18.0338C17.4141 18.0338 16.9416 17.5613 16.9416 16.9875V15.9413Z" fill="#1C1C1C"/>
<path d="M17.9879 25.5263C17.4141 25.5263 16.9416 25.9988 16.9416 26.5725V27.6188C16.9416 28.1925 17.4141 28.665 17.9879 28.665C18.5616 28.665 19.0341 28.1925 19.0341 27.6188V26.5725C19.0341 25.9988 18.5616 25.5263 17.9879 25.5263Z" fill="#1C1C1C"/>
<path d="M24.1191 15.9413C24.1191 15.3675 24.5916 14.895 25.1654 14.895C25.7391 14.895 26.2116 15.3563 26.2116 15.9413V16.9875C26.2116 17.5613 25.7391 18.0338 25.1654 18.0338C24.5916 18.0338 24.1191 17.5613 24.1191 16.9875V15.9413Z" fill="#1C1C1C"/>
<path d="M6.90674 12.87H13.1392C15.1068 12.87 16.8541 11.9432 17.9728 10.5046C19.0936 11.9432 20.8419 12.87 22.803 12.87H29.0355C29.0355 9.495 26.3017 6.75 22.9155 6.75H13.0267C9.65174 6.75 6.90674 9.495 6.90674 12.87Z" fill="#00D26A"/>
</svg>
