<svg width="32" height="32" viewBox="0 0 32 32" fill="none" xmlns="http://www.w3.org/2000/svg">
<path d="M25.8998 6.10005C23.8998 4.10005 21.4998 2.80005 18.8998 2.30005L2.2998 18.9C2.7998 21.5 4.0998 23.9 6.0998 25.9C11.5998 31.4 20.4998 31.4 25.8998 25.9C31.2998 20.4 31.3998 11.6 25.8998 6.10005Z" fill="#F3C07B"/>
<path d="M17 3.6C18.4 3.6 19.8 4.1 20.9 5.2C21.8269 6.17101 22.3447 7.37579 22.4533 8.60798C19.2812 12 12.4688 18.125 8.46137 22.4649C7.2805 22.3338 6.13246 21.8325 5.2 20.9C3 18.7 3 15.3 5.2 13.1L13.1 5.2C14.1 4.2 15.6 3.6 17 3.6ZM17 2C15.1 2 13.3 2.7 12 4.1L4.1 12C1.3 14.8 1.3 19.3 4.1 22.1C5.4 23.4 7.2 24.2 9.1 24.2C11 24.2 12.8 23.5 14.1 22.1L22 14.2C23.3 12.9 24.1 11.1 24.1 9.2C24.1 7.3 23.4 5.5 22 4.2C20.6 2.9 18.9 2 17 2Z" fill="#FFDEA7"/>
<path d="M20.8998 5.2C18.7998 3.1 15.2998 3.1 13.0998 5.2L5.1998 13.1C2.9998 15.2 2.9998 18.7 5.1998 20.9C7.3998 23.1 10.7998 23.1 12.9998 20.9L20.8998 13C22.9998 10.9 22.9998 7.4 20.8998 5.2Z" fill="#F3AD61"/>
<path d="M20.4003 4.7C20.3003 4.6 20.1003 4.4 20.0003 4.3C18.3003 2.9 15.9003 2.9 14.2003 4.3C14.2003 4.3 14.2003 4.3 14.1003 4.4C13.1003 5.3 11.7003 5.7 10.4003 5.5C9.10034 5.3 7.80034 5.8 6.80034 6.8C5.80034 7.8 5.40034 9.1 5.50034 10.4C5.70034 11.8 5.77232 12.3406 4.30035 14.1C2.82837 15.8594 2.83338 18.2187 4.30035 20C4.40035 20.1 4.40035 20.1 4.50035 20.2C5.50035 21.2 7.10035 21.2 8.00035 20.2L20.4003 7.8C21.3003 6.9 21.3003 5.5 20.4003 4.7Z" fill="#44911B"/>
<path d="M20.8001 9.39995C20.8001 12 18.7001 14.1 16.1001 14.1C13.5001 14.1 11.4001 12 11.4001 9.39995C11.4001 6.79995 13.5001 4.69995 16.1001 4.69995C18.7001 4.69995 20.8001 6.79995 20.8001 9.39995Z" fill="#F8312F"/>
<path d="M14.1002 16.1C14.1002 18.7 12.0002 20.8 9.4002 20.8C6.8002 20.8 4.7002 18.7 4.7002 16.1C4.7002 13.5 6.8002 11.4 9.4002 11.4C12.0002 11.4 14.1002 13.5 14.1002 16.1Z" fill="#F8312F"/>
<path d="M21.4936 6.30681C20.185 4.99767 18.0712 4.99767 16.8632 6.30681L6.29394 16.8806C4.98535 18.1898 4.98535 20.3046 6.29394 21.513C7.60252 22.8221 9.71638 22.8221 10.9243 21.513L21.4936 11.0399C22.8022 9.73072 22.8022 7.61595 21.4936 6.30681Z" fill="#7D4533"/>
<path d="M20.1998 10V13.7L13.6998 20.2H9.9998C9.2998 20.2 8.7998 19.7 8.7998 19V10C8.7998 9.30005 9.2998 8.80005 9.9998 8.80005H18.9998C19.6998 8.80005 20.1998 9.40005 20.1998 10Z" fill="#F9C23C"/>
<path d="M20.9006 13L13.0006 20.9C11.7006 22.2 10.0006 22.7 8.40062 22.5C8.19377 21.2588 8.5566 19.9378 9.40062 19C10.3006 18 10.7006 16.7 10.5006 15.3C10.4006 14 10.8006 12.7 11.7006 11.8C12.7006 10.8 14.0006 10.4 15.2006 10.6C16.5006 10.7 18.3935 9.65928 18.8006 9.49999C19.2077 9.34071 21.0352 8.27966 22.4914 8.52237C22.6468 9.75506 22.2843 11.5782 20.9006 13Z" fill="#86D72F"/>
</svg>
