<svg width="32" height="32" viewBox="0 0 32 32" fill="none" xmlns="http://www.w3.org/2000/svg">
<path d="M27.9029 21.2425L21.2529 27.8925C20.1529 28.9925 18.3729 28.9925 17.2729 27.8925L3.46289 14.0825L14.0929 3.45251L27.9029 17.2725C29.0029 18.3625 29.0029 20.1525 27.9029 21.2425Z" fill="#F9C23C"/>
<path d="M30.0022 19.6125C30.0022 18.6025 29.6022 17.6325 28.8822 16.9225L22.4222 10.4925C22.1422 10.2125 21.7222 10.1325 21.3622 10.2925L15.4722 12.8725C14.2922 13.3925 13.3622 14.3225 12.8422 15.5025L10.2622 21.3925C10.1022 21.7525 10.1822 22.1725 10.4622 22.4525L16.8022 28.8625C17.5122 29.5825 18.4922 29.9925 19.5022 29.9925H19.6322C20.8522 29.9925 21.8722 29.7925 22.5222 29.1725L29.1622 22.5325C29.9722 21.7225 30.0022 20.6425 30.0022 19.6125Z" fill="#FCD53F"/>
<path d="M15.1725 8.8125L21.1555 14.7955L20.4455 15.5055L14.4625 9.5225L15.1725 8.8125Z" fill="#F3AD61"/>
<path d="M18.4 17.6801L12.3525 11.6325L11.6425 12.3425L17.69 18.3901L18.4 17.6801Z" fill="#F3AD61"/>
<path d="M15.6032 20.5632L9.5125 14.4725L8.8125 15.1825L14.8932 21.2632L15.6032 20.5632Z" fill="#F3AD61"/>
<path d="M13.5911 14.2906C13.8053 14.0323 14.0443 13.7959 14.305 13.5846L26.208 25.4875L25.498 26.1975L13.5911 14.2906Z" fill="#F9C23C"/>
<path d="M11.7129 18.0824L12.1424 17.1019L23.368 28.3275L22.663 29.0325L11.7129 18.0824Z" fill="#F9C23C"/>
<path d="M28.318 23.3775L17.1002 12.1597L18.0877 11.7272L29.028 22.6675L28.318 23.3775Z" fill="#F9C23C"/>
<path d="M20.4027 17.0025L24.7227 12.6825C25.1127 12.2925 25.1127 11.6625 24.7227 11.2725C24.3327 10.8825 23.7027 10.8825 23.3127 11.2725L11.2827 23.3025C10.8927 23.6925 10.8927 24.3225 11.2827 24.7125C11.6727 25.1025 12.3027 25.1025 12.6927 24.7125L17.0027 20.4025V23.0125C17.0027 23.5625 17.4527 24.0125 18.0027 24.0125C18.5527 24.0125 19.0027 23.5625 19.0027 23.0125V19.0025H23.0127C23.5627 19.0025 24.0127 18.5525 24.0127 18.0025C24.0127 17.4425 23.5627 17.0025 23.0127 17.0025H20.4027Z" fill="#FFDEA7"/>
<path d="M10.5325 14.0825C8.5825 16.0325 5.4125 16.0325 3.4625 14.0825C1.5125 12.1325 1.5125 8.9625 3.4625 7.0125L7.0125 3.4625C8.9625 1.5125 12.1325 1.5125 14.0825 3.4625C16.0325 5.4125 16.0325 8.5825 14.0825 10.5325L10.5325 14.0825Z" fill="#FFDEA7"/>
<path d="M4.17195 13.3724C2.61195 11.8124 2.61195 9.28243 4.17195 7.71243L7.72195 4.16243C9.28195 2.60243 11.812 2.60243 13.382 4.16243C10.8118 6.78149 7.50445 10.0889 4.17195 13.3724Z" fill="#FFB02E"/>
<path d="M11.2222 3.04252C10.6322 2.94252 10.0222 3.12252 9.59217 3.54252L9.58217 3.55252C8.98217 4.15252 8.79217 5.00252 9.00217 5.76252C9.04217 5.89252 8.91217 6.02252 8.77217 5.98252C8.01217 5.77252 7.16217 5.96252 6.57217 6.56252C5.97217 7.16252 5.78217 8.00252 5.99217 8.76252C6.03217 8.90252 5.90217 9.03252 5.77217 8.99252C5.01217 8.78252 4.16217 8.97252 3.57217 9.57252L3.56217 9.58252C3.14217 10.0125 2.96217 10.6225 3.06217 11.2125C3.19217 12.0025 3.56217 12.7625 4.18217 13.3725C4.40863 13.599 4.65577 13.7926 4.9176 13.9533C5.34741 13.7344 5.38185 13.6327 5.67554 13.4219C9.12389 10.9467 13.6091 5.99219 13.6091 5.99219C13.6091 5.99219 13.7927 5.26953 13.97 4.91151C13.8184 4.64129 13.6355 4.38741 13.4022 4.15252C12.7722 3.55252 12.0122 3.18252 11.2222 3.04252Z" fill="#6D4534"/>
<path d="M4.8726 13.9326C6.4226 14.9026 8.4826 14.7226 9.8326 13.3726L13.3826 9.82259C14.7326 8.47259 14.9126 6.41259 13.9426 4.86259C13.0826 4.41259 12.0026 4.54259 11.2926 5.26259C10.6926 5.86259 10.5026 6.70259 10.7126 7.46259C10.7526 7.60259 10.6226 7.73259 10.4826 7.69259C9.7226 7.48259 8.8726 7.67259 8.2826 8.27259C7.6826 8.87259 7.4926 9.71259 7.7026 10.4726C7.7426 10.6126 7.6126 10.7326 7.4726 10.7026C6.7226 10.4926 5.8726 10.6826 5.2726 11.2826C4.5526 11.9926 4.4226 13.0726 4.8726 13.9326Z" fill="#A56953"/>
</svg>
