<svg width="36" height="36" viewBox="0 0 36 36" fill="none" xmlns="http://www.w3.org/2000/svg">
<path d="M33.0863 24.3112L32.4338 23.6588C26.0421 30.0503 12.2512 23.6588 12.2512 23.6588C12.2512 23.6588 5.85969 9.86786 12.2512 3.47627L11.5987 2.82375C10.8337 2.05875 9.59626 2.05875 8.83126 2.82375L7.27875 4.37626C0.57375 11.0813 0.57375 21.9488 7.27875 28.6425C13.9838 35.3475 24.8512 35.3475 31.545 28.6425L33.0975 27.09C33.8512 26.3138 33.8513 25.0762 33.0863 24.3112Z" fill="#008463"/>
<path d="M9.15848 26.7583C14.7272 32.3271 23.8881 32.3227 29.4569 26.7539L32.434 23.7437V23.6588L31.0953 22.3202C25.3984 28.017 14.6252 22.3202 14.6252 22.3202C14.6252 22.3202 7.87092 10.4895 13.5678 4.79264L12.2498 3.47803H12.1512L9.14972 6.46439C3.58097 12.0331 3.58973 21.1896 9.15848 26.7583Z" fill="#FFF3D7"/>
<path d="M10.3095 25.585C15.147 30.4225 23.0941 30.4401 27.9316 25.6026L31.095 22.4165V22.3201L13.5636 4.79651L13.4341 4.82082L10.2876 7.9673C5.4501 12.8048 5.47201 20.7475 10.3095 25.585Z" fill="#F8312F"/>
<path d="M15.6938 12.1049C15.6938 12.7822 15.1448 13.3312 14.4676 13.3312C13.7904 13.3312 13.2413 12.7822 13.2413 12.1049C13.2413 11.4277 13.7904 10.8787 14.4676 10.8787C15.1448 10.8787 15.6938 11.4277 15.6938 12.1049Z" fill="#1C1C1C"/>
<path d="M12.9601 19.575C13.6374 19.575 14.1864 19.0259 14.1864 18.3487C14.1864 17.6714 13.6374 17.1225 12.9601 17.1225C12.2829 17.1225 11.7339 17.6714 11.7339 18.3487C11.7339 19.0259 12.2829 19.575 12.9601 19.575Z" fill="#1C1C1C"/>
<path d="M17.5501 24.165C18.2273 24.165 18.7763 23.6161 18.7763 22.9388C18.7763 22.2616 18.2273 21.7126 17.5501 21.7126C16.8729 21.7126 16.3238 22.2616 16.3238 22.9388C16.3238 23.6161 16.8729 24.165 17.5501 24.165Z" fill="#1C1C1C"/>
<path d="M19.0688 17.9325C19.746 17.9325 20.2951 17.3835 20.2951 16.7063C20.2951 16.0291 19.746 15.48 19.0688 15.48C18.3916 15.48 17.8426 16.0291 17.8426 16.7063C17.8426 17.3835 18.3916 17.9325 19.0688 17.9325Z" fill="#1C1C1C"/>
<path d="M25.0089 21.4312C25.0089 22.1084 24.4599 22.6574 23.7826 22.6574C23.1054 22.6574 22.5564 22.1084 22.5564 21.4312C22.5564 20.7539 23.1054 20.205 23.7826 20.205C24.4599 20.205 25.0089 20.7539 25.0089 21.4312Z" fill="#1C1C1C"/>
</svg>
