<svg width="32" height="32" viewBox="0 0 32 32" fill="none" xmlns="http://www.w3.org/2000/svg">
<path d="M29.41 21.61L28.83 21.03C23.1486 26.7114 10.89 21.03 10.89 21.03C10.89 21.03 5.20862 8.77143 10.89 3.09002L10.31 2.51C9.63 1.83 8.53001 1.83 7.85001 2.51L6.47 3.89C0.51 9.85 0.51 19.51 6.47 25.46C12.43 31.42 22.09 31.42 28.04 25.46L29.42 24.08C30.09 23.39 30.09 22.29 29.41 21.61Z" fill="#008463"/>
<path d="M8.14022 23.7852C13.0902 28.7352 21.2332 28.7312 26.1832 23.7812L28.8296 21.1055V21.03L27.6397 19.8401C22.5757 24.904 12.9995 19.8401 12.9995 19.8401C12.9995 19.8401 6.99572 9.324 12.0597 4.2601L10.8881 3.09155H10.8004L8.13244 5.74609C3.18244 10.6961 3.19022 18.8352 8.14022 23.7852Z" fill="#FFF3D7"/>
<path d="M9.16444 22.7422C13.4644 27.0422 20.5285 27.0578 24.8285 22.7578L27.6404 19.9258V19.8401L12.057 4.26355L11.9418 4.28516L9.14497 7.08203C4.84497 11.382 4.86444 18.4422 9.16444 22.7422Z" fill="#F8312F"/>
<path d="M13.9496 10.7599C13.9496 11.3619 13.4616 11.85 12.8596 11.85C12.2577 11.85 11.7697 11.3619 11.7697 10.7599C11.7697 10.158 12.2577 9.66992 12.8596 9.66992C13.4616 9.66992 13.9496 10.158 13.9496 10.7599Z" fill="#1C1C1C"/>
<path d="M11.5197 17.4C12.1217 17.4 12.6097 16.9119 12.6097 16.3099C12.6097 15.7079 12.1217 15.22 11.5197 15.22C10.9177 15.22 10.4297 15.7079 10.4297 16.3099C10.4297 16.9119 10.9177 17.4 11.5197 17.4Z" fill="#1C1C1C"/>
<path d="M15.5997 21.48C16.2016 21.48 16.6897 20.9921 16.6897 20.3901C16.6897 19.7881 16.2016 19.3 15.5997 19.3C14.9977 19.3 14.5096 19.7881 14.5096 20.3901C14.5096 20.9921 14.9977 21.48 15.5997 21.48Z" fill="#1C1C1C"/>
<path d="M16.9496 15.94C17.5516 15.94 18.0396 15.452 18.0396 14.85C18.0396 14.248 17.5516 13.76 16.9496 13.76C16.3476 13.76 15.8596 14.248 15.8596 14.85C15.8596 15.452 16.3476 15.94 16.9496 15.94Z" fill="#1C1C1C"/>
<path d="M22.2297 19.0499C22.2297 19.6519 21.7417 20.14 21.1397 20.14C20.5377 20.14 20.0497 19.6519 20.0497 19.0499C20.0497 18.4479 20.5377 17.96 21.1397 17.96C21.7417 17.96 22.2297 18.4479 22.2297 19.0499Z" fill="#1C1C1C"/>
</svg>
